<?xml version="1.0" encoding="UTF-8" standalone="no"?>
<!-- Created with Inkscape (http://www.inkscape.org/) -->

<svg
   width="167.75471mm"
   height="167.75471mm"
   viewBox="0 0 167.75471 167.75471"
   version="1.1"
   id="svg1"
   xml:space="preserve"
   xmlns="http://www.w3.org/2000/svg"
   xmlns:svg="http://www.w3.org/2000/svg"><defs
     id="defs1" /><g
     id="g26"><path
       id="path21"
       style="fill-opacity:1;stroke:none;stroke-width:1.74935;paint-order:stroke fill markers"
       d="m 40.831826,158.71461 c -0.341843,-0.52172 -0.369056,-0.73678 -0.105998,-0.83771 0.403369,-0.15479 1.882732,-3.71154 2.844041,-6.83778 1.000298,-3.25301 0.668953,-4.41535 -2.061411,-7.23125 -0.316437,-0.32634 -0.576372,-0.71995 -0.577623,-0.87467 -0.0013,-0.15472 -0.82126,-1.21984 -1.822243,-2.36695 -2.932449,-3.3605 -4.134455,-4.80354 -4.423716,-5.31074 -0.149211,-0.26164 -1.00202,-1.34267 -1.895133,-2.4023 -0.89312,-1.05962 -1.951847,-2.35664 -2.35274,-2.88223 -0.885962,-1.16156 -3.020896,-3.72199 -3.769728,-4.52105 -0.300554,-0.32071 -0.896823,-1.10792 -1.32504,-1.74935 -0.428217,-0.64143 -1.171676,-1.62544 -1.65213,-2.18668 -1.055565,-1.23309 -5.12395,-6.77155 -6.528021,-8.88688 -0.556663,-0.83863 -1.307163,-1.85367 -1.66779,-2.25565 -0.360626,-0.40195 -0.786887,-0.93901 -0.947246,-1.19342 -1.479527,-2.34741 -4.7910662,-6.61537 -5.1329024,-6.61537 -0.1212091,0 -0.2773901,0.29521 -0.3470785,0.656 -0.069691,0.36081 -0.1227276,0.0939 -0.117864,-0.5933 0.016889,-2.38429 0.9801004,-2.626378 2.5364799,-0.63751 0.400893,0.5123 1.056902,1.28775 1.457794,1.72322 1.275856,1.38594 2.622886,3.22443 6.573531,8.97186 0.905063,1.31669 2.059489,2.85382 2.565408,3.41584 0.505905,0.56202 1.379042,1.6994 1.940287,2.52752 0.561253,0.82812 1.250064,1.75103 1.530686,2.0509 0.28063,0.29987 0.510229,0.67642 0.510229,0.83679 0,0.16034 0.115243,0.29154 0.256103,0.29154 0.211676,0 1.259195,1.26634 3.096818,3.7437 0.16036,0.21617 0.586764,0.69095 0.947573,1.05503 0.360802,0.36409 0.656004,0.75543 0.656004,0.86964 0,0.11422 0.40642,0.61409 0.903153,1.11082 0.496733,0.49674 1.238203,1.43391 1.647709,2.0826 0.409498,0.6487 1.357398,1.8394 2.106438,2.64601 0.749046,0.80661 1.673526,1.92578 2.054402,2.48703 0.380878,0.56124 0.92336,1.28285 1.205508,1.60358 1.128227,1.28241 4.528202,5.32743 5.38785,6.41 l 0.913826,1.15081 1.27287,-0.86483 c 0.700076,-0.47566 1.404071,-0.9694 1.564431,-1.09722 0.273189,-0.21776 1.108147,-0.77341 4.883607,-3.24989 2.070925,-1.35841 3.973972,-2.67395 6.139419,-4.24402 0.995239,-0.7216 2.267834,-1.562 2.827997,-1.86754 0.560157,-0.30554 2.30158,-1.3921 3.869832,-2.41456 1.568253,-1.02246 3.405076,-2.12784 4.081825,-2.45639 0.676748,-0.32856 1.492852,-0.74295 1.813576,-0.92084 0.320714,-0.1779 1.435924,-0.79485 2.47824,-1.37099 3.349917,-1.85166 8.832693,-4.06029 11.207232,-4.51461 2.528609,-0.48381 9.493438,-0.59512 9.493438,-0.15173 0,0.0837 0.452024,0.39579 1.004498,0.69332 1.117386,0.60176 1.891332,0.45905 2.113283,-0.38966 0.08078,-0.3088 0.31377,-0.4974 0.517806,-0.4191 0.204047,0.0784 0.444386,-0.0489 0.534086,-0.28267 0.212409,-0.5535 2.862328,-2.30568 4.882198,-3.22819 3.61219,-1.64976 7.67522,-2.17637 18.20887,-2.36012 3.68822,-0.0643 7.16505,-0.18515 7.7263,-0.26847 0.56125,-0.0833 2.92287,-0.22932 5.24807,-0.32445 2.32516,-0.0952 4.8836,-0.21957 5.68537,-0.27649 8.47156,-0.60141 13.96257,-1.31131 14.52969,-1.87843 0.40601,-0.406 1.36026,0.45876 1.36026,1.2327 0,1.22574 1.81473,6.83469 2.65193,8.19658 0.58731,0.95537 0.77195,1.49691 0.55589,1.63045 -0.17791,0.10996 -2.51407,0.5574 -5.19146,0.99431 -2.67739,0.4369 -6.04878,1.04921 -7.492,1.36068 -4.76647,1.02867 -6.67499,1.4044 -9.47566,1.86546 -1.5234,0.25077 -3.95063,0.71232 -5.39384,1.02567 -1.44322,0.31332 -4.56498,0.96265 -6.93724,1.44292 -2.37228,0.48027 -4.42468,0.9421 -4.56091,1.02629 -0.31345,0.19373 -3.36006,0.86745 -7.30739,1.61596 -1.68374,0.31928 -3.42276,0.72823 -3.86446,0.90879 -0.7336,0.29986 -0.91025,0.22995 -2.04091,-0.8077 -2.77741,-2.54895 -4.96967,-3.6008 -7.50467,-3.6008 -3.172903,0 -7.645688,4.23057 -9.219614,8.72033 -0.49356,1.4079 -0.677836,1.61851 -1.717311,1.96266 -0.640428,0.21206 -3.919635,1.31897 -7.287141,2.45983 -3.367507,1.14084 -6.778745,2.21053 -7.580523,2.37708 -1.60299,0.33301 -7.243226,2.44135 -8.155638,3.04865 -0.316305,0.21051 -0.84767,0.38276 -1.18081,0.38276 -0.333144,0 -0.730354,0.11816 -0.882694,0.26259 -0.152335,0.14442 -1.720195,0.82286 -3.484125,1.50764 -3.749674,1.45566 -5.531388,2.25327 -11.107274,4.97235 -2.260427,1.10231 -4.193675,2.00419 -4.296112,2.00419 -0.102434,0 -0.825929,0.39361 -1.607776,0.87468 -1.71953,1.05803 -2.171804,1.08624 -2.770336,0.17276 z M 128.8476,78.066834 c -0.53362,-0.340643 -1.27908,-1.122891 -1.38344,-1.451726 -0.094,-0.296101 0.18096,-0.70691 1.3162,-1.966649 1.1435,-1.268903 2.50057,-2.471093 2.79191,-2.473279 0.0505,-2.66e-4 0.0666,0.762472 0.0365,1.725932 -0.059,1.88816 -0.20854,2.650266 -0.65112,3.319035 -0.28073,0.424215 -1.21745,1.139247 -1.49246,1.139247 -0.0876,0 -0.36554,-0.131653 -0.6176,-0.29256 z m -16.48013,-5.656365 c -0.51247,-0.267404 -0.75962,-0.644401 -0.66649,-1.016648 0.10046,-0.401166 1.5468,-1.863712 1.93795,-1.959546 0.46297,-0.113434 0.60964,0.157555 0.53468,0.98783 -0.084,0.930745 -0.23386,1.403543 -0.55708,1.758146 -0.35545,0.389936 -0.78963,0.469967 -1.24906,0.230218 z m -25.318259,2.870595 c -0.792568,-0.483328 -0.855943,-1.071989 -0.201366,-1.870315 0.519072,-0.633071 1.672478,-1.648576 1.872435,-1.648576 0.462,0 0.422195,1.329949 -0.06991,2.334013 -0.272874,0.556834 -0.994676,1.377611 -1.210545,1.376534 -0.04239,-2.11e-4 -0.218167,-0.08645 -0.390668,-0.191656 z M 72.173712,76.65114 c -0.395984,-0.201532 -0.764148,-0.660481 -0.932011,-1.161841 -0.152029,-0.454066 -0.150675,-1.404332 0.0023,-1.692243 0.533253,-1.002899 3.259466,-3.266057 3.934316,-3.266057 0.190568,0 0.197803,0.06059 0.144439,1.211199 -0.05848,1.261414 -0.335994,2.802982 -0.663455,3.685834 -0.154647,0.416924 -0.299807,0.589637 -0.763781,0.908853 -0.680177,0.467936 -1.224661,0.567309 -1.721905,0.314255 z m 22.268761,-2.376682 c -0.395995,-0.201531 -0.76416,-0.660468 -0.932024,-1.16184 -0.152028,-0.454077 -0.150674,-1.404332 0.0023,-1.692242 0.533254,-1.002899 3.259466,-3.266058 3.934328,-3.266058 0.190557,0 0.197792,0.06059 0.144426,1.211211 -0.05848,1.261392 -0.335993,2.802971 -0.663453,3.685823 -0.154647,0.416924 -0.299796,0.589637 -0.763782,0.908852 -0.680166,0.467937 -1.224661,0.56731 -1.721893,0.314254 z m -38.118858,7.18707 c -0.176522,-0.10764 -0.422765,-0.406038 -0.547207,-0.66311 -0.210204,-0.434213 -0.215055,-0.489088 -0.06827,-0.772937 0.148937,-0.287999 2.113096,-2.188476 2.347818,-2.271692 0.0744,-0.0263 0.09471,0.366532 0.06397,1.236978 -0.05287,1.496736 -0.259812,2.113916 -0.824075,2.457944 -0.423641,0.25827 -0.566587,0.260168 -0.972219,0.01288 z m 13.98715,-19.327966 c -0.447507,-0.539213 0.503236,-2.436837 1.48069,-2.955376 0.636,-0.337392 0.730347,-0.223859 0.718361,0.864409 -0.01231,1.109974 -0.261766,1.708765 -0.823072,1.975126 -0.571394,0.271143 -1.202966,0.324309 -1.375979,0.115841 z m -16.782784,7.826309 c -0.446099,-0.193919 -1.315095,-1.017912 -1.471355,-1.395165 -0.06909,-0.16682 -0.09817,-0.412752 -0.0646,-0.546514 0.138876,-0.553328 3.365066,-3.986284 4.131835,-4.396639 0.341086,-0.182544 0.417374,-0.08977 0.511805,0.622052 0.148846,1.122035 -0.380343,4.417134 -0.816213,5.082364 -0.225035,0.34344 -1.128874,0.787961 -1.591788,0.782857 -0.20148,-0.0023 -0.516338,-0.06925 -0.699693,-0.148955 z m 7.239842,-18.147593 c -0.401765,-0.203917 -0.771956,-0.657394 -0.772602,-0.946415 -2.67e-4,-0.16145 0.354061,-0.547125 1.208487,-1.315023 0.664955,-0.597616 1.25638,-1.070991 1.314288,-1.051926 0.17488,0.05759 0.17797,1.167833 0.0052,1.842484 -0.199711,0.779562 -0.497514,1.277161 -0.883946,1.476984 -0.368294,0.190456 -0.48572,0.189635 -0.871356,-0.0055 z m 41.904617,32.863085 c -0.88941,-0.824271 -0.79589,-1.964717 0.22713,-2.769425 0.66167,-0.520458 0.63767,-0.529613 -2.29482,-0.87637 -1.629913,-0.192732 -3.619475,-0.470923 -4.421264,-0.618201 -1.422287,-0.261267 -1.411634,-0.264474 0.437342,-0.131833 1.042315,0.07479 3.272742,0.268625 4.956492,0.430773 2.95596,0.284682 3.07893,0.27333 3.5716,-0.329545 0.49595,-0.606904 0.51023,-0.608081 0.51023,-0.04206 0,0.705146 0.74378,0.835957 6.36971,1.120272 3.56601,0.180215 3.96327,0.257084 4.75013,0.919184 0.47229,0.397393 0.78703,0.794199 0.69944,0.881776 -0.0875,0.08755 -0.48178,-0.143773 -0.876,-0.514134 -0.65707,-0.617269 -1.13261,-0.700396 -5.70803,-0.997827 -2.74519,-0.178451 -5.04615,-0.269557 -5.11325,-0.202453 -0.0671,0.06714 -0.122,0.685437 -0.122,1.37407 0,0.912558 -0.17303,1.413253 -0.6381,1.846534 -0.83104,0.774235 -1.44068,0.750677 -2.34861,-0.09078 z m 2.33171,11.650911 c -0.28008,-0.212629 -0.58743,-0.777543 -0.68298,-1.255377 -0.15571,-0.778508 0.002,-1.025238 1.51504,-2.374018 0.92884,-0.827855 1.79207,-1.401935 1.9183,-1.275706 0.12622,0.126205 0.12393,1.106266 -0.005,2.1779 -0.32716,2.717435 -1.38018,3.763534 -2.74529,2.727201 z m 6.64848,-7.240279 c -0.7822,-1.116732 -0.53966,-1.740903 1.35601,-3.489673 0.99543,-0.918295 1.84038,-1.639143 1.87765,-1.601868 0.0373,0.03729 -0.0103,1.101995 -0.10608,2.36606 -0.12683,1.676884 -0.31918,2.44364 -0.71142,2.835884 -0.7326,0.732599 -1.86186,0.68101 -2.41618,-0.110415 z m 5.205,10.277494 c -0.77574,-0.313689 -1.4071,-1.816327 -1.1663,-2.775749 0.17817,-0.709861 5.28143,-5.979076 5.79076,-5.979076 0.13668,0 0.15554,0.619987 0.042,1.377744 -0.30101,2.007185 -0.33396,2.381174 -0.37504,4.257182 -0.0319,1.462923 -0.15559,1.817271 -0.88946,2.551147 -0.88452,0.884517 -2.1131,1.089921 -3.40188,0.568752 z m -21.060662,2.815851 c -1.017414,-1.08299 -0.80544,-1.83481 1.00878,-3.57799 2.104743,-2.022321 2.424008,-2.033762 2.114491,-0.0758 -0.130641,0.826436 -0.164009,1.62157 -0.07408,1.76695 0.297604,0.48151 -0.555152,2.02309 -1.269313,2.29461 -0.97893,0.37218 -1.065752,0.35229 -1.779797,-0.40777 z m -14.272324,-1.81999 c -1.201179,-0.841335 -0.866773,-1.922923 1.129105,-3.651984 l 1.777079,-1.539516 -0.179927,2.312452 c -0.143961,1.850197 -0.30166,2.414454 -0.788927,2.822688 -0.749422,0.62787 -1.106545,0.63826 -1.93733,0.0563 z m 6.203722,-7.471282 c -1.199869,-1.425981 -0.874572,-2.241697 1.969468,-4.93869 1.322102,-1.253758 2.544311,-2.283523 2.716003,-2.288372 0.21021,-0.0055 0.240971,0.491196 0.09422,1.521837 -0.119903,0.841883 -0.227577,2.332804 -0.239283,3.313176 -0.0182,1.52156 -0.133807,1.894994 -0.789938,2.551136 -1.13857,1.138559 -2.714782,1.0717 -3.750429,-0.159087 z M 73.400214,91.499373 c -0.911148,-0.387495 -1.561885,-1.463068 -1.561885,-2.581586 0,-1.00655 0.249292,-1.325621 2.779178,-3.557187 0.636278,-0.561239 1.571962,-1.545251 2.079293,-2.186689 0.507331,-0.641426 0.997185,-1.091842 1.088579,-1.000913 0.09143,0.09088 -0.01376,1.974971 -0.23368,4.186773 -0.320902,3.227417 -0.510494,4.132109 -0.960231,4.581846 -0.652912,0.652901 -2.293354,0.939613 -3.191254,0.557756 z m -17.45183,14.810357 c -0.975509,-0.54273 -1.590263,-1.51014 -1.597089,-2.51327 -0.0068,-0.98992 1.240786,-2.46305 4.773703,-5.637035 l 1.42727,-1.282254 -0.181543,1.312016 c -0.09985,0.721613 -0.259452,2.492833 -0.354686,3.936053 -0.154394,2.33972 -0.257772,2.7079 -0.954164,3.39817 -0.910052,0.90206 -2.282458,1.24867 -3.113491,0.78632 z M 39.023283,164.0729 c -0.328803,-0.12164 -0.98085,-0.72708 -1.449,-1.34543 -0.468151,-0.61834 -0.95346,-1.25546 -1.078463,-1.41583 -0.12501,-0.16034 -0.662667,-0.94755 -1.194807,-1.74934 -1.024148,-1.5431 -2.999083,-4.40854 -4.778678,-6.93341 -0.589934,-0.83699 -1.969159,-2.83381 -3.064958,-4.43738 -1.095792,-1.60357 -2.701684,-3.89959 -3.568639,-5.10229 -0.866957,-1.20268 -1.585081,-2.35068 -1.595831,-2.55113 -0.01076,-0.20045 -0.1432,-0.36445 -0.294328,-0.36445 -0.151128,0 -1.267562,-1.47602 -2.480964,-3.28002 -1.213402,-1.80403 -2.838416,-4.19845 -3.611136,-5.32096 -2.050451,-2.97861 -6.5065519,-9.4923 -8.6764663,-12.6828 -1.0360845,-1.52339 -2.7297247,-3.98258 -3.7636452,-5.46485 -1.6191322,-2.32125 -1.8548471,-2.82007 -1.6995273,-3.59664 0.099174,-0.4959 0.3912699,-0.97175 0.6490923,-1.05748 2.3185646,-0.77084 2.8926604,-1.27094 3.6602631,-3.18837 0.5487723,-1.3708 0.782088,-2.52847 0.8273218,-4.10502 l 0.062971,-2.195795 2.6240276,-0.941733 c 1.443216,-0.517951 4.264048,-1.695371 6.268516,-2.616497 2.004462,-0.921114 4.956491,-2.235604 6.560068,-2.921086 1.603569,-0.685481 5.014809,-2.231954 7.580524,-3.436606 4.769335,-2.239301 11.335713,-4.621507 14.723717,-5.341601 3.862367,-0.820931 11.783483,-0.348211 14.719192,0.878403 1.444991,0.603763 1.504196,0.592433 1.832935,-0.350598 0.783054,-2.246258 5.632334,-5.373526 9.857256,-6.356872 1.109674,-0.258282 2.411192,-0.590314 2.892268,-0.73787 1.880024,-0.576654 9.310572,-0.928894 12.145457,-0.575766 1.498223,0.186629 4.364058,0.526717 6.368524,0.755758 2.004466,0.229041 4.747624,0.55951 6.095898,0.734375 1.348262,0.174855 4.956309,0.523366 8.017859,0.774457 3.06154,0.251091 6.55046,0.538469 7.75315,0.638619 2.55663,0.212896 2.8929,0.402598 6.59035,3.717937 1.45988,1.308997 3.16549,2.706261 3.79027,3.105019 0.62475,0.398747 2.11995,1.596963 3.32262,2.662682 1.20269,1.065719 2.7115,2.291601 3.35294,2.724171 0.64142,0.432592 1.96831,1.522902 2.94865,2.422932 0.98034,0.90002 2.66988,2.280859 3.75451,3.068532 1.08464,0.787663 2.47903,1.825728 3.09862,2.306803 6.18847,4.804996 13.82445,10.361966 15.73636,11.451866 l 1.63034,0.9294 0.32581,2.26457 c 0.44466,3.09044 1.14041,5.27417 1.91705,6.01686 1.26876,1.21329 5.15275,4.53621 5.58464,4.77791 0.35706,0.19982 0.37957,0.4154 0.12079,1.15769 -0.30242,0.86754 -0.41315,0.92162 -2.26476,1.10594 -1.86647,0.18583 -5.4192,0.7489 -12.00557,1.9028 -3.303,0.57867 -8.23814,1.61145 -13.12014,2.74566 -1.68377,0.39118 -4.4933,0.9199 -6.24344,1.17492 -3.5676,0.51988 -10.8138,2.01786 -11.87135,2.45411 -0.37991,0.15672 -2.52001,0.70305 -4.75576,1.21408 -2.90859,0.66482 -4.77484,1.28372 -6.56007,2.17552 -2.82769,1.41254 -5.85954,2.64847 -7.93571,3.23498 -0.77604,0.21923 -2.099779,0.60552 -2.941669,0.8584 -3.051516,0.91663 -5.073727,1.26926 -7.33622,1.27931 -1.350976,0.005 -2.972387,0.22004 -3.913054,0.51655 -1.228245,0.38717 -1.634483,0.42147 -1.726376,0.14579 -0.14313,-0.42936 -0.946272,-0.4879 -0.946272,-0.0691 0,0.16035 0.164013,0.29669 0.364457,0.30297 0.57095,0.0179 -0.971682,0.66374 -6.487183,2.71601 -1.523391,0.56685 -3.984641,1.49709 -5.469447,2.06719 -1.484797,0.57011 -3.010351,1.03657 -3.390111,1.03657 -0.379761,0 -0.838542,0.17839 -1.019512,0.39643 -0.180961,0.21807 -1.607442,0.89127 -3.169957,1.49603 -1.562508,0.60477 -4.284143,1.75251 -6.048072,2.55052 -1.76393,0.79804 -3.797554,1.61488 -4.51916,1.81522 -1.617202,0.44899 -6.088429,2.32766 -10.350332,4.34887 -5.050277,2.39511 -5.200121,2.45183 -5.845874,2.21295 z m 1.326716,-0.86611 c 0,-0.16037 -0.131204,-0.29156 -0.291563,-0.29156 -0.160354,0 -0.291557,0.13119 -0.291557,0.29156 0,0.16035 0.131203,0.29155 0.291557,0.29155 0.160359,0 0.291563,-0.1312 0.291563,-0.29155 z m 3.460561,-4.1816 c 0.902946,-0.53594 2.100916,-1.14925 2.662169,-1.36291 0.56125,-0.21366 1.348457,-0.6077 1.74935,-0.87562 0.400893,-0.26793 1.516108,-0.84958 2.478252,-1.29258 0.962144,-0.44299 2.555315,-1.18489 3.54039,-1.64865 0.985067,-0.46376 1.90347,-0.84376 2.040908,-0.84442 0.137435,-6.5e-4 0.895317,-0.32868 1.684192,-0.72889 0.788869,-0.40023 1.59542,-0.72769 1.792317,-0.72769 0.196902,0 1.125881,-0.37902 2.064391,-0.84227 0.938511,-0.46324 2.359176,-1.06213 3.157028,-1.33087 0.797854,-0.26873 1.585062,-0.59319 1.749352,-0.72099 0.625368,-0.48653 5.897037,-2.31691 7.158085,-2.48537 0.725874,-0.097 1.644281,-0.33817 2.040909,-0.53601 0.396627,-0.19784 3.476378,-1.26598 6.843884,-2.37365 8.076313,-2.65653 7.903322,-2.57579 8.32777,-3.8869 0.925631,-2.85927 3.947123,-7.03919 4.75496,-6.578 0.180935,0.10331 0.238661,0.0874 0.128292,-0.0353 -0.303336,-0.33726 1.238409,-1.63775 2.160134,-1.8221 0.445687,-0.0891 0.810346,-0.27687 0.810346,-0.41718 0,-0.45976 2.171791,-0.26746 3.920441,0.34714 1.69454,0.59558 3.81624,2.05853 4.99958,3.4473 0.57644,0.6765 0.68248,0.69725 1.89514,0.37102 0.70649,-0.19007 2.59654,-0.60323 4.20011,-0.91814 1.60358,-0.31491 4.94921,-1.03866 7.43475,-1.60831 8.40767,-1.92694 12.46654,-2.76903 18.36248,-3.80961 2.32203,-0.40982 5.27406,-0.98562 6.56007,-1.27954 1.286,-0.29391 3.5846,-0.74832 5.10799,-1.00977 6.8736,-1.17969 8.76253,-1.54496 8.9479,-1.73034 0.10931,-0.1093 -0.28913,-1.14745 -0.88542,-2.30696 -1.00468,-1.9537 -2.11709,-5.46466 -2.44854,-7.72807 -0.14704,-1.00415 -1.25785,-2.07825 -3.86458,-3.73691 -0.72161,-0.45916 -2.80337,-1.95297 -4.62613,-3.31958 -1.82276,-1.3666 -4.02162,-2.96867 -4.88634,-3.56013 -0.86472,-0.59148 -2.5222,-1.85087 -3.68329,-2.79866 -1.1611,-0.94777 -2.70148,-2.122871 -3.42309,-2.611304 -0.7216,-0.488433 -2.35419,-1.787476 -3.62796,-2.886753 -1.27376,-1.099264 -4.02899,-3.367062 -6.12272,-5.03954 -2.09374,-1.672468 -3.938,-3.190466 -4.09836,-3.373321 -0.16036,-0.182856 -0.63691,-0.545794 -1.05902,-0.806516 -0.42211,-0.260746 -1.76144,-1.395698 -2.9763,-2.52214 -1.21488,-1.126441 -2.50953,-2.10951 -2.87704,-2.184603 -0.36748,-0.07513 -1.91457,-0.213628 -3.43797,-0.307852 -1.5234,-0.09422 -3.58782,-0.251368 -4.58761,-0.349222 -1.7322,-0.169528 -1.80966,-0.210353 -1.64486,-0.866983 0.22038,-0.878069 -0.59928,-0.960286 -1.0565,-0.105976 -0.26506,0.495269 -0.60701,0.582235 -2.26982,0.577253 -1.07677,-0.0033 -2.810586,-0.131211 -3.852911,-0.284404 -1.042317,-0.153205 -3.27274,-0.415437 -4.956493,-0.582734 -1.683753,-0.167299 -4.438985,-0.516109 -6.122737,-0.775146 -2.31102,-0.355524 -4.075259,-0.42559 -7.198044,-0.285868 -9.758313,0.436631 -17.059924,3.391708 -18.041236,7.301578 -0.169586,0.675672 1.424211,2.350692 17.508448,18.400741 14.381152,14.35059 17.631474,17.73395 17.355726,18.06622 -0.26848,0.32347 -0.502027,0.3403 -1.11894,0.0806 -0.428797,-0.18053 -6.94611,-6.50491 -14.482899,-14.05417 C 74.360324,100.7158 66.212311,92.69891 63.790429,90.449755 l -4.403428,-4.089374 -3.322879,-0.556557 c -4.20228,-0.703835 -8.440067,-0.721791 -11.486527,-0.04861 -4.532381,1.001446 -7.642533,2.254692 -23.616255,9.516244 -2.886427,1.312149 -6.042953,2.68693 -7.014493,3.05506 -3.110418,1.178575 -5.0007724,2.137832 -5.1912995,2.634342 -0.1019925,0.26582 -0.1854469,0.98028 -0.1854469,1.5877 0,1.3107 -0.8309347,4.031 -1.8952107,6.20454 l -0.7650592,1.56245 2.1319156,3.16411 c 1.1725626,1.74027 2.8535297,4.20482 3.7354947,5.47676 5.338677,7.69935 7.550747,10.92376 8.455205,12.32469 0.561246,0.86934 1.639742,2.47141 2.396651,3.56017 0.756903,1.08874 1.768702,2.56996 2.248437,3.29156 1.434598,2.15789 3.586497,5.17064 4.866865,6.81382 0.661389,0.84881 1.579798,2.11934 2.040907,2.8234 0.461115,0.70406 1.067987,1.51334 1.348609,1.7984 0.280629,0.28506 0.510228,0.62458 0.510228,0.7545 0,0.12991 0.365915,0.62192 0.813143,1.09334 0.447222,0.47143 1.265344,1.44754 1.818043,2.16915 0.552705,0.72161 1.182381,1.49696 1.399287,1.72303 0.21691,0.22604 0.700742,0.88206 1.07519,1.45779 0.912281,1.4027 2.654963,3.23348 3.077873,3.23348 0.187644,0 1.079936,-0.4385 1.982881,-0.97444 z m -7.833946,0.0997 c 0,-0.16036 -0.138943,-0.29155 -0.308769,-0.29155 -0.169819,0 -0.227676,0.13119 -0.128569,0.29155 0.09911,0.16036 0.238055,0.29156 0.308769,0.29156 0.07071,0 0.128569,-0.1312 0.128569,-0.29156 z m 21.283784,-4.09097 c 0,-0.34905 -0.822375,-0.72345 -1.062223,-0.48361 -0.255319,0.25532 0.177748,0.78432 0.642091,0.78432 0.231079,0 0.420132,-0.13533 0.420132,-0.30071 z M 28.979209,144.83855 c 0,-0.16034 -0.131204,-0.29156 -0.291563,-0.29156 -0.160353,0 -0.291556,0.13122 -0.291556,0.29156 0,0.16036 0.131203,0.29156 0.291556,0.29156 0.160359,0 0.291563,-0.1312 0.291563,-0.29156 z m 70.265641,-11.9539 c 0,-0.16036 -0.196802,-0.29156 -0.437337,-0.29156 -0.240534,0 -0.437336,0.1312 -0.437336,0.29156 0,0.16035 0.196802,0.29155 0.437336,0.29155 0.240535,0 0.437337,-0.1312 0.437337,-0.29155 z m 33.52926,-39.068842 c 0,-0.160363 -0.13896,-0.29155 -0.30878,-0.29155 -0.16982,0 -0.22768,0.131187 -0.12857,0.29155 0.0991,0.160362 0.23805,0.291562 0.30878,0.291562 0.0707,0 0.12857,-0.1312 0.12857,-0.291562 z M 121.5491,62.789604 c -1.71973,-0.349377 -7.03085,-2.853318 -8.74678,-4.123676 -1.06375,-0.787529 -4.36657,-2.461184 -4.85695,-2.461184 -0.19492,0 0.0184,0.389137 0.47408,0.864753 l 0.8285,0.864764 -0.79466,0.302137 c -0.43706,0.166166 -1.70375,0.452257 -2.81486,0.635756 -3.3387,0.551375 -6.157314,-0.132864 -11.237294,-2.727921 l -1.199215,-0.61262 -1.111339,1.23011 c -0.611232,0.676559 -1.449196,1.403044 -1.862137,1.614396 -1.121836,0.57418 -3.505974,0.815938 -4.917884,0.498709 -1.530814,-0.34395 -4.484482,-2.251906 -5.083529,-3.283757 l -0.440894,-0.759443 3.691926,-0.164202 c 5.124876,-0.227931 9.0452,-0.987662 8.622839,-1.671069 -0.107974,-0.17471 -2.197354,-0.290318 -5.246411,-0.290318 -5.366745,0 -7.091768,-0.252245 -10.716524,-1.566991 -2.679539,-0.971916 -4.198535,-2.168402 -5.810035,-4.576454 -1.998734,-2.986714 -2.401269,-4.433258 -2.179134,-7.830926 0.10033,-1.534642 0.382128,-3.621148 0.62622,-4.636698 0.244093,-1.015528 0.364162,-1.975282 0.26682,-2.13278 -0.226449,-0.3664 -1.213036,0.515465 -1.759997,1.573172 -0.228237,0.441359 -0.553892,0.802476 -0.723672,0.802476 -0.524201,0 -3.576248,-2.557184 -4.254895,-3.564998 -1.297108,-1.926267 -2.127288,-4.740811 -2.127288,-7.212127 0,-1.269736 0.131204,-2.389697 0.291557,-2.488804 0.160359,-0.0991 0.291557,-0.377374 0.291557,-0.618378 0,-2.542313 6.088885,-9.016236 9.519128,-10.121085 2.084242,-0.6713097 4.622794,-1.069247 6.788821,-1.0641976 2.15109,0.00554 3.009052,0.3295909 2.422256,0.9163866 -0.199091,0.199102 -0.362005,0.532566 -0.362005,0.741044 0,0.635591 0.977165,0.424548 2.047367,-0.442191 1.287114,-1.0423827 4.174888,-2.7710669 5.641651,-3.377194 1.478259,-0.6108877 4.875849,-0.6178899 6.046612,-0.012429 L 93.741022,7.5479416 92.9563,8.8869675 c -2.280203,3.8908625 -2.017349,9.2998205 0.620476,12.7680985 1.74361,2.292554 7.189054,5.719384 7.922674,4.985764 0.11547,-0.115464 -0.57419,-0.888656 -1.532566,-1.718208 -2.745755,-2.376703 -3.87972,-3.70845 -4.88729,-5.739682 -0.840374,-1.694173 -0.935386,-2.145231 -0.921182,-4.373379 0.01653,-2.593027 0.481797,-4.183222 1.572141,-5.3733604 4.541017,-4.9566355 7.864687,-6.5904854 13.557507,-6.6645909 7.885,-0.1026469 12.98906,3.44979 14.45938,10.0638023 0.63783,2.869131 1.69167,1.807351 1.36337,-1.373627 -0.0874,-0.847253 -0.43259,-2.0767633 -0.76702,-2.7322718 -0.3344,-0.6555085 -0.60801,-1.2626461 -0.60801,-1.3492245 0,-0.3389901 3.63999,-0.1322425 5.62783,0.319659 2.01179,0.45734 6.56991,2.0864393 7.88493,2.8181183 0.78761,0.438219 2.68649,1.935887 3.83497,3.02471 2.95443,2.800896 4.13818,7.362368 2.89971,11.173641 -0.64908,1.997475 -2.59221,5.534033 -3.84726,7.00215 -0.86104,1.007204 -1.19561,1.74462 -0.79153,1.74462 0.7357,0 5.3286,-3.712921 5.85709,-4.734908 0.43235,-0.836055 0.52385,-0.871399 1.84947,-0.714399 5.21448,0.617578 11.08871,5.805386 11.08871,9.792946 0,1.806741 -3.31012,7.04889 -4.67661,7.406234 -0.2949,0.07712 -1.21314,-0.173434 -2.04056,-0.556779 -0.8274,-0.383345 -1.55694,-0.69699 -1.6212,-0.69699 -0.36273,0 -0.0139,0.804453 0.6488,1.496138 1.52571,1.592502 2.49171,3.787736 2.53514,5.761076 0.0329,1.500619 -0.0219,1.621887 -1.21093,2.677109 -0.68503,0.607913 -2.14948,1.459949 -3.25434,1.893418 -2.75123,1.079413 -5.38922,0.936773 -8.40795,-0.454653 -1.15353,-0.5317 -2.18474,-0.879312 -2.29157,-0.772482 -0.10687,0.106864 0.10128,0.593987 0.46252,1.082564 l 0.65676,0.888312 -0.76631,1.004674 c -2.35982,3.0939 -4.87844,4.56326 -8.95513,5.224428 -3.17054,0.514199 -5.24515,0.522245 -7.66922,0.02974 z M 80.876648,28.669654 c 0,-0.07069 -0.131188,-0.209665 -0.291551,-0.308773 -0.160362,-0.0991 -0.291561,-0.04128 -0.291561,0.128581 0,0.169816 0.131199,0.308762 0.291561,0.308762 0.160363,0 0.291551,-0.05782 0.291551,-0.12857 z M 75.628595,16.552749 c 0,-0.160351 -0.131199,-0.29155 -0.291561,-0.29155 -0.160351,0 -0.29155,0.131199 -0.29155,0.29155 0,0.160363 0.131199,0.291562 0.29155,0.291562 0.160362,0 0.291561,-0.131199 0.291561,-0.291562 z" /></g></svg>
