<?xml version="1.0" encoding="UTF-8" standalone="no"?>
<!-- Created with Inkscape (http://www.inkscape.org/) -->

<svg
   width="167.75471mm"
   height="167.75471mm"
   viewBox="0 0 167.75471 167.75471"
   version="1.1"
   id="svg1"
   xml:space="preserve"
   xmlns="http://www.w3.org/2000/svg"
   xmlns:svg="http://www.w3.org/2000/svg"><defs
     id="defs1" /><g
     id="layer1"
     transform="translate(-23.845364,-76.137505)"><path
       id="path453"
       style="fill-opacity:1;stroke:none;stroke-width:1.39107;stroke-opacity:1;paint-order:stroke fill markers"
       d="m 99.523835,76.482297 c -0.595921,0.02663 -1.06024,0.08371 -1.343306,0.168498 -2.304941,0.690384 -3.208729,0.997114 -3.430809,1.144643 l -0.602225,0.205943 c -0.251429,0.09237 -0.440918,0.179138 -0.887215,0.28499 -1.226452,0.290886 -2.445647,0.920296 -2.959119,1.369828 l -1.070275,0.511735 c -0.0765,-0.0039 -0.08741,-0.01724 -0.191901,-0.01768 -0.452677,-0.002 -0.94846,0.121571 -1.101479,0.274589 -0.216395,0.216384 -0.27823,0.208552 -0.27823,-0.0364 0,-0.260019 -0.858982,-0.289986 -4.92649,-0.170578 -4.598702,0.135002 -6.608875,0.363949 -11.50832,1.310541 -0.686859,0.132704 -1.293557,0.241306 -1.348505,0.241306 -0.02261,0 0.01933,0.138273 0.02236,0.200742 l -1.653258,0.591824 c -0.147251,0.01935 -0.297959,0.03935 -0.358838,0.08893 -0.07831,0.06377 -0.351285,0.151513 -0.5523,0.237665 l -3.017364,1.080156 -0.06345,0.03172 c -1.841163,0.656198 -3.830588,1.399294 -4.668022,1.786391 -0.712918,0.329542 -2.017252,1.073111 -2.898273,1.652219 -0.881023,0.579108 -1.706202,1.05756 -1.833717,1.062994 -0.388295,0.01656 -1.760765,1.295886 -2.107786,1.964772 -0.352708,0.679843 -0.439518,3.053426 -0.129495,3.542101 0.1064,0.167719 0.538733,0.278688 0.981866,0.251707 0.435435,-0.02652 1.587288,0.221547 2.559715,0.551259 0.972423,0.329713 2.276756,0.666155 2.898273,0.747842 0.621516,0.08169 1.547281,0.286352 2.057341,0.454529 1.015332,0.334768 2.487363,0.650494 5.332135,1.143602 1.558309,0.270106 2.151247,0.272003 3.709559,0.01352 0.497818,-0.08258 0.676139,-0.09847 1.068195,-0.156017 l 0.389002,-0.013 0.670873,-0.141976 c 0.0063,-3.96e-4 0.05574,-0.0087 0.06085,-0.0088 0.0089,-3.26e-4 0.0033,-0.0057 0.01144,-0.0062 l 1.38803,-0.293832 0.09257,-0.07385 c 0.06323,-0.02115 0.08073,-0.01415 0.156537,-0.04212 1.125349,-0.415329 1.343403,-0.07562 0.819608,1.276217 -0.234123,0.604237 -0.564064,1.463339 -0.733279,1.909644 -0.169216,0.446299 -0.533094,1.385659 -0.808688,2.086989 -0.09746,0.24803 -0.111973,0.37022 -0.18878,0.58974 l -0.07593,0.11389 -1.01983,3.25139 c -0.06995,0.21322 -0.140509,0.38733 -0.210622,0.67035 l -0.08113,0.25899 -0.08997,0.57415 c -0.207427,1.0008 -0.417321,2.21385 -0.639149,3.86765 -0.234776,1.75031 -0.494978,3.39563 -0.577782,3.65651 -0.0828,0.26088 -0.151588,2.74146 -0.152896,5.51208 -0.0025,5.21289 0.560469,11.2015 1.344345,14.30466 0.868721,3.43902 1.403117,5.19753 1.691222,5.56511 0.102393,0.13065 0.365221,0.81152 0.584543,1.51285 0.219318,0.70134 1.278455,3.04891 2.353253,5.21668 1.969985,3.97327 2.621926,4.88915 6.13614,8.61733 0.500972,0.53148 0.911139,1.07895 0.911139,1.21692 0,0.32259 -0.805168,0.24608 -2.014177,-0.0775 -0.04478,-0.057 -0.08961,-0.10581 -0.133134,-0.16278 -0.45053,-0.58967 -1.353246,-1.63018 -2.006376,-2.31268 -0.653128,-0.68248 -1.455024,-1.75498 -1.781713,-2.38291 -0.326688,-0.62789 -0.712768,-1.30223 -0.858092,-1.49879 -0.145326,-0.19657 -0.594861,-1.16138 -0.999027,-2.1442 -1.246364,-3.03074 -2.172812,-4.90707 -2.176435,-4.40799 -0.0019,0.26208 0.260162,1.01261 0.582463,1.66782 0.322302,0.65519 0.586775,1.36562 0.588184,1.57889 0.0012,0.21328 0.16332,0.52126 0.359879,0.6844 0.560133,0.46457 0.41907,0.72646 -0.253788,0.47065 -0.33613,-0.12776 -0.92221,-0.23195 -1.30222,-0.23195 -0.380007,0 -1.150527,-0.14582 -1.712024,-0.32347 -0.561499,-0.17766 -1.470927,-0.46066 -2.020939,-0.62927 -1.069845,-0.32801 -1.689573,-0.9844 -3.264391,-3.45525 -0.501115,-0.78625 -1.11359,-1.71997 -1.360986,-2.07503 -0.247401,-0.35504 -0.449849,-0.73292 -0.449849,-0.83937 0,-0.10648 -0.305367,-0.56617 -0.678673,-1.02191 -0.762062,-0.93033 -4.562971,-8.47278 -4.562971,-9.05469 0,-0.20626 -0.11977,-0.49474 -0.266269,-0.64123 -0.152056,-0.15206 -0.400215,-0.91975 -0.683874,-1.98766 -0.01611,-0.0755 -0.03783,-0.1578 -0.05356,-0.23246 -0.35666,-1.69223 -0.524646,-2.45059 -0.664632,-2.79895 -0.289475,-1.34289 -0.573378,-2.79777 -0.822729,-4.22545 -0.150761,-0.87956 -0.332449,-2.0729 -0.515376,-3.28935 -0.101734,-0.75176 -0.211478,-1.49738 -0.313594,-2.12443 -0.226465,-1.59785 -0.452646,-3.23324 -0.585062,-4.37107 -0.117331,-1.00821 -0.245489,-1.85332 -0.37184,-2.68922 -0.205222,-1.9817 -0.324608,-2.87315 -0.497174,-3.24618 -0.121243,-0.26209 -0.320787,-2.06709 -0.443088,-4.01068 -0.06452,-1.025364 -0.132552,-1.809662 -0.198141,-2.434372 -0.01601,-0.215299 -0.04765,-0.605775 -0.05513,-0.718717 -0.0096,-0.14533 -0.04885,-0.234883 -0.08165,-0.336996 -0.0064,-0.03169 -0.0121,-0.04963 -0.0182,-0.07437 -0.01421,-0.03477 -0.02076,-0.08326 -0.03796,-0.111291 -0.0081,-0.01353 -0.0157,-0.0191 -0.02288,-0.0156 -0.06361,-0.08966 -0.137007,-0.157057 -0.232985,-0.157057 -0.191271,0 -0.347918,-0.156646 -0.347918,-0.347917 0,-0.191274 0.130796,-0.321544 0.290191,-0.289672 0.182098,0.03642 0.289672,-0.209929 0.289672,-0.662552 0,-0.561611 -0.08072,-0.689577 -0.36664,-0.579862 -0.201702,0.0774 -0.436406,0.141028 -0.521616,0.140935 -0.227893,-2.45e-4 0.130053,6.814681 0.548139,10.433361 0.978023,8.46518 1.362888,11.25123 1.841519,13.33112 0.176061,0.76511 0.488734,2.22555 0.694794,3.24568 0.688174,3.40692 0.840526,4.16305 1.165966,5.79602 0.177891,0.89259 0.643351,2.823 1.034392,4.28942 0.391036,1.46643 0.822335,3.18795 0.958462,3.82554 0.13613,0.63756 0.447639,1.73964 0.692195,2.44945 0.244556,0.70983 0.444648,1.46614 0.444648,1.6803 0,0.21414 0.211413,1.04143 0.47013,1.83891 0.258718,0.79748 0.632637,1.97206 0.831051,2.60964 0.198411,0.63759 0.448468,1.36755 0.555419,1.62258 0.322222,0.76835 1.157125,3.64879 1.157125,3.99195 0,0.17613 0.151013,0.61223 0.335436,0.96887 0.260073,0.50292 0.74143,0.79466 2.144711,1.30014 0.995096,0.35844 2.445347,0.94807 3.222787,1.31055 0.777443,0.36247 1.520784,0.65942 1.652217,0.65942 0.131431,0 0.354831,0.13918 0.496134,0.30943 0.141303,0.17026 0.701769,0.44998 1.245534,0.62146 1.525911,0.48126 1.602272,0.58997 1.441076,2.05943 -0.208932,1.90464 0.224999,4.07002 1.189888,5.9354 1.235327,2.38819 2.363634,3.44589 4.482882,4.20309 0.96667,0.34539 1.876445,0.71837 2.021978,0.82845 0.145533,0.11009 0.334547,0.66478 0.419686,1.23253 0.0917,0.61151 0.331983,1.15651 0.589743,1.33707 0.239309,0.16762 1.08333,1.28217 1.875842,2.47703 0.792516,1.19487 2.103726,3.04057 2.913354,4.10168 0.80963,1.06112 1.471758,2.09231 1.471758,2.29136 0,0.19905 -0.199438,0.74745 -0.443608,1.21902 -0.680277,1.31382 -1.11043,2.37861 -1.423913,3.52389 -0.157063,0.57381 -0.427254,1.49014 -0.600145,2.03654 -0.894872,2.82817 0.221119,7.37154 2.243522,9.13323 l 0.976665,0.85029 -0.263148,2.62628 c -0.264251,2.64026 -0.448137,6.21742 -0.617307,12.0159 -0.05022,1.72144 -0.182218,3.33855 -0.293311,3.59358 -0.111089,0.25504 -0.385008,1.03773 -0.608986,1.73907 -0.223978,0.70134 -0.717642,1.93293 -1.097318,2.73705 -0.594648,1.25945 -0.68874,1.72301 -0.678153,3.34448 0.0068,1.03531 0.118947,1.98907 0.249626,2.11976 0.130684,0.13068 0.237667,0.37827 0.237667,0.55022 0,0.29176 0.197682,0.72613 1.30482,2.87019 0.419461,0.81231 2.647594,2.84773 3.756885,3.43185 0.253733,0.1336 0.40519,0.16525 0.534097,0.12742 l 1.162846,0.84768 c 0.03402,0.0294 0.04192,0.0449 0.08113,0.077 0.03898,0.0319 0.09222,0.0503 0.134695,0.0806 l 0.419165,0.30527 3.009044,1.68811 c 0.137345,0.11163 0.324299,0.23421 0.56166,0.36456 0.536605,0.29466 1.445558,0.7913 2.019378,1.10355 0.573822,0.31225 1.147669,0.6499 1.275189,0.75044 0.0354,0.0279 0.19154,0.0608 0.26678,0.0941 l 2.95028,1.65481 0.68439,0.28864 c 0.21873,0.12417 0.46229,0.22848 0.60795,0.33959 0.69984,0.5338 3.29521,1.74889 4.1412,1.93877 0.34269,0.0769 1.35352,0.3822 2.24613,0.67867 0.89261,0.29646 2.1442,0.60384 2.78177,0.68284 0.63758,0.079 1.42028,0.24325 1.73907,0.36508 0.31879,0.12183 1.77924,0.30634 3.24568,0.4098 v -5.2e-4 c 3.51478,0.24799 6.6452,0.10065 8.92623,-0.4202 1.02013,-0.23295 2.48058,-0.54579 3.24568,-0.69532 2.88419,-0.56372 4.6631,-0.99553 5.44862,-1.3225 3.36079,-1.39891 4.11259,-1.82892 5.15584,-2.94768 0.60428,-0.64804 1.10046,-1.26199 1.10147,-1.36463 0.001,-0.10263 0.19769,-0.62426 0.43633,-1.15921 0.23863,-0.53494 0.50206,-1.51439 0.58559,-2.17642 0.19218,-1.52271 -0.39086,-5.54452 -1.12853,-7.78369 -0.30392,-0.92255 -0.82309,-2.9815 -1.154,-4.57545 -0.33092,-1.59395 -0.7484,-3.57654 -0.92778,-4.40539 -0.85753,-3.96237 -1.74847,-10.48432 -1.74948,-12.81158 -0.001,-2.23277 0.70447,-5.89097 1.35008,-6.99788 0.25811,-0.44257 0.68133,-0.75187 1.20444,-0.88097 0.81245,-0.20051 3.05952,-1.15029 3.70436,-1.56588 0.19127,-0.12328 0.87461,-0.49349 1.51857,-0.82274 2.96014,-1.51352 8.35612,-6.57262 9.62155,-9.02037 0.39874,-0.77127 0.97528,-1.81927 1.2809,-2.32933 0.76222,-1.27212 1.48945,-2.86849 1.48945,-3.26855 0,-0.18243 0.10021,-0.5129 0.22258,-0.73432 0.26966,-0.48797 0.67204,-2.24587 0.92934,-4.05956 0.10445,-0.73624 0.35898,-1.57064 0.5653,-1.85452 1.63523,-2.24992 1.6452,-2.27435 1.63453,-3.97687 -0.008,-1.27184 -0.13494,-1.87432 -0.56582,-2.68348 -0.86006,-1.61515 -4.95113,-5.53383 -6.73473,-6.4513 -0.82478,-0.42427 -1.76039,-0.91546 -2.07918,-1.09107 -1.87071,-1.03058 -7.33654,-2.97652 -9.8535,-3.50831 -1.53045,-0.32335 -5.21008,-0.8521 -7.95789,-1.1436 l -1.2341,-0.13105 0.10713,-2.12599 c 0.059,-1.16916 0.20874,-2.38587 0.33284,-2.70377 0.16377,-0.41953 0.12574,-0.8478 -0.13886,-1.56173 -0.31604,-0.85262 -0.32269,-1.11508 -0.0499,-1.97205 0.17308,-0.54377 0.359,-1.96026 0.41294,-3.1479 0.11343,-2.49626 0.11061,-2.50152 -2.82807,-5.56564 -0.89512,-0.93332 -1.71726,-1.88834 -1.82696,-2.12235 -0.18891,-0.40305 -0.0588,-1.30555 0.90074,-6.26615 0.185,-0.95636 0.44023,-2.36461 0.56738,-3.1297 0.12714,-0.76509 0.76044,-3.9476 1.40727,-7.07172 1.44026,-6.95615 1.54167,-7.47636 1.96894,-10.07765 0.38057,-2.31705 0.764,-2.95477 1.49984,-2.49523 0.25123,0.1569 0.66939,0.28499 0.92933,0.28499 0.25995,0 1.01768,0.19143 1.68395,0.42541 2.17185,0.76269 2.48274,0.0116 0.5159,-1.24657 -0.70133,-0.44864 -1.27519,-0.91801 -1.27519,-1.04271 0,-0.13798 0.49188,-0.16892 1.25698,-0.079 1.7232,0.20253 2.45258,-0.006 2.45258,-0.7026 0,-0.58389 -0.38327,-0.83209 -1.2861,-0.83209 -0.30403,0 -0.89541,-0.14659 -1.31417,-0.32607 -0.41876,-0.17948 -1.20493,-0.44481 -1.74687,-0.58923 -0.97772,-0.26057 -1.26538,-0.61471 -0.68127,-0.83885 0.16724,-0.0642 1.28909,0.043 2.49262,0.23819 3.1321,0.50794 3.46358,0.48667 3.46358,-0.22623 0,-0.605342 -0.74148,-1.081617 -2.14472,-1.377633 -0.65039,-0.137208 -0.87188,-0.70028 -0.34791,-0.884615 0.1594,-0.05607 0.53822,-0.01 0.84197,0.102452 0.56833,0.210405 1.31845,0.07675 1.81968,-0.323996 0.4571,-0.365467 -0.0606,-1.03691 -0.91687,-1.189368 -0.4176,-0.07436 -1.14678,-0.201478 -1.62049,-0.28239 -1.03341,-0.176501 -1.60461,-0.718047 -1.09472,-1.038032 0.18308,-0.114748 0.48948,-0.165377 0.68076,-0.112332 0.19127,0.05305 1.02718,0.164381 1.85763,0.247546 1.32625,0.132824 1.56082,0.0951 1.92786,-0.310473 0.40419,-0.446627 0.40083,-0.477759 -0.10454,-0.948582 -0.28735,-0.267718 -0.60744,-0.486772 -0.71092,-0.486772 -0.42384,0 -0.14765,-0.490291 0.3916,-0.695315 1.01336,-0.385276 0.68847,-1.538159 -0.49613,-1.760389 -0.99708,-0.187053 -0.9033,-0.521414 0.3396,-1.213292 1.02275,-0.569321 1.19105,-0.957522 0.62094,-1.430673 -0.27899,-0.231546 -0.56277,-0.210779 -1.44887,0.10661 -0.60612,0.217108 -1.40231,0.452104 -1.76923,0.522137 -0.8901,0.169907 -0.72954,-0.329714 0.337,-1.047912 1.41586,-0.953437 2.30831,-3.05949 1.29649,-3.05949 -0.17774,0 -0.71683,0.313289 -1.1982,0.695835 -0.57359,0.455829 -1.13935,0.695315 -1.6413,0.695315 -0.42125,0 -0.83026,0.10443 -0.90905,0.231945 -0.0788,0.127514 -0.39809,0.231944 -0.70936,0.231944 -0.47275,0 -0.56583,-0.113303 -0.56583,-0.687514 0,-0.450097 0.16027,-0.773085 0.46389,-0.93558 0.25504,-0.136488 0.46337,-0.352497 0.46337,-0.480012 0,-0.221995 -0.89747,0.135997 -1.1592,0.46233 -0.0638,0.07949 -0.40215,0.326565 -0.752,0.549179 -0.61296,0.390023 -0.65028,0.387593 -1.03647,-0.06345 -0.22043,-0.257438 -0.49039,-0.46805 -0.59963,-0.46805 -0.10924,0 -0.66712,0.468452 -1.23981,1.041152 -0.76724,0.767236 -1.00376,1.160326 -0.89814,1.493081 0.0995,0.313535 -0.002,0.529286 -0.33128,0.705716 -0.28386,0.151919 -0.4748,0.486632 -0.4748,0.832609 0,0.318304 -0.15665,0.639083 -0.34793,0.712477 -0.47415,0.181938 -0.43657,0.626827 0.0931,1.106159 0.28847,0.261061 0.49294,0.31351 0.59288,0.151856 0.28777,-0.465641 0.82116,-0.260277 0.82116,0.316194 0,0.309681 0.15612,0.719343 0.34739,0.910619 0.67779,0.67779 0.21601,1.181903 -0.75303,0.821688 -0.35259,-0.131068 -0.52214,-0.384313 -0.52214,-0.781124 0,-0.495136 -0.10673,-0.586623 -0.68179,-0.586623 -0.86781,0 -1.05399,0.306712 -0.60379,0.993827 0.31344,0.478357 0.31511,0.597193 0.0166,0.991747 -0.43932,0.580872 -0.44125,1.130576 -0.006,1.49204 0.54123,0.449174 0.41152,0.856604 -0.31879,1.002669 -0.49782,0.09956 -0.6985,0.297085 -0.79361,0.782163 -0.0701,0.357076 -0.0308,0.748392 0.0868,0.869534 0.11771,0.121139 0.21375,0.512489 0.21375,0.869534 0,0.69994 0.58615,0.898094 1.10928,0.374963 0.1509,-0.150925 0.34499,-0.203558 0.43164,-0.11701 0.24797,0.247959 -0.33347,1.318336 -0.71611,1.318336 -0.18953,0 -0.46184,0.21905 -0.60483,0.48625 -0.21628,0.40411 -0.17871,0.54249 0.22362,0.82429 0.26604,0.18634 0.48418,0.50124 0.48418,0.69948 0,0.29084 -0.16804,0.32871 -0.86954,0.19762 -0.47818,-0.0894 -0.99981,-0.26977 -1.1592,-0.40148 -0.34012,-0.28107 -0.37413,-1.08162 -0.0666,-1.56798 0.1523,-0.24083 0.0826,-0.46651 -0.23559,-0.76292 -0.56718,-0.528448 -0.59378,-1.690394 -0.0458,-1.999611 0.32496,-0.183356 0.34809,-0.286695 0.11597,-0.521096 -0.46748,-0.472065 -0.33437,-1.290839 0.28967,-1.781712 0.46064,-0.362336 0.50827,-0.483191 0.23195,-0.589224 -0.4921,-0.188835 -0.43083,-0.927715 0.11805,-1.424433 0.41241,-0.373233 0.4265,-0.464424 0.12482,-0.797766 -0.30093,-0.332494 -0.28928,-0.454196 0.0999,-1.047393 0.27602,-0.420824 0.39507,-0.898903 0.31879,-1.280378 -0.0762,-0.381149 0.007,-0.715265 0.22206,-0.893976 0.18955,-0.157322 0.28997,-0.489966 0.22415,-0.7416 -0.14716,-0.562743 0.30793,-1.149324 0.89137,-1.149324 0.46553,0 0.58588,-0.34344 0.20334,-0.579862 -0.12752,-0.07881 -0.23194,-0.345359 -0.23194,-0.592864 0,-0.593883 -0.072,-0.573946 -0.89398,0.248066 -0.38403,0.384029 -0.73151,0.98372 -0.77176,1.332904 -0.0471,0.408934 -0.19673,0.616012 -0.42072,0.581423 -0.84157,-0.129951 -3.22739,-0.719146 -3.43706,-0.848732 -0.37847,-0.233908 -0.96781,0.109519 -0.96781,0.563741 0,0.232705 0.31276,0.646022 0.69531,0.918419 0.79745,0.567839 0.89455,0.927261 0.25066,0.927261 -1.09598,0 -1.59739,0.878587 -0.89969,1.576289 0.44996,0.449954 0.88098,0.3203 0.88098,-0.265229 0,-0.299026 0.20886,-0.732343 0.46388,-0.963143 0.25504,-0.2308 0.46499,-0.638272 0.46701,-0.905418 0.007,-0.891059 0.33599,-1.140278 1.27466,-0.964184 l 0.86537,0.162258 -0.11805,1.044792 c -0.0812,0.720602 -0.27418,1.15466 -0.62147,1.397911 -0.40043,0.280439 -0.47281,0.493799 -0.3526,1.041152 0.10723,0.488203 0.0355,0.816905 -0.2465,1.128521 -0.21875,0.241717 -0.33452,0.603678 -0.25743,0.804527 0.0814,0.211966 -0.003,0.420361 -0.2023,0.496654 -0.45352,0.174032 -0.20541,0.546578 0.36403,0.546578 0.46928,0 0.62033,0.562577 0.21791,0.811287 -0.12751,0.07881 -0.23142,0.332888 -0.23142,0.564781 0,0.23189 -0.15546,0.550741 -0.34532,0.708316 -0.19009,0.15758 -0.27125,0.405274 -0.18098,0.55022 0.0902,0.144946 0.13311,0.503584 0.0952,0.797246 -0.0379,0.293666 0.047,0.673762 0.18878,0.844573 0.14211,0.171214 0.1983,0.647086 0.12534,1.060916 -0.0912,0.51748 -0.0143,0.88081 0.24702,1.1696 0.20846,0.2304 0.31764,0.51809 0.24287,0.63915 -0.17447,0.28222 0.73994,0.52526 1.37607,0.3656 0.76139,-0.19109 1.02504,0.32762 0.778,1.53 -0.11789,0.57383 -0.31452,1.68002 -0.43737,2.4583 -0.26121,1.65486 -0.43655,2.17852 -0.7286,2.17852 -0.44882,0 -1.43655,-3.40054 -1.4598,-5.02582 -0.017,-1.18428 -0.0287,-1.20331 -0.82896,-1.35422 -1.02065,-0.19247 -1.39064,-0.49518 -1.39064,-1.13685 0,-0.61353 0.41062,-1.06143 0.97356,-1.06143 0.22951,0 0.41708,-0.10391 0.41708,-0.23143 0,-0.12752 -0.16124,-0.23194 -0.35885,-0.23194 -0.19761,0 -0.67351,-0.162473 -1.05727,-0.360919 -0.58691,-0.303521 -0.68642,-0.4786 -0.62614,-1.101478 0.0666,-0.687924 0.14569,-0.750217 1.115,-0.879414 0.60748,-0.08098 0.78388,-0.153441 0.42228,-0.173699 -0.80827,-0.04532 -1.4068,-0.647518 -1.22213,-1.229412 0.0786,-0.247714 0.0181,-0.600714 -0.13417,-0.784245 -0.15228,-0.183531 -0.21311,-0.500062 -0.13522,-0.703116 0.1089,-0.283797 0.31498,-0.330865 0.89086,-0.204382 0.67336,0.147897 0.71732,0.1264 0.43632,-0.212182 -0.17192,-0.207178 -0.25778,-0.585741 -0.19086,-0.841451 0.10945,-0.418554 0.008,-0.46493 -1.01255,-0.46493 h -1.13424 l -0.70624,-1.398951 c -0.38838,-0.76939 -1.12015,-2.075633 -1.62621,-2.902432 -0.50605,-0.8268 -0.91998,-1.595858 -0.91998,-1.709424 0,-0.113566 -0.44356,-0.669363 -0.9855,-1.234614 -0.54194,-0.565247 -1.79504,-1.876173 -2.78438,-2.913354 -2.69373,-2.823973 -4.66895,-3.975706 -9.44578,-5.507393 -2.20712,-0.707711 -3.10975,-0.874406 -5.24372,-0.968864 -0.81095,-0.0359 -1.53891,-0.03963 -2.134839,-0.013 z m 1.972055,1.528964 c 0.17257,0.0068 0.39178,0.02825 0.51277,0.01716 l 2.98096,0.524737 0.34584,0.109211 c 0.44312,0.166231 0.86566,0.358588 1.22005,0.463891 1.68969,0.502063 5.09933,2.034711 5.31965,2.391217 0.0878,0.141987 0.70049,0.609895 1.36151,1.040112 1.46672,0.954602 3.54894,3.071747 4.66334,4.741871 0.45525,0.682269 0.82742,1.29184 0.82742,1.354225 0,0.06238 0.2084,0.286502 0.46285,0.498215 0.54342,0.452171 3.47864,6.174355 3.47864,6.781529 0,0.228553 0.0926,0.472855 0.20595,0.542939 0.49548,0.306449 0.49294,1.304855 -0.006,1.979333 -0.41908,0.56684 -0.45465,0.744094 -0.20854,1.040631 0.16316,0.196604 0.49558,0.357804 0.739,0.357804 0.53429,0 0.82421,0.624134 0.4592,0.989144 -0.41828,0.41829 -0.32256,1.55724 0.14302,1.70111 1.15006,0.35537 1.13454,0.32253 1.89664,4.03302 0.45145,2.19797 1.1729,8.03369 1.17793,9.52847 10e-4,0.43396 -0.3055,2.40603 -0.6818,4.38251 -0.81912,4.30237 -1.26805,6.74296 -1.99492,10.83953 -0.29987,1.68996 -0.60944,3.17679 -0.68804,3.30392 -0.25969,0.4202 -0.96003,0.24099 -1.9939,-0.51018 -1.32761,-0.96458 -3.58008,-1.60477 -4.7325,-1.34486 -1.68541,0.38012 -2.65383,2.02268 -2.19568,3.72412 0.13127,0.48749 0.66396,1.27209 1.26686,1.86648 1.01898,1.00463 1.03511,1.04315 0.79256,1.92161 -0.13614,0.49317 -0.18974,1.48244 -0.11909,2.19827 0.0707,0.71583 0.17965,2.07026 0.24235,3.00957 0.0659,0.98665 0.26885,1.94387 0.48053,2.26692 0.20148,0.30755 0.30384,0.66085 0.22726,0.78477 -0.28501,0.46116 -0.8187,0.19877 -1.36931,-0.67347 -0.61794,-0.97884 -1.52784,-1.31493 -2.8473,-1.05104 -0.60124,0.12025 -0.73253,0.27304 -0.84874,0.98811 -0.076,0.46516 -0.0744,1.38579 0.003,2.0459 l 0.14094,1.20028 -0.8997,0.23507 c -3.1037,0.81213 -4.97402,1.26393 -5.91095,1.42808 -0.58872,0.10313 -1.73641,0.3931 -2.55035,0.64435 -1.65968,0.51231 -5.953879,1.43587 -6.677008,1.43587 -0.329897,0 -0.607049,-0.29746 -0.923099,-0.99123 -0.693558,-1.52245 -1.151297,-1.82895 -2.606521,-1.74583 l -1.242414,0.0707 -0.02964,0.92726 c -0.01633,0.51007 -0.04271,1.41061 -0.05825,2.00118 -0.02801,1.0637 -0.03746,1.07594 -1.013589,1.31678 -0.542279,0.1337 -1.825386,0.31456 -2.851988,0.40148 l -1.867001,0.1581 -0.683353,-0.82428 c -0.375702,-0.45332 -1.608464,-1.79522 -2.739656,-2.98201 -1.131191,-1.18679 -2.187431,-2.36658 -2.347532,-2.6216 -0.160098,-0.25504 -0.758015,-1.19386 -1.328743,-2.08647 -1.690556,-2.64397 -3.106228,-5.81245 -4.453759,-9.96947 -0.856328,-2.64169 -1.28974,-4.31854 -1.28974,-4.99098 0,-0.25493 -0.09452,-0.64446 -0.210103,-0.86589 -0.115576,-0.22142 -0.328161,-0.84609 -0.47273,-1.38803 -0.144572,-0.54195 -0.375805,-0.9855 -0.513815,-0.9855 -0.17445,0 -0.170909,-0.0965 0.01144,-0.3162 0.195367,-0.23542 0.19181,-0.78224 -0.01352,-2.14419 -0.596181,-3.95441 -0.263786,-16.07638 0.488853,-17.82596 0.410798,-0.95495 0.697396,-1.92478 1.30118,-4.40539 1.685809,-6.926039 4.942181,-13.591071 8.525799,-17.450485 2.888374,-3.11066 3.549543,-3.71961 5.083547,-4.679984 0.721998,-0.452014 1.238145,-0.842144 1.416632,-1.036473 l 1.402591,-0.950142 c 0.09949,-0.05293 0.165069,-0.09806 0.27043,-0.151336 0.563299,-0.284848 0.910717,-0.482608 1.073915,-0.616786 l 0.06709,-0.03796 1.95593,-0.863812 c 0.0261,-0.0101 0.03277,-0.0081 0.05981,-0.01872 1.608397,-0.63222 2.919416,-0.969267 3.781328,-0.971984 0.300608,-9.34e-4 0.740066,-0.141439 1.120201,-0.314634 L 100.6426,78.03152 Z m 33.44584,1.980894 c -0.19991,-0.0026 -0.3901,0.04551 -0.47741,0.145096 -0.37479,0.427482 -0.52273,1.284444 -0.27928,1.617374 0.0987,0.135014 0.14146,0.141041 0.36144,0.04993 0.46934,-0.194412 0.90589,0.22723 0.97875,0.945462 0.0269,0.264732 0.10193,0.563337 0.16694,0.663591 0.10578,0.163149 0.10057,0.211411 -0.051,0.456609 -0.0931,0.150673 -0.24438,0.341451 -0.33596,0.424366 -0.18772,0.169882 -0.21428,0.372858 -0.0681,0.519016 0.12745,0.127454 0.15429,0.124804 0.39576,-0.03952 0.61963,-0.421659 0.80433,-0.847508 0.49094,-1.131122 -0.0893,-0.0808 -0.18396,-0.280214 -0.21063,-0.443088 -0.0267,-0.162874 -0.0813,-0.370079 -0.12117,-0.46025 -0.04,-0.09017 -0.0835,-0.674142 -0.0967,-1.298059 -0.0229,-1.079088 -0.0333,-1.142305 -0.21738,-1.291299 -0.12648,-0.102369 -0.33627,-0.155496 -0.53618,-0.158097 z m -3.18379,0.600145 c -0.56627,3.33e-4 -0.86112,0.496349 -0.70311,1.237213 0.0937,0.439438 0.28385,0.580147 0.6818,0.505494 0.21791,-0.04088 0.32254,-0.0067 0.54502,0.176819 0.42286,0.348837 0.88981,0.975205 0.88981,1.193529 0,0.0595 0.0454,0.153651 0.10089,0.209062 0.13729,0.137291 0.3417,0.08561 0.37652,-0.09517 0.0157,-0.08157 -0.0634,-0.284497 -0.17578,-0.450369 -0.26565,-0.392009 -0.62979,-1.421929 -0.62979,-1.781711 0,-0.399471 -0.46532,-0.905181 -0.90073,-0.978746 -0.0642,-0.01084 -0.12605,-0.01616 -0.18463,-0.01612 z m 6.19439,0.04004 c -0.55007,0.0031 -0.66913,0.07328 -0.77072,0.452449 -0.0506,0.188883 -0.12566,0.428523 -0.16642,0.532538 -0.13102,0.334335 0.0384,0.507574 0.49614,0.507574 0.3433,0 0.42896,0.03463 0.60638,0.245467 0.11359,0.135008 0.22979,0.319392 0.25847,0.409804 0.0582,0.18322 0.10747,0.197765 0.28707,0.08425 0.13795,-0.08722 0.22272,-1.262895 0.12742,-1.770791 -0.0626,-0.333898 -0.2995,-0.464409 -0.83834,-0.461291 z m -53.762867,0.98655 c 0.696219,-0.02849 1.181361,-0.02995 1.282458,0.0088 0.595906,0.22867 0.343447,0.937654 -0.618347,1.736466 -0.913283,0.758522 -1.001015,0.781501 -2.841585,0.745241 -2.488302,-0.04902 -6.082705,0.360947 -7.103966,0.810248 -2.121213,0.933223 -2.434382,1.155766 -2.434382,1.730225 0,0.473065 0.269815,0.700753 1.611133,1.356827 0.827626,0.404818 1.36308,0.594386 1.582531,0.572582 l 1.067675,0.267308 0.213222,0.02184 c 0.146363,0.02263 0.266275,0.04473 0.486253,0.06865 1.596158,0.173565 1.970868,0.647929 1.245014,1.57681 -0.277613,0.355262 -0.720993,1.075642 -0.984986,1.600732 -0.263999,0.525087 -0.660002,1.113708 -0.879934,1.308461 -0.219937,0.194752 -2.095047,0.782427 -4.16721,1.305861 -3.932225,0.993289 -4.971427,1.084342 -6.897502,0.603785 -1.777221,-0.443418 -3.670068,-0.853655 -4.258219,-0.943902 -0.843672,-0.199776 -3.73652,-0.883553 -5.645728,-1.332383 -0.32564,-0.124991 -0.624221,-0.248665 -0.688034,-0.325555 -0.394725,-0.475613 -0.251126,-1.877342 0.265229,-2.59248 0.253061,-0.350477 1.67718,-1.23121 3.410007,-2.108827 1.043476,-0.528485 1.391917,-0.749328 1.943449,-1.062474 1.562772,-0.656469 4.722057,-1.98179 4.851602,-2.014177 0.101014,-0.02525 1.686055,-0.577761 2.996044,-1.011509 0.360552,-0.09215 0.487708,-0.0961 0.889815,-0.213223 1.117687,-0.325555 2.971205,-0.738499 4.118844,-0.917899 1.147639,-0.1794 2.612873,-0.425188 3.256591,-0.546058 1.222448,-0.229535 5.21137,-0.559928 7.300026,-0.64539 z m 56.693387,0.366639 c -0.1271,-0.0041 -0.28064,0.126943 -0.68283,0.559061 -0.30964,0.332671 -0.69799,0.762563 -0.86278,0.955343 -0.17361,0.203115 -0.35821,0.341268 -0.43892,0.328155 -0.11947,-0.01941 -0.72652,0.642428 -0.72652,0.792045 0,0.146233 0.26526,0.01025 0.34999,-0.179419 0.14119,-0.316109 0.38827,-0.506434 0.66203,-0.509655 0.30529,-0.0036 0.79101,0.467719 0.79101,0.767603 0,0.285777 0.26922,0.286777 0.46753,0.0016 0.081,-0.116503 0.29607,-0.402614 0.47793,-0.635509 0.41198,-0.52759 0.69376,-0.983895 0.69376,-1.1228 0,-0.191566 -0.50022,-0.890716 -0.67763,-0.947023 -0.0177,-0.0056 -0.0354,-0.0088 -0.0536,-0.0094 z m -12.11939,0.348438 c -0.0992,0.0029 -0.21512,0.02935 -0.39992,0.07749 -0.49582,0.129143 -0.70505,0.318532 -0.62927,0.568941 0.13371,0.44191 0.27473,0.647929 0.56686,0.827409 0.39691,0.243864 0.4726,0.246553 0.77021,0.02652 0.20169,-0.14912 0.31231,-0.168843 0.72911,-0.131053 0.27021,0.0245 0.51055,0.02512 0.5341,0.0016 0.046,-0.046 -0.25991,-0.489735 -0.60118,-0.872135 -0.11527,-0.129156 -0.36752,-0.303409 -0.56062,-0.387441 -0.18205,-0.07921 -0.28174,-0.114987 -0.40929,-0.111292 z m -2.21387,2.50667 c -0.10224,-0.0021 -0.20311,0.0058 -0.29956,0.02392 -0.20359,0.03819 -0.33144,0.132354 -0.45921,0.339077 -0.16532,0.267438 -0.16812,0.299513 -0.0458,0.486252 0.072,0.109939 0.20136,0.237789 0.2876,0.283951 0.14864,0.07959 0.18268,0.265081 0.0692,0.378601 -0.0286,0.02865 -0.0177,0.09459 0.0239,0.146135 0.0417,0.05155 0.16955,0.211091 0.28447,0.354678 0.11493,0.143588 0.29063,0.2745 0.39057,0.290712 0.24969,0.04053 0.37665,-0.01105 0.47376,-0.19242 0.0592,-0.110389 0.0554,-0.154457 -0.0135,-0.154457 -0.11508,0 -0.29424,-0.212335 -0.40669,-0.482613 -0.15361,-0.369239 0.38613,-0.7468 1.06716,-0.7468 0.48451,0 0.54936,-0.131449 0.10609,-0.214263 -0.16906,-0.03159 -0.43611,-0.14123 -0.5939,-0.243907 -0.25734,-0.167456 -0.57737,-0.26246 -0.88409,-0.268868 z m -45.910029,0.768122 c 0.464152,0.0064 0.806291,0.04479 0.903337,0.125334 0.28218,0.234181 0.284003,0.331535 0.01352,0.64799 -0.175111,0.204869 -0.383189,0.555371 -0.462329,0.778524 -0.164163,0.46291 -1.281829,0.505002 -3.361122,0.126374 -1.216218,-0.221467 -1.726562,-0.68026 -1.267898,-1.138923 0.288928,-0.28893 2.782033,-0.558416 4.174492,-0.539299 z m 54.029139,0.859133 c 0.13403,-0.01477 0.2921,0.08361 0.5939,0.28135 0.73616,0.482351 0.8006,0.960675 0.15706,1.164925 -0.28446,0.09028 -0.46389,0.350837 -0.46389,0.673993 0,0.336909 -0.20864,0.621583 -0.57934,0.790486 -0.34001,0.154915 -0.57986,0.45784 -0.57986,0.732759 0,0.674066 -0.66391,0.581288 -0.93455,-0.130534 -0.24772,-0.651548 -0.13188,-0.976038 0.51486,-1.442636 0.23096,-0.166625 0.41969,-0.493885 0.41969,-0.727559 0,-0.233673 0.19044,-0.659549 0.4228,-0.946501 0.20537,-0.25362 0.3153,-0.381516 0.44933,-0.396283 z m -17.9773,4.894247 c -0.0885,-0.002 -0.16999,0.0047 -0.24338,0.0208 -0.89698,0.197009 -2.12054,1.505094 -2.34702,2.509269 -0.22161,0.982572 0.46635,2.415721 1.38491,2.885272 0.36515,0.186659 0.95501,0.239915 1.6179,0.146655 1.86766,-0.262762 3.32151,-2.587971 2.44999,-3.918102 -0.52467,-0.800745 -2.0065,-1.624457 -2.8624,-1.643897 z M 53.939364,91.73918 c 0.05623,0 0.102452,0.10443 0.102452,0.231945 0,0.127516 -0.110426,0.231945 -0.245467,0.231945 -0.13504,0 -0.181259,-0.104429 -0.10245,-0.231945 0.07881,-0.127515 0.189229,-0.231945 0.245465,-0.231945 z m 63.351656,0.46597 c 0.42802,0.0044 0.90099,0.257755 1.39011,0.762402 0.92258,0.951816 0.92969,1.385366 0.0375,2.257563 -0.86207,0.842685 -1.53772,0.870402 -2.37041,0.09829 -0.71523,-0.6632 -0.79131,-1.219435 -0.29644,-2.176435 0.32686,-0.632067 0.75422,-0.946829 1.23929,-0.941821 z m 15.36142,1.852959 c 0.66139,0 0.77689,0.455294 0.24182,0.953783 -0.613,0.571095 -0.62154,1.045621 -0.0249,1.418193 0.62914,0.392906 0.58711,0.546261 -0.26732,0.972505 -0.40213,0.200613 -0.81933,0.365079 -0.92725,0.365079 -0.27986,0 -0.24323,-0.639312 0.0468,-0.818568 0.14945,-0.09237 0.18343,-0.544391 0.0889,-1.174807 -0.16836,-1.122738 0.12297,-1.716185 0.84197,-1.716185 z m -51.232796,1.39063 c -1.303693,0 -1.347962,0.02169 -2.032379,0.985506 -0.887229,1.24943 -1.105779,2.313677 -0.65475,3.185862 0.375767,0.726663 1.364604,1.516903 2.087505,1.667813 0.563721,0.11768 1.685753,-0.10607 2.369895,-0.47221 1.264987,-0.677 1.608157,-2.54446 0.769683,-4.188003 -0.540471,-1.05941 -0.797412,-1.178968 -2.539954,-1.178968 z m 0.714557,0.724958 c 0.390423,0.0053 0.798233,0.196831 1.20445,0.576742 0.59061,0.552362 0.650635,0.737009 0.545018,1.67406 -0.07189,0.637823 -0.282436,1.173337 -0.534097,1.357352 -0.587069,0.429269 -1.810743,0.376989 -2.387577,-0.101935 -0.76821,-0.637814 -0.849995,-1.656033 -0.209583,-2.608082 0.406209,-0.603873 0.879818,-0.904911 1.381789,-0.898137 z m 49.713709,7.136723 c 0.26015,-0.004 0.84039,0.20376 1.37295,0.51798 0.67075,0.39577 0.81529,0.60084 0.71248,1.01047 -0.0709,0.28268 -0.2337,1.23266 -0.36196,2.11142 -0.12827,0.87877 -0.71103,3.89352 -1.29494,6.69885 -0.58389,2.80534 -1.25888,6.19566 -1.49984,7.53457 -0.24095,1.33892 -0.54591,2.95601 -0.67763,3.59359 -0.1317,0.63757 -0.56155,2.82618 -0.95535,4.86304 -0.39378,2.03687 -0.77023,3.79042 -0.83625,3.8973 -0.0661,0.10688 -0.37549,0.29169 -0.68751,0.41032 -1.08466,0.41238 -1.65635,0.48711 -1.81083,0.23716 -0.17447,-0.2823 0.48184,-4.97909 0.7962,-5.69826 0.11148,-0.25503 0.36338,-1.46669 0.55958,-2.69286 0.19619,-1.22617 0.50355,-2.6866 0.68335,-3.24566 0.17982,-0.55905 0.5587,-2.1644 0.84197,-3.56707 0.28328,-1.40266 0.71931,-3.43912 0.96887,-4.52552 0.24957,-1.08639 0.5457,-2.54685 0.65787,-3.24567 0.11216,-0.69884 0.47027,-2.73147 0.79621,-4.51669 0.32594,-1.78522 0.59393,-3.27201 0.59494,-3.30391 0.002,-0.0527 0.0532,-0.0776 0.13989,-0.0791 z m -14.37122,31.02707 c 0.15043,-0.006 0.33504,0.004 0.57258,0.0213 1.11886,0.0825 1.56554,0.30971 2.70637,1.37659 0.51476,0.4814 0.75304,0.91747 0.75304,1.37659 0,0.36963 0.11819,0.79009 0.26263,0.93454 0.14444,0.14444 0.19994,0.4263 0.12325,0.62614 -0.18306,0.47706 -0.45054,0.44935 -2.21075,-0.22778 -0.93802,-0.36085 -1.86049,-0.94044 -2.52696,-1.58825 l -1.04999,-1.02035 0.45869,-0.77645 c 0.31879,-0.53973 0.45983,-0.70376 0.91114,-0.72235 z m 11.77927,1.41403 0.6407,0.7728 c 0.3524,0.42505 0.60969,0.87724 0.57155,1.00475 -0.0382,0.12752 -0.8436,0.40428 -1.79003,0.61523 -2.22606,0.49612 -4.01019,0.5342 -4.37628,0.0931 -0.48839,-0.58846 -0.19986,-1.37023 0.56894,-1.54144 0.38254,-0.0852 1.52574,-0.33264 2.54048,-0.5497 z m 1.8774,2.51395 c 0.50237,-0.10878 0.94699,0.21363 1.58253,1.06351 0.65306,0.87334 0.94395,2.93693 0.50549,3.58787 -0.15128,0.2246 -0.41186,0.92988 -0.57882,1.56745 -0.16696,0.63758 -0.64496,1.83747 -1.06247,2.66633 -0.83878,1.66484 -1.23512,2.81393 -0.83989,2.43438 0.13278,-0.12752 0.51521,-0.77942 0.84977,-1.44887 0.6402,-1.28101 0.78257,-1.38971 1.23305,-0.93923 0.40955,0.40955 0.34456,0.88842 -0.30164,2.22793 -0.31878,0.66082 -0.57933,1.30195 -0.57933,1.42494 0,0.123 -0.69098,1.14013 -1.53573,2.26017 -0.84475,1.12004 -1.58657,2.16751 -1.64805,2.32777 -0.23887,0.62248 0.33608,0.22978 1.82123,-1.24397 1.63608,-1.62355 2.20897,-1.76604 1.92629,-0.47897 -0.0874,0.3981 -0.23332,0.88365 -0.324,1.07911 -0.45915,0.98955 -1.55671,4.64462 -1.39479,4.64462 0.10266,0 0.46399,-0.33914 0.80297,-0.75356 0.33897,-0.41443 0.7743,-0.94764 0.96782,-1.1852 0.20267,-0.24878 0.43839,-0.34535 0.55594,-0.2278 0.21424,0.21424 1.14287,2.96687 1.15192,3.41417 0.003,0.14279 0.3133,0.88557 0.69012,1.65066 0.37684,0.76509 0.68761,1.66545 0.69063,2.00065 0.006,0.75547 -0.53561,1.00334 -3.24047,1.48321 -3.88142,0.68859 -8.60468,0.61248 -10.43335,-0.16798 -1.38932,-0.59294 -1.8077,-1.57732 -0.67036,-1.57732 0.78314,0 1.80341,-0.66747 2.20399,-1.44212 0.36747,-0.71061 1.65149,-5.49305 1.66678,-6.20843 0.0186,-0.86785 1.09651,-4.1176 1.54613,-4.66126 0.41191,-0.49803 0.49069,-0.86349 0.44933,-2.08647 -0.0541,-1.60078 0.28263,-4.19903 0.64591,-4.98162 0.12373,-0.26657 0.34689,-1.10148 0.49562,-1.85504 l 0.27042,-1.36982 0.98083,-0.13106 c 0.53956,-0.072 1.04426,-0.19386 1.12124,-0.27095 0.18853,-0.18852 -0.82798,-0.72779 -1.40259,-0.7442 -0.73829,-0.021 -0.7125,-0.77819 0.0374,-1.10043 0.35975,-0.15459 0.93828,-0.47423 1.28558,-0.70988 0.1895,-0.12858 0.363,-0.21233 0.53046,-0.24859 z m -13.56567,1.92993 c 0.12752,0 0.23143,0.10443 0.23143,0.23195 0,0.12751 -0.10391,0.23142 -0.23143,0.23142 -0.12751,0 -0.23193,-0.10391 -0.23193,-0.23142 0,-0.12752 0.10442,-0.23195 0.23193,-0.23195 z m 1.39323,0 c 0.095,0 0.56143,0.16243 1.03648,0.36092 0.47505,0.19849 1.65999,0.41189 2.63304,0.47428 1.38369,0.0887 1.88363,0.22093 2.29449,0.60692 0.62776,0.58974 0.67784,1.36613 0.11961,1.85504 -0.68221,0.59749 -2.32489,0.66758 -4.1152,0.17526 -0.89261,-0.24548 -1.69361,-0.44944 -1.78016,-0.45246 -0.0865,-0.003 -0.30788,-0.15605 -0.49145,-0.3396 -0.26803,-0.26804 -0.28772,-0.56483 -0.10141,-1.50712 0.12759,-0.64529 0.3096,-1.17324 0.4046,-1.17324 z m 0.72808,5.13503 c 0.17359,0.0214 0.37918,0.089 0.61731,0.20335 0.34254,0.1644 1.50964,0.32461 2.59352,0.35571 1.74971,0.0502 1.97859,0.10662 2.04018,0.50653 0.0551,0.35761 -0.26775,0.60118 -1.56693,1.1821 -1.94927,0.87158 -2.47007,0.90187 -3.51089,0.20282 -0.62337,-0.41868 -0.80259,-0.70971 -0.85965,-1.39324 -0.0641,-0.76871 0.16571,-1.12159 0.68646,-1.05727 z m -5.29468,2.74746 c 0.45059,0 1.31833,1.08387 1.31833,1.64649 0,0.23335 -0.20163,0.53212 -0.44828,0.66411 -0.7715,0.41289 -0.82959,0.34687 -1.06248,-1.20913 -0.13599,-0.90865 -0.10236,-1.10147 0.19243,-1.10147 z m 10.7095,0.91529 c 0.27993,0.0688 0.36117,0.38123 0.3058,0.95275 -0.0566,0.58389 -0.25526,0.88066 -0.80296,1.19924 -1.07879,0.6275 -3.47255,0.75475 -4.48861,0.23872 -0.51759,-0.26288 -0.8118,-0.57932 -0.8118,-0.87371 0,-0.57965 0.85033,-0.7414 1.26581,-0.24078 0.32896,0.39637 1.18422,0.47814 1.52792,0.14614 0.12114,-0.11702 0.79842,-0.52758 1.50505,-0.9127 0.74005,-0.40333 1.21888,-0.57841 1.49879,-0.50966 z m -8.46494,2.91076 c 0.14863,-0.0919 0.95035,0.17844 1.78119,0.60015 l 1.51024,0.76656 -0.14926,0.93922 c -0.18887,1.18632 -1.16678,3.2781 -1.61217,3.44901 -0.18584,0.0713 -1.41398,0.24619 -2.72977,0.38848 -3.57247,0.38633 -5.53919,0.91296 -7.88249,2.10987 -0.72419,0.3699 -1.46241,0.67243 -1.64026,0.67243 -0.17785,0 -0.8249,0.35671 -1.43795,0.79257 -1.11739,0.79444 -1.74895,0.86232 -1.74895,0.18826 0,-0.61802 1.11867,-2.3052 2.02302,-3.05065 1.29213,-1.06509 0.41356,-0.86007 -1.00527,0.23455 -1.67066,1.28889 -2.28874,2.57622 -2.08647,4.3461 0.18554,1.62349 0.77641,2.50001 1.62206,2.40682 0.33321,-0.0367 0.60586,0.0419 0.60586,0.17422 0,0.13234 -0.11742,0.24026 -0.26055,0.24026 -0.57101,0 0.35583,0.70264 1.84621,1.39948 0.8493,0.39709 1.80512,0.86005 2.1239,1.02867 0.31879,0.16862 1.11279,0.46347 1.76455,0.65579 0.65178,0.19231 1.38225,0.45746 1.6231,0.58922 0.83831,0.45864 2.77271,0.99095 5.30665,1.4598 3.48051,0.6436 10.24126,0.63964 15.7655,-0.01 4.25203,-0.49995 6.09129,-0.90435 7.46437,-1.64026 0.48126,-0.25796 1.03313,-0.4782 1.22629,-0.48937 0.80026,-0.0465 3.60728,-1.74987 4.10168,-2.489 0.6061,-0.90618 0.92062,-2.65147 0.6277,-3.48437 -0.29584,-0.84121 -2.37386,-2.45179 -3.89938,-3.02256 -0.71698,-0.26826 -2.2137,-0.71115 -3.32576,-0.98395 -1.11207,-0.2728 -2.17454,-0.56892 -2.36157,-0.65839 -0.18703,-0.0895 -0.64791,-0.90476 -1.02399,-1.81135 -0.55396,-1.33539 -0.6298,-1.71346 -0.39836,-1.99234 0.25259,-0.30386 0.3983,-0.30399 1.25593,0.003 0.53349,0.19073 2.01315,0.54069 3.28831,0.77749 5.55275,1.03115 12.94956,3.33003 14.14293,4.39551 0.25504,0.22769 1.19386,0.83667 2.08647,1.35318 2.93867,1.70049 5.91199,5.2244 5.91199,7.00672 0,1.04087 -0.80042,2.64466 -1.57629,3.1583 -3.56422,2.35962 -9.84228,4.04576 -21.37638,5.74142 -2.10401,0.30933 -4.55602,0.62354 -5.44863,0.69791 v -5.1e-4 c -2.90569,0.24213 -9.41292,0.30684 -13.67903,0.13573 -4.2284,-0.16961 -12.36374,-1.22987 -14.95369,-1.94865 -0.70133,-0.19464 -1.53625,-0.41861 -1.85504,-0.49821 -0.31879,-0.0796 -0.90821,-0.29102 -1.31002,-0.46961 -0.40181,-0.17861 -0.84412,-0.32504 -0.982903,-0.32504 -0.602283,0 -7.220977,-2.73741 -8.835756,-3.65443 -1.549256,-0.87981 -4.394116,-3.5907 -5.027901,-4.79076 -0.583456,-1.10477 -0.520055,-3.52762 0.131573,-5.01594 1.175128,-2.68397 0.671219,-2.32584 4.203613,-2.98772 4.016009,-0.75252 10.639854,-2.33469 13.328514,-3.18379 2.28942,-0.723 4.65837,-1.33112 7.53509,-1.93409 3.74824,-0.78564 5.05051,-1.09605 5.3311,-1.26945 z m 6.66452,1.16597 c 0.21513,-9e-4 0.40793,0.0369 0.54762,0.12325 0.33747,0.20857 0.169,1.3953 -0.58922,4.15264 -0.29901,1.08732 -0.61255,2.37272 -0.69689,2.85667 -0.11345,0.65097 -0.30512,0.93771 -0.73587,1.10148 -0.32023,0.12173 -0.8463,0.22102 -1.16909,0.22102 -0.55867,0 -0.58261,-0.0527 -0.49405,-1.10096 0.12134,-1.43606 1.07585,-5.80702 1.42963,-6.54697 0.21585,-0.45148 1.06246,-0.80447 1.70787,-0.80713 z m -29.846019,0.34947 c 0.110536,-0.009 0.243463,0.0326 0.396282,0.12898 0.462525,0.29174 0.856492,1.36624 0.674514,1.84047 -0.07179,0.18708 -0.381539,0.34012 -0.688035,0.34012 -0.474474,0 -0.580052,-0.14306 -0.711436,-0.9647 -0.133387,-0.83416 -0.0029,-1.31783 0.328675,-1.34487 z M 75.8046,156.98904 c 0.870774,0.26324 6.448392,1.80805 6.928186,1.91901 0.69544,0.16082 0.664428,0.78876 -0.08269,1.67666 -0.73791,0.87695 -1.714105,3.67007 -1.714105,4.90413 0,0.86737 -0.03156,0.9048 -0.753561,0.90178 -0.58964,-0.003 -1.038577,-0.27186 -2.064623,-1.23929 -1.7636,-1.66288 -2.495228,-3.16195 -2.750575,-5.63689 -0.222887,-2.1603 -0.129876,-2.69688 0.437367,-2.5254 z m 62.00108,6.24588 c 0.18941,-0.18942 2.66978,0.52431 3.19002,0.9179 0.58127,0.43974 1.14777,1.38084 1.14777,1.90705 0,0.48493 -1.0472,1.13647 -3.25504,2.02561 -0.45131,0.18175 -1.51316,0.40494 -2.35949,0.49561 -1.42165,0.15225 -1.55874,0.1267 -1.80356,-0.33075 -0.40395,-0.75482 0.003,-1.04484 2.10675,-1.49932 2.06863,-0.44695 1.98513,-0.29326 1.23097,-2.26172 -0.23029,-0.60115 -0.34618,-1.16562 -0.25742,-1.25438 z m -19.38561,0.30891 c 0.2418,0.0928 0.28607,0.32138 0.16434,0.85082 -0.28891,1.25658 -0.23272,1.63195 0.25847,1.72554 0.25502,0.0486 0.67223,0.2737 0.92726,0.50029 0.25503,0.2266 0.85991,0.53911 1.34434,0.69428 l 0.88097,0.28187 -0.0697,1.19353 h 5.1e-4 c -0.0499,0.8593 -0.16665,1.20118 -0.41708,1.22161 -0.80548,0.0655 -5.25164,-0.6333 -7.65106,-1.20237 -2.21479,-0.5253 -2.31841,-0.56468 -2.31841,-0.88513 0,-0.34869 1.63427,-1.70315 2.78074,-2.30437 0.44698,-0.23439 0.92614,-0.57039 1.06507,-0.74681 0.37637,-0.4779 2.65368,-1.47541 3.03453,-1.32926 z m -34.90408,0.0827 c 0.185862,0.0809 0.361546,0.53924 0.45921,1.43484 0.01873,0.17177 0.06869,0.33194 0.101411,0.49717 -0.218256,-0.51872 -0.40307,-1.13595 -0.588184,-1.92577 0.0092,0.002 0.01842,-0.0102 0.02756,-0.006 z m -0.18982,0.0479 c -0.02015,0.24501 -0.03806,0.5646 -0.04472,1.00319 -0.03423,2.2512 0.453664,3.40688 3.137497,7.42848 1.726865,2.58762 5.66486,7.45621 6.03525,7.46124 0.08407,0.001 0.747141,0.5069 1.47332,1.12436 0.726164,0.61746 1.672374,1.38903 2.103106,1.71462 0.430745,0.32559 1.488408,1.15987 2.350133,1.85348 0.861737,0.6936 2.845174,1.90309 4.407984,2.68818 1.56282,0.78509 3.05489,1.60985 3.31537,1.83267 0.26046,0.22281 0.95277,0.59531 1.53884,0.82793 2.15458,0.85513 2.60495,1.08339 2.60495,1.31887 0,0.31094 -0.0699,0.30726 -2.334,-0.12222 -0.48035,-0.0911 -1.01183,-0.22004 -1.54665,-0.36456 -0.48543,-0.22373 -0.93975,-0.47802 -1.08743,-0.65111 -0.19127,-0.22418 -1.13063,-0.74743 -2.08699,-1.16336 -1.86495,-0.81109 -4.150723,-2.19699 -5.729972,-3.47398 -0.537468,-0.43459 -1.506114,-1.20166 -2.152513,-1.70423 -0.646402,-0.50258 -1.510497,-1.21844 -1.920567,-1.59085 -0.410072,-0.3724 -1.13711,-0.94017 -1.615294,-1.26165 -0.478179,-0.32149 -0.869534,-0.66318 -0.869534,-0.75929 0,-0.0961 -0.406356,-0.62984 -0.903336,-1.18624 -1.653033,-1.85064 -2.237723,-2.61523 -3.907701,-5.10903 -0.911368,-1.36097 -2.033261,-3.2668 -2.492629,-4.23482 -0.715583,-1.50795 -0.82825,-1.96807 -0.787885,-3.21499 0.04345,-1.34205 0.267101,-2.19308 0.512776,-2.41669 z m 18.36734,14.74203 c 0.42356,0.005 1.18857,0.21175 3.10837,0.79412 3.01955,0.91598 6.78733,1.40164 12.90467,1.66366 2.79449,0.1197 4.67413,0.48746 5.44655,1.0656 0.13022,0.0975 1.19571,0.40669 2.36781,0.68699 1.17211,0.28029 2.4357,0.67823 2.80831,0.88409 0.37258,0.2059 1.27873,0.45689 2.01313,0.55802 6.42542,0.8852 8.40224,1.18231 8.49563,1.2757 0.46754,0.46755 -1.8718,1.31555 -5.97647,2.16604 -5.60809,1.162 -5.76007,1.1783 -9.35321,1.01046 -3.1475,-0.14702 -4.26819,-0.33313 -8.24081,-1.36774 -0.42998,-0.11198 -1.55688,-0.58613 -2.50407,-1.05416 -0.94722,-0.46802 -1.78815,-0.85133 -1.86856,-0.85133 -0.18954,0 -3.00615,-1.75431 -4.65242,-2.89775 -0.70532,-0.48989 -1.41877,-0.89085 -1.58513,-0.89085 -0.16638,0 -0.44142,-0.19787 -0.61159,-0.43998 -0.17018,-0.24213 -0.9366,-0.87954 -1.70318,-1.41611 -1.09595,-0.76713 -1.30761,-1.00894 -0.98915,-1.13112 0.0955,-0.0366 0.19894,-0.0573 0.34012,-0.0556 z m -11.786031,2.73444 1.369307,1.05364 c 0.753137,0.57953 1.733943,1.39406 2.179554,1.81032 1.28576,1.20107 4.670113,3.34111 6.80025,4.42308 0.32621,0.32481 0.60952,0.65109 0.78737,0.94389 0.40148,0.66099 1.63297,2.04144 4.84848,5.43511 0.66498,0.70184 2.12046,1.87017 3.23423,2.59613 1.11378,0.72593 2.06122,1.40581 2.10571,1.51127 0.0961,0.22753 3.39972,1.5956 6.71131,2.77918 1.30236,0.46546 3.04924,1.1058 3.88223,1.42288 0.83299,0.31709 1.60664,0.51981 1.71878,0.45037 0.11222,-0.0694 0.3544,0.0242 0.53826,0.20802 0.18387,0.18386 1.48827,0.52728 2.89879,0.76291 2.88569,0.48209 3.3934,0.66896 3.39441,1.25023 4.9e-4,0.22332 0.19454,0.72585 0.43165,1.11655 0.49491,0.81549 1.65684,3.78707 1.97777,5.05859 0.1195,0.4735 0.3626,1.44714 0.54034,2.16344 0.17772,0.71629 0.43191,1.72025 0.56477,2.23103 0.13284,0.51077 0.36182,2.32201 0.50862,4.02524 0.44449,5.15733 1.04555,9.37859 1.44056,10.11665 0.13852,0.25884 0.33703,0.96997 0.441,1.57993 0.10406,0.60995 0.26729,1.29435 0.363,1.52116 0.12166,0.28869 0.0421,0.4607 -0.26523,0.5731 -0.24142,0.0883 -0.97192,0.49042 -1.62309,0.89397 -0.65117,0.40356 -2.35604,1.30061 -3.7886,1.99287 -1.43258,0.69223 -2.76429,1.3555 -2.95965,1.47384 -1.32898,0.80542 -3.50007,1.6834 -5.27493,2.13378 -1.14281,0.29 -2.26121,0.6743 -2.48586,0.85394 -0.34986,0.27975 0.21974,0.3128 3.97218,0.23037 0.53033,-0.0117 0.88747,-0.0273 1.31679,-0.0405 -0.14301,0.0121 -0.29062,0.0394 -0.43269,0.0499 -6.89924,0.51364 -14.99748,-0.88129 -17.94141,-3.09069 -0.30411,-0.22823 -0.72371,-0.415 -0.93194,-0.415 -0.20824,0 -0.74171,-0.23789 -1.18574,-0.52889 -0.44402,-0.29101 -1.38097,-0.77251 -2.0823,-1.06976 -0.70133,-0.29726 -1.43182,-0.63557 -1.62309,-0.752 -0.19128,-0.11643 -1.09358,-0.56638 -2.004816,-1.00007 -0.911241,-0.4337 -1.725619,-0.901 -1.810316,-1.03803 -0.211112,-0.34159 -1.708942,-1.07373 -2.559195,-1.33863 l -1.535205,-1.05571 c -0.513416,-0.47445 -1.416531,-1.19233 -2.070863,-1.60437 -1.031019,-0.64926 -2.98127,-2.81988 -3.481255,-3.87494 -0.725866,-1.53171 -0.747627,-4.65721 -0.04212,-6.00248 0.190279,-0.36284 0.266521,-0.62508 0.353118,-0.89295 l 0.860693,-1.57057 c 0.215344,-0.29757 0.422411,-0.86168 0.676072,-1.87635 0.231854,-0.92743 0.442532,-5.42765 0.499775,-10.66531 0.03685,-3.37143 0.546062,-7.76087 1.002668,-8.64385 0.18372,-0.35528 0.409261,-1.05973 0.501333,-1.56537 0.339809,-1.86612 2.012405,-4.37847 3.368924,-5.06067 1.274143,-0.64074 0.373101,-1.15681 -1.065076,-0.61002 -1.163517,0.44237 -3.822411,3.75201 -3.822411,4.75799 0,1.13219 -1.815479,0.20147 -2.380816,-1.22057 -0.464581,-1.1686 -0.709411,-4.3322 -0.435287,-5.62545 0.25674,-1.21123 0.6616,-2.40869 1.109279,-3.28155 0.173594,-0.33846 0.315674,-0.77614 0.315674,-0.9725 0,-0.19636 0.244994,-0.642 0.544499,-0.99019 z m 58.823011,9.63613 c -1.19408,1.05635 -1.98406,1.51044 -3.92122,2.46194 -1.14764,0.56371 -2.30867,1.19949 -2.58051,1.41299 -0.27183,0.21349 -0.95012,0.52694 -1.50713,0.69636 -0.55702,0.16942 -1.34141,0.45088 -1.74323,0.62563 -0.40182,0.17476 -0.88156,0.31775 -1.06611,0.31775 -0.18457,0 -1.47332,0.24598 -2.86343,0.54658 -1.39011,0.3006 -3.60128,0.68322 -4.91401,0.85029 -0.93218,0.11865 -1.52223,0.2347 -1.94085,0.34116 -1.51011,0.008 -2.57474,-0.0631 -2.5103,-0.25639 0.0753,-0.22583 1.26991,-0.48914 3.90718,-0.86069 6.80796,-0.95917 12.04266,-2.22639 13.89173,-3.36321 1.21113,-0.74461 3.98921,-2.15458 4.24521,-2.15458 0.16614,0 0.54782,-0.26129 1.00267,-0.61783 z m -11.53536,6.60263 c -0.22888,0.0344 -0.45277,0.0675 -0.70364,0.0999 0.20296,-0.0313 0.5757,-0.0752 0.70364,-0.0999 z" /></g></svg>
