<?xml version="1.0" encoding="UTF-8" standalone="no"?>
<!-- Created with Inkscape (http://www.inkscape.org/) -->

<svg
   width="167.75471mm"
   height="167.75471mm"
   viewBox="0 0 167.75471 167.75471"
   version="1.1"
   id="svg1"
   xml:space="preserve"
   xmlns="http://www.w3.org/2000/svg"
   xmlns:svg="http://www.w3.org/2000/svg"><defs
     id="defs1" /><g
     id="layer1"
     transform="translate(-23.845364,-76.137505)"><path
       id="path471"
       style="fill-opacity:1;stroke:none;stroke-width:1.74955;stroke-opacity:1;paint-order:stroke fill markers"
       d="m 130.89629,111.27358 c -3.72288,0.16694 -10.6264,2.02031 -19.09352,5.20194 -2.52128,0.9474 -5.35501,2.0636 -6.29711,2.4808 -0.94212,0.4172 -1.85093,0.75859 -2.02007,0.75859 -0.43443,0 -7.735325,3.58568 -10.541701,5.17746 -2.408945,1.36634 -6.958991,4.54457 -8.411721,5.87566 -0.717369,0.65731 -1.162331,0.77252 -3.644889,0.94312 -3.576117,0.24575 -5.768276,1.03516 -7.163347,2.57933 -2.370919,2.62432 -2.33775,6.56059 0.10251,12.21379 2.38218,5.51864 5.067161,11.35589 6.857519,14.90817 1.342418,2.66352 1.940249,4.4319 1.643048,4.86024 -0.101886,0.14684 -1.234821,0.80533 -2.517822,1.46308 -1.282996,0.65773 -3.027136,1.56439 -3.876112,2.01493 -2.066446,1.09665 -1.453894,1.35324 -10.783177,-4.5094 -8.405665,-5.28224 -8.894497,-5.4955 -10.563343,-4.60111 -0.400938,0.21487 -2.303575,1.21519 -4.228072,2.22281 -1.924495,1.00763 -4.780123,2.53691 -6.345523,3.39829 -1.565399,0.86138 -2.89577,1.56617 -2.956916,1.56617 -0.06115,0 -1.142578,0.57934 -2.402779,1.2871 -1.260202,0.70776 -2.881629,1.5186 -3.603315,1.80194 -0.721687,0.28334 -1.771417,0.79968 -2.332729,1.14757 -0.561311,0.34789 -2.630475,1.45027 -4.598256,2.44948 l -3.577686,1.81674 5.686596,3.84024 c 3.12784,2.11219 7.208838,4.88786 9.068371,6.16841 l 3.380634,2.32817 -0.236348,1.31672 c -0.292009,1.62503 -0.295078,3.67333 -0.0069,4.75999 0.1195,0.45051 0.770408,1.42144 1.446565,2.15732 1.281227,1.39439 2.599009,2.12656 3.827133,2.12656 0.396624,0 0.782315,0.0984 0.856549,0.2187 0.212187,0.3438 1.284027,7.40073 1.78258,11.73655 0.248953,2.16505 0.529752,4.56013 0.624186,5.3221 l 0.171423,1.38506 0.77568,-0.51029 c 0.426644,-0.28084 1.037659,-0.67801 1.357721,-0.88217 0.320062,-0.20417 1.008164,-0.64339 1.529144,-0.97615 0.520981,-0.33276 0.883478,-0.7084 0.805294,-0.83491 -0.07818,-0.1265 0.05337,-0.3924 0.29216,-0.59059 0.315746,-0.26203 0.433969,-0.26825 0.433969,-0.0227 0,0.44738 0.512133,0.16727 4.599394,-2.51554 1.808018,-1.18676 3.212119,-2.27961 3.119798,-2.42899 -0.09232,-0.14936 0.02636,-0.19722 0.264255,-0.10592 0.237891,0.0913 0.802605,-0.0862 1.254637,-0.3941 1.824395,-1.24293 5.213705,-3.43042 5.487267,-3.54181 0.969368,-0.39472 2.473119,-1.54984 2.326465,-1.78713 -0.09556,-0.15463 0.107175,-0.28134 0.450485,-0.28134 0.343309,0 1.850071,-0.68414 3.348744,-1.52003 l 2.725123,-1.51947 0.158894,-1.61514 c 0.08745,-0.88813 0.233308,-4.30452 0.324054,-7.59219 0.222396,-8.05732 0.379453,-9.70004 0.963047,-10.05989 1.087437,-0.67056 6.282123,-3.3533 6.493028,-3.3533 0.126046,0 0.302934,0.23337 0.393535,0.51882 0.293457,0.9246 2.112542,3.55857 3.161372,4.57719 1.998805,1.94121 5.611193,2.34767 8.998316,1.01259 1.05304,-0.41506 1.43716,-0.45945 1.65444,-0.19022 0.15565,0.19288 1.09813,1.99102 2.09466,3.99572 0.99654,2.00468 2.15417,4.00879 2.5725,4.45359 0.78876,0.83868 3.03343,1.66982 4.50941,1.66982 2.46391,0 12.42678,-2.79455 16.68619,-4.68027 0.64149,-0.284 2.60974,-1.14479 4.37387,-1.91299 1.76411,-0.76822 3.63684,-1.63211 4.16144,-1.91983 0.52459,-0.28774 4.46108,-2.31341 8.74773,-4.50144 8.95443,-4.57061 11.88609,-6.18283 13.8762,-7.62978 l 1.41753,-1.03025 -0.12643,-1.51889 c -0.0694,-0.83557 -0.46499,-2.22492 -0.87933,-3.08677 -0.41436,-0.86186 -1.02066,-2.15721 -1.34748,-2.87889 -1.70021,-3.75448 -2.99065,-6.46554 -3.91882,-8.26138 l -2.0326,-4.2668 c -0.28504,-0.71693 -0.6947,-1.64255 -1.36456,-3.03493 -1.13247,-2.35402 -2.05879,-4.46202 -2.05879,-4.68483 0,-0.2228 0.55767,-0.72463 1.23927,-1.11511 3.78434,-2.168 5.51255,-3.14031 7.21687,-4.06006 1.04244,-0.56254 2.48582,-1.3514 3.20751,-1.75296 0.72168,-0.40156 2.03385,-1.1225 2.91592,-1.60204 0.88205,-0.47954 3.13949,-1.74555 5.01684,-2.8134 1.87735,-1.06785 3.64876,-1.94092 3.93648,-1.94034 0.43731,9.6e-4 0.78037,1.01728 2.09069,6.19631 0.86206,3.40734 1.66905,6.30706 1.7934,6.44348 0.12434,0.13643 0.31788,-0.0409 0.42998,-0.3941 0.21994,-0.69297 6.48859,-13.59751 11.3692,-23.40417 l 3.01331,-6.05507 -6.1707,0.15605 c -10.40289,0.26305 -18.09896,0.5168 -22.69455,0.70733 l 0.19933,-0.0758 -7.62066,0.20332 c -0.13326,-0.059 -0.2422,-0.0734 -0.29217,-0.0234 -0.36351,0.3635 6.45404,5.74753 7.27782,5.74753 0.26655,0 0.48466,0.13544 0.48466,0.3007 0,0.16528 0.45926,0.70372 1.02057,1.19655 0.5613,0.49284 1.02057,1.00592 1.02057,1.14075 0,0.1348 -1.67302,1.1291 -3.71779,2.20914 -2.04479,1.08002 -3.78433,2.03834 -3.86586,2.12998 -0.26732,0.30047 -12.47338,6.43608 -12.80381,6.43608 -0.25886,0 -2.06506,-3.44361 -2.06506,-3.93705 0,-0.0723 -0.86649,-2.07001 -1.92553,-4.43937 -1.05904,-2.36936 -2.15758,-4.83267 -2.44094,-5.47417 -0.28335,-0.6415 -1.14191,-2.58342 -1.90843,-4.31521 -0.76653,-1.73178 -1.66605,-3.33917 -1.99843,-3.57198 -0.47433,-0.33223 -1.36172,-0.46399 -2.60268,-0.40834 z m -0.56553,1.76094 c 0.81309,0.0538 1.23585,0.32762 1.23585,0.8275 0,0.54477 1.65894,3.85926 2.63855,5.27142 0.66982,0.96556 4.44067,8.57539 6.42583,12.9684 0.8683,1.92148 4.07939,8.48229 7.13601,14.57955 5.33787,10.64785 9.10551,18.93819 9.81956,21.60793 0.29718,1.1111 0.27249,1.33346 -0.2056,1.86174 -1.2701,1.40346 -10.90576,6.76249 -21.00309,11.68188 -4.44137,2.1638 -6.52405,3.09792 -11.66365,5.22927 -4.41458,1.83068 -6.94992,2.57463 -10.49728,3.08164 -4.51139,0.64479 -6.46239,0.42506 -7.27042,-0.81953 -0.23144,-0.35647 -0.94131,-2.23761 -1.57755,-4.18023 -0.63624,-1.94262 -1.68088,-4.63255 -2.32134,-5.97763 -2.01333,-4.22826 -3.556047,-7.82365 -3.556047,-8.28699 0,-0.24551 0.29524,-0.56094 0.656087,-0.7005 0.51226,-0.19812 0.76673,-0.11588 1.1601,0.37417 0.27709,0.3452 0.50672,0.71422 0.51028,0.8201 0.0161,0.47722 1.60781,2.57762 1.95343,2.57762 0.21208,0 0.38556,-0.0424 0.38556,-0.094 0,-0.26293 -1.0187,-3.03251 -1.35088,-3.6728 -0.34649,-0.66785 -0.30935,-0.81431 0.39296,-1.54736 0.42654,-0.44521 0.90662,-0.80928 1.0667,-0.80928 0.16009,0 1.59468,-0.74489 3.18814,-1.65501 1.86846,-1.06719 3.09122,-1.97316 3.44385,-2.55143 1.02992,-1.68893 0.49531,-4.79825 -1.19484,-6.94693 -1.45076,-1.84433 -5.43829,-2.19181 -7.93902,-0.69196 -1.23507,0.74076 -4.208182,2.22282 -4.459295,2.22282 -0.12795,0 -2.478524,-4.79675 -2.478524,-5.05785 0,-0.19382 -2.803241,-6.14987 -3.814604,-8.10476 -0.691115,-1.33586 -0.850854,-2.01006 -0.850854,-3.59306 0,-1.67124 -0.07025,-1.93557 -0.492061,-1.85434 -0.280143,0.0539 -0.606063,0.5341 -0.757451,1.11511 -0.451465,1.7327 -0.07722,3.77409 1.176045,6.41443 0.647047,1.3632 1.784092,3.7907 2.526934,5.39444 0.742838,1.60375 1.742544,3.70321 2.221674,4.66546 l 0.871356,1.74955 -0.636718,0.52509 c -0.613013,0.50536 -0.654468,0.50536 -1.117386,0 -0.264403,-0.28865 -0.955714,-1.64043 -1.536548,-3.00361 -0.580836,-1.3632 -1.835919,-4.31555 -2.788909,-6.56081 -0.952996,-2.24524 -2.462215,-5.62778 -3.353869,-7.51701 -1.615695,-3.42333 -1.62628,-3.43741 -3.197819,-4.15689 -1.836141,-0.84061 -5.685986,-1.42099 -6.748171,-1.01715 -1.199748,0.45614 -1.767992,2.1963 -0.941408,2.88232 0.28818,0.23916 0.532743,0.21316 0.947672,-0.10084 0.307593,-0.23275 0.79153,-0.42773 1.075242,-0.43283 0.423623,-0.007 0.475751,0.13424 0.291591,0.79276 -0.433853,1.55141 -0.259111,3.48617 0.380436,4.20643 0.33104,0.37282 1.692695,2.58036 3.025258,4.90579 1.332566,2.32545 3.111257,5.40902 3.952996,6.8524 1.775898,3.04519 3.351588,6.12347 3.351588,6.5477 0,0.30219 -2.652443,1.76264 -3.201236,1.76264 -0.167544,0 -0.708256,-0.88571 -1.201676,-1.96824 -0.493413,-1.08252 -2.98495,-6.17441 -5.536814,-11.3151 -4.548394,-9.16266 -4.639579,-9.38373 -4.63812,-11.22625 0.002,-2.37237 0.396622,-3.802 1.368541,-4.95706 1.072228,-1.27426 1.830925,-1.48077 5.379629,-1.46478 l 3.11524,0.0136 2.139096,-1.5263 c 4.417523,-3.15242 8.788593,-5.73561 13.198484,-7.79949 6.230521,-2.91596 8.761131,-4.03055 11.246181,-4.95477 1.20282,-0.44735 4.2208,-1.61753 6.70661,-2.60041 5.77295,-2.28257 10.02463,-3.56254 12.40173,-3.76733 0.35656,-0.0308 0.67095,-0.0373 0.94197,-0.0193 z m 57.71966,1.93236 c 0.0821,0.0413 0.16769,0.0825 0.25515,0.0825 0.2272,0 0.41291,0.13393 0.41291,0.29786 0,0.27709 -1.9879,4.26024 -2.61635,5.24237 -0.25366,0.39641 -4.50236,8.90067 -5.68147,11.37206 -0.26781,0.56131 -0.60547,1.21739 -0.75006,1.45796 -0.14459,0.24055 -0.61319,1.19188 -1.04164,2.11402 -0.42845,0.92216 -0.94443,1.67666 -1.14643,1.67666 -0.23222,0 -0.53678,-0.93822 -0.82807,-2.55143 -0.92064,-5.09891 -0.92076,-4.86178 0.002,-5.46619 0.45414,-0.29756 1.22178,-0.96241 1.70569,-1.47732 0.94762,-1.00832 2.95913,-4.70595 2.70064,-4.96445 -0.0864,-0.0865 -1.07809,0.94539 -2.20402,2.29343 -2.17949,2.60941 -3.75496,4.0915 -4.1136,3.86985 -0.12056,-0.0745 -0.23634,-0.59467 -0.25742,-1.15555 -0.11627,-3.09281 -3.0715,-6.58586 -5.57156,-6.58586 -0.36564,0 -1.01289,-0.24443 -1.43859,-0.54331 -0.4257,-0.29888 -1.36444,-0.8198 -2.08612,-1.15782 -3.10262,-1.4532 -5.97762,-3.1654 -5.97762,-3.55946 0,-0.41145 4.7461,-0.59943 20.20521,-0.81498 l 5.83182,-0.09 c 0.25069,0.018 0.48027,0.0108 0.72442,-0.0114 z m -58.7294,0.18053 c -0.14158,0.0172 -0.60591,0.31944 -2.05595,1.29223 -0.72142,0.48397 -1.47561,0.95954 -1.67608,1.05645 -0.20046,0.0969 -0.8781,0.50411 -1.5058,0.90553 -0.62769,0.4014 -1.16234,0.73011 -1.188,0.73011 -0.0257,0 -0.48345,0.26544 -1.01772,0.59002 -0.53428,0.32458 -1.11552,0.65281 -1.29108,0.72897 -0.17557,0.0762 -0.41735,0.2011 -0.53763,0.27793 -0.96852,0.61855 -5.29485,3.05965 -7.43557,4.19561 -0.84197,0.44678 -1.62927,0.89347 -1.74956,0.99209 -0.12027,0.0986 -0.38076,0.22861 -0.57918,0.28931 -0.19843,0.0607 -0.82171,0.36667 -1.38506,0.68 -0.56336,0.31333 -1.3198,0.70437 -1.68064,0.86851 -0.36084,0.16413 -1.45754,0.68586 -2.43695,1.15953 -0.97941,0.47367 -1.84741,0.86111 -1.92894,0.86111 -0.0815,0 -0.72345,0.27062 -1.42663,0.6014 -1.552717,0.73042 -4.841265,1.89402 -6.23561,2.2063 -2.727415,0.61081 -3.401568,0.71798 -4.103346,0.65209 -0.786276,-0.0738 -1.072397,-0.18088 -1.072397,-0.40151 0,-0.30205 0.967657,-1.19717 2.085562,-1.92893 2.276565,-1.49023 3.81803,-2.36999 8.922001,-5.09146 1.9245,-1.02615 3.41337,-1.86628 3.3083,-1.86744 -0.10507,-0.001 -0.92516,0.29615 -1.82244,0.6612 -4.400314,1.7903 -8.770982,4.06227 -11.064513,5.75153 -0.489913,0.36084 -1.093493,0.79741 -1.341774,0.97045 -0.411202,0.28658 -1.241487,1.10319 -2.608373,2.56509 -0.344961,0.36894 -0.638686,0.54673 -0.902678,0.54673 -0.479079,0 -0.424676,0.30967 0.08144,0.46416 0.428158,0.13069 2.358687,0.0222 3.393165,-0.19079 1.364293,-0.28085 5.200813,-1.49579 8.842841,-2.8003 1.865512,-0.66819 2.414112,-0.88642 3.758792,-1.49726 0.42336,-0.19231 0.80396,-0.34967 0.8463,-0.34967 0.12759,0 3.6628,-1.57425 5.4548,-2.42898 1.91671,-0.9142 1.91489,-0.91326 2.69723,-1.32754 0.32075,-0.16984 1.37048,-0.69774 2.33272,-1.17319 2.48025,-1.2255 4.43429,-2.26143 5.65414,-2.99793 0.5788,-0.34946 1.2821,-0.75039 1.56275,-0.89072 0.28065,-0.14032 0.65121,-0.38369 0.82351,-0.54104 0.32571,-0.29743 1.51293,-0.98555 2.36805,-1.37253 0.27183,-0.12301 0.8544,-0.4976 1.29449,-0.83262 0.4401,-0.33503 1.03771,-0.76815 1.32811,-0.96191 0.65679,-0.43823 2.35038,-2.11668 2.35038,-2.32931 0,-0.0433 -0.0115,-0.0689 -0.0587,-0.0632 z m 1.09689,4.5675 c -0.1987,0 -0.45467,0.36586 -0.59231,0.84572 -0.121,0.42194 -0.0549,0.98811 0.30242,2.58048 0.1565,0.69744 1.77153,4.83789 2.30312,5.90472 1.16638,2.34083 2.25511,4.47972 3.18358,6.25383 l 1.09858,2.09866 -0.26709,0.49491 c -0.36022,0.66886 -0.17436,1.19033 0.50345,1.41296 0.47513,0.15607 0.52467,0.24103 1.03082,1.76777 0.29241,0.88206 0.73653,2.2061 0.98696,2.94211 0.53207,1.5637 0.81884,2.99735 0.68399,3.42221 -0.0766,0.24148 -0.17805,0.28332 -0.51826,0.21528 -0.57494,-0.115 -0.57648,0.32253 -0.003,0.74663 0.27738,0.20506 0.45416,0.49831 0.52282,0.86566 0.0571,0.30557 0.15425,0.62146 0.21528,0.70164 0.061,0.0802 0.42113,0.9987 0.80016,2.04114 0.63734,1.75284 2.51789,5.74502 3.8465,8.16455 1.41569,2.57809 1.61678,3.00378 1.53142,3.24623 -0.24102,0.68465 -1.66788,2.32174 -2.80998,3.22402 -1.11864,0.88375 -3.3844,2.36426 -4.7207,3.08505 -0.61455,0.33149 -1.11738,0.62979 -1.11738,0.66292 0,0.27416 1.33476,-0.21155 3.25761,-1.18573 0.38829,-0.19671 0.76962,-0.35766 0.84801,-0.35766 0.0784,0 0.41809,-0.18042 0.7546,-0.40094 0.88647,-0.58087 1.12993,-0.72984 1.71026,-1.04505 0.28602,-0.15536 0.60908,-0.38968 0.71815,-0.52111 0.10908,-0.13143 0.38029,-0.33327 0.60255,-0.4482 0.22226,-0.11494 0.69654,-0.61901 1.0536,-1.12023 0.50504,-0.70893 0.67131,-1.08962 0.74891,-1.71539 0.0995,-0.80225 -0.12606,-2.5539 -0.36619,-2.84415 -0.068,-0.0821 -0.23288,-0.4758 -0.3662,-0.87477 -0.13333,-0.39896 -0.38972,-0.88958 -0.57008,-1.09005 -0.44738,-0.49724 -1.28324,-1.95453 -2.46714,-4.30097 -1.03155,-2.04449 -1.85941,-4.96352 -1.90104,-6.70489 -0.0131,-0.54716 0.0337,-0.61359 0.78821,-1.12535 0.44102,-0.29916 0.88732,-0.54611 0.99209,-0.54845 0.10476,-0.002 0.34745,0.3399 0.53876,0.76087 0.19131,0.42099 0.35295,0.69982 0.35937,0.61964 8.1e-4,-0.0106 0.008,-0.01 0.0136,-0.0143 0.0569,0.43412 0.79938,2.33646 2.24446,5.76063 1.6527,3.91615 2.18892,5.12877 3.66652,8.28756 l 1.21079,2.58902 -1.01373,0.86224 c -0.55763,0.47423 -1.75398,1.37118 -2.65906,1.9933 -0.90508,0.62211 -1.82359,1.29971 -2.04114,1.5058 -0.21754,0.20608 -0.98629,0.75605 -1.70797,1.22217 -1.45992,0.94293 -1.45308,0.93807 -6.63427,4.49004 -4.14498,2.8416 -6.49491,4.32284 -11.59018,7.30403 -8.83164,5.16732 -13.22138,5.98167 -13.60739,2.52465 -0.0819,-0.7339 -0.25834,-0.90375 -1.11796,-1.07752 -0.56131,-0.11347 -1.35651,-0.28947 -1.7672,-0.39126 -0.50795,-0.12589 -0.87137,-0.035 -1.13675,0.28476 -0.32812,0.39536 -0.30599,0.74877 0.14067,2.22395 0.29208,0.96469 0.73796,1.88412 0.99095,2.04285 0.26321,0.16515 1.76995,0.23508 3.52188,0.16345 3.13584,-0.12823 5.46167,-0.69061 9.62251,-2.32533 1.04243,-0.40955 3.9948,-1.56494 6.56079,-2.56794 1.1909,-0.46549 2.24295,-0.89937 3.08506,-1.25976 l 0.27224,-0.0957 3.08789,-1.31102 c 0.62596,-0.24542 1.43181,-0.58732 2.27179,-0.97045 9.42547,-4.29902 16.03922,-8.10575 16.40543,-9.44254 0.41127,-1.50136 -1.86421,-7.73944 -4.55555,-12.48887 -0.65647,-1.1585 -2.10655,-3.84215 -3.22174,-5.96339 -0.8772,-1.66855 -1.43824,-2.6667 -1.74954,-3.13232 0.002,0.002 0.003,0.002 0.004,0.004 0.15681,0.20047 0.28532,0.29888 0.2859,0.2187 0.002,-0.28305 -1.40527,-2.90072 -1.63793,-3.04747 -0.17026,-0.10741 -0.38153,-0.0793 -0.75915,0.10084 -0.61372,0.29266 -1.66348,0.33313 -1.74329,0.0672 -0.3106,-1.03505 -0.71097,-2.42177 -0.95735,-3.31685 -0.16554,-0.60141 -0.43501,-1.49822 -0.59913,-1.99273 -0.3499,-1.05427 -0.3225,-1.55466 0.0894,-1.62824 0.47238,-0.0844 0.54062,-0.24423 0.3719,-0.87079 -0.15589,-0.57892 -0.17363,-0.59218 -0.76428,-0.56553 l -0.60426,0.0274 -0.54617,-1.55363 c -0.30017,-0.85451 -0.68578,-1.87143 -0.85712,-2.25983 -0.25764,-0.58404 -2.4411,-4.53706 -2.92672,-5.29877 -1.43797,-2.25542 -2.45552,-3.97727 -2.99736,-5.07038 -0.64121,-1.29355 -0.66063,-1.36813 -0.43795,-1.70796 0.2487,-0.37958 0.31712,-1.09461 0.10475,-1.09461 z m 38.2924,3.03722 c 0.92636,-0.0881 1.5456,0.31147 2.38228,1.14814 1.02179,1.02179 1.54878,2.9693 1.05132,3.88466 -0.15905,0.29266 -2.43211,1.70152 -5.05159,3.13118 -2.61948,1.42966 -5.48454,3.02337 -6.36659,3.54124 -0.88207,0.51788 -2.65349,1.49625 -3.93649,2.1744 -1.283,0.67816 -3.31685,1.7652 -4.51966,2.41588 -1.20281,0.65068 -2.54527,1.36472 -2.98312,1.58667 -0.43784,0.22194 -0.87191,0.52636 -0.96475,0.67658 -0.23253,0.37624 -0.58928,0.34209 -0.94767,-0.0911 -0.42028,-0.50801 -2.68583,-5.08379 -2.68583,-5.42461 0,-0.28316 2.85013,-2.01173 6.5608,-3.97919 1.12262,-0.59525 2.17236,-1.18178 2.33273,-1.30362 0.16038,-0.12186 1.73497,-0.97679 3.49909,-1.8999 1.76412,-0.92311 3.33872,-1.78153 3.4991,-1.90731 0.16037,-0.12577 1.91758,-1.10501 3.90515,-2.17611 2.06519,-1.11292 3.29887,-1.68869 4.22523,-1.77688 z m -36.56051,18.18742 c -1.23331,0.0116 -1.24733,0.0161 -2.91592,0.91635 -0.92215,0.49756 -2.82479,1.46842 -4.22807,2.15733 -3.35393,1.6465 -3.1956,1.56706 -4.95705,2.4899 -0.84196,0.44113 -1.59784,0.85536 -1.6795,0.92034 -0.0816,0.065 -0.70492,0.40514 -1.38506,0.75575 -0.68012,0.3506 -2.35174,1.22826 -3.71493,1.95058 -1.36319,0.72233 -3.12473,1.64197 -3.91428,2.04342 -0.78954,0.40145 -1.41901,0.79082 -1.39871,0.86566 0.0203,0.0748 0.39624,0.22565 0.8349,0.33488 l 0.79732,0.19819 1.47618,-0.77112 c 0.81171,-0.42421 2.52534,-1.30498 3.80834,-1.95742 2.50117,-1.27194 7.22101,-3.82529 8.1207,-4.39323 0.30147,-0.19033 0.5731,-0.34627 0.60369,-0.34627 0.0305,0 0.52356,-0.25702 1.09517,-0.57122 0.5716,-0.3142 1.23002,-0.61345 1.46308,-0.66463 0.23305,-0.0512 0.53898,-0.22062 0.68,-0.37645 0.14101,-0.15582 0.34609,-0.28305 0.45561,-0.28305 0.10953,0 1.00128,-0.41816 1.98191,-0.92944 2.39958,-1.25109 3.41803,-1.61015 4.22408,-1.48928 0.8702,0.1305 1.44586,0.51757 2.1203,1.42549 0.71103,0.95718 1.0519,1.95003 1.0519,3.06513 0,1.28965 -0.26292,1.76842 -1.2649,2.3014 -0.46687,0.24835 -1.04597,0.56331 -1.28653,0.69994 -1.34443,0.76357 -2.45431,1.36578 -3.4262,1.85888 -0.60139,0.30515 -2.04478,1.11014 -3.2075,1.78885 -2.33149,1.36096 -2.80341,1.62784 -4.29926,2.43012 -0.56044,0.30059 -1.17645,0.67015 -1.36854,0.82124 -0.19208,0.1511 -0.40648,0.27451 -0.47669,0.27451 -0.0702,0 -0.4544,0.22962 -0.85369,0.51028 -0.39929,0.28066 -0.79739,0.51029 -0.88446,0.51029 -0.0871,0 -0.59584,0.25496 -1.13105,0.56666 -0.53521,0.31169 -1.62938,0.90762 -2.43126,1.32412 -1.71944,0.89309 -2.48198,1.58958 -2.59812,2.37373 -0.0445,0.3007 -0.0281,0.54674 0.0365,0.54674 0.12818,0 1.60616,-0.81489 3.43644,-1.89477 1.55269,-0.91611 2.72952,-1.56308 3.79069,-2.08386 0.48112,-0.23611 1.08918,-0.58989 1.35089,-0.78593 0.26172,-0.19604 1.37706,-0.82011 2.47852,-1.38733 2.63515,-1.35703 3.20491,-1.66541 4.81525,-2.6061 1.52753,-0.89234 3.59851,-2.02051 5.39956,-2.94097 l 1.21476,-0.62077 0.51315,-1.09347 c 0.67735,-1.44338 0.98129,-3.3908 0.68512,-4.3881 -0.35128,-1.18288 -1.6031,-2.52479 -2.95578,-3.16878 -0.69648,-0.33157 -1.00043,-0.38752 -2.05651,-0.37759 z m -50.396291,0.93002 c 0.100438,-0.0253 0.229286,-0.0181 0.390688,0.02 0.215197,0.0506 0.488085,0.15599 0.826932,0.31038 0.400334,0.18241 0.673022,0.43509 0.922615,0.88218 l 1.965959,2.21997 7.362676,15.08984 -1.822444,1.09346 -0.0086,-0.0136 c -0.134708,0.1283 -0.37332,0.23237 -0.615077,0.23237 -0.383708,0 -1.495449,-1.96391 -4.334001,-7.65427 -4.359599,-8.73956 -4.663749,-9.41953 -4.918323,-11.01155 -0.115505,-0.72235 -0.0718,-1.09268 0.229514,-1.16865 z m 23.458271,14.59551 c 0.76602,-0.0559 1.58007,0.32845 2.53264,1.16692 0.73526,0.64722 1.41959,1.43701 1.52059,1.75525 0.31405,0.98949 -0.68596,3.41712 -1.73872,4.2201 -0.8354,0.63718 -9.123342,5.38646 -9.399826,5.38646 -0.05743,0 -0.593773,0.30305 -1.191993,0.67374 -0.598219,0.37069 -1.547028,0.85636 -2.10834,1.07922 -0.561307,0.22287 -1.95579,0.96957 -3.098725,1.659 -1.142935,0.68944 -2.145563,1.2535 -2.227937,1.2535 -0.08238,0 -3.280476,1.74753 -7.106964,3.88352 -3.826495,2.13598 -8.006912,4.45372 -9.289913,5.15068 -1.282995,0.69695 -2.791985,1.55346 -3.353297,1.90331 -0.561314,0.34987 -1.873474,1.09615 -2.915913,1.65786 -1.042432,0.56171 -4.750424,2.61528 -8.239725,4.56408 -3.489302,1.94882 -6.37606,3.5413 -6.415005,3.53896 -0.28201,-0.0178 -0.744861,-0.59796 -1.239831,-1.55363 -0.319217,-0.61632 -1.488103,-1.97974 -2.597555,-3.02982 -2.285675,-2.16335 -2.307486,-2.02661 0.559263,-3.49511 0.801875,-0.41076 2.812554,-1.51553 4.468407,-2.45517 1.655855,-0.93963 3.08152,-1.70853 3.168204,-1.70853 0.08669,0 2.406155,-1.23035 5.154104,-2.73424 6.66649,-3.64842 13.346533,-7.18034 20.596468,-10.89025 3.287684,-1.68236 6.108834,-3.16238 6.269209,-3.28837 0.160376,-0.126 1.734974,-0.97904 3.499094,-1.89592 1.764126,-0.91687 4.865265,-2.57131 6.891689,-3.6762 2.026426,-1.10491 3.797846,-2.01139 3.936476,-2.01495 0.13863,-0.003 0.58034,-0.2633 0.98127,-0.57691 0.44443,-0.34764 0.88672,-0.53993 1.34633,-0.5735 z m -54.521269,8.668 c 0.53847,0.006 1.590971,0.44295 2.557117,1.061 0.90308,0.57769 1.702335,1.05018 1.776314,1.05018 0.07398,0 1.11117,0.65609 2.304824,1.45796 1.193646,0.80188 2.278785,1.46046 2.411322,1.46308 0.132536,0.003 1.225029,0.60747 2.427837,1.34405 1.202814,0.73658 2.5496,1.55423 2.992795,1.81732 0.443201,0.2631 0.770585,0.67034 0.72727,0.90496 -0.04332,0.23462 -1.127666,0.9821 -2.409613,1.66127 -2.345828,1.24283 -3.292842,1.49121 -3.803783,0.99779 -0.689261,-0.66563 -9.588799,-5.85539 -12.013328,-7.00559 -1.483463,-0.70375 -2.697216,-1.44049 -2.697216,-1.63735 0,-0.57756 4.686289,-3.1265 5.726461,-3.11467 z m -9.078621,4.89041 c 0.955358,0.0475 1.937673,0.44207 3.212059,1.19712 1.119618,0.66335 2.494698,1.46181 3.056012,1.7746 0.561312,0.3128 1.807864,1.00878 2.770115,1.54624 0.962251,0.53744 2.864889,1.59528 4.228071,2.35095 1.363188,0.75567 2.515574,1.55433 2.560535,1.77518 0.05047,0.24792 -1.024999,0.98455 -2.810551,1.92495 -1.590496,0.83768 -2.941207,1.52289 -3.001908,1.52289 -0.110125,0 -4.059076,-2.55933 -11.125454,-7.21062 -2.0539,-1.35194 -3.685772,-2.61199 -3.626095,-2.79973 0.05968,-0.18774 0.817699,-0.72582 1.684622,-1.19598 1.168328,-0.63363 2.097238,-0.93309 3.052594,-0.8856 z m 93.92878,1.19883 c -0.0998,-0.0358 -0.91985,0.29524 -1.82244,0.73581 -2.46387,1.20264 -3.562,1.69128 -4.84884,2.15903 -0.64149,0.23317 -1.36319,0.51453 -1.60375,0.62532 -1.05037,0.48377 -6.50118,2.36556 -9.25802,3.19612 -1.6457,0.49579 -2.25083,0.65275 -4.88415,1.26489 -1.40965,0.32769 -2.50835,0.29815 -3.62781,-0.0968 -0.31502,-0.11115 -0.6091,-0.16601 -0.65323,-0.12188 -0.0442,0.0442 0.0646,0.11833 0.24148,0.16459 0.18806,0.0491 0.32177,0.19827 0.32177,0.3588 0,0.20889 -0.10654,0.27451 -0.44479,0.27451 -1.03738,0 -1.77989,-0.8839 -0.83433,-0.99324 0.34998,-0.0405 0.37514,-0.078 0.22039,-0.32576 -0.15273,-0.24458 -0.0925,-0.35511 0.4784,-0.88047 0.78366,-0.72114 2.95234,-2.16126 4.82833,-3.20636 2.88767,-1.60868 3.76826,-2.17583 3.37836,-2.17555 -0.0649,6e-5 -0.67555,0.33282 -1.35714,0.73923 -0.68159,0.40642 -1.79694,1.03518 -2.47853,1.39759 -0.68159,0.36241 -1.33767,0.74392 -1.45796,0.84744 -0.12028,0.10348 -0.44832,0.30202 -0.72898,0.44137 -0.28065,0.13935 -1.05546,0.61322 -1.72163,1.05303 -0.66618,0.43981 -1.38101,0.84537 -1.58895,0.90097 -0.30262,0.081 -0.41608,0.24531 -0.56838,0.82351 -0.10464,0.3973 -0.19352,0.99767 -0.19705,1.33438 -0.005,0.53508 0.0598,0.66253 0.51883,1.0126 0.28882,0.22028 0.79728,0.4425 1.12992,0.49377 0.33263,0.0513 0.93287,0.0613 1.3338,0.0222 1.31035,-0.12786 5.05253,-1.07689 6.67356,-1.6926 0.5431,-0.20628 1.09569,-0.3753 1.22787,-0.3753 0.13219,0 0.34383,-0.0851 0.47042,-0.18909 0.2291,-0.18823 1.50376,-0.71591 2.19833,-0.91008 0.20046,-0.056 0.88936,-0.34636 1.53085,-0.64526 0.6415,-0.2989 1.4288,-0.62744 1.74954,-0.72955 0.32076,-0.10211 0.87843,-0.33951 1.23927,-0.52793 0.79227,-0.41373 4.68663,-2.10095 4.84941,-2.10095 0.27869,0 5.84831,-2.81576 5.68545,-2.87434 z m -41.725996,2.81966 c 0.205927,0.0202 0.642848,0.33773 1.145863,0.93628 0.887892,1.05651 1.099321,1.15953 2.379998,1.15953 h 1.405561 l 0.768847,1.60376 c 1.240447,2.58849 1.270547,2.81912 0.43966,3.36354 -2.480251,1.62512 -6.180676,0.0931 -8.600798,-3.5606 -1.059338,-1.5993 -1.110064,-2.00334 -0.30412,-2.43467 0.52144,-0.27906 0.773784,-0.13191 1.983047,1.15611 0.76209,0.81173 1.547095,1.47562 1.74442,1.47562 0.601244,0 0.725406,-0.84472 0.225528,-1.53484 -0.259709,-0.35856 -0.685927,-0.95144 -0.9471,-1.31729 -0.421596,-0.59055 -0.446831,-0.86765 -0.240906,-0.84744 z m -61.430048,0.20047 c 0.444443,0 4.050263,2.13584 8.642943,5.11936 0.801874,0.52091 1.803013,1.12392 2.224521,1.34007 1.283778,0.65832 3.87346,2.4524 4.317486,2.99108 0.363789,0.44134 0.363789,0.54264 0,0.77284 -0.230252,0.1457 -0.681026,0.2529 -1.001776,0.23805 -0.487605,-0.0226 -13.506321,-8.52709 -14.658718,-9.57581 -0.457666,-0.41648 -0.205795,-0.88559 0.475544,-0.88559 z m 37.061118,13.70479 c 0.340063,0 0.6203,5.92341 0.295579,6.24814 -0.155895,0.15589 -0.29272,1.53638 -0.304121,3.06796 -0.03218,4.31949 -0.370103,7.29617 -0.863384,7.60814 -1.113741,0.70438 -1.176836,0.37495 -0.845728,-4.41374 0.159725,-2.31004 0.260548,-5.82465 0.223819,-7.8103 -0.06397,-3.45853 -0.03865,-3.63321 0.605962,-4.15518 0.370093,-0.29968 0.769494,-0.54502 0.887873,-0.54502 z m -22.842632,3.1608 c 0.212935,0.0441 0.660036,0.43294 1.349178,1.14017 1.114729,1.14397 1.98675,2.87658 1.760935,3.49909 -0.07272,0.20047 -0.379748,0.36448 -0.682276,0.36448 -0.401203,0 -0.828431,-0.60286 -1.579263,-2.22793 -0.907799,-1.96482 -1.203475,-2.84925 -0.848574,-2.77581 z" /></g></svg>
