<?xml version="1.0" encoding="UTF-8" standalone="no"?>
<!-- Created with Inkscape (http://www.inkscape.org/) -->

<svg
   width="167.75471mm"
   height="167.75471mm"
   viewBox="0 0 167.75471 167.75471"
   version="1.1"
   id="svg1"
   xml:space="preserve"
   xmlns="http://www.w3.org/2000/svg"
   xmlns:svg="http://www.w3.org/2000/svg"><defs
     id="defs1" /><g
     id="layer1"
     transform="translate(-23.845364,-76.137505)"><g
       id="g418"
       transform="matrix(0.95158459,0,0,1,1.8208597,0)"><path
         id="path417"
         style="stroke-width:2.01213;paint-order:stroke fill markers"
         d="m 120.5414,235.09058 a 6.9064595,2.4009579 0 0 1 -6.90647,2.40095 6.9064595,2.4009579 0 0 1 -6.90646,-2.40095 6.9064595,2.4009579 0 0 1 6.90646,-2.40097 6.9064595,2.4009579 0 0 1 6.90647,2.40097 z M 76.608019,221.99461 a 5.0303222,0.50303221 78.698046 0 1 0.492564,5.03137 5.0303222,0.50303221 78.698046 0 1 -1.479119,-4.8342 5.0303222,0.50303221 78.698046 0 1 -0.492563,-5.03136 5.0303222,0.50303221 78.698046 0 1 1.479118,4.83419 z m -1.437715,-6.73628 a 5.0303222,0.50303221 78.698046 0 1 0.492563,5.03137 5.0303222,0.50303221 78.698046 0 1 -1.479118,-4.8342 5.0303222,0.50303221 78.698046 0 1 -0.492563,-5.03136 5.0303222,0.50303221 78.698046 0 1 1.479118,4.83419 z m 77.502446,-77.48068 a 1.0670925,2.8455796 0 0 1 -1.0671,2.84558 1.0670925,2.8455796 0 0 1 -1.06709,-2.84558 1.0670925,2.8455796 0 0 1 1.06709,-2.84558 1.0670925,2.8455796 0 0 1 1.0671,2.84558 z m -11.85661,-4.03123 a 0.35569745,4.031238 0 0 1 -0.35569,4.03123 0.35569745,4.031238 0 0 1 -0.35571,-4.03123 0.35569745,4.031238 0 0 1 0.35571,-4.03124 0.35569745,4.031238 0 0 1 0.35569,4.03124 z m -10.19665,-4.26837 a 1.5413559,2.9641457 0 0 1 -1.54135,2.96413 1.5413559,2.9641457 0 0 1 -1.54135,-2.96413 1.5413559,2.9641457 0 0 1 1.54135,-2.96416 1.5413559,2.9641457 0 0 1 1.54135,2.96416 z m 33.19843,13.45722 a 4.6240672,2.074902 0 0 1 -4.62407,2.07491 4.6240672,2.074902 0 0 1 -4.62407,-2.07491 4.6240672,2.074902 0 0 1 4.62407,-2.07489 4.6240672,2.074902 0 0 1 4.62407,2.07489 z m 3.4384,34.08768 a 7.054667,7.3510817 0 0 1 -7.05466,7.35109 7.054667,7.3510817 0 0 1 -7.05467,-7.35109 7.054667,7.3510817 0 0 1 7.05467,-7.35108 7.054667,7.3510817 0 0 1 7.05466,7.35108 z m -0.82996,6.04685 a 5.3947451,7.5882131 0 0 1 -5.39473,7.58822 5.3947451,7.5882131 0 0 1 -5.39474,-7.58822 5.3947451,7.5882131 0 0 1 5.39474,-7.58822 5.3947451,7.5882131 0 0 1 5.39473,7.58822 z m -30.8271,-11.14519 a 14.939294,2.1341851 0 0 1 -14.93931,2.13419 14.939294,2.1341851 0 0 1 -14.93928,-2.13419 14.939294,2.1341851 0 0 1 14.93928,-2.13418 14.939294,2.1341851 0 0 1 14.93931,2.13418 z M 104.06074,89.284238 a 5.9282912,2.9641457 0 0 1 -5.928308,2.964146 5.9282912,2.9641457 0 0 1 -5.928291,-2.964146 5.9282912,2.9641457 0 0 1 5.928291,-2.964146 5.9282912,2.9641457 0 0 1 5.928308,2.964146 z M 75.486357,87.802165 a 5.7504425,5.631877 0 0 1 -5.750443,5.631876 5.7504425,5.631877 0 0 1 -5.750442,-5.631876 5.7504425,5.631877 0 0 1 5.750442,-5.631878 5.7504425,5.631877 0 0 1 5.750443,5.631878 z m -0.711393,33.257715 a 2.4305996,3.9126721 0 0 1 -2.430601,3.91267 2.4305996,3.9126721 0 0 1 -2.430599,-3.91267 2.4305996,3.9126721 0 0 1 2.430599,-3.91268 2.4305996,3.9126721 0 0 1 2.430601,3.91268 z m -0.47426,-4.44621 a 3.2605604,4.5647845 0 0 1 -3.260561,4.56478 3.2605604,4.5647845 0 0 1 -3.26056,-4.56478 3.2605604,4.5647845 0 0 1 3.26056,-4.56478 3.2605604,4.5647845 0 0 1 3.260561,4.56478 z m 7.113942,-15.88784 a 8.418174,7.8846279 0 0 1 -8.418172,7.88464 8.418174,7.8846279 0 0 1 -8.418175,-7.88464 8.418174,7.8846279 0 0 1 8.418175,-7.884613 8.418174,7.8846279 0 0 1 8.418172,7.884613 z m 9.603837,-1.719206 a 7.7660618,10.908056 0 0 1 -7.766063,10.908056 7.7660618,10.908056 0 0 1 -7.766062,-10.908056 7.7660618,10.908056 0 0 1 7.766062,-10.90805 7.7660618,10.908056 0 0 1 7.766063,10.90805 z m 14.346487,0.533555 A 10.493075,10.493075 0 0 1 94.87187,110.03327 10.493075,10.493075 0 0 1 84.378794,99.540179 10.493075,10.493075 0 0 1 94.87187,89.047104 a 10.493075,10.493075 0 0 1 10.4931,10.493075 z m 18.73338,10.611641 a 2.7862972,3.7941066 0 0 1 -2.78629,3.79412 2.7862972,3.7941066 0 0 1 -2.78629,-3.79412 2.7862972,3.7941066 0 0 1 2.78629,-3.7941 2.7862972,3.7941066 0 0 1 2.78629,3.7941 z m -6.1654,-1.48208 a 8.062476,7.054667 0 0 1 -8.06248,7.05466 8.062476,7.054667 0 0 1 -8.06249,-7.05466 8.062476,7.054667 0 0 1 8.06249,-7.05468 8.062476,7.054667 0 0 1 8.06248,7.05468 z M 83.311704,92.722645 A 10.137379,8.062476 0 0 1 73.174325,100.78512 10.137379,8.062476 0 0 1 63.036948,92.722645 10.137379,8.062476 0 0 1 73.174325,84.660169 10.137379,8.062476 0 0 1 83.311704,92.722645 Z M 103.94218,243.01923 c -1.48732,-0.22285 -2.92088,-0.43107 -6.876841,-0.99884 -1.304223,-0.18719 -3.331701,-0.56319 -4.505502,-0.83554 -1.173799,-0.27235 -2.374278,-0.54988 -2.667732,-0.61672 -0.293448,-0.0668 -0.533545,-0.22283 -0.533545,-0.34667 0,-0.12383 0.177569,-0.15703 0.394598,-0.0738 0.25878,0.0993 0.337636,0.0593 0.229098,-0.11635 -0.09104,-0.14729 -0.04251,-0.46471 0.107798,-0.70539 0.265454,-0.42507 0.3103,-0.42512 1.563509,-0.002 0.709621,0.23956 2.096415,0.53779 3.081766,0.66272 0.985353,0.12498 3.086509,0.43545 4.669233,0.69004 1.582728,0.25459 3.517948,0.52621 4.300498,0.60364 0.78253,0.0774 1.86073,0.19452 2.39601,0.26023 l 0.97322,0.11952 -0.3804,0.81289 c -0.41524,0.88736 -0.44113,0.89251 -2.7517,0.54631 z m -15.641967,-2.93061 c -0.256036,-0.19359 -1.056354,-0.53701 -1.778487,-0.76315 -1.378336,-0.43162 -3.5399,-1.74227 -3.88972,-2.35851 -0.133645,-0.23541 -0.09461,-0.43036 0.111691,-0.55788 0.174426,-0.10786 0.23439,-0.27874 0.13326,-0.37987 -0.10113,-0.10116 -0.278982,-0.0301 -0.395218,0.15809 -0.415542,0.67237 -0.594074,-0.0812 -0.676839,-2.85678 -0.05201,-1.74398 -0.187518,-2.89622 -0.355698,-3.02438 -0.149428,-0.11382 -0.927384,-0.44661 -1.728793,-0.73948 -1.612062,-0.58908 -3.166963,-1.8463 -3.166963,-2.56067 0,-0.25412 -0.08003,-0.54153 -0.177848,-0.63869 -0.170893,-0.16973 -0.507532,-1.84237 -1.030326,-5.1193 -0.135249,-0.84775 -0.333802,-1.75476 -0.44123,-2.01561 -0.246779,-0.59919 -0.685611,-2.56723 -1.083951,-4.86121 -0.169854,-0.97816 -0.480598,-2.4721 -0.69054,-3.31984 -0.209942,-0.84774 -0.544941,-2.49283 -0.744447,-3.65575 -0.199506,-1.16291 -0.446079,-2.28335 -0.547939,-2.48988 -0.296662,-0.60147 -1.302257,-5.94753 -1.236973,-6.57614 0.0091,-0.0885 0.275027,-0.18836 0.590764,-0.22203 0.492465,-0.0525 0.594916,0.0625 0.720787,0.80942 0.0807,0.47886 0.405458,1.99108 0.721682,3.36051 0.316219,1.36944 0.727072,3.2902 0.913007,4.26838 0.498631,2.62326 1.282697,6.40972 1.939567,9.3667 0.811828,3.65453 1.067447,5.02713 1.067447,5.73187 0,0.51979 -0.05354,0.56575 -0.361428,0.31022 -0.511362,-0.4244 -0.74927,-0.0722 -0.365913,0.54162 0.176995,0.2834 0.403879,0.78541 0.50419,1.11558 l 0.182386,0.60031 0.02039,-0.65211 c 0.0281,-0.89942 0.413312,-0.82035 0.577642,0.11852 0.536866,3.06744 0.44177,2.85938 1.68713,3.69165 0.647517,0.43273 1.472997,0.84594 1.834401,0.91822 0.361405,0.0723 0.923389,0.37819 1.248852,0.67982 0.325464,0.30164 0.654481,0.44692 0.73115,0.32286 0.07667,-0.12408 0.243401,-0.16128 0.370506,-0.0827 0.76706,0.47408 4.83114,1.21002 11.770555,2.13147 1.216707,0.16156 1.264416,0.4744 0.225841,1.48103 -0.719849,0.69771 -1.305926,1.02141 -1.024314,0.56576 0.06532,-0.10571 -0.66871,-0.18572 -1.631175,-0.17785 -1.485737,0.0127 -1.820508,-0.0613 -2.217377,-0.48618 -0.328842,-0.35207 -0.895717,-0.54893 -1.911807,-0.66388 -0.794398,-0.0898 -1.444359,-0.26483 -1.444359,-0.38876 0,-0.12397 0.08003,-0.21272 0.177848,-0.19728 0.480205,0.0758 0.770676,-0.0599 0.770676,-0.36007 0,-0.22132 -0.276652,-0.33197 -0.829961,-0.33197 -0.634668,0 -0.829959,0.0983 -0.829959,0.41803 0,0.39039 -0.0717,0.39445 -1.084175,0.061 -1.501547,-0.49433 -1.737385,-0.21278 -1.874087,2.23726 l -0.106621,1.91088 0.880329,0.62452 c 0.484179,0.34348 1.280488,0.80179 1.769572,1.01844 0.489085,0.21668 0.889243,0.47962 0.889243,0.58435 0,0.20781 1.594504,0.58008 2.078573,0.48532 0.348719,-0.0683 1.715533,0.69263 1.715533,0.95504 0,0.0977 -0.213419,0.29188 -0.474261,0.43147 -0.260845,0.13961 -0.474264,0.41013 -0.474264,0.60117 0,0.44158 -0.459587,0.43302 -1.058348,-0.0197 z m -5.687875,-7.64387 c -0.437086,-0.43708 -0.604876,1.49945 -0.222213,2.56465 0.168626,0.4694 0.224281,0.2866 0.281497,-0.9245 0.03922,-0.83026 0.01255,-1.56833 -0.05928,-1.64015 z m -1.916435,-3.35952 c 0.07656,-0.12382 -0.07019,-0.33728 -0.326114,-0.47424 -0.583604,-0.31233 -0.975935,-0.32175 -0.496495,-0.0115 0.286165,0.18494 0.248662,0.23058 -0.191842,0.23352 -0.301149,0.002 -0.489067,-0.091 -0.417592,-0.20665 0.07147,-0.11559 -0.01945,-0.33424 -0.202027,-0.48577 -0.25301,-0.20998 -0.374173,-0.20723 -0.509381,0.0114 -0.235325,0.38077 0.739344,1.15878 1.451684,1.15878 0.303908,0 0.615204,-0.10138 0.691767,-0.22523 z m -3.545302,-3.78632 c -0.08766,-0.39909 -0.269285,-0.79356 -0.403619,-0.87657 -0.233809,-0.14451 -0.06191,1.17682 0.213798,1.64335 0.231865,0.39236 0.344487,-0.0626 0.189821,-0.76678 z m -1.071414,-5.11801 c 0,-0.19562 -0.09889,-0.35568 -0.219745,-0.35568 -0.120855,0 -0.265292,-0.18674 -0.320965,-0.41499 -0.05567,-0.22824 -0.100613,-0.0682 -0.09987,0.35571 10e-4,0.4876 0.118738,0.77068 0.320965,0.77068 0.175786,0 0.31961,-0.16008 0.31961,-0.35572 z m -0.474261,-2.14817 c 0,-0.39129 -0.374773,-0.45739 -0.592832,-0.10457 -0.193383,0.3129 0.09015,0.75695 0.372084,0.58269 0.121411,-0.0751 0.220748,-0.29018 0.220748,-0.47812 z m -0.474264,-1.64592 c 0,-0.19563 -0.100411,-0.35571 -0.223138,-0.35571 -0.299019,0 -0.513177,0.37031 -0.323725,0.55976 0.267058,0.26705 0.546863,0.16265 0.546863,-0.20405 z m -0.474265,-2.30019 c 0,-0.38305 -0.07012,-0.45156 -0.263894,-0.25778 -0.145145,0.14515 -0.192203,0.37988 -0.104568,0.52169 0.245289,0.39688 0.368468,0.30865 0.368468,-0.26391 z m -0.23713,-1.84962 c 0,-0.26348 -0.15809,-0.47425 -0.355697,-0.47425 -0.361013,0 -0.486422,0.50162 -0.197611,0.79043 0.300632,0.30063 0.553308,0.15625 0.553308,-0.31618 z m 33.672723,24.87738 c -1.36944,-0.25046 -3.39692,-0.60421 -4.50552,-0.78609 -1.10859,-0.18188 -3.08272,-0.59237 -4.386947,-0.91217 -1.304221,-0.31981 -3.01157,-0.71931 -3.794105,-0.88774 -0.782536,-0.16843 -2.00969,-0.50532 -2.727014,-0.74861 -1.064527,-0.36106 -1.140796,-0.41819 -0.414981,-0.31089 0.544285,0.0805 0.889245,0.0354 0.889245,-0.11636 0,-0.13633 0.226485,-0.24787 0.503298,-0.24787 0.420489,0 0.454729,0.0586 0.208095,0.3557 -0.214737,0.25874 -0.220131,0.35569 -0.01979,0.35569 0.465787,0 2.200263,-1.86743 2.014158,-2.16854 -0.126969,-0.20545 0.130331,-0.23424 0.991995,-0.11104 2.840435,0.40622 5.173116,0.61371 8.040276,0.71521 4.73869,0.16773 9.60383,0.43809 9.60383,0.53369 0,0.0472 -0.64948,0.85878 -1.44329,1.80328 -0.7938,0.94448 -1.61714,2.01071 -1.82961,2.36938 -0.21248,0.35866 -0.44336,0.64303 -0.51305,0.63196 -0.0696,-0.0114 -1.24717,-0.2251 -2.6166,-0.47556 z M 86.038717,104.54608 c 0,-0.27906 -0.178022,-0.63757 -0.395608,-0.79667 -0.365217,-0.26705 -0.356109,-0.35318 0.118561,-1.12122 0.282794,-0.45757 0.514172,-1.11281 0.514172,-1.45607 0,-0.50765 -0.110639,-0.62413 -0.592827,-0.62413 -0.339737,0 -0.592831,0.13673 -0.592831,0.32028 0,0.25122 -0.25553,0.27989 -1.185014,0.13296 -1.431694,-0.22633 -1.62785,-0.33631 -1.906453,-1.0691 -0.225626,-0.593441 -0.91949,-0.789589 -0.967123,-0.273386 -0.01505,0.163022 -0.04172,0.447296 -0.05928,0.631696 -0.01757,0.18441 -0.152927,0.37591 -0.30082,0.42557 -0.386868,0.1299 -1.086818,-0.6439 -0.930404,-1.02855 0.07271,-0.178825 0.199861,-0.492717 0.28255,-0.697531 0.126139,-0.312432 0.01489,-0.346987 -0.690777,-0.214606 -0.938411,0.176047 -1.910849,-0.04034 -1.701768,-0.378582 0.07481,-0.121037 0.716606,-0.220069 1.426233,-0.220069 0.988784,0 1.290227,-0.08312 1.290227,-0.355695 0,-0.195633 -0.15401,-0.355698 -0.34225,-0.355698 -0.188237,0 -0.498585,-0.223197 -0.68966,-0.495997 l -0.347411,-0.495998 -0.529207,0.52921 -0.529209,0.529208 -0.410709,-0.544489 c -0.261799,-0.347073 -0.550677,-0.490778 -0.796749,-0.39635 -0.391627,0.150281 -0.511731,-0.24547 -0.421557,-1.389058 0.03139,-0.39808 -0.117698,-0.49549 -0.831983,-0.543595 -1.146839,-0.07724 -1.205849,-0.130512 -1.081671,-0.976597 0.08889,-0.605662 0.0271,-0.721835 -0.384075,-0.721835 -0.269511,0 -0.735138,-0.09991 -1.034724,-0.222035 -0.299585,-0.122122 -0.956713,-0.289242 -1.460282,-0.371383 L 70.572489,92.217012 71.3695,91.780297 c 0.719673,-0.394336 0.851252,-0.402176 1.35591,-0.08081 0.705831,0.44948 0.969672,0.195274 1.043551,-1.00543 0.05533,-0.899137 0.01302,-0.957382 -1.128184,-1.553418 -0.879395,-0.459297 -1.268852,-0.553668 -1.507731,-0.365349 -0.239514,0.188821 -0.400632,0.146476 -0.628522,-0.165184 -0.253819,-0.347116 -0.601516,-0.406668 -2.024528,-0.346748 -1.900875,0.08005 -2.517522,-0.325032 -1.196067,-0.785692 0.50095,-0.174632 0.738704,-0.41691 0.751504,-0.765798 0.01027,-0.280693 0.07254,-0.376963 0.138328,-0.213934 0.166694,0.413119 0.818567,0.369619 1.488043,-0.0993 L 70.226761,86.00292 69.714568,85.813446 C 69.432856,85.709234 69.20237,85.46047 69.20237,85.260633 c 0,-0.429239 0.06934,-0.418127 -0.89081,-0.14276 -0.588999,0.168923 -0.769112,0.147634 -0.769112,-0.0909 0,-0.171318 -0.21342,-0.367298 -0.474265,-0.43551 -0.350017,-0.09153 -0.474263,-0.323451 -0.474263,-0.885274 0,-0.636039 -0.07549,-0.741511 -0.45895,-0.641235 -0.263525,0.06892 -0.512129,-0.01858 -0.583852,-0.205477 -0.0687,-0.179022 -0.289006,-0.262523 -0.489578,-0.185556 -0.200569,0.07697 -0.364673,0.02182 -0.364673,-0.122566 0,-0.144376 0.103365,-0.262502 0.229689,-0.262502 0.12633,0 0.178674,-0.133386 0.116318,-0.296414 -0.149438,-0.390712 3.049659,-2.023261 5.70085,-2.909231 0.521691,-0.174338 1.428718,-0.499353 2.015619,-0.722257 1.454216,-0.55231 5.731147,-1.277173 7.469647,-1.26597 0.782533,0.0051 2.649946,0.209375 4.149803,0.45407 3.986782,0.650428 4.339605,0.719644 4.861201,0.953668 0.260844,0.11704 1.167873,0.438024 2.015619,0.713311 1.915772,0.622105 4.26837,1.659124 4.26837,1.881486 0,0.09167 -0.266775,0.288233 -0.592831,0.436795 -1.014858,0.4624 -0.59392,1.465936 0.614893,1.465936 1.18273,0 4.355273,0.758277 5.582795,1.334355 0.66986,0.314363 1.59982,0.875068 2.06659,1.246007 0.77181,0.613359 0.80821,0.693483 0.40188,0.884806 -0.24573,0.115708 -2.54732,2.664687 -5.114636,5.664402 -2.567314,2.999716 -5.118192,5.934216 -5.668626,6.521119 -0.550436,0.586893 -1.175681,1.350784 -1.389432,1.697504 -0.367027,0.59537 -0.466446,0.62336 -1.787649,0.50357 -1.550521,-0.1406 -1.948422,0.11013 -1.220381,0.769 0.387306,0.35051 0.573396,0.37774 1.061502,0.15534 0.919714,-0.41904 0.713179,-0.006 -0.851931,1.70149 -1.015294,1.10802 -1.61351,1.57566 -2.01562,1.57566 -0.426182,0 -0.571821,-0.12923 -0.571822,-0.50742 z m 24.424593,138.96465 c -4.68406,-0.2657 -4.35662,-0.16749 -3.74787,-1.12398 l 0.50658,-0.79593 2.27275,0.2031 c 1.25,0.11167 4.0868,0.20311 6.30398,0.20311 H 119.83 l 0.0687,-1.80878 c 0.059,-1.5548 0.009,-1.83284 -0.3557,-1.98017 -0.23343,-0.0944 -2.23659,-0.2744 -4.45146,-0.40026 -2.21485,-0.12585 -4.07066,-0.27246 -4.12401,-0.32581 -0.10647,-0.10647 1.32298,-1.99191 2.77945,-3.66603 l 0.92837,-1.06709 2.9999,-0.0556 c 7.86537,-0.14595 14.78934,-0.49272 15.3005,-0.76627 0.88084,-0.47141 0.28049,-0.67967 -2.3563,-0.81745 -3.75074,-0.19599 -8.06248,-0.67361 -8.06248,-0.89311 0,-0.10698 0.085,-0.19453 0.18913,-0.19453 0.28814,0 4.43881,-3.14122 6.51648,-4.93169 2.25068,-1.93955 4.31883,-3.96418 7.28516,-7.13186 l 2.25277,-2.40566 0.40361,-3.49561 c 0.22199,-1.92259 0.57317,-5.04288 0.78043,-6.93402 0.20726,-1.89111 0.48889,-4.07865 0.62583,-4.86117 0.13693,-0.78255 0.49887,-3.39693 0.80427,-5.80974 0.30541,-2.41281 0.76835,-5.61409 1.02875,-7.11395 0.2604,-1.49985 0.59306,-3.84746 0.73923,-5.2169 0.14619,-1.36943 0.36713,-3.0679 0.49098,-3.77437 0.30657,-1.74849 0.28295,-2.52219 -0.0864,-2.82866 -0.19889,-0.16507 -2.53562,-0.29979 -6.46185,-0.37258 -3.38266,-0.0627 -7.48414,-0.17972 -9.11443,-0.26003 -4.17177,-0.20549 -14.11462,-0.81143 -15.53213,-0.94654 -0.65212,-0.0621 -2.73294,-0.22738 -4.62406,-0.36715 -5.78478,-0.42758 -8.30698,-0.66184 -11.026647,-1.02414 -1.434647,-0.19112 -3.322705,-0.41737 -4.195684,-0.50277 -0.872982,-0.0855 -2.420265,-0.30972 -3.43841,-0.49846 -1.018147,-0.18875 -2.864913,-0.50261 -4.103924,-0.69749 -1.239012,-0.19487 -3.586617,-0.61116 -5.216897,-0.92506 -1.63028,-0.31392 -4.244657,-0.74728 -5.809724,-0.96301 -1.56507,-0.21574 -3.112353,-0.50089 -3.438409,-0.63363 -0.326059,-0.13279 -1.59216,-0.30115 -2.813566,-0.37416 l -2.220736,-0.13278 0.171159,1.24446 c 0.09414,0.68443 0.379858,2.1681 0.634946,3.29702 0.255088,1.12892 0.716912,3.33309 1.026273,4.89814 0.309364,1.56509 0.718243,3.4325 0.908615,4.14982 0.190372,0.71732 0.474579,2.10455 0.631569,3.08271 0.15699,0.97817 0.480289,2.52544 0.718447,3.43841 0.238152,0.91296 0.551964,2.35353 0.697357,3.20128 0.145393,0.84774 0.473625,2.41393 0.729407,3.48042 0.525216,2.18991 0.575463,2.78124 0.217537,2.56001 -0.136137,-0.0841 -0.40549,-0.0219 -0.598561,0.13836 -0.193074,0.16024 -0.382576,0.24946 -0.421112,0.19826 -0.188669,-0.25059 -0.622194,-2.13394 -0.75832,-3.29434 -0.08415,-0.71732 -0.403385,-2.31797 -0.709413,-3.55698 -0.306031,-1.23901 -0.783124,-3.4799 -1.060212,-4.97976 -0.277082,-1.49985 -0.598125,-2.94044 -0.713422,-3.20128 -0.115304,-0.26084 -0.365893,-1.43464 -0.556873,-2.60845 -0.190983,-1.17379 -0.469823,-2.56102 -0.619643,-3.08271 -0.14982,-0.52169 -0.488072,-2.12233 -0.751668,-3.55696 -0.263596,-1.43467 -0.536108,-2.90322 -0.605576,-3.26347 -0.06946,-0.36027 -0.220717,-0.71337 -0.336107,-0.78467 -0.115379,-0.0714 -0.211425,-0.47018 -0.213421,-0.88634 -0.0054,-1.12383 -0.282948,-1.38887 -1.8107,-1.72908 -1.717077,-0.38236 -3.385396,-0.96803 -3.944,-1.38456 -0.395401,-0.29483 -0.422157,-1.02899 -0.411884,-11.30128 0.0061,-6.04227 0.103263,-11.07821 0.21603,-11.19098 0.288669,-0.28867 1.757475,-0.64543 3.701436,-0.89905 0.912956,-0.11914 2.513594,-0.33224 3.556973,-0.47361 2.03151,-0.27527 5.314603,-0.51783 12.682747,-0.93698 3.032909,-0.17255 4.680814,-0.35903 4.796503,-0.54277 0.260714,-0.4141 0.02568,-0.96648 -1.159895,-2.72608 -1.351743,-2.00624 -2.181017,-2.73832 -4.107074,-3.62574 -0.847743,-0.39059 -1.808129,-0.85483 -2.134185,-1.03165 -0.326055,-0.17682 -0.966312,-0.50964 -1.422791,-0.7396 -0.456476,-0.22997 -1.043378,-0.52643 -1.304224,-0.65877 -0.260843,-0.13235 -0.774341,-0.39219 -1.141104,-0.57742 -0.439044,-0.22174 -1.006082,-0.28629 -1.659924,-0.18894 -1.719567,0.25601 -5.749331,-0.29888 -8.328538,-1.14682 -2.903165,-0.95443 -3.847058,-1.50892 -5.61189,-3.29661 -2.495878,-2.52821 -3.034219,-4.55227 -2.754719,-10.35714 l 0.05138,-1.06709 -2.555617,-0.32645 c -2.158585,-0.27571 -2.538159,-0.38623 -2.443244,-0.71139 0.0618,-0.21174 0.176899,-0.8118 0.255761,-1.33349 0.07886,-0.52169 0.25828,-1.40132 0.398708,-1.95473 0.194902,-0.76808 0.185149,-1.09076 -0.0412,-1.3635 -0.443324,-0.53418 -0.789526,-0.45572 -3.137932,0.7112 l -2.150371,1.06851 -0.780668,-0.59544 c -0.429367,-0.3275 -1.428821,-1.38866 -2.221011,-2.35813 -0.79219,-0.96948 -1.771285,-2.02168 -2.175769,-2.33825 l -0.735426,-0.57555 0.727624,-1.5246 c 0.400194,-0.83854 1.106102,-2.02028 1.568684,-2.6261 0.462583,-0.605824 0.841058,-1.312234 0.841058,-1.569798 0,-0.287821 -0.456943,-0.803719 -1.185658,-1.338645 -0.652112,-0.478694 -1.185467,-0.941296 -1.185234,-1.028004 6.7e-4,-0.243296 2.019526,-1.461878 2.421951,-1.461878 0.196361,0 0.728957,-0.2524 1.18354,-0.56089 0.454585,-0.308491 1.136409,-0.663523 1.515164,-0.788965 1.001748,-0.331772 1.05049,-1.24886 0.10851,-2.04149 -0.398246,-0.335102 -0.724083,-0.661244 -0.724083,-0.724759 0,-0.141105 1.267323,-0.534778 2.302858,-0.715349 0.493737,-0.0861 0.879426,-0.01486 1.096859,0.202569 0.289052,0.289052 0.407307,0.258766 0.856475,-0.219353 l 0.521123,-0.554708 -0.636167,-0.212056 c -0.563958,-0.187985 -0.416815,-0.261843 1.296339,-0.650685 1.965679,-0.446159 2.734879,-0.41879 7.206914,0.256431 0.745615,0.112578 1.019009,0.03347 1.541355,-0.445988 0.349235,-0.320562 1.115165,-0.830211 1.702067,-1.132552 0.5869,-0.302341 1.360541,-0.700709 1.719202,-0.885262 0.358663,-0.184552 0.652115,-0.425716 0.652115,-0.535919 0,-0.544992 -0.339321,-0.950672 -0.796049,-0.951732 -0.464044,-0.001 -0.446393,-0.05124 0.203218,-0.577695 0.472083,-0.382579 0.890876,-0.533075 1.244941,-0.447377 0.542837,0.131387 0.768876,-0.278575 0.249123,-0.451826 -0.177906,-0.0593 -0.133498,-0.152724 0.118559,-0.24945 0.221646,-0.08504 0.402993,-0.05128 0.402993,0.07504 0,0.126329 0.111386,0.229691 0.247526,0.229691 0.13614,0 0.216172,-0.186743 0.177847,-0.414982 -0.05124,-0.305234 0.07142,-0.40004 0.46387,-0.358493 0.383377,0.04058 0.533546,-0.06841 0.533546,-0.387337 0,-0.285104 0.212009,-0.484351 0.592826,-0.55715 0.326059,-0.06234 0.592831,-0.02142 0.592831,0.09092 0,0.112338 -0.160066,0.204249 -0.355698,0.204249 -0.195632,0 -0.355696,0.119143 -0.355696,0.264776 0,0.155257 0.247651,0.217434 0.598728,0.15032 0.51919,-0.09924 0.578655,-0.04779 0.447612,0.387337 -0.123099,0.408735 -0.09341,0.446822 0.160092,0.205376 0.570032,-0.542931 0.927752,-0.337207 0.927752,0.533546 0,0.671874 0.09034,0.829961 0.474262,0.829961 0.263481,0 0.474265,0.158088 0.474265,0.355698 0,0.420649 -0.06854,0.410254 0.89081,0.13512 0.677937,-0.194432 0.769112,-0.16632 0.769112,0.237131 0,0.299621 0.163804,0.45771 0.474263,0.45771 0.474261,0 0.474261,0 0,0.474262 -0.566421,0.566421 -1.42279,0.629362 -1.42279,0.104568 0,-0.203331 -0.09668,-0.309934 -0.214869,-0.236895 -0.11818,0.07305 -0.159041,0.346278 -0.09082,0.607201 0.09964,0.381055 -0.0214,0.503493 -0.615092,0.622235 -0.957742,0.191548 -1.017429,0.928589 -0.08955,1.105962 0.357274,0.06829 0.83045,0.02737 1.051505,-0.09092 0.221049,-0.118306 0.775219,-0.215097 1.231484,-0.215097 0.631051,0 0.866909,0.117635 0.985591,0.491579 0.148575,0.468118 0.17763,0.472025 0.60881,0.08181 0.249031,-0.225371 0.452785,-0.298087 0.452785,-0.16159 0,0.136499 0.277888,0.317924 0.617529,0.403167 0.954815,0.239643 1.753787,0.853064 1.753787,1.346487 0,0.245846 -0.113894,0.446991 -0.253112,0.446991 -0.141488,0 -0.189525,0.200343 -0.108915,0.454306 0.192994,0.608062 -0.261277,0.853313 -0.723816,0.390774 -0.466379,-0.466382 -0.913954,-0.47132 -1.370155,-0.01512 -0.195635,0.195633 -0.523386,0.355698 -0.728334,0.355698 -0.204951,0 -0.372635,0.08979 -0.372635,0.199523 0,0.109738 0.560223,0.219085 1.24494,0.242998 0.684717,0.0239 1.280513,0.147545 1.323985,0.274741 0.04348,0.127195 0.395114,0.231265 0.781424,0.231265 0.67429,0 0.696153,0.0332 0.546678,0.82996 -0.154595,0.824055 -0.149608,0.829962 0.700649,0.829962 0.525056,0 0.857754,0.114669 0.859981,0.296414 0.0024,0.19761 0.08026,0.177848 0.233501,-0.05928 0.198815,-0.307642 0.230358,-0.302305 0.233501,0.03951 0.002,0.217373 -0.129754,0.457468 -0.292781,0.533548 -0.237133,0.110664 -0.237133,0.16599 0,0.276653 0.163027,0.07607 0.30879,0.476239 0.323919,0.889243 0.01512,0.413005 0.07632,0.564176 0.135956,0.335938 0.147841,-0.565743 0.800654,-0.525155 0.953487,0.05928 0.06822,0.260846 0.209556,0.474264 0.314103,0.474264 0.461157,0 0.940266,-0.315001 0.940266,-0.6182 0,-0.498428 0.421422,-0.396108 0.592827,0.143936 0.08278,0.260846 0.356752,0.474264 0.608808,0.474264 0.258869,0 0.458283,0.162427 0.458283,0.373277 0,0.292647 -0.243289,0.364929 -1.126373,0.334621 -1.608582,-0.05524 -1.719206,-0.03375 -1.719206,0.333252 0,0.3636 1.723765,0.683462 1.857531,0.344696 0.100532,-0.254614 0.750919,-0.263686 0.750919,-0.01054 0,0.104333 -0.115746,0.305448 -0.257208,0.446911 -0.141465,0.141472 -0.221499,0.509613 -0.177847,0.818104 0.05917,0.41828 0.253118,0.58075 0.7627,0.63895 0.61728,0.0704 0.672259,0.0201 0.568702,-0.52166 -0.07395,-0.386898 0.0068,-0.646296 0.2273,-0.730945 0.447982,-0.171902 0.773404,0.04278 0.773404,0.510295 0,0.59103 0.742916,1.00421 1.820383,1.01242 0.739831,0.005 1.017863,0.11254 1.098868,0.42252 0.06672,0.25531 0.119028,0.16408 0.135957,-0.23714 0.02237,-0.53016 0.13837,-0.6521 0.620335,-0.6521 0.49441,0 0.592826,0.11279 0.592826,0.67941 0,0.37367 -0.213416,0.95074 -0.474261,1.28236 -0.563038,0.71576 -0.616976,1.35806 -0.114049,1.35806 0.260508,0 0.321187,0.1555 0.219223,0.56176 -0.119029,0.47429 -0.03664,0.58211 0.529029,0.69241 0.55907,0.109 0.828571,-0.0331 1.62748,-0.85819 1.288107,-1.33028 2.341668,-2.74849 2.169612,-2.92053 -0.07719,-0.0772 -0.313108,0.0324 -0.524268,0.24358 -0.211163,0.21115 -0.487478,0.38392 -0.614037,0.38392 -0.348914,0 -1.222614,-0.88259 -0.998809,-1.00897 0.396162,-0.22371 2.067377,-0.15741 2.370343,0.094 0.236572,0.19633 0.426272,0.12289 0.780276,-0.30207 0.257241,-0.3088 0.471261,-0.6982 0.4756,-0.865334 0.0043,-0.167118 0.167856,-0.365242 0.363367,-0.440261 0.195515,-0.07501 1.395817,-1.378874 2.667341,-2.897423 1.271526,-1.518556 3.473589,-4.094877 4.893467,-5.725158 1.419889,-1.630278 2.878219,-3.31095 3.240739,-3.734823 0.36251,-0.423874 0.80663,-0.770678 0.98692,-0.770678 0.18029,0 0.73667,0.418714 1.2364,0.930473 l 0.90857,0.930475 -0.55807,0.907296 c -0.30695,0.499013 -0.97016,1.356075 -1.47379,1.904581 -0.50364,0.548506 -0.84684,1.10873 -0.76265,1.244941 0.0927,0.150081 1.28544,0.247658 3.02709,0.247658 1.58072,0 3.20174,0.100613 3.60227,0.22357 0.40052,0.122958 1.79531,0.450025 3.09955,0.726802 1.30421,0.276779 3.01158,0.76338 3.7941,1.081337 0.78253,0.317955 1.51514,0.577795 1.62799,0.577421 0.11286,-3.7e-4 1.00273,0.372801 1.97748,0.829278 0.97475,0.456478 1.84279,0.833512 1.92898,0.83785 0.0863,0.0043 0.41735,0.224823 0.73592,0.489962 l 0.5792,0.482073 -0.89781,0.82251 c -1.10383,1.01123 -1.06107,1.079093 1.72748,2.74322 3.29454,1.96605 5.07176,3.18776 5.92455,4.07266 l 0.79867,0.82875 -0.96043,0.48999 c -1.2436,0.63442 -1.38157,0.89432 -0.80806,1.52212 0.60794,0.66548 1.13674,1.73282 1.35082,2.72643 0.15639,0.72594 0.0796,0.87051 -0.97926,1.84474 -1.49051,1.37133 -3.75539,2.70556 -6.12871,3.61044 -1.04339,0.39779 -2.51278,0.95654 -3.26533,1.24165 l -1.36828,0.51839 -0.55547,-0.59939 c -0.73107,-0.78882 -1.96478,-1.41355 -2.47296,-1.25226 -0.2232,0.0709 -0.74778,0.70051 -1.16573,1.39925 -1.11834,1.86975 -1.21485,1.9179 -2.7076,1.35053 -1.59275,-0.60536 -1.68129,-0.60297 -2.75652,0.0744 -1.32788,0.83655 -3.62045,1.57694 -4.88294,1.57694 -1.05882,0 -1.20639,0.0839 -2.65012,1.50646 -0.84465,0.83227 -2.405199,2.00765 -3.487035,2.62639 -1.077003,0.61596 -2.224953,1.27697 -2.551009,1.46889 -0.727028,0.42797 -2.297427,1.16339 -4.031238,1.88785 -2.131838,0.89078 -1.905201,1.84301 0.884041,3.7144 0.907341,0.60874 1.786296,1.2714 1.953228,1.47253 0.166932,0.20114 0.429576,0.36572 0.583658,0.36572 0.551645,0 1.932104,1.72048 3.006734,3.74734 l 1.093471,2.06239 h 9.57812 9.57808 l 0.0756,-1.0632 c 0.0417,-0.58476 0.20165,-1.14334 0.3557,-1.24131 0.21175,-0.13466 0.21237,-0.179 0.002,-0.18175 -0.15267,-0.002 -0.34786,-0.32362 -0.43376,-0.71473 -0.086,-0.39111 -0.37937,-0.86742 -0.65216,-1.0585 -0.55525,-0.3889 -0.72452,-0.16672 3.25837,-4.27726 0.88461,-0.91296 1.88724,-2.02837 2.22808,-2.47869 0.34083,-0.45031 1.0171,-1.25064 1.50283,-1.77848 0.48574,-0.52785 1.44611,-1.72748 2.13418,-2.66585 l 1.25103,-1.70616 7.42983,-0.0131 7.42981,-0.0131 -0.11039,-1.60064 c -0.0606,-0.88034 -0.18573,-1.87913 -0.27788,-2.21953 -0.14035,-0.5184 -0.0774,-0.64299 0.38729,-0.76743 1.00642,-0.26946 4.82898,-0.17297 5.13148,0.12952 0.36587,0.36589 0.36712,1.0712 0.002,1.19288 -0.40845,0.13615 -0.33801,3.02675 0.0802,3.29179 0.17644,0.11178 0.70992,0.20492 1.1855,0.20691 0.86991,0.004 1.20607,0.28353 2.6248,2.18535 0.36877,0.49436 0.71136,0.93947 2.52982,3.28705 1.41297,1.82408 5.00138,6.75727 5.00419,6.87954 0.001,0.0748 -0.39704,0.23489 -0.88612,0.3557 l -0.88924,0.21967 -0.0672,2.25589 c -0.0463,1.55719 0.027,2.38359 0.23713,2.66816 0.25559,0.34625 1.21574,0.48752 5.99548,0.8822 3.13015,0.25845 6.22471,0.57221 6.87682,0.69722 0.65211,0.12497 1.66586,0.29629 2.25276,0.38061 0.5869,0.0843 1.61582,0.30815 2.28649,0.49741 1.07889,0.30445 1.23159,0.42713 1.32515,1.06462 0.0582,0.39627 0.0598,5.38071 0.004,11.07651 l -0.10188,10.35596 -0.61742,0.47426 c -0.63853,0.49049 -1.83164,0.89631 -4.08175,1.38837 -1.30215,0.28475 -1.30492,0.28728 -1.73935,1.58261 -0.23933,0.71357 -0.53714,1.93767 -0.66182,2.72019 -0.12472,0.78254 -0.38423,1.54262 -0.57679,1.68908 -0.19257,0.14645 -0.28796,0.42827 -0.21199,0.62623 0.0759,0.19798 0.0303,0.87847 -0.10137,1.51221 -0.66915,3.21832 -1.19694,5.57661 -1.55861,6.96433 -0.22059,0.84644 -0.48993,2.01919 -0.5985,2.6061 -0.10863,0.58689 -0.35565,1.7607 -0.54901,2.60843 -0.19337,0.84776 -0.63692,2.82188 -0.9857,4.38694 -0.34876,1.56507 -0.78303,3.48585 -0.96502,4.26838 -0.18201,0.78253 -0.61431,2.7033 -0.96069,4.26836 -0.34638,1.56507 -0.78874,3.53919 -0.98301,4.38694 -0.19427,0.84775 -0.49334,2.18161 -0.66458,2.96416 -0.17123,0.78252 -0.4889,2.16975 -0.70594,3.08269 -0.21703,0.91296 -0.54062,2.35354 -0.7191,3.20129 -0.17848,0.84775 -0.4268,1.96819 -0.55183,2.48987 -0.12497,0.5217 -0.40936,1.80221 -0.6318,2.84558 -0.22244,1.04339 -0.61583,2.75074 -0.87419,3.79412 -0.25836,1.04338 -0.6066,2.58229 -0.77386,3.41981 -0.23807,1.19194 -0.4476,1.62985 -0.96448,2.01562 -1.00883,0.75295 -3.02612,1.79696 -3.47229,1.79703 -0.89496,1.2e-4 -1.1433,0.64661 -1.1433,2.97633 0,2.8703 -0.35248,3.77593 -1.85163,4.75738 -0.62022,0.40608 -1.39105,0.82112 -1.71294,0.92231 -0.32188,0.10126 -1.11878,0.4314 -1.77089,0.73374 -1.06851,0.49539 -2.40575,0.88671 -5.21691,1.52661 -1.14751,0.26121 -4.75755,0.84384 -7.35108,1.18638 -1.04338,0.13781 -2.53731,0.35172 -3.31983,0.47536 -1.68052,0.26549 -11.36037,0.71642 -14.30656,0.66644 -1.13055,-0.0192 -3.60282,-0.12269 -5.49395,-0.2299 z m 31.94854,-7.70383 c -0.0789,-0.0789 -0.28331,-0.0872 -0.45451,-0.0188 -0.18916,0.0757 -0.13297,0.1319 0.14328,0.14327 0.24997,0.0102 0.39003,-0.0457 0.31123,-0.1246 z m 20.09172,-45.60676 c 0.0751,-0.12142 0.0228,-0.29092 -0.11598,-0.37671 -0.35094,-0.21689 -1.00355,0.0673 -0.82351,0.35866 0.18535,0.29987 0.75845,0.3109 0.93944,0.018 z m 0.54481,-2.32829 c 0.0536,-0.16295 -0.0727,-0.36164 -0.28085,-0.44151 -0.43784,-0.16802 -1.1451,0.32819 -0.94023,0.65966 0.19043,0.30815 1.10136,0.1454 1.22108,-0.21815 z m -0.29755,-1.97298 c 0,-0.18297 -0.18674,-0.36864 -0.41499,-0.41261 -0.40875,-0.0786 -0.57773,0.42446 -0.25195,0.75024 0.24856,0.24857 0.66694,0.0367 0.66694,-0.33763 z m 0.4348,-6.25013 c 0.19807,-0.51621 -0.46615,-0.97775 -0.89497,-0.62187 -0.43162,0.35821 -0.21744,0.96022 0.34161,0.96022 0.23294,0 0.48195,-0.15225 0.55336,-0.33835 z m 2.17366,-1.79582 c 0.0806,-0.13042 -0.026,-0.23713 -0.23714,-0.23713 -0.21104,0 -0.31775,0.10672 -0.23713,0.23713 0.0806,0.13042 0.18731,0.23712 0.23713,0.23712 0.0498,0 0.15651,-0.10672 0.23714,-0.23712 z m -2.37133,-0.23713 c -0.0806,-0.13043 -0.40704,-0.23713 -0.7254,-0.23713 -0.31834,0 -0.57882,0.10671 -0.57882,0.23713 0,0.13042 0.32643,0.23713 0.72538,0.23713 0.42321,0 0.66435,-0.0987 0.57884,-0.23713 z m -35.21405,-4.03125 c 0,-0.13042 -0.10672,-0.23714 -0.23714,-0.23714 -0.13041,0 -0.23711,0.10673 -0.23711,0.23714 0,0.13043 0.10671,0.23713 0.23711,0.23713 0.13043,0 0.23714,-0.10671 0.23714,-0.23713 z m 35.21509,-0.001 c 0.0811,-0.13135 -0.0238,-0.30459 -0.23337,-0.385 -0.45402,-0.17422 -0.70707,0.0177 -0.48882,0.3709 0.19692,0.3186 0.52998,0.32511 0.72219,0.0141 z m -48.40684,-0.47983 c -0.16181,-0.16179 -0.43819,-0.16688 -0.8181,-0.015 -0.53911,0.21547 -0.52435,0.23023 0.24437,0.24436 0.56153,0.0102 0.74146,-0.0615 0.57373,-0.22934 z m 4.30572,0.0176 c -0.0771,-0.12473 -0.29681,-0.16667 -0.48827,-0.0932 -0.49017,0.18809 -0.43241,0.31996 0.14016,0.31996 0.26854,0 0.42518,-0.10199 0.34811,-0.22678 z m -7.95031,-0.24748 c 0,-0.13042 -0.16007,-0.23713 -0.35571,-0.23713 -0.19563,0 -0.35569,0.10673 -0.35569,0.23713 0,0.13042 0.16006,0.23712 0.35569,0.23712 0.19564,0 0.35571,-0.10671 0.35571,-0.23712 z m 52.12433,-1.72193 c 0.0542,-0.28142 -0.0722,-0.41226 -0.39824,-0.41226 -0.54385,0 -0.845,0.35416 -0.61611,0.72453 0.23079,0.37343 0.92337,0.16023 1.01435,-0.31227 z m -32.8989,-0.24034 c -0.0294,-0.28353 -0.35456,-0.22862 -0.45648,0.077 -0.0523,0.1565 0.0332,0.24187 0.18973,0.1897 0.15649,-0.0523 0.27655,-0.17222 0.26675,-0.26677 z m 1.87928,-2.65348 c 5.28211,-0.0754 10.35079,-0.19045 11.26375,-0.25565 0.91296,-0.0652 2.99378,-0.16638 4.62407,-0.2248 3.84041,-0.13762 13.2083,-0.79005 14.05005,-0.97851 0.50267,-0.11256 0.65212,-0.0582 0.65212,0.23733 0,0.21085 0.16006,0.38335 0.35569,0.38335 0.19762,0 0.35569,-0.21078 0.35569,-0.47425 0,-0.36171 0.1581,-0.47427 0.66609,-0.47427 0.79479,0 1.67453,-0.55584 1.27275,-0.80416 -0.14697,-0.0908 -3.14708,-0.20632 -6.66691,-0.25666 -3.51982,-0.0504 -6.56608,-0.18464 -6.76946,-0.29846 -0.29778,-0.16665 -0.1956,-0.3009 0.52484,-0.68961 0.49204,-0.26547 1.85499,-0.99932 3.02879,-1.63078 1.1738,-0.63147 2.87437,-1.62587 3.77906,-2.20978 1.77465,-1.14535 4.78672,-4.0698 5.14563,-4.99592 0.3432,-0.88551 0.36635,-9.97301 0.0259,-10.18337 -0.15315,-0.0947 -1.2693,-0.0944 -2.48037,3.3e-4 -13.87671,1.08697 -51.03537,1.12803 -77.254098,0.0854 -9.30294,-0.36995 -9.700084,-0.39534 -15.05786,-0.96275 -1.825916,-0.19339 -4.304778,-0.45573 -5.508585,-0.583 -1.203806,-0.12725 -2.644379,-0.33428 -3.201277,-0.46005 -0.739101,-0.16693 -1.085945,-0.15153 -1.284368,0.0571 -0.191615,0.20139 -0.301766,3.11987 -0.373257,9.88954 -0.05578,5.2821 -0.05942,9.78851 -0.0081,10.01424 0.09882,0.43446 0.300957,0.50326 4.328703,1.47351 2.438962,0.58752 3.492679,0.74083 9.938652,1.44606 1.749221,0.19137 3.563279,0.44512 4.031241,0.56387 0.467959,0.11876 2.718247,0.28217 5.000643,0.36317 4.143187,0.14704 5.970706,0.24684 8.655302,0.47262 0.782538,0.0658 4.037169,0.18988 7.232516,0.27569 3.195358,0.0858 8.157348,0.22553 11.026648,0.31054 2.86928,0.0849 6.9776,0.1302 9.12957,0.10055 2.15196,-0.0297 8.23439,-0.11572 13.5165,-0.19112 z m 30.70855,-5.34378 c 0.0806,-0.13042 -0.0198,-0.23714 -0.22314,-0.23714 -0.20333,0 -0.36968,0.10673 -0.36968,0.23714 0,0.13041 0.10035,0.23713 0.22314,0.23713 0.12269,0 0.28907,-0.10673 0.36968,-0.23713 z m -44.72027,-18.59004 c 0.16908,-0.20374 0.25409,-0.89768 0.21124,-1.72445 l -0.0718,-1.38351 -7.2325,-0.0434 c -3.97789,-0.0238 -8.03285,0.0296 -9.01103,0.1185 l -1.77849,0.16198 -0.0758,0.92591 c -0.0417,0.50926 -0.014,1.17205 0.0615,1.47287 0.16242,0.64712 0.29635,0.65634 10.94827,0.75268 5.56029,0.0503 6.7125,0.004 6.94853,-0.28064 z m 43.61074,-0.75786 c 0.30271,-0.0632 0.50822,-0.24134 0.45669,-0.39596 -0.12912,-0.38733 -0.99905,-0.59831 -2.58235,-0.62628 -1.42439,-0.025 -1.93554,0.38476 -1.35383,1.08569 0.2691,0.32427 1.75085,0.29724 3.47949,-0.0636 z m -78.071412,-0.4525 c 0.317887,-1.26655 0.118385,-1.34886 -2.924641,-1.20658 -7.599442,0.35535 -8.591904,0.49095 -7.97195,1.08908 0.188307,0.18168 5.782347,0.58815 9.270383,0.67359 1.391159,0.0341 1.486246,10e-4 1.626208,-0.55609 z m 43.265202,0.1104 c 0.31652,-0.50045 0.27808,-2.21822 -0.0572,-2.55343 -0.15912,-0.15912 -0.92218,-0.28455 -1.73106,-0.28455 -0.80888,0 -1.57193,0.12549 -1.73106,0.28455 -0.3105,0.3105 -0.38307,2.04695 -0.10306,2.4662 0.26415,0.39551 0.76261,0.50439 2.14391,0.46824 0.81903,-0.0214 1.33515,-0.15444 1.47843,-0.38101 z m 4.64368,0.17589 c 0.0869,-0.0869 0.20719,-0.67122 0.26748,-1.29865 0.14537,-1.51286 -0.16776,-1.75991 -2.11385,-1.66778 l -1.5028,0.0711 -0.0724,1.26418 c -0.0995,1.73878 0.17521,2.01239 1.89555,1.88795 0.75246,-0.0544 1.43914,-0.17 1.52597,-0.25682 z m -4.70081,-4.24695 c 0.3402,-0.34021 0.38378,-2.94599 0.0527,-3.15061 -0.46167,-0.28533 -3.05355,-0.20843 -3.42723,0.10168 -0.50427,0.4185 -0.5039,2.45642 6.8e-4,2.96084 0.45207,0.45208 2.94496,0.51715 3.37403,0.0881 z m 4.77345,-0.0513 c 0.16432,-0.19798 0.24918,-0.9032 0.20689,-1.7192 l -0.0717,-1.3835 h -1.77848 -1.77849 l -0.0741,1.16993 c -0.13406,2.11779 -0.0206,2.26846 1.70945,2.26846 1.01105,0 1.59958,-0.11065 1.78641,-0.33569 z m 20.75542,-1.81499 c -0.1392,-0.22525 -0.81975,-0.0264 -0.81975,0.23949 0,0.0947 0.0701,0.24244 0.15602,0.32827 0.20926,0.20924 0.8207,-0.3138 0.66373,-0.56776 z m -11.72781,-2.3548 c 0,-0.13043 -0.10673,-0.23714 -0.23713,-0.23714 -0.13043,0 -0.23714,0.10672 -0.23714,0.23714 0,0.13041 0.10672,0.23713 0.23714,0.23713 0.13042,0 0.23713,-0.10673 0.23713,-0.23713 z m -10.47841,-4.33038 c 0.0542,-0.28143 -0.0723,-0.41228 -0.39826,-0.41228 -0.54384,0 -0.845,0.35418 -0.61611,0.72454 0.2308,0.37342 0.92336,0.16022 1.01437,-0.31226 z m -58.526925,-0.6494 c 0,-0.13042 -0.16636,-0.23712 -0.369692,-0.23712 -0.203332,0 -0.303741,0.10671 -0.223135,0.23712 0.08059,0.13042 0.246964,0.23712 0.369691,0.23712 0.122732,0 0.223136,-0.10672 0.223136,-0.23712 z m -4.816638,-8.16913 c 0.02451,-1.55851 0.148559,-3.05243 0.275669,-3.31983 0.12711,-0.2674 0.48054,-1.12603 0.785401,-1.90806 0.646966,-1.6596 1.797809,-3.71949 2.668364,-4.7761 0.644797,-0.7826 0.795612,-1.60506 0.345359,-1.88333 -0.182945,-0.11306 -0.145444,-0.23372 0.118559,-0.38147 0.476198,-0.26649 0.50962,-0.90392 0.0474,-0.90392 -0.186319,0 -0.505883,0.16712 -0.71014,0.37137 -0.337085,0.33709 -0.417457,0.2933 -0.870323,-0.47427 -0.735463,-1.24651 -1.610729,-1.08799 -1.953863,0.35386 -0.07941,0.33367 -0.329446,1.02729 -0.555647,1.54137 -0.226199,0.51406 -0.522748,1.36058 -0.658999,1.8811 -0.169831,0.6488 -0.396872,0.97307 -0.721996,1.0312 -0.867137,0.15502 -5.336379,2.22268 -6.356924,2.941 -0.366172,0.2577 -0.699404,0.43026 -0.740521,0.38342 -0.04112,-0.0468 -0.248655,-0.42717 -0.4612,-0.84518 -0.292383,-0.57506 -0.597741,-0.79969 -1.254526,-0.92291 -1.486857,-0.27895 -1.623663,-0.0309 -1.598104,2.89733 0.02434,2.78807 0.176867,3.27472 1.472695,4.69874 0.608045,0.6682 2.08979,1.53315 3.60312,2.10328 0.195632,0.0737 1.742915,0.1142 3.438409,0.09 l 3.082709,-0.044 z m 24.406596,1.93883 c 1.188432,-0.2005 2.362233,-0.47733 2.60845,-0.61519 0.246216,-0.13787 1.197542,-0.51056 2.11406,-0.82824 0.916514,-0.31767 2.086815,-0.82855 2.600663,-1.13528 1.218218,-0.72717 3.360264,-2.9295 3.935194,-4.04593 0.78754,-1.52929 0.70874,-1.61008 -1.57044,-1.61008 -2.333266,0 -3.863169,-0.59683 -4.80114,-1.87291 -0.677886,-0.92226 -1.176123,-0.92819 -2.029389,-0.0241 -0.369296,0.39127 -0.761373,0.71139 -0.871289,0.71139 -0.109916,0 -0.447675,-0.30783 -0.750574,-0.68409 -0.567246,-0.7046 -1.806704,-1.45009 -2.410932,-1.45009 -0.188318,0 -0.700104,0.33416 -1.137302,0.74255 -0.993336,0.92793 -3.315459,2.48118 -4.043209,2.70447 -0.301129,0.0923 -0.654214,0.24754 -0.784636,0.34474 -0.663074,0.49418 -3.069435,1.03173 -5.19803,1.1612 l -2.390184,0.14537 -0.06518,1.42278 c -0.06271,1.36903 -0.02467,1.47408 1.006113,2.77974 0.589209,0.7463 1.323232,1.522 1.631163,1.72376 0.320204,0.2098 1.491639,0.45283 2.736516,0.56769 1.197153,0.11053 2.253161,0.2774 2.346683,0.37098 0.256572,0.25668 4.625675,0.004 7.073453,-0.4087 z m -19.429394,-1.97464 c 0.193877,-0.50523 -0.377881,-0.8333 -0.933776,-0.5358 -0.352601,0.18871 -0.385593,0.30636 -0.161589,0.57627 0.373937,0.45056 0.914602,0.43058 1.095365,-0.0404 z m -0.397693,-2.46595 c 0,-0.13042 -0.10671,-0.23711 -0.237132,-0.23711 -0.130424,0 -0.237135,0.10671 -0.237135,0.23711 0,0.13043 0.10671,0.23714 0.237135,0.23714 0.130422,0 0.237132,-0.10672 0.237132,-0.23714 z m 35.356524,-0.5054 c 1.17219,-0.39013 1.55481,-0.79949 1.17502,-1.25712 -0.34908,-0.42061 -1.80233,-0.87247 -2.25156,-0.70008 -0.37205,0.14277 -0.8444,1.12865 -0.8444,1.76237 0,0.54218 0.67241,0.61037 1.92094,0.19483 z M 75.130662,117.503 c 0,-0.19761 -0.210783,-0.35569 -0.474265,-0.35569 -0.524841,0 -0.642533,0.36683 -0.177848,0.55435 0.516016,0.20822 0.652113,0.16674 0.652113,-0.19866 z m -6.521121,-0.11851 c 0.08059,-0.13042 0.03355,-0.23714 -0.104567,-0.23714 -0.138121,0 -0.251129,0.10673 -0.251129,0.23714 0,0.13043 0.04706,0.23712 0.104568,0.23712 0.05752,0 0.170522,-0.10672 0.251128,-0.23712 z m 10.302106,-1.95635 c 0.02555,-0.34635 -0.769143,-0.17179 -1.079571,0.23714 -0.589889,0.77708 -0.367975,1.0738 0.368176,0.4923 0.384053,-0.30338 0.704178,-0.63161 0.711395,-0.72944 z m -7.100829,-0.0593 c 0,-0.19564 -0.20712,-0.3557 -0.460269,-0.3557 -0.551567,0 -0.850426,0.38454 -0.430455,0.55385 0.566352,0.22834 0.890724,0.15617 0.890724,-0.19815 z m 12.330846,-1.22269 c 1.998022,-0.65085 3.196605,-1.35284 3.277051,-1.9193 0.04167,-0.29347 0.04167,-0.5402 0,-0.54831 -0.04167,-0.007 -0.555967,-0.0615 -1.142868,-0.1185 -2.707088,-0.26334 -3.135499,-0.37305 -3.255994,-0.83381 -0.129815,-0.49642 -0.448328,-0.60648 -0.583305,-0.20153 -0.05004,0.15012 -0.332709,0.059 -0.690587,-0.22243 -1.182853,-0.93044 -1.720142,-0.88538 -2.593643,0.21749 -0.737238,0.93085 -0.800227,0.96263 -0.974488,0.49154 -0.269457,-0.72841 -0.612887,-0.61873 -0.805264,0.25717 -0.109232,0.49731 -0.07265,0.79225 0.105633,0.85168 0.179794,0.0599 0.09502,0.37844 -0.248732,0.93465 l -0.521467,0.84375 0.569483,0.46115 c 0.517957,0.41941 0.805964,0.44635 3.183285,0.29763 1.437596,-0.0899 3.093997,-0.31995 3.680898,-0.51114 z m 29.167216,-0.31866 c 0,-0.13043 -0.10672,-0.23713 -0.23713,-0.23713 -0.13043,0 -0.23714,0.10671 -0.23714,0.23713 0,0.13042 0.10671,0.23711 0.23714,0.23711 0.13041,0 0.23713,-0.10672 0.23713,-0.23711 z m -41.789536,-0.90407 c 0.05162,-0.15488 -0.07509,-0.2816 -0.281594,-0.2816 -0.2065,0 -0.375461,0.16895 -0.375461,0.37547 0,0.41875 0.510489,0.34582 0.657055,-0.094 z m 48.657736,-0.62691 c 0.3555,-0.42835 0.1272,-0.84035 -0.46564,-0.84035 -0.53307,0 -0.80356,0.3663 -0.62129,0.84132 0.16976,0.4424 0.71937,0.44191 1.08693,-9.9e-4 z m -7.64548,-0.28668 c 0.0957,-0.28727 -0.82015,-0.69521 -1.04838,-0.46698 -0.0715,0.0715 -0.0637,0.30255 0.0172,0.51343 0.16226,0.42285 0.88583,0.39026 1.03123,-0.0465 z m 17.32487,-0.0428 c 0.0679,-0.20407 -0.046,-0.28952 -0.3164,-0.23712 -0.23245,0.0451 -0.47044,0.22551 -0.52889,0.401 -0.0679,0.20407 0.046,0.28954 0.31641,0.23712 0.23245,-0.0451 0.47045,-0.22551 0.52888,-0.401 z m -21.05309,-0.0366 c 0,-0.13042 -0.047,-0.23714 -0.10457,-0.23714 -0.0575,0 -0.17052,0.10673 -0.25113,0.23714 -0.0806,0.13042 -0.0335,0.23713 0.10457,0.23713 0.13811,0 0.25112,-0.10671 0.25113,-0.23713 z m -32.012799,-0.23714 c 0,-0.13042 -0.106709,-0.23713 -0.23713,-0.23713 -0.130422,0 -0.237131,0.10673 -0.237131,0.23713 0,0.13044 0.106709,0.23714 0.237131,0.23714 0.130421,0 0.23713,-0.10671 0.23713,-0.23714 z m 28.692949,0 c 0,-0.13042 -0.047,-0.23713 -0.10457,-0.23713 -0.0575,0 -0.17051,0.10673 -0.25112,0.23713 -0.0806,0.13044 -0.0335,0.23714 0.10457,0.23714 0.13812,0 0.25112,-0.10671 0.25112,-0.23714 z m -22.093029,-2.52125 c -0.08882,-0.46121 -0.706309,-0.68989 -1.274309,-0.47193 -0.468896,0.17995 -0.159859,0.859 0.390921,0.859 0.246889,0 0.448893,0.12806 0.448893,0.28456 0,0.20597 0.07162,0.21293 0.259369,0.0252 0.142655,-0.14265 0.221459,-0.45624 0.175126,-0.69682 z m 46.280459,0.14994 c 0,-0.13042 -0.047,-0.23714 -0.10457,-0.23714 -0.0576,0 -0.17052,0.10673 -0.25112,0.23714 -0.0806,0.13043 -0.0336,0.23713 0.10457,0.23713 0.13812,0 0.25112,-0.10671 0.25112,-0.23713 z m -63.314173,-0.23714 c 0,-0.13041 -0.106709,-0.23713 -0.237129,-0.23713 -0.130423,0 -0.237132,0.10673 -0.237132,0.23713 0,0.13043 0.106709,0.23714 0.237132,0.23714 0.130423,0 0.237129,-0.10672 0.237129,-0.23714 z m 13.516507,0.0139 c 0,-0.43049 -0.431193,-0.48246 -1.101694,-0.13277 l -0.676793,0.35299 0.889244,10e-4 c 0.489084,6.6e-4 0.889243,-0.099 0.889243,-0.22169 z m 1.18566,-0.48825 c 0,-0.13042 -0.10671,-0.23714 -0.237133,-0.23714 -0.130424,0 -0.237133,0.10673 -0.237133,0.23714 0,0.13042 0.106709,0.23712 0.237133,0.23712 0.130423,0 0.237133,-0.10672 0.237133,-0.23712 z m -0.804593,-0.84937 c -0.07916,-0.20629 -0.143935,-0.42602 -0.143935,-0.48825 0,-0.0622 -0.102058,-0.0501 -0.226777,0.0271 -0.275299,0.17013 -0.05424,0.83635 0.277516,0.83635 0.130422,0 0.172363,-0.16878 0.0932,-0.3751 z m -2.891705,-0.71684 c 0.205548,-0.0789 0.31469,-0.23893 0.242529,-0.35569 -0.193221,-0.31265 -3.126905,-0.26249 -3.324254,0.0569 -0.119981,0.19412 0.134556,0.22398 0.913502,0.10722 0.67129,-0.10065 1.137943,-0.0679 1.233421,0.0866 0.17543,0.28385 0.402453,0.30938 0.934802,0.10507 z m 5.119088,-0.2123 c 0.650502,-0.37185 0.526234,-0.42201 -1.125934,-0.45446 -1.064699,-0.0209 -1.183752,0.0656 -0.723696,0.52561 0.375896,0.37591 1.117516,0.34738 1.84963,-0.071 z m 3.181881,0.21177 c 0.61683,-0.23669 0.425144,-0.56745 -0.32886,-0.56745 -0.528312,0 -0.669894,0.0887 -0.567461,0.35568 0.149149,0.38869 0.326257,0.43052 0.896321,0.21177 z m 1.086487,-1.04172 c 0,-0.13042 -0.160063,-0.23713 -0.355697,-0.23713 -0.195636,0 -0.355698,0.10672 -0.355698,0.23713 0,0.13043 0.160062,0.23713 0.355698,0.23713 0.195634,0 0.355697,-0.10671 0.355697,-0.23713 z m -14.983611,-1.48207 c 0.05836,-0.30616 -0.07725,-0.41498 -0.517131,-0.41498 -0.648237,0 -0.980024,0.32752 -0.734396,0.72496 0.238369,0.38569 1.162564,0.15679 1.251527,-0.30998 z m 13.560823,0.31042 c 0,-0.39754 -0.420562,-0.49597 -0.56054,-0.13121 -0.08259,0.21524 6.71e-4,0.35434 0.212283,0.35434 0.191538,0 0.348257,-0.10035 0.348257,-0.22313 z M 74.89353,104.46064 c 0,-0.19563 -0.160065,-0.3557 -0.355697,-0.3557 -0.195634,0 -0.355698,0.16007 -0.355698,0.3557 0,0.19562 0.160064,0.3557 0.355698,0.3557 0.195632,0 0.355697,-0.16008 0.355697,-0.3557 z m 6.50412,-0.0593 c -0.118041,-0.0979 -0.294255,-0.28455 -0.391592,-0.41497 -0.100998,-0.13533 -0.178536,-0.0589 -0.180609,0.17783 -0.002,0.23069 0.171896,0.41499 0.391592,0.41499 0.217369,0 0.298643,-0.08 0.180609,-0.17785 z m -11.242311,-0.8946 c 0.172981,-0.20843 0.485969,-0.30191 0.740429,-0.22115 0.338025,0.10728 0.440788,0.0189 0.440788,-0.37937 0,-0.41035 -0.0675,-0.46326 -0.32175,-0.25225 -0.180085,0.14945 -0.637257,0.20392 -1.038337,0.1237 -0.765426,-0.15308 -1.147378,0.15615 -0.921122,0.74578 0.172055,0.44836 0.720936,0.44002 1.099992,-0.0167 z m 6.160981,-0.35035 c 0,-0.58417 -0.36473,-0.79029 -1.080571,-0.61063 -0.832622,0.20898 -0.780226,1.02768 0.07276,1.1369 0.839162,0.10749 1.00781,0.0195 1.007811,-0.52627 z m 4.624066,-0.23713 c 0,-0.57154 -0.06184,-0.59532 -1.722633,-0.66257 -1.384467,-0.056 -1.750445,0.003 -1.864302,0.29944 -0.29288,0.76323 0.368971,1.09854 2.023618,1.02524 1.490981,-0.0661 1.563317,-0.0967 1.563317,-0.66211 z m -8.700201,-2.29841 c 0.0941,-0.657732 -0.766962,-1.19292 -1.260391,-0.783403 -0.338433,0.280863 -0.22236,0.934423 0.2209,1.243753 0.43988,0.30697 0.96287,0.0754 1.039491,-0.46035 z m 3.978757,-1.139998 c -0.109802,-0.437474 -0.05439,-0.592823 0.211425,-0.592823 0.453496,0 0.463749,-0.404612 0.02146,-0.8469 -0.307706,-0.307701 -1.084031,-0.479282 -1.084031,-0.239587 0,0.05454 -0.06477,0.267969 -0.143935,0.474263 -0.09445,0.246141 -0.01294,0.375095 0.23713,0.375095 0.546628,0 0.470938,0.650904 -0.09664,0.831046 -0.630799,0.200213 -0.366901,0.591744 0.39884,0.591744 0.526434,0 0.585319,-0.07663 0.455752,-0.592838 z m -4.250035,-3.359388 c -0.04908,-0.04908 -0.344822,0.01301 -0.657209,0.137962 -0.412157,0.164868 -0.454129,0.231318 -0.152991,0.242225 0.228238,0.0083 0.421742,0.201772 0.430011,0.430011 0.01091,0.301138 0.07735,0.259168 0.242225,-0.152992 0.12496,-0.312385 0.18704,-0.60813 0.137964,-0.657206 z m -1.580879,-0.553309 c 0,-0.130421 -0.160065,-0.23713 -0.355697,-0.23713 -0.195633,0 -0.355698,0.106709 -0.355698,0.23713 0,0.130424 0.160065,0.237133 0.355698,0.237133 0.195632,0 0.355697,-0.106709 0.355697,-0.237133 z m 2.39071,-0.948526 c 0.250179,0 0.454869,-0.160063 0.454869,-0.355696 0,-0.248424 -0.250306,-0.355698 -0.829959,-0.355698 -0.685921,0 -0.829963,0.08671 -0.829963,0.499634 0,0.358175 0.106202,0.458882 0.375094,0.355696 0.2063,-0.07916 0.579782,-0.143936 0.829959,-0.143936 z M 45.252072,91.77412 c 0,-0.130422 -0.151171,-0.237133 -0.335936,-0.237133 -0.184765,0 -0.383575,-0.133385 -0.441799,-0.296414 -0.05822,-0.163027 -0.184591,-0.223402 -0.280814,-0.134165 -0.218299,0.202446 0.361222,0.883623 0.762134,0.895823 0.163029,0.0049 0.296415,-0.09768 0.296415,-0.228111 z m 23.065646,-1.007809 c 0.181004,-0.518917 -0.09722,-0.889245 -0.66808,-0.889245 -0.688615,0 -0.950913,0.384791 -0.572832,0.840349 0.351196,0.423167 1.100063,0.452674 1.240912,0.0489 z m 4.08593,-0.533548 c 0,-0.3461 -0.184029,-0.495292 -0.681003,-0.552083 -0.374547,-0.04281 -0.796047,0.03722 -0.936668,0.177848 -0.360601,0.360599 -0.635082,0.317369 -0.635082,-0.100035 0,-0.195633 -0.106709,-0.355697 -0.23713,-0.355697 -0.130422,0 -0.237132,0.151172 -0.237132,0.335936 0,0.184765 -0.133387,0.386013 -0.296413,0.447214 -0.551073,0.206877 0.870269,0.621679 1.956336,0.570933 0.892385,-0.04169 1.067092,-0.127505 1.067092,-0.524122 z M 62.206987,86.082961 c 0.0806,-0.130424 -0.01983,-0.237133 -0.223139,-0.237133 -0.203329,0 -0.369691,0.106709 -0.369691,0.237133 0,0.130422 0.10041,0.23713 0.223135,0.23713 0.122729,0 0.28909,-0.106709 0.369695,-0.23713 z" /></g></g></svg>
