<?xml version="1.0" encoding="UTF-8" standalone="no"?>
<!-- Created with Inkscape (http://www.inkscape.org/) -->

<svg
   width="167.75471mm"
   height="167.75471mm"
   viewBox="0 0 167.75471 167.75471"
   version="1.1"
   id="svg1"
   xml:space="preserve"
   xmlns="http://www.w3.org/2000/svg"
   xmlns:svg="http://www.w3.org/2000/svg"><defs
     id="defs1" /><g
     id="layer1"
     transform="translate(-23.845364,-76.137505)"><g
       id="g51"><path
         id="path51"
         style="fill-opacity:1;stroke:none;stroke-width:0.896653;stroke-opacity:1;paint-order:stroke fill markers"
         d="m 80.81578,154.85283 c -0.236974,-0.36167 -0.234593,-0.40372 0.04453,-0.78458 0.162216,-0.22132 0.513357,-0.51387 0.780308,-0.65009 0.266966,-0.13624 0.598434,-0.34839 0.736592,-0.47145 0.138158,-0.12312 0.7219,-0.34085 1.29719,-0.48398 0.575291,-0.14312 1.309449,-0.39754 1.631458,-0.56538 0.40211,-0.20959 0.968399,-0.32527 1.808058,-0.36933 1.089469,-0.0572 1.234274,-0.0338 1.330075,0.21489 0.08114,0.21075 -0.03215,0.39744 -0.462967,0.76254 -0.313749,0.26591 -0.637723,0.48595 -0.719908,0.48901 -0.08221,0.003 -0.31757,0.13706 -0.523044,0.29778 -0.205488,0.16073 -0.592621,0.29374 -0.860286,0.29556 -0.441547,0.003 -2.267984,0.64695 -3.876299,1.36664 -0.808699,0.36188 -0.886389,0.35522 -1.185727,-0.10159 z m -11.418037,20.86728 c -0.783125,-0.15345 -0.861692,-0.24258 -0.967285,-1.09739 -0.09379,-0.75927 0.262114,-3.9725 0.514993,-4.64946 0.06515,-0.17443 0.166524,-0.70861 0.225278,-1.1871 0.100924,-0.82192 0.264776,-1.34499 0.764469,-2.44033 0.118164,-0.259 0.214828,-0.56499 0.214828,-0.67997 0,-0.11504 0.06293,-0.27293 0.139843,-0.35101 0.187434,-0.1903 1.055696,-1.95355 1.055696,-2.14391 0,-0.0829 0.306807,-0.58955 0.681798,-1.12598 0.547303,-0.78292 0.798261,-1.01021 1.272188,-1.1522 0.544468,-0.16314 0.620406,-0.14885 0.976289,0.18359 0.344076,0.3214 0.379139,0.44956 0.32353,1.18241 -0.04353,0.57388 -0.18313,0.99734 -0.462548,1.4032 -0.220107,0.31968 -0.40019,0.7299 -0.40019,0.91157 0,0.18169 -0.191332,0.59447 -0.425181,0.91728 -0.23385,0.32282 -0.639255,1.29121 -0.900898,2.15198 -0.261643,0.86076 -0.537993,1.76676 -0.614111,2.01334 -0.07611,0.24658 -0.22382,1.45705 -0.32823,2.68995 l -0.189842,2.24163 -0.583205,0.63512 c -0.32076,0.34933 -0.625072,0.62741 -0.676253,0.61795 -0.05117,-0.009 -0.330702,-0.0637 -0.621169,-0.1207 z m 30.32487,31.71121 c -1.081421,-0.93481 -1.137382,-1.06032 -0.801405,-1.79771 0.843023,-1.85024 3.389762,-1.77597 5.224142,0.15238 0.61794,0.64959 1.12353,1.3081 1.12353,1.46334 0,0.44358 -2.05079,1.18697 -3.27443,1.18697 -0.8293,0 -1.40264,-0.25363 -2.271837,-1.00498 z m 31.571287,-21.2352 c -0.82288,-0.99149 -0.71135,-2.35783 0.32487,-3.98024 0.54888,-0.85938 1.07296,-1.5655 1.16462,-1.56914 0.20767,-0.008 1.17833,2.16121 1.17833,2.63362 0,0.31088 -2.02507,3.33742 -2.23307,3.33742 -0.0467,0 -0.24227,-0.18974 -0.43475,-0.42166 z M 69.334218,156.50311 c -0.920967,-0.83918 -1.434967,-1.63357 -1.056976,-1.63357 0.09233,0 0.398433,0.24681 0.680232,0.54847 0.281798,0.30166 1.106763,0.81877 1.833254,1.14913 0.726491,0.33037 1.32089,0.65419 1.32089,0.71959 0,0.0654 -0.40419,0.11692 -0.898208,0.11464 -0.757477,-0.004 -1.051898,-0.14439 -1.879192,-0.8982 z m 7.771607,-4.8037 c -0.101036,-0.29061 -0.650084,-1.21787 -1.220123,-2.0606 -0.570039,-0.84273 -0.959646,-1.53224 -0.865801,-1.53224 0.09383,0 0.672854,0.50854 1.286688,1.1301 1.048959,1.06216 1.112055,1.18604 1.049494,2.06059 -0.05907,0.82567 -0.08725,0.87097 -0.250258,0.40215 z m -3.080932,1.38563 c -0.266853,-0.28405 -0.798037,-0.66492 -1.180415,-0.84636 -1.014642,-0.48148 -2.553081,-1.80732 -2.097119,-1.80732 0.697434,0 4.323061,2.49331 4.323061,2.97293 0,0.36931 -0.559028,0.19861 -1.045527,-0.31925 z m 4.638348,21.70972 c -0.803913,-0.14423 -0.978623,-0.44019 -0.352593,-0.5973 0.821117,-0.2061 4.000678,0.16994 4.104809,0.48547 0.06526,0.19785 -0.328524,0.25694 -1.56834,0.2354 -0.910528,-0.0159 -1.89327,-0.0714 -2.183876,-0.12352 z m 9.41655,18.98093 c -0.334751,-0.54164 0.364946,-1.05692 1.890296,-1.39209 0.348705,-0.0767 0.806022,-0.29435 1.016245,-0.48382 0.288723,-0.26023 0.469668,-0.28933 0.7397,-0.11895 0.196621,0.12406 0.346001,0.30846 0.331968,0.40988 -0.0339,0.24484 -1.15108,0.85872 -2.486618,1.36633 -1.232766,0.46856 -1.3285,0.48259 -1.491591,0.2187 z m 27.286639,-24.88707 c -0.31789,-0.31789 -0.10507,-0.92803 0.4403,-1.2623 0.31966,-0.19592 0.96859,-0.78473 1.44207,-1.30848 0.89671,-0.99192 1.35823,-1.04347 1.35823,-0.15175 0,0.33188 -0.41858,0.88065 -1.2801,1.67827 -1.2214,1.13079 -1.64716,1.35758 -1.9605,1.04426 z m -9.92579,-6.33298 c -0.0815,-0.0815 -0.1482,-0.84862 -0.1482,-1.70468 0,-1.20791 0.073,-1.58452 0.32613,-1.68163 0.17937,-0.0689 0.38679,-0.0645 0.46096,0.009 0.22693,0.22693 0.42669,2.30836 0.27572,2.87291 -0.14028,0.52456 -0.62616,0.79216 -0.91461,0.5037 z m 0.35758,74.88147 c -0.6939,-1.7064 -0.9706,-2.65989 -1.1415,-3.93362 -0.52188,-3.88938 -0.67781,-4.47235 -1.54925,-5.79204 -0.473,-0.71631 -0.97589,-1.37429 -1.1175,-1.4622 -0.32523,-0.20184 -1.03962,-1.3731 -1.23994,-2.03291 -0.10495,-0.34559 -0.0791,-0.45665 0.083,-0.35645 0.3455,0.21354 0.51352,-0.41287 0.2452,-0.91422 -0.17433,-0.32577 -0.1566,-0.6026 0.0721,-1.12606 l 0.30331,-0.69412 0.0265,1.1624 c 0.0359,1.57435 0.4058,2.50547 1.5255,3.84022 1.83935,2.19263 2.14266,2.99102 2.71079,7.13558 0.25219,1.83965 0.69212,3.24649 1.20215,3.84416 0.25426,0.29798 0.23845,0.35719 -0.12056,0.45106 -0.22727,0.0594 -0.44506,0.30271 -0.48398,0.5406 -0.0508,0.31077 -0.19606,0.12432 -0.51599,-0.6624 z m 3.87957,-5.14068 c -0.20342,-0.8303 -0.36985,-1.69054 -0.36985,-1.91163 0,-0.96602 -1.15608,-4.71693 -1.9675,-6.38354 -0.80911,-1.6619 -0.88416,-1.95598 -0.86881,-3.40411 0.0191,-1.80332 0.43844,-4.5106 0.48518,-3.1326 0.0145,0.42749 -0.0756,1.51085 -0.20039,2.40749 -0.19288,1.38683 -0.17869,1.67829 0.0951,1.95205 0.25054,0.25057 0.38814,0.26676 0.62136,0.0733 0.24621,-0.20434 0.32017,-0.12151 0.41539,0.4652 0.0636,0.39258 0.44298,1.41612 0.84286,2.27451 0.73763,1.58344 0.91157,2.21091 1.53378,5.53231 0.23472,1.25306 0.27932,1.94129 0.13695,2.11342 -0.11611,0.14039 -0.24331,0.54058 -0.28266,0.8893 -0.0567,0.50185 -0.14863,0.31934 -0.44139,-0.87561 z m 13.10326,-20.25647 c -0.94655,-0.88791 -1.28758,-1.58727 -0.77403,-1.58727 0.30209,0 2.07571,1.93122 2.08652,2.27194 0.0141,0.44332 -0.26548,0.29748 -1.31249,-0.68467 z m 3.05097,-16.96245 c 0.0556,-0.29324 0.35445,-0.39175 1.44205,-0.47552 0.75447,-0.0581 1.49147,-0.18314 1.63782,-0.27783 0.3483,-0.22535 1.1536,0.0343 1.05196,0.3392 -0.0777,0.2328 -2.43533,0.73456 -3.60547,0.7673 -0.45875,0.0134 -0.58043,-0.0687 -0.52636,-0.35315 z m 0.40095,-0.5523 c 0.0484,-0.0422 0.75381,-0.13037 1.56747,-0.19593 0.90047,-0.0725 1.27264,-0.0507 0.95104,0.0558 -0.5165,0.17095 -2.69272,0.29211 -2.51851,0.14022 z m -13.01519,41.76778 c -0.23247,-0.0583 -0.67512,-0.28493 -0.98366,-0.50385 -0.30854,-0.2189 -0.65225,-0.39801 -0.7638,-0.39801 -0.30776,0 -1.3174,-1.55127 -1.31412,-2.01911 0.001,-0.22623 0.0628,-0.63528 0.13612,-0.90901 0.12002,-0.44817 0.18116,-0.39339 0.61501,0.55058 0.5732,1.24722 2.08347,2.37754 3.17672,2.37754 1.23406,0 1.73545,-1.00875 2.20126,-4.4287 0.41803,-3.06908 0.8983,-3.83471 5.41387,-8.63062 4.33628,-4.60547 5.1605,-5.7052 5.68105,-7.58009 0.18852,-0.679 0.43992,-1.56743 0.55865,-1.97425 0.11867,-0.40683 0.25087,-2.30525 0.29366,-4.21869 0.0538,-2.40567 0.16977,-3.67709 0.3759,-4.12118 0.16396,-0.35321 0.51552,-1.30793 0.78124,-2.1216 0.26571,-0.81368 0.7407,-1.81228 1.05556,-2.2191 0.31484,-0.40683 0.93606,-1.40543 1.38049,-2.21911 0.75513,-1.38252 0.81352,-1.61778 0.89155,-3.59282 0.0797,-2.01672 0.0533,-2.17629 -0.57695,-3.48716 -0.36325,-0.75555 -0.99638,-1.94379 -1.40696,-2.64055 -1.51064,-2.56354 -2.44626,-6.22572 -2.727,-10.67404 -0.15172,-2.40388 -0.59215,-5.61424 -0.91994,-6.70566 -0.452,-1.50489 -2.43355,-4.81701 -3.10755,-5.1942 -0.18062,-0.10108 -0.50145,-0.46833 -0.71294,-0.81612 -0.50262,-0.82647 -2.45995,-2.46715 -3.73974,-3.13472 -0.5571,-0.29061 -1.4645,-0.84434 -2.01644,-1.23052 -0.55195,-0.38619 -1.32625,-0.79126 -1.72066,-0.90016 -0.39442,-0.10886 -1.13433,-0.48071 -1.64422,-0.82624 -0.5099,-0.34552 -1.05884,-0.62996 -1.21986,-0.63207 -0.33372,-0.004 -4.43884,-1.37887 -5.44542,-1.82326 -0.36629,-0.16171 -0.79426,-0.29513 -0.95105,-0.2965 -0.15679,-10e-4 -1.04591,-0.19934 -1.97581,-0.43993 -1.42388,-0.36839 -2.2794,-0.43353 -5.420069,-0.4127 -2.051113,0.0136 -4.286064,0.12123 -4.966549,0.23915 -0.680484,0.11787 -1.80425,0.30039 -2.49726,0.40546 -1.215612,0.18433 -4.37647,1.23739 -6.555044,2.18386 -4.643407,2.01732 -8.059927,6.47284 -10.155062,13.24332 -0.161863,0.52307 -0.292689,1.14126 -0.290723,1.37374 0.0021,0.23246 -0.06195,1.37537 -0.142053,2.53977 -0.229383,3.33452 0.518185,8.24636 1.750728,11.50307 0.427779,1.13029 1.528774,2.97024 1.777351,2.97024 0.09515,0 0.297317,0.23728 0.449267,0.52728 0.151936,0.28999 1.014321,1.27683 1.916399,2.19295 1.385228,1.40678 2.024943,1.86372 4.115856,2.93984 1.36164,0.70078 3.521847,1.62044 4.800469,2.04367 1.278637,0.42325 2.580939,0.91001 2.894028,1.08166 0.31309,0.17168 1.549449,0.63336 2.747461,1.02594 1.992797,0.65304 4.022449,1.49682 4.81998,2.00379 0.174367,0.11087 0.744991,0.39729 1.268061,0.63659 0.52307,0.23929 1.42656,0.81341 2.00776,1.27584 0.58118,0.46242 1.51682,1.15307 2.07917,1.53479 1.32346,0.89836 2.06667,2.34449 2.66503,5.18568 0.4025,1.9111 0.42982,2.3943 0.23879,4.22245 -0.11867,1.1354 -0.30199,2.5399 -0.40745,3.1211 -0.1055,0.5812 -0.17951,1.88888 -0.16455,2.90599 0.0149,1.01709 -0.003,1.84926 -0.0396,1.84925 -0.0367,-2e-5 -0.25677,-0.10169 -0.48907,-0.22606 -0.34457,-0.18441 -0.39441,-0.34985 -0.27059,-0.89821 0.0834,-0.36969 0.17785,-1.05259 0.20973,-1.51754 0.0319,-0.46496 0.12353,-1.51111 0.20364,-2.32477 0.3759,-3.81798 0.0186,-7.42004 -0.93904,-9.46578 -0.93926,-2.00656 -1.87274,-2.9566 -3.79292,-3.86011 -0.88988,-0.41874 -2.569029,-1.22087 -3.731411,-1.78255 -1.162383,-0.56168 -3.112016,-1.32782 -4.332524,-1.70256 -4.270497,-1.31118 -5.623257,-1.80496 -6.336666,-2.31295 -0.306765,-0.21843 -0.81439,-0.46157 -1.128058,-0.54029 -0.313668,-0.0787 -0.620958,-0.22512 -0.682893,-0.32532 -0.06189,-0.10026 -0.512777,-0.28962 -1.001888,-0.42094 -0.489097,-0.13132 -1.29824,-0.51429 -1.798087,-0.8511 -0.499834,-0.3368 -1.001525,-0.61238 -1.114873,-0.61238 -0.180071,0 -0.884087,-0.60467 -3.488815,-2.99648 -0.778217,-0.71461 -1.778825,-1.96633 -1.778825,-2.22522 0,-0.10845 -0.314472,-0.57089 -0.698827,-1.02771 -0.671694,-0.79833 -1.102404,-1.77006 -1.585932,-3.57804 -0.124353,-0.46494 -0.367215,-1.32088 -0.539697,-1.90207 -0.746034,-2.51375 -1.135397,-7.75806 -0.737485,-9.93311 0.106337,-0.58119 0.247034,-1.53162 0.312678,-2.11208 0.06565,-0.58044 0.199089,-1.20434 0.296539,-1.38643 0.09744,-0.18209 0.46282,-1.15544 0.811943,-2.16302 0.349117,-1.00758 0.913035,-2.23822 1.253143,-2.73476 0.340113,-0.49653 0.689795,-1.14056 0.777068,-1.43114 0.285394,-0.95028 2.349792,-3.46953 3.514637,-4.28906 2.537155,-1.78498 5.336391,-3.31929 6.055855,-3.31929 0.183825,0 0.484374,-0.1289 0.667889,-0.28644 0.392744,-0.33714 1.863641,-0.82425 3.926488,-1.30029 3.427365,-0.79096 11.768301,-0.93272 13.855651,-0.23551 0.51609,0.17239 1.31876,0.37662 1.7837,0.45387 0.8739,0.14517 2.85125,0.66638 3.59283,0.94703 2.58944,0.97999 3.51041,1.36076 4.24371,1.75465 0.47421,0.2547 1.23504,0.6396 1.69074,0.85532 4.71995,2.23445 5.54014,2.79187 8.12998,5.52538 3.23526,3.41473 4.36121,6.75799 4.84458,14.38493 0.10818,1.70745 0.34381,3.73436 0.52355,4.50422 0.17972,0.76987 0.37692,1.74577 0.43819,2.16867 0.0613,0.42292 0.34125,1.08863 0.62213,1.47941 0.74265,1.03317 1.71717,3.06206 2.43895,5.07779 0.64632,1.80494 0.84938,3.98787 0.4443,4.77613 -0.10374,0.20184 -0.4948,0.98516 -0.86905,1.74071 -0.37425,0.75555 -0.99527,1.80435 -1.38001,2.33064 -0.38476,0.52632 -1.01047,1.71513 -1.3905,2.6418 -0.67908,1.65591 -0.69339,1.75929 -0.83327,6.01738 -0.13849,4.21595 -0.4224,6.01374 -1.04856,6.63991 -0.11425,0.11423 -0.20761,0.34668 -0.20761,0.51667 0,0.8984 -2.82951,4.30181 -7.30303,8.78428 -2.5101,2.5151 -3.16321,3.68771 -3.36507,6.0416 -0.23762,2.77099 -0.6174,4.00548 -1.47826,4.80524 -0.73398,0.68188 -1.39273,0.81975 -2.54197,0.532 z m -0.42268,-9.93025 c -1.02648,-0.25007 -1.16251,-0.61395 -1.16031,-3.10374 0.001,-2.03851 0.0693,-2.48929 0.51681,-3.45049 0.97149,-2.08663 3.07395,-2.69182 3.07395,-0.88482 0,0.50336 -0.56749,0.53114 -1.09514,0.0537 -0.36466,-0.33003 -0.42069,-0.32171 -0.90619,0.13442 -0.55899,0.52514 -0.89256,1.95923 -0.64044,2.75354 0.12513,0.39415 0.24827,0.44301 0.8134,0.32276 2.79549,-0.59486 3.39986,-0.32133 3.18285,1.44052 -0.15022,1.21968 -0.78207,2.32746 -1.51907,2.66326 -0.49698,0.22643 -1.49884,0.2578 -2.26586,0.0709 z m 2.01358,-0.80605 c 0.4358,-0.52511 0.52331,-2.28333 0.12985,-2.60984 -0.27841,-0.23105 -0.436,-0.20173 -0.97366,0.1811 -0.3528,0.25123 -0.64147,0.48623 -0.64147,0.52225 0,0.0359 -0.14156,0.40425 -0.31456,0.81833 -0.28118,0.67295 -0.27957,0.78786 0.015,1.08252 0.42205,0.42206 1.43641,0.42526 1.78468,0.005 z M 89.133362,164.53847 c -0.220935,-1.79345 -0.335304,-2.22818 -0.656265,-2.49454 -0.166885,-0.13851 -0.303428,-0.37949 -0.303428,-0.53554 0,-0.15602 -0.196286,-0.38874 -0.436192,-0.51713 -0.502189,-0.26877 -1.031947,0.0382 -1.059894,0.61429 -0.0094,0.19254 -0.107237,0.0968 -0.222401,-0.21754 -0.150107,-0.40977 -0.12002,-0.76676 0.111544,-1.3209 0.281793,-0.67445 0.40332,-0.75937 1.086723,-0.75937 0.534025,0 0.896467,0.14549 1.184637,0.47552 0.601139,0.68848 1.025853,1.73227 1.029176,2.52933 0.004,1.07886 0.221729,1.6447 0.631481,1.6447 0.462832,0 0.998551,-0.78611 1.091904,-1.60226 0.07764,-0.67853 0.630591,-0.92304 1.137006,-0.50275 0.545636,0.45284 0.356602,1.17443 -0.476113,1.81743 -0.430621,0.33253 -1.003355,0.81635 -1.272729,1.07518 -0.535975,0.51499 -1.182094,0.90313 -1.503405,0.90313 -0.113024,0 -0.266911,-0.49929 -0.342085,-1.10955 z m -6.105357,0.42269 c -0.535383,-2.11429 -0.539272,-2.17893 -0.162324,-2.69462 0.534832,-0.73164 0.922758,-0.74786 1.331649,-0.0557 0.191831,0.32474 1.12713,1.42236 2.078467,2.43917 1.754843,1.87562 1.998005,2.47738 1.001054,2.47738 -0.305137,0 -0.82658,-0.36043 -1.394404,-0.96385 -1.035459,-1.10033 -1.645437,-1.17896 -1.573318,-0.20285 0.04359,0.58932 -0.240188,1.1667 -0.573327,1.1667 -0.08759,0 -0.406091,-0.97482 -0.707797,-2.16627 z m 38.353285,18.8082 c -1.14598,-0.91236 -1.11796,-1.53094 0.0693,-1.53094 0.70864,0 0.8541,0.0773 0.95586,0.50837 0.1854,0.7854 0.73927,1.0352 1.43311,0.64634 0.96452,-0.54053 1.13711,-1.16768 0.74725,-2.71536 -0.29001,-1.15131 -0.42791,-1.37777 -0.98029,-1.61003 -0.47745,-0.20075 -0.77214,-0.21135 -1.14556,-0.0411 -0.54219,0.24703 -0.88539,-0.0315 -0.89193,-0.72392 -0.005,-0.56616 -0.85663,-2.31516 -1.18894,-2.44266 -0.37908,-0.14547 -1.13907,0.50501 -1.13907,0.97496 0,0.18859 0.15367,0.56228 0.34148,0.83042 0.37871,0.54069 0.15738,0.97165 -0.39097,0.76122 -0.47185,-0.18107 -0.53545,-0.65925 -0.28006,-2.10573 l 0.22389,-1.26806 1.10054,-0.0635 1.10056,-0.0635 0.53735,1.06042 c 0.29555,0.58323 0.53735,1.30134 0.53735,1.59579 0,0.49683 0.0722,0.53591 1.00388,0.54243 1.61587,0.0108 2.04322,0.51271 2.13052,2.49965 0.0914,2.07897 -0.12541,2.61655 -1.26994,3.15081 -1.61572,0.75416 -1.94106,0.75356 -2.89436,-0.005 z m -9.32588,19.08477 c 0,-0.11088 -0.52124,-0.89549 -1.15831,-1.74359 -1.19805,-1.59489 -1.39312,-2.07036 -0.84946,-2.07036 0.17436,0 0.48996,-0.17294 0.70134,-0.38432 0.36202,-0.36202 0.36853,-0.56126 0.11209,-3.43431 -0.14974,-1.67751 -0.32194,-3.70743 -0.38269,-4.51097 -0.10832,-1.43183 -0.4902,-2.23754 -1.06068,-2.23754 -0.41433,0 -1.17181,-0.95268 -1.39224,-1.751 -0.15861,-0.57441 -0.34528,-0.78274 -0.78374,-0.87466 -0.83242,-0.17451 -6.05834,-0.90826 -9.134942,-1.2826 -1.452989,-0.1768 -3.497723,-0.46989 -4.543866,-0.65132 -2.976347,-0.51624 -7.240533,-1.00004 -7.599626,-0.86225 -0.179155,0.0687 -0.325737,0.32928 -0.325737,0.57896 0,0.33865 -0.09392,0.4225 -0.369843,0.33013 -3.862292,-1.29334 -4.969091,-1.83048 -4.589049,-2.22716 0.321459,-0.33554 3.006312,-1.21719 4.153948,-1.36407 l 0.99146,-0.12689 0.06526,0.78531 c 0.06391,0.7694 0.08665,0.78832 1.121963,0.93577 0.581185,0.0828 2.673484,0.29855 4.649543,0.47954 1.976046,0.18099 4.020794,0.42532 4.543866,0.54294 1.119918,0.25184 4.570963,0.73265 8.159153,1.13673 1.40722,0.15848 2.84097,0.35016 3.1861,0.42597 0.46361,0.10189 0.8718,-0.001 1.56261,-0.39667 0.51431,-0.29399 1.19866,-0.53565 1.52081,-0.53705 0.82313,-0.004 2.19454,0.96379 2.4646,1.73846 0.51243,1.46995 0.20792,2.29803 -1.22499,3.33122 -0.42441,0.30601 -0.43186,0.39768 -0.21452,2.64178 0.12379,1.27862 0.28758,3.36095 0.36388,4.6274 0.14775,2.45235 0.17776,2.51294 1.36903,2.76483 0.54087,0.11436 0.58296,0.18667 0.453,0.77838 -0.0789,0.35877 -0.3129,0.94966 -0.52023,1.31307 -0.20732,0.36343 -0.48987,1.01742 -0.62789,1.45332 -0.22625,0.71453 -0.64084,1.09686 -0.64084,0.59096 z m -0.33079,-15.43257 c 0.45587,-0.17332 0.54213,-0.33916 0.54213,-1.04232 0,-0.68179 -0.11343,-0.91694 -0.61381,-1.27329 -0.77605,-0.5526 -1.29608,-0.55234 -1.99947,0.001 -0.40482,0.31842 -0.55687,0.63253 -0.55687,1.15041 0,1.1642 1.21381,1.70194 2.62802,1.16425 z m -14.727387,-4.5834 c 0.14529,-0.0586 0.383057,-0.0586 0.52836,0 0.14529,0.0586 0.02637,0.10656 -0.26418,0.10656 -0.290605,0 -0.409482,-0.0481 -0.26418,-0.10656 z m 4.702367,0.97706 c -0.33131,-0.11126 -0.016,-0.13239 0.84538,-0.0567 0.75555,0.0665 1.41335,0.15584 1.46179,0.19855 0.17322,0.15277 -1.78922,0.032 -2.30717,-0.14196 z m 65.09358,-86.815246 c 0,-0.123615 0.0951,-0.283527 0.21134,-0.35536 0.38162,-0.23585 0.22079,-0.559841 -0.21001,-0.42311 -0.31998,0.101558 -0.39156,0.05606 -0.2975,-0.189056 0.0681,-0.177534 0.30112,-0.379046 0.51776,-0.447802 0.21663,-0.06876 0.64756,-0.42902 0.95763,-0.800579 0.31007,-0.371562 1.21994,-1.3732 2.02196,-2.225855 2.24384,-2.385565 3.35099,-4.541016 3.50826,-6.830057 0.095,-1.382616 0.043,-1.758226 -0.35865,-2.587776 -0.25836,-0.533723 -0.55664,-1.024099 -0.66281,-1.089721 -0.10616,-0.06562 -0.19306,-0.214419 -0.19306,-0.330659 0,-0.11624 0.0885,-0.156582 0.19687,-0.08965 0.10832,0.06693 0.33096,-0.06974 0.49482,-0.30369 0.29324,-0.418648 0.30182,-0.416881 0.54283,0.112082 0.3131,0.687199 0.30898,0.728903 -0.0721,0.728903 -0.17437,0 -0.31702,0.0951 -0.31702,0.211341 0,0.116239 0.17547,0.211341 0.38993,0.211341 0.79063,0 1.08948,0.667096 1.08948,2.432077 0,1.919698 -0.17189,2.582323 -1.23303,4.753576 -0.54139,1.107756 -1.28381,2.123 -2.46544,3.371416 -3.25508,3.43907 -4.12122,4.248743 -4.12122,3.852589 z M 111.84432,242.75163 c -1.1864,-0.55171 -3.99795,-2.40745 -4.41871,-2.91653 -1.04649,-1.26616 -1.33655,-1.8524 -1.05553,-2.1334 0.19195,-0.19197 0.9903,0.37989 2.30892,1.65385 2.20795,2.13317 3.63484,2.74824 5.63401,2.42856 2.00694,-0.32092 4.97088,-2.68906 5.45201,-4.35608 0.11867,-0.41096 0.38362,-1.1507 0.58889,-1.64386 0.20528,-0.49316 0.59729,-1.65924 0.87113,-2.5913 0.27385,-0.93205 0.82834,-2.00804 1.23221,-2.39107 0.40389,-0.38303 0.73665,-1.01289 0.73949,-1.39967 0.003,-0.46911 0.67754,-1.36463 2.02486,-2.68995 3.31615,-3.26197 7.54458,-8.50428 7.54458,-9.35355 0,-0.23872 0.14836,-0.58236 0.32966,-0.76368 0.19417,-0.19417 0.42293,-2.39931 0.5566,-5.36497 0.12486,-2.76942 0.33583,-5.3043 0.46893,-5.63308 0.13308,-0.32876 0.76876,-1.38121 1.41252,-2.33875 1.09225,-1.62459 2.62455,-4.70531 2.59113,-5.20945 -0.008,-0.12258 0.14249,-0.78444 0.33468,-1.47091 0.19221,-0.68648 0.30114,-2.30066 0.2421,-3.58709 -0.10253,-2.23215 -0.21839,-2.5641 -2.53853,-7.27006 -3.28539,-6.66374 -3.19125,-6.34924 -3.15908,-10.55473 0.0153,-2.00297 -0.0953,-4.51599 -0.2461,-5.58449 -0.26444,-1.87543 -1.94063,-6.40921 -2.74049,-7.4126 -0.21434,-0.26888 -0.59145,-0.74871 -0.83802,-1.06632 -0.24658,-0.31759 -0.68305,-0.7926 -0.96992,-1.05557 -0.28688,-0.26297 -0.89213,-0.86287 -1.34499,-1.33311 -1.74551,-1.8125 -5.37901,-4.63629 -6.95049,-5.4016 -3.41464,-1.66293 -7.80676,-3.09591 -11.17975,-3.64753 -3.46202,-0.56619 -13.533427,-0.85906 -15.719792,-0.45713 -0.904123,0.16619 -2.787098,0.50292 -4.184369,0.74824 -3.431362,0.60247 -4.089106,0.78193 -5.828233,1.59007 -1.94113,0.90201 -2.241638,0.88167 -2.241638,-0.15177 0,-2.08324 -1.511101,-4.61445 -3.168073,-5.30679 -2.62444,-1.09655 -6.251146,-0.0417 -8.754337,2.54612 -2.968191,3.06861 -3.703729,6.01053 -2.221029,8.88345 0.676973,1.31173 2.235389,2.50024 3.278384,2.50024 0.706656,0 0.928247,0.53254 0.441515,1.06104 -0.445065,0.48326 -1.836083,4.24433 -2.433118,6.57871 -0.560687,2.19228 -1.239597,9.32859 -1.164064,12.23603 0.04055,1.56079 0.563049,4.4225 1.364285,7.47209 0.46906,1.7853 1.442666,3.79112 2.536071,5.22484 3.410877,4.47247 5.672233,6.4617 9.320548,8.19894 4.520534,2.15258 7.405278,3.18133 10.961867,3.90916 2.07221,0.42407 3.843468,1.00049 6.626047,2.15633 1.460281,0.60657 3.336796,2.50555 4.173466,4.22342 0.5472,1.12353 0.67169,1.85689 0.64239,3.78463 -0.0315,2.07857 -0.89276,6.45451 -1.44662,7.35068 -0.10091,0.16337 -0.026,0.48699 0.16677,0.71918 0.19269,0.23218 0.2547,0.57689 0.13782,0.76603 -0.35947,0.58163 -0.726,-0.33723 -0.73101,-1.8326 -0.003,-0.75099 0.20526,-2.07204 0.46172,-2.93563 0.85928,-2.89349 1.41219,-2.69214 -7.788944,-2.83638 -7.980812,-0.12514 -9.52613,-0.27917 -15.243081,-1.51957 -2.018715,-0.43801 -2.865548,-0.70344 -4.782141,-1.49894 -0.493154,-0.2047 -1.838137,-0.6884 -2.988838,-1.07494 -1.150701,-0.38653 -3.033671,-1.26138 -4.184372,-1.94411 -1.150702,-0.68273 -2.562927,-1.48042 -3.138283,-1.77266 -1.167832,-0.59314 -2.134075,-1.28512 -3.979879,-2.85019 -0.68782,-0.5832 -1.609384,-1.28517 -2.047924,-1.55991 -0.699854,-0.43847 -3.302892,-3.3176 -5.664588,-6.26539 -0.430721,-0.53762 -1.338709,-2.08436 -2.017748,-3.4372 -2.99708,-5.97109 -4.049778,-10.45173 -4.021557,-17.11718 0.0283,-6.67812 1.223832,-12.68901 3.596591,-18.08246 1.943162,-4.41695 2.264686,-5.073 3.494876,-7.13116 0.673967,-1.12756 1.427139,-2.40529 1.673717,-2.83939 0.720197,-1.26791 2.487412,-3.62866 2.716333,-3.62866 0.115607,0 0.641726,-0.67249 1.169159,-1.49444 0.527429,-0.82192 1.142466,-1.49441 1.366753,-1.49441 0.224281,0 0.340438,-0.17551 0.258125,-0.39002 -0.08366,-0.21802 0.745199,-1.23949 1.879615,-2.31634 6.997839,-6.64282 7.799396,-7.20325 15.47493,-10.81969 7.627771,-3.59396 10.222945,-4.34947 17.633835,-5.1336 3.729502,-0.39461 4.853591,-0.39653 10.694391,-0.0182 4.99467,0.32348 10.86931,2.01836 14.39426,4.15286 0.97666,0.5914 1.98539,1.07386 2.24165,1.07218 0.25625,-0.001 1.31586,-1.24583 2.3547,-2.76469 4.27383,-6.24871 6.54422,-9.47544 7.67548,-10.90855 0.65754,-0.83301 1.73353,-2.28641 2.39107,-3.22979 0.65755,-0.94338 1.93542,-2.66997 2.83971,-3.83687 0.9043,-1.16689 2.23714,-2.92862 2.96189,-3.91493 2.08803,-2.84164 8.02813,-10.301285 8.68704,-10.909261 0.0891,-0.0822 1.09475,-1.225424 2.23481,-2.540515 4.6664,-5.382789 9.87701,-10.210835 12.55883,-11.636775 1.59331,-0.847175 4.34708,-1.046665 6.08501,-0.440816 0.8046,0.280487 0.87651,0.384962 0.51427,0.74721 -0.23161,0.231615 -0.59886,0.425402 -0.81609,0.430629 -0.26162,0.0063 -0.21369,0.146966 0.142,0.416713 0.63107,0.478606 1.70468,0.282342 1.70468,-0.311636 0,-0.588205 0.32048,-0.513647 1.34498,0.312921 0.70768,0.570949 0.81997,0.801642 0.53284,1.094588 -0.28904,0.294895 -0.40309,0.268772 -0.55503,-0.127138 -0.23273,-0.606506 -1.20305,-0.656368 -1.5321,-0.07872 -0.13146,0.230764 -0.57526,0.466131 -0.98623,0.523043 -1.02428,0.141847 -0.96742,0.974791 0.0747,1.094701 0.59722,0.06872 0.82192,0.261312 0.82192,0.704463 0,0.36336 -0.15102,0.553282 -0.37359,0.469835 -0.20549,-0.07703 -0.64262,-0.03957 -0.97137,0.08322 -0.54428,0.203296 -0.52422,0.242615 0.22416,0.439368 0.45205,0.11885 0.82192,0.319535 0.82192,0.445977 0,0.333249 -0.65447,0.81326 -1.34499,0.986442 -0.56535,0.141799 -0.56078,0.161771 0.0846,0.368481 0.6408,0.205259 0.65445,0.261102 0.22415,0.917817 -0.25199,0.384594 -0.45816,0.856911 -0.45816,1.049593 0,0.433209 -2.95572,3.753326 -6.80643,7.645561 -1.59902,1.616265 -3.84878,4.000553 -4.99949,5.298419 -1.1507,1.29787 -2.47078,2.76633 -2.93353,3.26327 -0.46275,0.49692 -1.05503,1.31705 -1.31619,1.82248 -0.26116,0.50545 -0.64085,1.05347 -0.84377,1.21786 -0.2029,0.16438 -0.95561,1.10647 -1.67265,2.09352 -0.71704,0.98705 -2.07708,2.76197 -3.02231,3.94426 -0.94521,1.18228 -1.71857,2.24375 -1.71857,2.35879 0,0.46721 -2.21698,3.59679 -6.25361,8.82789 -1.96115,2.54145 -6.5984,9.84978 -6.5984,10.3991 0,0.47701 1.24746,1.81649 1.69168,1.81649 0.2136,0 0.6794,-0.57161 1.03511,-1.27025 0.35572,-0.69865 1.07112,-1.80824 1.58979,-2.46578 0.51866,-0.65756 1.68637,-2.13703 2.5949,-3.28773 0.90854,-1.15071 1.9997,-2.69742 2.42481,-3.43717 0.6433,-1.11941 2.63291,-3.85267 5.87427,-8.06987 1.62276,-2.11129 3.24492,-4.27539 3.85929,-5.14858 0.37865,-0.53819 1.35629,-1.85277 2.1725,-2.92128 6.10508,-7.99217 5.34422,-7.10541 10.21532,-11.90559 1.92447,-1.896471 2.88235,-2.655476 2.99167,-2.370578 0.0983,0.256196 -1.04715,1.679368 -2.94729,3.661794 -1.70943,1.783484 -3.10808,3.354604 -3.10808,3.491374 0,0.13677 -0.269,0.24866 -0.59777,0.24866 -0.32877,0 -0.59777,0.18994 -0.59777,0.42208 0,0.23213 -0.61082,1.20725 -1.35738,2.16691 -3.68749,4.74008 -7.65526,9.9983 -9.40244,12.46047 -1.0685,1.50576 -2.89289,4.01466 -4.05418,5.57534 -2.21919,2.98243 -5.68673,7.80688 -7.92085,11.02047 -0.72891,1.04848 -1.43852,2.0582 -1.57693,2.24386 -0.15711,0.21077 0.6111,1.68372 2.04548,3.92191 2.81908,4.39888 3.4544,5.65467 4.30822,8.51597 0.36791,1.2329 0.86596,2.69516 1.10675,3.24947 0.24081,0.55432 0.70053,2.63903 1.0216,4.6327 0.32108,1.99367 0.71891,4.27398 0.8841,5.06735 0.37879,1.81943 0.38945,7.26136 0.0184,9.44877 -0.155,0.91402 -0.49598,3.32573 -0.75771,5.35936 -0.27878,2.16604 -0.71913,4.20096 -1.06315,4.91301 -0.323,0.66852 -0.58727,1.32619 -0.58727,1.46149 0,0.38799 -1.22982,2.9343 -2.20882,4.57331 -0.82612,1.38305 -0.8874,1.68372 -0.82225,4.03493 0.10603,3.82534 -1.34354,8.35546 -3.61615,11.30119 l -1.24798,1.6176 -0.21988,4.97291 c -0.12096,2.7351 -0.3452,5.46569 -0.49839,6.06796 -0.5398,2.12262 -3.08148,5.68111 -6.39962,8.95982 -1.77035,1.74932 -3.21882,3.27844 -3.21882,3.39808 0,0.11961 -0.45439,0.97483 -1.00975,1.90047 -0.55537,0.92562 -1.42336,3.02792 -1.92886,4.67179 -0.79224,2.57629 -1.09635,3.15787 -2.20324,4.2135 -3.05715,2.91552 -5.52264,3.9311 -7.41127,3.05284 z M 76.1962,213.63564 c -0.09933,-0.0993 -0.357108,-0.10993 -0.572863,-0.0235 -0.23843,0.0953 -0.167608,0.16624 0.180576,0.18059 0.315074,0.0135 0.491601,-0.0577 0.392287,-0.157 z m 20.205439,-3.56592 c 1.041689,-0.26836 1.335659,-0.92435 0.699347,-1.56065 -0.413303,-0.41331 -1.322055,-0.46822 -6.657194,-0.4023 -11.108893,0.13726 -15.339622,-0.45 -22.834275,-3.16956 -4.869962,-1.76716 -6.323387,-2.58112 -8.966518,-5.02147 -4.902135,-4.52609 -8.149436,-11.94658 -8.551073,-19.54027 -0.190525,-3.60221 0.137375,-4.44448 0.451533,-1.15983 0.132547,1.38585 0.295693,1.87279 0.627448,1.87279 0.35489,0 0.498039,-0.65391 0.686866,-3.13771 0.131202,-1.72574 0.346132,-3.2453 0.477636,-3.37681 0.131511,-0.13147 0.321319,0.92598 0.421815,2.34997 0.140178,1.98637 0.436142,3.2247 1.271401,5.31957 0.598787,1.50176 1.206604,3.03309 1.350707,3.40296 0.144108,0.36987 0.418215,0.6725 0.609118,0.6725 0.245956,0 0.290191,-0.50082 0.151785,-1.71858 -0.385357,-3.39064 -0.525444,-8.89184 -0.237052,-9.30896 0.158631,-0.22943 0.486942,-0.34097 0.72958,-0.24787 0.318695,0.12231 0.499688,0.9019 0.651972,2.80823 0.210305,2.6327 0.302539,3.17176 1.218638,7.12219 1.098653,4.73764 2.565181,7.81127 5.488257,11.50257 1.152599,1.45551 0.970977,0.29514 -0.384018,-2.45345 -1.353673,-2.74589 -1.649495,-3.8304 -3.039072,-11.14129 -0.612501,-3.22254 -0.465985,-9.16884 0.312982,-12.70257 0.69514,-3.15344 2.090988,-7.24373 3.341117,-9.79057 0.810686,-1.65156 1.013563,-2.36459 0.850401,-2.98884 -0.450996,-1.72542 -0.504665,-4.0901 -0.119833,-5.28034 0.718413,-2.22205 3.055871,-5.49498 4.610644,-6.45589 0.903071,-0.55812 2.827811,-3.02934 2.827811,-3.63068 0,-0.52674 -0.721134,-0.20002 -2.092186,0.9479 -0.785364,0.65754 -1.538948,1.19552 -1.674628,1.19552 -0.265714,0 3.701707,-3.82639 5.784282,-5.57866 2.831578,-2.38249 0.731044,-2.02073 -2.988839,0.51475 -1.438377,0.9804 -2.615235,1.63785 -2.615235,1.461 0,-0.17687 0.706113,-1.02189 1.569139,-1.87785 4.253578,-4.21876 9.628123,-7.24214 16.961657,-9.54158 6.779773,-2.12579 9.324369,-2.5503 15.504828,-2.58658 3.62134,-0.0213 4.84279,0.0983 7.771,0.76102 1.91085,0.43243 4.20969,1.03527 5.10852,1.33966 1.74911,0.59231 2.62223,0.35862 1.78569,-0.47792 -0.61289,-0.61289 -6.02614,-2.45288 -8.74909,-2.97387 -3.6136,-0.69141 -10.862696,-0.867 -14.699127,-0.35608 -7.908341,1.05319 -18.27464,5.33321 -24.588843,10.15219 -0.896127,0.68393 -1.937446,1.44924 -2.31405,1.70067 -1.013927,0.67698 -6.377944,5.93852 -7.81973,7.67035 -0.687892,0.82627 -2.347156,3.07453 -3.687259,4.99615 -2.180768,3.12706 -2.968012,4.58156 -5.765182,10.65165 -1.017707,2.2085 -2.812357,7.66909 -3.300314,10.04188 -0.651181,3.16649 -0.613824,8.4491 0.08782,12.419 0.759749,4.29866 2.829589,9.415 5.374799,13.28574 1.739708,2.64573 6.822122,8.07021 8.339553,8.90085 1.635128,0.89506 5.750708,2.86099 5.989334,2.86099 0.135972,0 0.654921,0.20339 1.153222,0.45198 1.491307,0.74396 6.239175,1.66838 10.692867,2.08191 4.300097,0.39929 16.62701,0.39669 18.181747,-0.004 z m -29.688775,-0.27079 c 0,-0.0725 -0.134499,-0.21494 -0.298887,-0.31652 -0.164383,-0.10159 -0.29888,-0.0423 -0.29888,0.13172 0,0.17408 0.134498,0.31652 0.29888,0.31652 0.164388,0 0.298887,-0.0593 0.298887,-0.13186 z M 140.2881,186.39362 c 1.31206,-2.02273 2.60151,-6.01687 2.95443,-9.15143 0.23074,-2.04954 0.23685,-3.04482 0.0201,-3.26166 -0.21685,-0.21686 -0.40665,-0.0632 -0.62207,0.50326 -0.17049,0.44843 -0.31205,0.97469 -0.31456,1.16948 -0.003,0.19478 -0.1479,0.55589 -0.32306,0.80246 -0.24731,0.34815 -0.28032,0.2723 -0.14776,-0.3394 0.10994,-0.50734 0.0121,-0.91932 -0.27471,-1.1574 -0.24497,-0.20332 -0.45488,-0.25235 -0.46643,-0.10899 -0.0121,0.1434 -0.1366,-0.008 -0.27788,-0.33702 -0.14128,-0.32875 -0.26632,-1.50562 -0.27788,-2.61523 -0.016,-1.53815 -0.12231,-2.01746 -0.44743,-2.01746 -0.23451,0 -0.46988,0.22829 -0.52303,0.50732 -0.0532,0.27904 -0.0768,-1.8393 -0.0526,-4.7074 0.0901,-10.66613 -0.64587,-14.34085 -4.40551,-21.99543 -1.44893,-2.95 -2.60845,-4.58953 -3.24584,-4.58953 -0.47569,0 -0.38192,0.4808 0.39542,2.0274 1.46062,2.90607 3.72887,10.63875 4.40265,15.00898 0.90335,5.85949 0.0211,15.16185 -1.8238,19.2308 -0.76949,1.69707 -0.85067,2.12106 -0.62057,3.24146 0.28237,1.37494 0.92169,3.18814 1.29758,3.68007 0.43511,0.56947 1.64744,2.46932 2.45465,3.8467 0.44601,0.76108 0.98202,1.38378 1.19114,1.38378 0.20912,0 0.70738,-0.50437 1.10723,-1.12083 z M 81.579282,144.08056 c 2.756193,-1.76143 4.98922,-2.77674 8.071513,-3.66995 7.179432,-2.08051 11.965055,-2.65668 20.101335,-2.42007 5.18239,0.15071 6.22569,0.27058 9.41484,1.08177 2.10662,0.53582 4.60743,1.42433 6.06047,2.15322 1.36063,0.68251 2.57111,1.14147 2.68995,1.0199 0.38176,-0.39051 -2.10205,-2.26836 -4.60835,-3.48408 -1.79532,-0.87084 -3.17025,-1.29095 -5.24352,-1.60218 -12.39987,-1.86142 -23.501554,-1.11026 -31.925203,2.16014 -2.832753,1.09977 -8.659233,4.60063 -8.663842,5.20567 -0.0021,0.27398 0.16433,0.56598 0.369811,0.6489 0.933006,0.37647 1.856196,0.10603 3.732996,-1.09332 z m 14.573637,-2.29534 c 0.101589,-0.1644 -0.03296,-0.2989 -0.298881,-0.2989 -0.265983,0 -0.40048,0.13455 -0.298894,0.2989 0.101588,0.16438 0.236099,0.29888 0.298894,0.29888 0.06283,0 0.197281,-0.13455 0.298881,-0.29888 z m 35.716611,-16.73751 c 0,-0.16437 -0.13455,-0.29887 -0.29888,-0.29887 -0.16439,0 -0.29889,0.13455 -0.29889,0.29887 0,0.1644 0.13455,0.2989 0.29889,0.2989 0.16438,0 0.29888,-0.13456 0.29888,-0.2989 z m 8.39117,-19.21075 c -0.037,-0.35738 -0.44692,-0.28816 -0.57535,0.0972 -0.0658,0.19728 0.0418,0.30487 0.2391,0.23912 0.19727,-0.0658 0.34857,-0.21707 0.33625,-0.33625 z m 26.22741,-19.812956 c 1.34198,-1.434175 1.56113,-1.82381 1.39598,-2.48181 -0.3535,-1.408512 -1.56256,-1.616459 -3.61674,-0.622042 -3.43745,1.664034 -3.82629,5.792212 -0.47565,5.049832 0.78672,-0.174309 1.5625,-0.734177 2.69641,-1.94598 z" /></g></g></svg>
