<?xml version="1.0" encoding="UTF-8" standalone="no"?>
<!-- Created with Inkscape (http://www.inkscape.org/) -->

<svg
   width="167.75471mm"
   height="167.75471mm"
   viewBox="0 0 167.75471 167.75471"
   version="1.1"
   id="svg1"
   xml:space="preserve"
   xmlns="http://www.w3.org/2000/svg"
   xmlns:svg="http://www.w3.org/2000/svg"><defs
     id="defs1" /><g
     id="g392"><path
       id="path392"
       style="fill-opacity:1;stroke:none;stroke-width:0.291572;stroke-opacity:1;paint-order:stroke fill markers"
       d="m 67.224026,90.938233 c -0.120271,-0.02122 -0.787239,-0.126372 -1.482157,-0.233694 -2.327735,-0.359496 -2.672332,-0.418577 -3.328774,-0.570707 -1.165544,-0.270113 -1.511327,-0.365346 -2.171426,-0.598046 l -0.679626,-0.23958 -3.178876,-0.03491 -3.178887,-0.03491 -0.315862,0.131896 c -0.971945,0.405843 -2.676304,0.904466 -3.497839,1.023321 -0.119706,0.01732 -0.233,0.04098 -0.251765,0.05257 -0.01872,0.0116 -0.04495,0.0036 -0.05812,-0.01782 -0.01317,-0.02141 0.176609,-0.08995 0.421853,-0.152325 0.571175,-0.145277 2.512954,-0.784847 2.814916,-0.927154 0.128326,-0.06047 0.230834,-0.14201 0.230834,-0.183601 0,-0.06412 -0.06247,-0.07038 -0.437058,-0.0438 -0.824213,0.0585 -2.150844,0.290227 -5.899229,1.030429 -1.27996,0.252754 -2.373352,0.457568 -2.429776,0.455144 -0.119444,-0.0051 0.662853,-0.217019 1.671152,-0.452628 0.997022,-0.232975 2.009185,-0.421796 3.936215,-0.734303 0.922095,-0.149538 1.928021,-0.315259 2.235382,-0.368268 1.943575,-0.335198 2.550341,-0.382579 4.908128,-0.383255 2.947661,-8.25e-4 3.340399,0.04287 8.28549,0.922283 0.454364,0.0808 1.099465,0.190528 1.433558,0.243833 0.730151,0.116492 1.524399,0.282624 1.373935,0.287377 -0.05954,0.002 -0.759299,-0.104511 -1.555049,-0.236413 -0.795751,-0.13191 -2.070061,-0.327589 -2.831787,-0.434843 -1.371224,-0.193074 -3.536098,-0.421974 -3.579592,-0.378486 -0.02645,0.02645 1.961338,0.68971 2.7096,0.904121 0.875619,0.250909 1.486772,0.379643 2.546531,0.536408 1.04942,0.155234 2.683619,0.427048 2.769932,0.460716 0.08446,0.03293 -0.23374,0.01683 -0.461657,-0.02337 z m 11.031127,-2.031687 v -0.08928 l -0.05464,0.05135 c -0.0591,0.05555 -0.222344,0.101812 -0.358387,0.101572 -0.07575,-1.28e-4 -0.07978,-0.0032 -0.03646,-0.0277 0.02678,-0.01515 0.0541,-0.03451 0.06073,-0.04303 0.0065,-0.0085 0.06411,-0.03495 0.127564,-0.05875 0.06346,-0.0238 0.115417,-0.05857 0.115417,-0.07726 0,-0.04096 0.06171,-0.05671 0.255128,-0.06506 0.161675,-0.007 0.201348,0.02759 0.07858,0.06851 -0.06095,0.02034 -0.08664,0.04888 -0.114296,0.127562 -0.04408,0.125177 -0.07369,0.130029 -0.07369,0.01209 z m -0.09404,-0.07473 c 0.03026,-0.03854 0.02939,-0.03939 -0.0087,-0.0091 -0.0234,0.01834 -0.04256,0.03747 -0.04256,0.04252 0,0.01998 0.01992,0.0071 0.0517,-0.03335 z M 54.617888,10.745267 C 54.417617,9.4105496 53.589149,6.5625724 52.889746,4.8044934 52.676599,4.2687187 52.266795,3.4945661 52.126584,3.3628478 52.025469,3.2678171 51.991716,3.2607314 51.866253,3.3080889 51.742564,3.3547825 51.721939,3.3510383 51.720796,3.2816728 51.719968,3.2372213 51.479513,2.8796442 51.186247,2.4870577 50.89298,2.0944713 50.653036,1.7588989 50.653036,1.7413404 c 0,-0.071891 0.575202,0.2948172 0.791756,0.5047697 0.883663,0.8567001 2.101603,3.5488643 2.773295,6.1301394 0.181832,0.6987364 0.41283,1.7597295 0.444372,2.0410015 0.04604,0.410145 0.07673,0.874715 0.05801,0.874715 -0.01132,0 -0.05747,-0.246013 -0.10253,-0.546696 z M 40.836781,19.4901 c 0,-0.03878 0.03189,-0.160948 0.07096,-0.271489 0.03897,-0.11054 0.08588,-0.370237 0.104163,-0.577103 0.04909,-0.55485 0.07271,-0.593026 0.211416,-0.341958 0.06346,0.114848 0.177512,0.288639 0.253452,0.386205 l 0.138067,0.177391 -0.133888,0.05119 c -0.18008,0.06884 -0.255596,0.135606 -0.465673,0.411727 -0.09818,0.129002 -0.17847,0.202822 -0.17847,0.164044 z m -0.144304,-1.720311 c -8.28e-4,-0.03203 -0.05573,-0.116789 -0.122057,-0.188346 -0.06629,-0.07155 -0.108734,-0.149223 -0.09437,-0.172587 0.01448,-0.02337 8.28e-4,-0.04248 -0.03037,-0.04248 -0.03113,0 -0.04408,-0.03281 -0.02873,-0.07289 0.01535,-0.04009 0.0065,-0.07289 -0.01916,-0.07289 -0.0259,0 -0.04746,-0.03827 -0.04778,-0.08504 -5.44e-4,-0.07268 -0.0076,-0.07445 -0.04789,-0.01215 -0.04027,0.06229 -0.04724,0.06053 -0.04789,-0.01215 -2.72e-4,-0.04677 -0.02264,-0.08504 -0.04931,-0.08504 -0.02667,0 -0.04854,-0.03349 -0.04854,-0.07442 0,-0.04094 -0.03461,-0.08771 -0.07695,-0.103956 -0.107428,-0.04122 0.0087,-0.109161 0.131972,-0.07701 0.0776,0.02031 0.08272,0.03676 0.03102,0.10056 -0.04517,0.05577 -0.04582,0.06672 -0.0022,0.0407 0.03875,-0.02327 0.08424,0.0242 0.131439,0.137141 0.03973,0.095 0.10721,0.186174 0.150051,0.20261 0.04288,0.01643 0.06639,0.05986 0.05235,0.09651 -0.01404,0.03664 -0.0044,0.06662 0.02155,0.06662 0.02591,0 0.04702,0.03172 0.04702,0.07047 0,0.03876 0.03559,0.09039 0.07913,0.114737 0.06237,0.03488 0.06781,0.06369 0.0258,0.136052 -0.02928,0.05048 -0.05399,0.06559 -0.05475,0.03356 z m 74.050593,1.985015 c 0.0946,-0.28164 0.48354,-0.623966 0.39796,-0.349757 -0.0448,0.145161 0.12671,0.22235 0.85317,0.383565 1.0422,0.23128 2.53336,0.499702 3.01607,0.542913 0.25495,0.02281 0.29676,0.06909 0.18609,0.205964 -0.0786,0.09708 -0.15617,0.217863 -0.17255,0.268388 -0.0164,0.05053 -0.23338,0.1374 -0.48224,0.193047 -0.53428,0.119493 -2.45544,-0.446541 -2.76483,-0.8146 -0.1414,-0.168212 -0.31222,-0.22558 -0.64975,-0.218212 -0.39662,0.0087 -0.44802,-0.0196 -0.38393,-0.211332 z m 11.68214,7.732005 c -0.0802,-0.01688 -0.13248,-0.03209 -0.11622,-0.0338 0.0542,-0.0058 0.20126,-0.173802 0.20126,-0.229994 0,-0.237904 -0.54177,-0.648852 -1.33436,-1.012168 -0.40947,-0.187689 -1.01216,-0.490814 -1.08326,-0.544818 -0.0466,-0.0354 -0.0453,-0.03694 0.0315,-0.03768 0.31285,-0.003 2.28316,0.997063 2.9755,1.510295 0.22866,0.169506 0.24281,0.270547 0.0492,0.351465 -0.0984,0.04114 -0.52168,0.03921 -0.72363,-0.0033 z m -1.37694,2.049776 c -0.37359,-0.306603 -0.61481,-0.470367 -1.05282,-0.714764 -0.0668,-0.03729 -0.21444,-0.121141 -0.32802,-0.186352 -0.71111,-0.408224 -2.48217,-1.232421 -2.89062,-1.345197 l -0.11014,-0.03041 0.15793,-0.002 c 0.20147,-0.0025 0.56751,0.07286 0.74096,0.152265 0.0739,0.03385 0.22453,0.127003 0.33465,0.207009 0.11012,0.08001 0.33763,0.211895 0.5056,0.293088 0.50466,0.24396 1.48502,0.54073 1.55501,0.470731 0.0471,-0.04717 -0.0348,-0.172166 -0.34468,-0.525633 -0.16179,-0.18453 -0.28802,-0.341633 -0.28054,-0.349118 0.008,-0.0075 0.0879,0.05158 0.17879,0.131257 0.16237,0.142402 0.34907,0.284059 0.90863,0.689404 0.155,0.112274 0.43108,0.312484 0.61352,0.444915 l 0.33172,0.240782 v 0.384883 c 0,0.211683 -0.004,0.384882 -0.01,0.384882 -0.005,0 -0.14501,-0.110648 -0.3098,-0.245884 z m -3.33724,0.958776 c -0.25224,-0.168492 -1.01966,-0.83138 -1.54172,-1.3317 -1.15462,-1.106574 -2.30819,-2.23294 -2.29766,-2.243479 0.0127,-0.01272 0.24969,0.16455 0.45825,0.342815 0.0959,0.08193 0.47496,0.444956 0.84247,0.806735 0.70483,0.693869 0.93475,0.904141 1.25132,1.144428 0.36574,0.277614 0.55614,0.372291 0.64886,0.32267 0.10786,-0.05772 0.0125,-0.276098 -0.38821,-0.889344 -0.41254,-0.6313 -0.60531,-1.023339 -0.56873,-1.1566 0.0109,-0.03949 0.0191,-0.02303 0.032,0.06397 0.0357,0.240177 0.25359,0.554541 0.94427,1.362401 0.69918,0.817817 0.9725,1.225078 0.97153,1.447673 -5.5e-4,0.106644 -0.019,0.136572 -0.10493,0.169249 -0.10133,0.0385 -0.14098,0.03227 -0.24741,-0.03881 z M 49.838968,3.5331705 c 0,-0.073229 0.09273,-0.097534 0.20617,-0.054019 0.113392,0.043515 0.20617,0.1034225 0.20617,0.1331344 0,0.029714 -0.09273,0.054019 -0.20617,0.054019 -0.113393,0 -0.20617,-0.059907 -0.20617,-0.1331344 z M 77.466064,89.021647 c 0,-0.07559 0.05823,-0.137448 0.129327,-0.137448 0.07118,0 0.167564,0.06186 0.21429,0.137448 0.04669,0.0756 -0.01154,0.137448 -0.129338,0.137448 -0.117855,0 -0.214279,-0.06186 -0.214279,-0.137448 z m 23.109526,6.964698 c -0.14324,-0.173779 -0.16268,-0.448781 -0.0817,-1.156641 l 0.10612,-0.928647 0.12172,0.549798 c 0.0669,0.302387 0.10373,0.822874 0.0817,1.156641 -0.0353,0.535158 -0.0622,0.579914 -0.22785,0.378849 z M 66.985628,95.143672 c -0.20789,-0.25061 -0.377979,-0.522826 -0.377979,-0.604926 0,-0.349778 0.602184,-1.364923 0.771206,-1.300063 0.133311,0.05116 0.09339,0.20383 -0.156962,0.60041 l -0.335715,0.531817 0.444895,0.333244 c 0.316711,0.237223 0.681912,0.351769 1.267606,0.397581 1.030883,0.08065 2.895166,-0.102421 3.633567,-0.356874 0.475752,-0.163906 0.560573,-0.164363 0.560573,-0.0033 0,0.104598 0.07728,0.19041 0.171809,0.190802 0.09448,2.72e-4 -0.07554,0.153087 -0.377979,0.339328 -0.528878,0.325745 -0.63869,0.338414 -2.886415,0.332994 l -2.336617,-0.0054 z m 21.338841,5.084028 c 0,-0.0565 1.170616,-0.623298 1.598608,-0.773991 0.310354,-0.109279 3.835046,-3.592414 3.996209,-3.949092 0.138492,-0.306501 0.166628,-0.321152 0.171809,-0.08947 0.0033,0.152391 -0.24309,0.70367 -0.547763,1.225049 -0.304684,0.52139 -0.653438,1.157598 -0.775016,1.413792 -0.121566,0.256206 -0.678341,0.864648 -1.237249,1.352112 l -1.016212,0.88627 h -1.095188 c -0.602358,0 -1.095198,-0.0291 -1.095198,-0.0647 z m 6.39134,4.31241 c -0.680366,-0.14717 -1.948331,-0.39158 -2.817691,-0.54313 -0.869361,-0.15155 -2.128064,-0.41309 -2.797132,-0.58121 -1.029947,-0.25881 -1.245968,-0.36259 -1.40884,-0.67683 -0.262856,-0.50716 -0.242741,-0.75192 0.108516,-1.32022 l 0.300853,-0.48679 0.193914,0.69707 c 0.182933,0.65759 0.228592,0.70678 0.806025,0.86845 0.599953,0.16798 0.621036,0.16271 1.062764,-0.26543 0.301451,-0.29217 0.527899,-0.40717 0.683903,-0.3473 0.207945,0.0798 0.194785,0.1399 -0.121327,0.55436 l -0.354556,0.46484 h 0.597189 c 0.518255,0 0.666042,-0.0727 1.118164,-0.5498 0.599855,-0.63302 0.839484,-0.70174 0.718875,-0.20617 l -0.167248,0.68725 c -0.07924,0.32572 -0.05322,0.34362 0.500274,0.34362 0.602892,0 0.836425,-0.16832 1.096581,-0.79033 0.206976,-0.49487 0.364439,-0.36571 0.628383,0.51543 0.227525,0.75956 0.278257,0.82469 0.642401,0.82469 0.602247,0 0.906094,-0.2294 1.005474,-0.75915 0.12229,-0.65181 0.29052,-0.71398 0.575767,-0.21276 0.2267,0.39832 0.284317,0.42043 1.098294,0.42124 0.481647,5.6e-4 0.859044,-0.0595 0.859044,-0.13657 0,-0.0757 0.0618,-0.13745 0.13745,-0.13745 0.0756,0 0.13746,0.0995 0.13746,0.22107 0,0.17067 0.0862,0.20121 0.377977,0.13392 l 0.377977,-0.0872 -0.339187,0.26723 c -0.343187,0.2704 -0.876924,0.42708 -1.454821,0.42708 -0.17405,0 -0.731777,0.21648 -1.239384,0.48106 -0.507617,0.26459 -0.960534,0.47646 -1.006484,0.47083 -0.0459,-0.005 -0.640216,-0.13065 -1.320582,-0.27784 z m 21.810431,61.6914 c -0.52477,-0.52477 -1.28818,-1.57442 -1.69646,-2.33257 -0.4083,-0.75815 -0.87752,-1.37846 -1.04271,-1.37846 -0.1652,0 -0.30036,-0.18344 -0.30036,-0.40765 0,-0.33558 -1.26996,-2.52239 -4.27864,-7.36759 -2.74294,-4.41727 -6.52983,-10.67647 -7.29134,-12.05163 -0.53282,-0.96218 -1.35678,-2.27426 -1.83102,-2.91571 -0.474227,-0.64146 -0.933174,-1.34123 -1.019904,-1.55505 -0.232507,-0.57328 -4.438791,-7.58642 -5.116991,-8.53155 -0.161806,-0.22549 -2.061789,-3.38402 -4.222178,-7.01894 -3.943737,-6.63545 -5.537512,-9.04242 -7.340886,-11.08645 l -0.971901,-1.10161 -4.470765,1.33833 c -2.458924,0.73608 -4.645718,1.39335 -4.859529,1.46059 -1.447415,0.45517 -4.043339,1.14289 -4.85953,1.28739 -1.795853,0.31794 -5.615127,1.36225 -8.399481,2.2967 -1.519326,0.5099 -4.143474,1.26613 -5.831431,1.68051 -4.502905,1.10544 -8.924179,2.26452 -12.010538,3.14867 -8.88713,2.54591 -8.938721,2.55517 -10.078796,1.80817 -0.577063,-0.37811 -0.980838,-0.89259 -0.897268,-1.14329 0.08359,-0.2507 1.975063,-0.95479 4.203327,-1.56464 7.557842,-2.0685 10.657839,-3.06775 11.632266,-3.74952 1.202191,-0.84115 3.49821,-1.58421 9.591473,-3.10411 2.602575,-0.64918 5.199261,-1.35798 5.770414,-1.57514 0.571153,-0.21715 4.039943,-1.17941 7.708437,-2.13835 3.668495,-0.95894 7.063609,-1.8522 7.544694,-1.98502 1.360134,-0.37552 1.040614,-1.44372 -0.928016,-3.10254 -2.316524,-1.95198 -2.22699,-1.90928 -5.187092,-2.47367 -1.385472,-0.26417 -4.446982,-0.9985 -6.803332,-1.63184 -2.356361,-0.63334 -4.459228,-1.19473 -4.673049,-1.247519 -0.213822,-0.05279 -4.58739,-1.110861 -9.719048,-2.351289 -14.423814,-3.486509 -15.926554,-3.911889 -16.048044,-4.54271 -0.08533,-0.443186 0.737432,-0.683903 3.692723,-1.080374 2.091405,-0.280575 6.302743,-1.018659 9.358539,-1.640184 5.96066,-1.212356 7.957807,-1.401298 5.134967,-0.485805 -2.373961,0.769916 -1.788473,0.650306 -9.02438,1.843618 -5.386775,0.888365 -5.530394,1.317499 -0.791865,2.366004 1.870911,0.413984 3.57661,0.782211 3.790432,0.818281 0.213821,0.03603 2.313128,0.590701 4.665147,1.232537 5.151348,1.405738 7.869677,2.041751 11.274108,2.63784 0.641454,0.112314 3.640979,0.89102 6.665624,1.730471 3.024635,0.83944 5.911191,1.61374 6.414579,1.72066 1.340519,0.28473 6.293556,1.42173 6.746669,1.54874 0.890508,0.24963 2.670982,0.69037 8.941529,2.21341 3.634927,0.88288 6.783897,1.6462 6.997724,1.69628 0.21382,0.0501 0.651167,0.19766 0.971894,0.32793 0.32072,0.13027 1.632791,0.4198 2.915698,0.6434 1.28292,0.2236 2.75619,0.48905 3.27393,0.58989 3.46188,0.6743 18.53869,1.3232 28.60458,1.23114 l 6.2202,-0.0569 0.12302,-1.0691 c 0.0852,-0.74101 -0.054,-1.06909 -0.45356,-1.06909 -0.31712,0 -0.63488,-0.13162 -0.70615,-0.29248 -0.18151,-0.40964 -4.90831,-4.06649 -6.79932,-5.26023 -0.86317,-0.54489 -2.46881,-1.2578 -3.5681,-1.58426 -1.86233,-0.55306 -9.28745,-1.876958 -13.28229,-2.368242 -0.96219,-0.118323 -2.1868,-0.307928 -2.72134,-0.421331 -4.97544,-1.055547 -7.17198,-1.231633 -7.55867,-0.60595 -0.11995,0.194078 -0.0665,0.76264 0.11879,1.263481 0.37273,1.007591 -0.35977,1.854912 -3.19063,3.690732 -2.187031,1.41832 -2.122001,0.88488 0.12471,-1.02285 1.46089,-1.24046 1.95303,-1.925182 1.95303,-2.717177 0,-1.289941 -0.99492,-3.376317 -1.83397,-3.845876 -0.43366,-0.242687 -0.54964,-0.674619 -0.39266,-1.462544 0.35266,-1.770329 -0.52009,-2.633476 -2.321361,-2.295813 -2.641415,0.49515 -4.003117,1.24905 -4.022284,2.226916 -0.02155,1.096842 -1.071689,3.515527 -1.117185,2.572991 -0.03777,-0.783048 -0.599366,-0.978508 -4.891105,-1.702379 -0.427633,-0.07216 -1.914655,-0.322621 -3.304481,-0.556655 -1.389814,-0.234034 -2.964303,-0.512149 -3.498852,-0.618042 -3.596506,-0.712442 -4.981368,-0.655354 -6.283151,0.259035 -0.713737,0.501341 -1.356029,1.049049 -1.4273,1.217135 -0.07129,0.168086 -0.407921,0.30562 -0.748109,0.30562 -0.492471,0 -0.438463,-0.19165 0.265032,-0.940489 1.650646,-1.757029 7.415998,-3.626383 7.415998,-2.404557 0,0.889605 0.439671,1.024342 5.944399,1.821703 6.784797,0.982764 7.049209,0.977681 6.697167,-0.128903 C 93.319214,92.742479 92.676975,90.42449 92.045066,88.072478 91.27755,85.215731 90.443443,83.108422 89.532461,81.724621 88.782436,80.585312 87.241939,77.961167 86.109124,75.893185 84.97632,73.825208 83.65733,71.433452 83.178051,70.578176 82.698762,69.722898 81.01235,67.687411 79.430471,66.054864 76.562179,63.094717 76.55432,63.080749 76.55432,60.945358 c 0,-1.481163 -0.168521,-2.205912 -0.546652,-2.351012 -0.653536,-0.250786 -9.949926,9.300106 -9.949926,10.222325 0,0.334371 0.95145,1.177036 2.114338,1.87259 2.207649,1.320451 4.030365,3.216519 6.246482,6.497872 0.722042,1.069098 1.855052,2.556114 2.517807,3.304481 0.662767,0.748368 1.402767,2.080681 1.644442,2.960698 0.375704,1.368042 0.684567,1.701125 2.130316,2.297324 1.964309,0.810044 2.428426,1.889687 1.525216,3.547955 l -0.603197,1.107462 0.225251,-1.777255 0.225261,-1.777255 -1.807859,-0.690429 -1.807858,-0.690425 -1.009822,1.009821 c -0.705313,0.705318 -1.423088,1.009823 -2.380307,1.009823 -1.093631,0 -1.632806,0.2945 -2.669067,1.457859 -0.714216,0.801824 -1.559827,2.00739 -1.87915,2.679038 -0.612306,1.287927 -1.271633,1.704556 -2.657029,1.678978 -0.768779,-0.01415 -0.748893,-0.06661 0.226176,-0.595556 1.05595,-0.572873 1.344917,-1.117588 0.777519,-1.465689 -0.27731,-0.170128 -2.016586,-0.494308 -4.56795,-0.851407 -0.641466,-0.08978 -1.953534,-0.426746 -2.915727,-0.748817 l -1.74942,-0.585577 1.74942,0.164773 c 0.962193,0.09062 3.30423,0.432874 5.20454,0.760554 1.900309,0.327682 3.566019,0.527237 3.701561,0.443462 0.135553,-0.08378 0.812,-0.939813 1.503207,-1.902311 l 1.256754,-1.749991 -2.236982,-1.87804 c -1.230338,-1.032923 -2.295289,-2.009248 -2.36656,-2.169612 -0.07129,-0.160365 -0.297337,-0.291571 -0.502364,-0.291571 -0.205016,0 -0.584062,-0.178185 -0.842313,-0.395972 -1.575599,-1.328707 -2.727581,-2.242022 -5.303837,-4.204983 -1.58977,-1.211314 -3.514145,-2.770115 -4.276393,-3.464003 -0.762238,-0.693892 -1.526032,-1.262456 -1.697307,-1.263479 -0.516514,-0.003 -1.438021,-2.605428 -1.438021,-4.060977 0,-1.254608 0.59204,-2.886689 2.33518,-6.43746 0.367389,-0.74837 1.508889,-3.285044 2.536671,-5.637054 2.400551,-5.493523 3.947306,-7.839921 7.662908,-11.624437 1.658656,-1.689416 3.015731,-3.196388 3.015731,-3.348829 0,-0.331863 -2.971606,-0.771607 -5.214227,-0.771607 -1.169799,0 -2.144411,-0.354031 -3.583248,-1.301618 -1.523006,-1.003023 -2.534951,-1.352267 -4.411119,-1.522393 -1.945599,-0.17642 -2.841125,-0.500679 -4.457758,-1.614098 -1.112668,-0.766329 -2.185184,-1.39282 -2.383354,-1.392207 -0.19817,5.49e-4 -0.689465,0.481709 -1.09177,1.069097 -0.793095,1.157976 -3.337612,3.250155 -7.033938,5.783509 -1.426527,0.977705 -3.172705,2.705072 -4.465878,4.41779 -1.167905,1.54679 -2.188405,2.617511 -2.267784,2.379377 -0.230453,-0.691368 -1.010857,-0.503935 -1.839227,0.441742 l -0.766211,0.874715 -0.124755,-0.874715 c -0.06857,-0.481093 -0.389571,-0.874715 -0.713248,-0.874715 -0.323676,0 -0.522598,-0.131209 -0.442054,-0.291571 0.08054,-0.160367 0.516242,-1.078818 0.968201,-2.041002 0.490272,-1.043774 2.324154,-3.227818 4.546476,-5.414577 2.048597,-2.015827 4.145041,-4.465031 4.658768,-5.442669 0.513717,-0.977642 1.235563,-2.302357 1.604105,-2.943817 0.886906,-1.5437 0.322893,-3.724206 -1.520317,-5.87758 -1.781867,-2.081714 -2.05811,-3.721656 -1.020881,-6.06046 0.568203,-1.281208 0.98333,-1.764356 1.383893,-1.610647 0.406169,0.155861 0.567551,-0.04631 0.556187,-0.696731 -0.02275,-1.303596 -1.645127,-4.434622 -2.235197,-4.313826 -0.332547,0.06808 -0.468677,-0.31473 -0.414746,-1.166287 0.04419,-0.697196 -0.14771,-1.950843 -0.426381,-2.7858829 C 38.972226,9.133021 38.71084,7.3835905 38.670045,6.0804366 38.629229,4.7772838 38.465813,3.2615902 38.306848,2.7122308 38.017935,1.71374 38.018751,1.71337 40.659824,1.6406009 42.11292,1.6005689 43.606462,1.4711162 43.978802,1.352939 c 1.06099,-0.3367447 4.941467,1.0170713 4.70223,1.640508 -0.110432,0.2877806 -0.619425,0.5232382 -1.131095,0.5232382 -0.567768,0 -0.930313,0.2272519 -0.930313,0.5831442 0,0.4469284 0.494299,0.5831431 2.116145,0.5831431 1.711239,0 2.225924,-0.1567283 2.689867,-0.8190873 0.571533,-0.8159852 0.575887,-0.8148619 1.150708,0.2967025 0.614647,1.1886109 1.822008,5.0946779 2.005343,6.4877463 0.253147,1.923557 0.586424,2.198389 2.673301,2.204499 2.55747,0.0075 4.982816,0.810635 4.552168,1.507438 -0.253136,0.409582 -0.521053,0.401211 -1.432079,-0.04475 -1.417809,-0.69403 -4.036394,-0.901529 -4.036394,-0.319847 0,0.236912 0.270529,0.534563 0.601172,0.661444 0.330654,0.126881 1.033376,1.083578 1.561601,2.125991 0.528237,1.042414 1.034944,1.895297 1.126034,1.895297 0.0911,0 0.752224,-0.346109 1.469194,-0.769134 1.619974,-0.955804 5.785347,-1.236207 7.581222,-0.510347 0.69273,0.279987 2.792037,0.598813 4.665147,0.708502 4.607634,0.269825 4.720297,0.291143 6.762103,1.279567 2.067198,1.000711 3.737065,1.134995 6.085513,0.489372 2.47401,-0.680138 5.855322,-0.77364 8.052338,-0.22267 3.724695,0.934095 16.133603,1.732175 16.133603,1.037636 0,-0.507138 -0.74386,-0.715903 -3.69323,-1.036498 -2.07587,-0.225645 -5.99978,-1.018794 -8.164011,-1.650209 -0.427637,-0.124764 -2.751345,-0.283728 -5.163802,-0.353256 -3.524952,-0.101594 -4.752439,0.01271 -6.250792,0.58204 -1.858067,0.706009 -1.87176,0.705244 -3.97209,-0.221691 -1.159176,-0.511576 -2.195066,-0.941698 -2.301983,-0.955824 -0.106884,-0.01413 -0.544269,-0.154337 -0.971901,-0.311579 -0.427644,-0.157242 -2.041675,-0.399531 -3.586743,-0.538418 -1.545068,-0.138888 -3.469443,-0.534963 -4.276382,-0.880165 -0.80695,-0.345204 -2.041675,-0.8692 -2.743842,-1.164439 -0.702167,-0.295237 -2.539065,-0.542116 -4.081999,-0.548618 -1.614347,-0.0069 -2.557764,-0.142299 -2.222191,-0.319158 1.049452,-0.553101 6.700705,0.182389 9.524666,1.239601 1.496742,0.560335 3.472838,1.022481 4.391342,1.026991 0.918503,0.0045 3.075083,0.463051 4.792406,1.018982 3.058136,0.989972 5.317823,1.266786 6.148773,0.753226 0.800463,-0.494711 10.660328,-0.252017 12.852719,0.316362 1.17602,0.304877 3.34773,0.678282 4.82604,0.829789 1.47832,0.151507 3.45607,0.506668 4.395,0.789247 1.00704,0.303073 2.93399,0.457889 4.69865,0.377498 l 2.99148,-0.136282 -3.1751,0.412561 c -2.63635,0.342556 -3.20904,0.54232 -3.37509,1.177284 -0.34373,1.314452 0.48379,2.476457 1.07843,1.514315 0.11615,-0.187934 0.98494,-0.254486 1.93064,-0.147891 1.13788,0.128255 2.14038,-0.01617 2.9639,-0.427003 0.88422,-0.441107 1.44994,-0.510831 1.95437,-0.24087 1.0243,0.54819 0.69122,0.192332 1.92733,0.185559 0.80623,-0.0045 -0.0243,0.111075 0.89901,0.416531 0.87451,0.289311 1.10158,0.406561 2.65341,0.69769 0.76711,0.14391 1.7249,0.628819 2.12845,1.077576 l 0.7337,0.815922 -2.00251,-0.171879 c -2.39347,-0.205438 -2.44152,0.37652 -0.1158,1.402626 0.84915,0.374643 1.4389,0.851083 1.31054,1.058756 -0.14796,0.239412 -0.39852,0.242296 -0.6847,0.0078 -0.45081,-0.369271 -1.52114,-0.574878 -2.5526,-0.490338 -0.41712,0.03419 -0.37119,0.240719 0.19438,0.873959 0.73727,0.825461 0.73623,0.827886 -0.23131,0.539448 -0.53455,-0.15936 -1.13811,-0.445025 -1.34123,-0.634813 -0.45499,-0.425116 -1.76887,-0.45691 -1.76887,-0.04281 0,0.166243 0.27234,0.691074 0.60519,1.166287 0.97457,1.391391 0.0688,0.994512 -1.57709,-0.691021 -1.33076,-1.362819 -1.73699,-1.555229 -3.2862,-1.556502 -1.01084,-8.25e-4 -2.26707,-0.301652 -2.934,-0.702585 -1.0131,-0.609039 -2.00977,-0.691929 -7.58803,-0.631072 -3.53195,0.03853 -7.195278,0.20075 -8.140712,0.360483 -2.917411,0.492894 -7.516163,0.436827 -9.223114,-0.11245 -1.150077,-0.370084 -1.842992,-0.40721 -2.366908,-0.126821 -0.40742,0.218051 -1.11614,0.298293 -1.574912,0.178323 -1.019902,-0.266713 -2.896505,0.160655 -2.626172,0.598065 0.107863,0.174471 2.083089,1.073162 4.38947,1.997092 3.501997,1.402887 4.481877,1.989788 5.942853,3.559472 2.391202,2.569127 2.787248,3.044954 2.534385,3.044954 -0.119684,0 0.149735,0.720057 0.598712,1.600128 1.112102,2.179901 1.647989,7.466448 0.931372,9.188026 -0.289265,0.69491 -0.454858,1.263476 -0.367991,1.263476 0.08686,0 -1.4918,3.228163 -3.508147,7.173702 l -3.666089,7.173701 2.912385,2.826449 c 4.960252,4.813884 5.978776,6.935002 6.97338,14.522336 0.349327,2.664791 1.104424,6.03854 1.814561,8.107416 0.668957,1.948865 1.249297,3.893273 1.289667,4.320913 0.0404,0.427642 0.20959,1.083681 0.37606,1.457861 0.16648,0.37418 0.21312,0.913758 0.10362,1.199068 -0.10947,0.285299 0.22151,1.056102 0.73552,1.712893 0.75857,0.969278 1.31899,1.242289 2.97598,1.449765 1.12279,0.140581 5.62775,0.834172 10.01105,1.541313 4.3833,0.707141 9.31788,1.493411 10.96575,1.747276 2.68937,0.414308 3.3796,0.717968 6.74194,2.965998 2.0602,1.37743 3.81657,2.50442 3.90303,2.50442 0.0864,0 0.94411,0.83098 1.90585,1.84662 2.10228,2.22009 2.24433,3.2982 0.52824,4.00903 -1.33681,0.55373 -12.77787,0.63088 -25.01671,0.16873 -7.36404,-0.27808 -7.94876,-0.33255 -12.63477,-1.17703 -5.574916,-1.00466 -6.220178,-1.06632 -6.220178,-0.59434 0,0.51196 2.937207,3.56958 28.185238,29.34065 7.48367,7.6387 13.66682,14.15758 13.74033,14.48638 0.0735,0.32881 -0.0409,0.77241 -0.25429,0.98577 -0.60907,0.60908 -3.59983,-0.069 -4.5097,-1.02242 -0.44678,-0.46819 -3.17018,-3.37837 -6.05199,-6.46707 -2.88181,-3.0887 -6.56105,-6.95272 -8.17608,-8.58672 -1.61503,-1.634 -3.78462,-3.90825 -4.8213,-5.05391 -1.61815,-1.78823 -11.11199,-11.74232 -18.112208,-18.9903 -1.176014,-1.21761 -2.903144,-3.04803 -3.838082,-4.06759 l -1.699898,-1.85372 -2.284916,0.48489 c -1.256711,0.26669 -2.284928,0.55115 -2.284928,0.63213 0,0.29318 2.923226,4.60939 3.207295,4.73563 0.160358,0.0713 0.291568,0.3128 0.291568,0.53672 0,0.22392 0.612296,1.25941 1.360667,2.30108 0.748371,1.04167 1.360666,1.98312 1.360666,2.09209 0,0.10897 0.767985,1.37691 1.706624,2.81763 1.729426,2.65451 5.671268,8.92544 9.567462,15.22047 2.91441,4.7088 5.7474,9.13805 10.01063,15.65117 1.97783,3.02164 3.59605,5.5715 3.59605,5.66639 0,0.0949 0.33564,0.64386 0.74585,1.21995 0.41022,0.57611 1.30441,2.06523 1.9871,3.30917 1.09979,2.00395 1.18452,2.36772 0.7435,3.19177 -0.66259,1.23806 -2.29595,1.22697 -3.54702,-0.0241 z m 2.01438,-1.20337 c 0,-0.43536 -1.33259,-2.78042 -3.08186,-5.42337 -0.99064,-1.49673 -2.1418,-3.37737 -2.55815,-4.1792 -0.41635,-0.80181 -0.89216,-1.45785 -1.05735,-1.45785 -0.1652,0 -0.30036,-0.16885 -0.30036,-0.37522 0,-0.32508 -1.02527,-2.00484 -5.22863,-8.56631 -2.23809,-3.49368 -7.002444,-10.72893 -7.278854,-11.05381 -0.169777,-0.19956 -0.414237,-0.2573 -0.543247,-0.1283 -0.128997,0.12899 0.830277,1.92871 2.131701,3.99937 1.30145,2.07067 2.36626,3.8362 2.36626,3.92341 0,0.0872 0.75908,1.33732 1.68685,2.77804 0.92776,1.44071 2.35523,3.75661 3.17215,5.14644 0.81691,1.38982 2.41956,3.96105 3.56145,5.71385 1.14187,1.75279 2.07613,3.28091 2.07613,3.39583 0,0.39975 2.51673,4.30957 3.45774,5.37171 0.87287,0.98522 1.59617,1.37286 1.59617,0.85541 z m 16.71678,-12.27107 c 0,-0.4074 -2.11292,-2.61412 -17.17636,-17.93887 -3.35314,-3.41132 -6.30305,-6.13359 -6.55534,-6.0495 -0.44951,0.14983 2.31144,3.1963 12.08649,13.33637 2.68245,2.78262 6.16714,6.41512 7.74375,8.07222 2.67054,2.80687 3.90146,3.6208 3.90146,2.57978 z M 99.878573,88.924282 c -8.1e-4,-0.468476 -0.37004,-1.456404 -0.820547,-2.195403 -0.450497,-0.738999 -0.861554,-1.701185 -0.913434,-2.138193 -0.10547,-0.888196 -0.718287,-4.962874 -0.791914,-5.265326 -0.026,-0.106905 -0.18453,-1.452592 -0.35222,-2.990403 -0.246327,-2.258975 -0.630577,-3.367526 -2.000525,-5.771467 -0.932599,-1.636494 -2.112826,-3.352315 -2.622722,-3.812937 -1.40847,-1.272345 -3.078642,-2.699681 -4.167234,-3.561347 -0.538511,-0.426249 -0.965393,-1.03742 -0.948642,-1.358147 0.01676,-0.320731 -0.592301,-1.169484 -1.353461,-1.886118 -0.76116,-0.716635 -1.074726,-1.202047 -0.696823,-1.078696 0.377913,0.12335 1.023123,-0.06343 1.433809,-0.41508 0.66417,-0.568681 0.685253,-0.727076 0.190725,-1.43312 -0.305794,-0.436576 -1.221064,-0.99015 -2.033936,-1.230161 -1.230936,-0.363452 -1.572572,-0.334458 -2.044112,0.173481 -0.502517,0.541307 -0.579708,0.397514 -0.686614,-1.279057 -0.152902,-2.397708 1.071917,-6.490555 3.072156,-10.265867 1.485944,-2.80462 1.83619,-4.114183 1.204749,-4.504437 -0.357386,-0.220879 -4.119594,5.240359 -4.705909,6.831127 -0.211982,0.575141 -0.899271,2.149627 -1.527316,3.498863 -1.175176,2.524679 -2.198659,5.985207 -2.547565,8.613696 -0.194502,1.465293 -0.177338,1.489748 0.85225,1.214676 0.577912,-0.154399 1.225691,-0.269605 1.439513,-0.256011 1.337602,0.08502 2.138185,0.273063 2.138185,0.502241 0,0.145138 0.39363,0.362737 0.874716,0.483554 0.481096,0.12082 1.201614,0.826924 1.601155,1.569126 0.39954,0.7422 1.186779,1.544983 1.749431,1.783959 1.427573,0.606344 2.732033,1.826228 4.376757,4.093002 1.202899,1.65784 3.416981,5.608833 3.479859,6.209762 0.01099,0.104413 0.193479,0.761634 0.405668,1.4605 0.212179,0.698869 0.470713,2.232854 0.574517,3.408861 0.18279,2.070883 3.062793,10.016676 3.83048,10.568122 0.560897,0.402893 0.990644,-0.01825 0.989004,-0.9692 z M 77.387197,84.736581 c 0.54207,-1.80928 0.374452,-2.212749 -2.108962,-5.076325 -0.808746,-0.932559 -2.298043,-2.895839 -3.30953,-4.362846 -1.16869,-1.694995 -2.396633,-2.970412 -3.368655,-3.49886 -0.841268,-0.457367 -1.775989,-1.056295 -2.077135,-1.330952 -0.626413,-0.571298 -1.686205,0.02905 -1.446446,0.819367 0.0763,0.251644 0.239378,0.919325 0.362295,1.483745 0.122927,0.564418 0.496508,1.130982 0.830188,1.259023 0.333679,0.128048 0.521684,0.09525 0.417771,-0.07287 -0.103945,-0.168124 -0.0369,-0.551657 0.148908,-0.852295 0.289446,-0.468347 0.489978,-0.465688 1.400427,0.01856 1.253184,0.666544 3.885473,3.881268 4.76021,5.813472 0.338806,0.748366 1.214676,2.28992 1.946383,3.425682 0.994639,1.543868 1.218714,2.176688 0.887886,2.507517 -0.689248,0.689247 -0.521325,1.453281 0.31941,1.453281 0.554598,0 0.89126,-0.431692 1.23725,-1.586499 z m -8.829269,-3.98011 c -0.1317,-0.343195 -0.573166,-0.729908 -0.981055,-0.859368 -0.407889,-0.129456 -0.741612,-0.376682 -0.741612,-0.549385 0,-0.172704 -1.268335,-1.195984 -2.818519,-2.273957 -1.550194,-1.077972 -3.600304,-2.763655 -4.555803,-3.745965 l -1.737274,-1.786016 0.707022,-2.814359 c 0.388852,-1.547895 1.279676,-4.301376 1.97959,-6.118837 1.423534,-3.696489 1.808512,-4.769478 1.81329,-5.053911 0.0022,-0.106905 0.318137,-0.719212 0.702962,-1.360668 0.776909,-1.294972 1.414609,-5.637051 0.827891,-5.637051 -0.345239,0 -0.904179,1.090642 -5.478976,10.690961 -4.352605,9.134012 -4.362945,8.746765 0.344499,12.893272 4.942271,4.35334 5.144393,4.520205 7.049034,5.819376 1.660463,1.132615 2.787499,1.694031 3.022055,1.505407 0.05845,-0.04703 -0.0011,-0.366307 -0.133104,-0.709499 z m -4.192235,-9.379642 c 0.399333,-2.913459 1.654509,-4.715983 7.231172,-10.384545 4.688711,-4.765974 5.228158,-5.461061 6.000866,-7.73213 1.244249,-3.656998 0.600421,-3.728847 -1.441003,-0.16081 -1.161734,2.030504 -2.897005,4.08937 -7.112055,8.438367 -1.029925,1.06265 -2.784744,3.037944 -3.8996,4.38954 -1.732256,2.1001 -2.016314,2.673464 -1.953414,3.942964 0.04049,0.817033 0.08958,2.089072 0.10918,2.826748 0.05029,1.895021 0.741656,1.037867 1.064854,-1.320134 z M 89.647682,55.52201 c 0.496596,-0.913319 2.045419,-3.934838 3.44183,-6.714489 2.323425,-4.624971 2.519211,-5.203764 2.306805,-6.819571 -0.127651,-0.971112 -0.279716,-2.195713 -0.337914,-2.721334 -0.252766,-2.282815 -1.209636,-4.18047 -3.076738,-6.101755 -1.892015,-1.946913 -3.75473,-2.909551 -6.643725,-3.433423 -0.898008,-0.162841 -1.008375,-0.05784 -1.008375,0.959328 0,0.885999 0.305185,1.330801 1.360667,1.983122 1.462663,0.903975 1.580834,1.194785 0.958231,2.35813 -0.334779,0.625535 -0.273272,0.751968 0.36582,0.751968 0.422539,0 0.876371,-0.174944 1.008517,-0.388762 0.286322,-0.46326 1.749431,-0.525406 1.749431,-0.07431 0,0.172952 -0.256847,0.654045 -0.570772,1.069094 -0.794934,1.050993 -0.732001,1.43819 0.156462,0.962699 1.148564,-0.614691 2.024771,-0.485923 3.013402,0.442849 0.737682,0.69302 0.899771,1.246969 0.899771,3.075044 0,2.919247 -1.731233,8.171324 -4.044329,12.269337 -1.750052,3.100488 -2.056161,4.016089 -1.521449,4.550796 0.363492,0.363498 0.877676,-0.210616 1.942366,-2.168729 z M 68.779075,40.091261 c 0,-0.349635 -0.556894,-0.508602 -3.660309,-1.044821 -0.837155,-0.144648 -2.129903,-0.675458 -2.872778,-1.17958 -0.742863,-0.504124 -1.719869,-0.909126 -2.171121,-0.900011 -0.686037,0.01386 -0.536791,0.26563 0.910841,1.536559 1.741083,1.528566 2.282272,1.688971 6.335504,1.877806 0.801824,0.03735 1.457863,-0.09313 1.457863,-0.289953 z M 55.718769,37.009764 c 0.266392,-0.431033 -1.669955,-2.233232 -2.749034,-2.558586 -1.526271,-0.460182 -1.354941,0.507858 0.302365,1.708404 1.719119,1.245321 2.117005,1.383581 2.446669,0.850182 z M 82.701961,29.63104 c 0.06803,-0.688558 -0.06084,-1.233537 -0.291579,-1.233537 -0.227362,0 -0.427774,0.131208 -0.445363,0.291571 -0.01763,0.160366 -0.11336,0.790014 -0.212842,1.39922 -0.128968,0.789778 -0.03614,1.0601 0.323546,0.941966 0.27743,-0.09112 0.559235,-0.720773 0.626238,-1.39922 z m -2.48325,-1.104163 c 0.136794,-0.356482 0.06803,-0.828829 -0.152793,-1.049659 -0.276156,-0.276166 -0.4015,-0.249619 -0.4015,0.08504 0,0.267598 -0.393619,0.06679 -0.874716,-0.446256 -0.481096,-0.513042 -1.263143,-1.13773 -1.737883,-1.388196 -1.182632,-0.623941 -10.605323,-1.091812 -10.605323,-0.526592 0,0.579624 0.837035,0.779238 4.557001,1.086745 2.557862,0.211443 3.683863,0.523217 5.637048,1.560818 2.803782,1.489463 3.235431,1.571268 3.578166,0.678101 z M 54.006104,22.135714 c 0,-0.439445 -0.274088,-0.738329 -0.680333,-0.741884 -0.538065,-0.0047 -0.568301,-0.07691 -0.144576,-0.345298 0.29467,-0.186639 0.415551,-0.533847 0.268635,-0.771572 -0.146927,-0.237724 -0.07292,-0.432227 0.164407,-0.432227 0.923107,0 2.222822,-4.791229 1.577014,-5.813467 -0.308831,-0.488842 -0.495148,-0.491268 -1.379529,-0.01797 -0.88436,0.473301 -1.070753,0.470875 -1.379997,-0.01797 -0.631169,-0.997762 -0.395557,-1.930608 0.602478,-2.385344 1.123149,-0.511744 1.155878,-0.741228 0.405646,-2.8449806 -0.585215,-1.6409957 -0.963531,-1.7427648 -2.368976,-0.63725 -0.491589,0.3866905 -1.673154,0.7236517 -2.72917,0.7783158 -2.059329,0.1066007 -2.855841,0.7775964 -2.875998,2.4228268 -0.01807,1.469051 1.283692,2.479435 3.031709,2.353224 1.376895,-0.09942 1.471371,-0.02748 2.05073,1.561492 0.355655,0.975454 0.916044,1.750337 1.352308,1.869935 0.864865,0.237091 1.055961,2.337854 0.259035,2.847689 -0.601216,0.384628 -0.641945,1.438541 -0.05562,1.438541 0.236701,0 0.337838,0.241096 0.224761,0.535771 -0.113077,0.294674 -0.02297,0.71836 0.200162,0.941526 0.578489,0.578493 1.477291,0.127438 1.477291,-0.741366 z M 42.282508,21.617845 c 0.07347,-0.379177 -0.04147,-0.864556 -0.255552,-1.078619 -0.469559,-0.469554 -1.406751,1.05175 -1.026737,1.666637 0.355426,0.575086 1.12525,0.22207 1.282289,-0.588018 z m 7.058373,-4.250478 c -6.5e-5,-1.184282 -0.05061,-1.21891 -1.943803,-1.332687 -2.405602,-0.144568 -2.556502,0.470161 -0.548242,2.233431 1.627996,1.429401 2.492176,1.117046 2.492045,-0.900744 z" /></g></svg>
