<?xml version="1.0" encoding="UTF-8" standalone="no"?>
<!-- Created with Inkscape (http://www.inkscape.org/) -->

<svg
   width="167.75471mm"
   height="167.75471mm"
   viewBox="0 0 167.75471 167.75471"
   version="1.1"
   id="svg1"
   xml:space="preserve"
   xmlns="http://www.w3.org/2000/svg"
   xmlns:svg="http://www.w3.org/2000/svg"><defs
     id="defs1" /><g
     id="layer1"
     transform="translate(-23.845364,-76.137505)"><path
       id="path490"
       style="fill-opacity:1;stroke:none;stroke-width:1.85872;stroke-opacity:1;paint-order:stroke fill markers"
       d="m 115.71251,97.860878 c -0.92179,-0.0056 -1.53743,0.08014 -1.90773,0.256542 -0.42594,0.202923 -1.54118,0.466681 -2.47828,0.586295 -0.9371,0.119615 -2.47054,0.330722 -3.40765,0.468915 -1.00197,0.147758 -1.93546,0.130767 -2.26591,-0.04114 -0.36765,-0.19126 -0.7021,-0.176077 -0.96749,0.04417 -0.22308,0.185147 -0.63736,0.247959 -0.92088,0.139162 -0.28351,-0.108794 -0.75431,0.01257 -1.04614,0.269852 -0.29181,0.257274 -1.01854,0.568956 -1.61488,0.692786 -0.59633,0.12383 -1.223657,0.33474 -1.394037,0.46891 -0.17038,0.13418 -1.564419,0.39665 -3.097861,0.58267 -7.082356,0.85919 -14.659844,2.96346 -18.742071,5.20529 -2.073815,1.13887 -5.066001,3.22611 -5.88594,4.10588 -0.255574,0.27422 -1.440507,1.18638 -2.633184,2.02692 -1.192671,0.84054 -2.238206,1.61497 -2.323397,1.72077 -0.280164,0.34793 -5.073377,3.82761 -6.961116,5.05339 -1.686897,1.09536 -1.934045,1.17042 -2.809858,0.85373 -0.528195,-0.19099 -1.489384,-0.34731 -2.13583,-0.34731 -0.948089,0 -1.368033,0.21012 -2.170927,1.08668 -0.920443,1.0049 -1.067127,1.06166 -1.948265,0.7545 -1.27709,-0.4452 -3.264965,0.0978 -4.060499,1.10906 -0.785017,0.99798 -1.032555,0.96035 -1.622748,-0.24686 -0.575766,-1.17769 -2.15245,-2.04783 -3.747084,-2.06867 -0.839069,-0.011 -1.381536,-0.25918 -2.066854,-0.94449 -0.726756,-0.72675 -1.202824,-0.92935 -2.184236,-0.92935 -1.081061,0 -1.322041,-0.12907 -1.735893,-0.92937 -0.292203,-0.56505 -0.488579,-1.78263 -0.500983,-3.10754 -0.02741,-2.9285 0.867856,-4.78639 2.785657,-5.78187 1.584346,-0.8224 1.175192,-1.1978 -1.034637,-0.94872 -2.103008,0.23704 -3.455263,1.25814 -4.560273,3.44274 -0.871373,1.7227 -0.964012,2.18385 -0.977763,4.85493 -0.01414,2.74609 0.05353,3.07849 0.974738,4.7793 0.762758,1.40829 0.989863,2.20869 0.989863,3.48692 0,1.7708 0.94742,4.07358 2.380878,5.78609 0.550769,0.65801 0.724689,1.19101 0.655876,2.01362 -0.08217,0.98235 -0.263752,1.20261 -1.487822,1.8079 -0.766719,0.37912 -2.480638,0.99409 -3.808798,1.3662 -3.291081,0.92205 -3.576687,1.3562 -4.106485,6.252 -1.175664,10.86418 -1.43336,13.14608 -1.985779,17.5598 -0.713029,5.697 -0.828769,7.48478 -0.516713,7.9897 0.142537,0.23063 1.00324,0.37453 2.2399,0.37453 h 2.008771 l -0.04236,4.98925 c -0.02848,3.35552 0.07249,5.10556 0.308577,5.34382 0.193075,0.19484 0.938039,0.49983 1.655421,0.67765 1.047754,0.25972 1.321346,0.47301 1.391012,1.08425 0.222862,1.9554 0.361396,2.12376 2.64831,3.22372 1.244732,0.59869 3.09007,1.27953 4.101039,1.51263 1.706634,0.39349 1.831857,0.48144 1.751018,1.23128 -0.15099,1.4006 0.988776,1.85188 4.344874,1.72076 l 2.867339,-0.11193 -0.09681,1.70382 c -0.150026,2.63572 0.219177,2.94297 3.540157,2.94297 2.645972,0 2.725668,-0.0211 2.904247,-0.77447 0.243659,-1.0279 1.253262,-1.14756 2.815304,-0.33338 0.678562,0.35369 1.340954,0.64318 1.471485,0.64318 0.130529,0 1.194313,-0.62826 2.363936,-1.39646 2.006603,-1.31794 2.158749,-1.36775 2.697318,-0.88036 0.464956,0.42078 0.713965,0.45096 1.34382,0.16397 0.755859,-0.34439 0.773254,-0.42845 0.773254,-3.74284 0,-3.35536 0.0094,-3.40004 0.930571,-4.32128 l 0.931174,-0.93056 -0.16276,-6.45047 c -0.0896,-3.54769 -0.23547,-7.49598 -0.324308,-8.77385 -0.08884,-1.27786 -0.293201,-5.04178 -0.453787,-8.36422 -0.160588,-3.32246 -0.448352,-6.59845 -0.639539,-7.27998 -0.191194,-0.68153 -0.414888,-2.3245 -0.497352,-3.65088 -0.128711,-2.07022 -0.297872,-2.64033 -1.191953,-4.02722 -0.572835,-0.88859 -1.259761,-1.86228 -1.52715,-2.16427 -0.267389,-0.30199 -0.759367,-1.27782 -1.092722,-2.16851 -0.333351,-0.89069 -1.166343,-2.36533 -1.851456,-3.27695 -1.590518,-2.11633 -1.607132,-2.70094 -0.0841,-2.97504 3.05905,-0.55055 7.672314,-2.38667 14.242305,-5.66873 6.751464,-3.37272 7.229722,-3.56278 7.756155,-3.08636 1.025128,0.92773 3.294146,1.70121 6.114649,2.085 1.533442,0.20866 2.891045,0.43962 3.016785,0.51309 0.125745,0.0735 -0.449881,1.13685 -1.279077,2.36332 -1.926905,2.85012 -2.224585,3.46816 -3.388891,7.03192 -2.32903,7.12872 -4.058549,17.37472 -4.184538,24.79015 -0.04999,2.94243 -0.04687,2.95472 1.085463,4.49191 0.624489,0.84777 2.436739,2.78111 4.027222,4.29586 7.834097,7.46109 8.593671,8.29362 10.054743,11.01497 0.782421,1.4573 1.670855,2.92833 1.974285,3.26909 0.303432,0.34076 0.615683,1.10749 0.693393,1.70382 0.0777,0.59634 0.395397,2.44818 0.706087,4.11496 l 0.56451,3.0301 -0.84828,1.77521 c -0.660192,1.38129 -0.83102,2.152 -0.770831,3.47482 0.06241,1.37172 -0.110886,2.08982 -0.896082,3.71864 -0.983343,2.03987 -1.92588,4.48642 -1.92588,4.99833 0,0.28839 0.806256,0.64999 2.198758,0.98623 0.658879,0.1591 0.870618,0.0509 1.165938,-0.59718 0.198417,-0.43548 0.280737,-0.92058 0.183327,-1.0782 -0.0974,-0.15762 -0.0371,-0.2868 0.13371,-0.2868 0.17081,0 0.55724,-0.41821 0.85918,-0.92935 0.72798,-1.23238 1.23002,-1.30299 1.5338,-0.19725 -0.0541,-0.1047 -0.12541,-0.11416 -0.0974,0.0327 0.0112,0.0586 0.0316,0.47242 0.0448,0.91969 0.0195,0.66243 0.0382,0.85815 0.10165,1.0546 0.0697,0.21583 0.0766,0.32375 0.0653,1.03343 -0.009,0.56827 -0.0264,0.80698 -0.0611,0.84162 -0.13272,0.1325 0.007,0.37654 0.30616,0.53608 0.12267,0.0654 0.25835,0.16424 0.30192,0.21963 0.0943,0.11984 0.1042,0.34709 0.0206,0.46649 -0.0686,0.098 -0.45783,0.34217 -0.60384,0.37876 -0.24128,0.0604 -0.62353,0.61283 -0.67584,0.97716 -0.0195,0.13595 -0.0926,0.28463 -0.27712,0.5627 -0.22445,0.3383 -0.25395,0.40576 -0.28437,0.64802 -0.0187,0.14881 -0.0593,0.31974 -0.0902,0.37936 -0.0308,0.0596 -0.0854,0.22075 -0.12101,0.35819 -0.0356,0.13743 -0.10482,0.34594 -0.15429,0.46347 -0.0495,0.11754 -0.10963,0.35272 -0.13311,0.52276 -0.0235,0.17004 -0.0847,0.39631 -0.13614,0.5028 -0.0515,0.10649 -0.1112,0.30403 -0.1331,0.43866 -0.0219,0.13464 -0.0766,0.30417 -0.12162,0.37695 -0.0582,0.0942 -0.0923,0.23977 -0.11738,0.50522 -0.0249,0.26354 -0.064,0.43462 -0.13372,0.58206 -0.0628,0.13274 -0.11711,0.34691 -0.14823,0.5881 -0.0331,0.25627 -0.0762,0.42357 -0.133717,0.51672 -0.0886,0.14339 -0.11484,0.39634 -0.0454,0.43926 0.022,0.0136 0.155517,0.19904 0.296477,0.41144 0.16245,0.24479 0.30032,0.40842 0.37634,0.44774 0.066,0.0341 0.16337,0.0942 0.21661,0.13311 0.0534,0.039 0.22375,0.0882 0.37997,0.11012 0.1557,0.0218 0.34738,0.0742 0.42596,0.11617 0.27065,0.14452 0.83074,0.38752 0.98986,0.42959 0.0877,0.0232 0.32258,0.12035 0.52156,0.216 0.46432,0.22321 0.60398,0.27168 0.88217,0.30434 0.14345,0.0169 0.31447,0.0738 0.46347,0.15429 0.12987,0.0702 0.33571,0.14837 0.45741,0.17365 0.12171,0.0253 0.29442,0.0781 0.38361,0.11738 0.0892,0.0392 0.30834,0.0913 0.48707,0.11557 0.17872,0.0242 0.41396,0.0765 0.52276,0.11617 0.10879,0.0396 0.2327,0.0806 0.27529,0.0913 0.0426,0.0108 0.59151,0.0136 1.21979,0.006 1.0107,-0.0112 1.17804,-0.0218 1.45212,-0.0937 0.17039,-0.0447 0.52761,-0.0983 0.79383,-0.11921 0.48526,-0.0381 0.65208,-0.0697 0.80895,-0.15367 0.0463,-0.0248 0.22941,-0.0687 0.4066,-0.0974 0.26303,-0.0426 0.43341,-0.1065 0.92754,-0.34791 0.9539,-0.46601 1.21211,-0.67041 1.60037,-1.26637 0.24438,-0.37511 0.25541,-0.40345 0.36242,-0.92876 0.09,-0.44186 0.0902,-0.45487 0.0248,-0.72545 -0.0543,-0.22497 -0.0592,-0.32104 -0.0266,-0.52458 0.0661,-0.41393 -0.0715,-1.63434 -0.23174,-2.05596 -0.0243,-0.0638 -0.0767,-0.27878 -0.11678,-0.47799 -0.0401,-0.19921 -0.099,-0.40176 -0.13068,-0.45016 -0.0317,-0.0484 -0.0854,-0.19456 -0.1192,-0.32492 -0.0337,-0.13035 -0.1046,-0.30111 -0.15731,-0.37876 -0.0527,-0.0776 -0.0956,-0.17124 -0.0956,-0.20813 0,-0.0776 -0.31166,-0.69355 -0.44652,-0.88277 -0.11964,-0.16787 -0.19047,-0.4925 -0.1567,-0.71759 0.0158,-0.10548 0.0813,-0.25715 0.16033,-0.37211 0.0733,-0.1066 0.13311,-0.20562 0.13311,-0.22024 0,-0.0146 0.0509,-0.1062 0.11315,-0.2039 0.0622,-0.0977 0.14206,-0.29001 0.17727,-0.42717 0.0352,-0.13715 0.099,-0.31843 0.14219,-0.40297 0.0431,-0.0846 0.11063,-0.31406 0.15005,-0.51005 0.0394,-0.19599 0.10334,-0.43293 0.14159,-0.5264 0.0581,-0.14189 0.0696,-0.28507 0.0696,-0.86704 0,-0.67695 -0.003,-0.70258 -0.10165,-0.89063 -0.0558,-0.10649 -0.12042,-0.28444 -0.144,-0.3951 -0.0236,-0.11065 -0.10122,-0.29363 -0.17184,-0.40659 -0.0707,-0.11297 -0.21141,-0.37491 -0.31281,-0.58206 -0.10144,-0.20715 -0.19935,-0.38551 -0.21782,-0.39691 -0.0185,-0.0114 -0.0621,-0.10795 -0.0974,-0.21419 -0.0532,-0.16046 -0.0799,-0.19302 -0.15731,-0.19302 h -0.0798 c -0.53714,-1.16353 -0.95261,-2.1859 -0.91786,-2.31432 0.0389,-0.14396 -0.0868,-1.06338 -0.27954,-2.04326 -0.32824,-1.66846 -0.29744,-1.89746 0.48647,-3.61034 1.50478,-3.28806 1.38801,-4.0044 -1.25488,-7.68778 -1.31328,-1.8303 -1.02678,-2.58171 0.49615,-1.30026 1.07037,0.90067 1.72792,0.86584 3.04582,-0.16336 0.40634,-0.31733 0.8594,-0.57721 1.0068,-0.57721 0.41052,0 0.3203,1.01716 -0.22326,2.517 -0.81919,2.26046 -0.67333,4.99295 0.43141,8.0841 1.38408,3.87281 1.53052,5.38842 0.68189,7.05188 -1.5514,3.04098 -1.63385,3.61336 -0.88519,6.13521 0.68068,2.2929 0.68099,2.29366 0.1198,5.65784 -0.89128,5.34292 -0.41616,6.70148 2.69913,7.71803 3.63533,1.18626 8.69577,0.32562 10.02631,-1.70503 0.46791,-0.71412 0.49122,-1.00988 0.17244,-2.20178 -0.20257,-0.75737 -0.93992,-2.38158 -1.63848,-3.60914 -1.358,-2.38636 -1.37392,-2.46926 -1.03464,-5.38072 0.22066,-1.89354 0.23197,-1.91107 1.34382,-2.11949 1.76314,-0.33051 3.13477,-1.00559 3.13477,-1.54349 0,-0.63564 -1.01619,-2.62067 -2.43836,-4.76236 l -1.12418,-1.69294 -0.04,-4.84464 c -0.0219,-2.66465 -0.13502,-5.40702 -0.25111,-6.09408 -0.21315,-1.2617 0.22322,-2.42759 1.80367,-4.82165 0.30381,-0.46021 1.01646,-1.90483 1.58402,-3.21041 1.19384,-2.74624 1.96685,-3.62162 6.19693,-7.01738 4.36953,-3.50771 7.29719,-6.71606 8.41928,-9.22643 1.83948,-4.11528 2.29185,-5.86245 2.48495,-9.60337 0.16453,-3.1874 0.14465,-3.31501 -0.99107,-6.35063 -3.28159,-8.77117 -8.01202,-18.07337 -11.22975,-22.08256 -0.58572,-0.72979 -0.99742,-1.50314 -0.91485,-1.71834 0.0826,-0.21521 -0.26588,-0.87275 -0.77385,-1.4612 -0.57048,-0.66084 -0.83717,-0.83285 -0.69823,-0.45016 0.51234,1.41121 0.35091,1.86365 -0.63349,1.77704 -0.83967,-0.0738 -0.87704,-0.0409 -0.38724,0.34367 0.29817,0.23413 0.54213,0.56035 0.54213,0.72485 0,0.16449 0.36146,0.63731 0.8029,1.05037 1.83299,1.71514 3.41742,4.29913 6.7191,10.95506 1.55061,3.12591 1.76464,3.74953 1.38073,4.03024 -2.45918,1.79821 -3.73016,3.50669 -4.1083,5.52231 -0.27641,1.47339 -0.75171,1.18881 -0.81924,-0.4907 -0.13123,-3.26378 -0.6237,9.88385 -0.56633,15.12023 0.0387,3.53586 -0.0717,6.3807 -0.27651,7.1251 -0.23588,0.85742 -1.00233,1.9174 -2.48735,3.44092 -1.86331,1.91159 -2.25679,2.52407 -2.98896,4.64679 -0.77341,2.24228 -3.41702,7.81078 -3.8814,8.17606 -0.10831,0.0852 -0.52059,0.78222 -0.91606,1.54893 -0.55151,1.06928 -0.73811,1.99628 -0.80169,3.98003 -0.0799,2.49416 -0.12815,2.6467 -1.3541,4.27045 l -1.27122,1.68387 0.1791,2.23506 c 0.28444,3.54925 0.62345,4.75681 1.67115,5.95007 0.61265,0.69777 0.99086,1.47813 1.02072,2.10498 0.097,2.03474 -0.12254,4.72534 -0.41507,5.08545 -0.20892,0.25718 0.2308,1.36508 1.42671,3.59462 0.95093,1.77281 1.72924,3.50632 1.72924,3.85235 0,0.68062 -1.60519,1.62941 -2.75723,1.62941 -0.57104,0 -0.65042,-0.18318 -0.65042,-1.50295 0,-1.48002 -0.45856,-3.33701 -0.96083,-3.8917 -0.46031,-0.50836 -1.56301,2.62622 -1.45877,4.14703 l 0.0962,1.40251 -1.08425,-0.1077 c -1.77865,-0.17619 -3.05474,-0.8517 -3.27636,-1.73468 -0.2373,-0.94551 0.0111,-2.95584 0.71457,-5.78489 0.49676,-1.99784 0.49209,-2.09667 -0.16821,-3.82212 -0.88842,-2.32162 -0.85594,-3.11492 0.22206,-5.47692 l 0.89911,-1.97065 -0.4423,-2.78808 c -0.24344,-1.53344 -0.7721,-3.83361 -1.17439,-5.11147 -0.63524,-2.01775 -0.69592,-2.60511 -0.46287,-4.46287 0.14759,-1.17654 0.55009,-2.67896 0.89426,-3.33927 0.34418,-0.66032 0.62562,-1.39544 0.62562,-1.63364 0,-0.2382 0.48289,-0.94525 1.07336,-1.57132 0.59048,-0.62608 1.43453,-1.7546 1.87567,-2.50733 0.88332,-1.5073 1.98023,-2.67588 4.43503,-4.72485 0.89338,-0.74571 1.55806,-1.42182 1.47692,-1.50294 -0.0811,-0.0812 -0.88799,0.20379 -1.79337,0.63348 -1.95168,0.92628 -4.31523,3.10674 -5.15865,4.75934 -0.79858,1.56469 -1.41412,2.08399 -3.62307,3.0555 -1.0165,0.44707 -2.17202,1.11318 -2.56723,1.48056 l -0.71819,0.66798 -1.05582,-1.23551 c -2.74999,-3.21909 -4.88416,-6.42268 -5.11328,-7.67568 -0.32326,-1.76772 0.29181,-3.2303 1.46725,-3.48873 0.47978,-0.10549 1.02976,-0.23875 1.2222,-0.29648 0.86598,-0.25978 1.19901,-8.04898 0.38603,-9.02857 -0.17556,-0.21151 -1.11001,-0.54779 -2.07654,-0.74784 -3.64411,-0.75428 -5.28532,-1.56596 -7.01436,-3.46755 -0.891909,-0.98092 -1.879449,-2.4098 -2.19513,-3.17532 -0.315679,-0.7655 -0.656602,-1.39161 -0.757523,-1.39161 -0.383681,0 0.286028,4.69438 0.936619,6.5642 0.374136,1.07527 1.571517,3.68011 2.660404,5.78853 1.0889,2.10841 1.97973,4.15944 1.97973,4.55785 0,0.39841 0.28065,1.43644 0.62382,2.30706 0.34316,0.87061 0.55119,1.70092 0.46226,1.8448 -0.28974,0.4688 -2.44946,-0.34592 -3.77069,-1.42248 -0.832393,-0.67824 -1.489745,-1.57454 -1.850246,-2.52366 -1.184759,-3.11925 -2.706172,-5.12797 -5.664489,-7.47723 -2.089273,-1.65913 -3.137178,-4.7413 -3.171075,-9.32929 -0.0095,-1.27787 0.130569,-2.88101 0.310995,-3.56254 0.432929,-1.63529 1.335569,-7.33541 1.185298,-7.4857 -0.06473,-0.0647 -0.619328,1.66294 -1.232491,3.83906 -0.948145,3.36496 -1.139382,4.58177 -1.276053,8.13854 -0.177397,4.61653 -0.266844,4.7873 -2.04205,3.86931 -0.645263,-0.33368 -1.194084,-0.99791 -1.614277,-1.95493 -0.350022,-0.79722 -0.775891,-1.53998 -0.946906,-1.65057 -0.745504,-0.48211 0.894459,-11.66516 2.595068,-17.69534 1.463687,-5.1901 2.918704,-8.5578 4.668575,-10.8038 0.759159,-0.97439 0.878552,-1.3982 0.870063,-3.09786 -0.0084,-1.68585 -0.06837,-1.8926 -0.41446,-1.437 -0.362313,0.47696 -0.706111,0.50057 -3.319914,0.22569 -3.104809,-0.32651 -6.078312,-1.51049 -7.443949,-2.96415 l -0.657692,-0.70004 0.668581,-0.84949 c 1.227822,-1.56093 5.137977,-3.78404 7.862643,-4.47013 1.372908,-0.34569 1.505099,-0.31844 2.865523,0.58267 0.784408,0.51957 1.833244,1.03417 2.331266,1.14354 0.498016,0.10939 0.905759,0.39691 0.905759,0.63894 0,0.51973 -0.433034,0.56145 -1.254876,0.12161 -0.590483,-0.316 -3.082131,-0.64272 -3.082131,-0.40417 0,0.41382 1.071572,1.65179 1.429738,1.65179 0.235976,0 0.428979,0.2091 0.428979,0.46468 0,0.52868 0.485525,0.62247 0.777493,0.15006 0.36016,-0.58276 0.823563,0.0649 0.637118,0.89063 l -0.185146,0.81803 0.583876,-0.68068 c 0.320882,-0.37448 0.949832,-0.77325 1.398272,-0.8858 0.77885,-0.19547 0.815609,-0.14886 0.815609,1.03524 0,0.78605 0.161055,1.30134 0.440479,1.40856 0.242358,0.093 0.486315,0.49142 0.542126,0.88519 0.05581,0.39377 0.241051,0.71814 0.411434,0.72062 0.602088,0.009 1.084251,0.504 1.084251,1.11269 0,0.33894 0.303866,1.20212 0.675242,1.91801 0.584817,1.12738 0.692157,1.92984 0.801687,5.99485 0.12552,4.65809 0.12018,4.7046 -0.726657,6.19573 -2.030151,3.5747 -2.186446,3.96362 -1.982156,4.92935 0.323092,1.52734 1.902446,4.20776 3.322943,5.63969 0.72412,0.72995 1.31659,1.42253 1.31659,1.53864 0,0.11613 0.46512,0.7046 1.03343,1.30812 0.56832,0.60352 1.1941,1.6676 1.39102,2.36394 0.46675,1.65058 1.15325,2.4056 3.05309,3.35985 3.4527,1.73419 7.76754,1.81255 11.32838,0.20511 2.25019,-1.01578 2.5857,-1.35228 4.04778,-4.05687 1.12071,-2.07308 1.96505,-5.89103 1.55378,-7.02465 -0.11282,-0.31095 -0.73937,-1.15473 -1.39283,-1.87505 -1.04814,-1.15537 -1.18832,-1.49408 -1.18832,-2.8752 0,-1.11922 -0.13505,-1.61741 -0.47375,-1.7474 -0.42295,-0.1623 -0.42173,-0.2194 0.009,-0.53486 0.41204,-0.30129 0.43759,-0.67528 0.17364,-2.53637 -0.56504,-3.98417 -0.95109,-5.38074 -1.43518,-5.19498 -0.29301,0.11245 -0.4429,-0.0396 -0.4429,-0.44955 0,-0.34076 0.1904,-0.69309 0.42294,-0.78233 0.25009,-0.096 0.48527,-0.81407 0.576,-1.75828 0.13079,-1.3611 0.34669,-1.79335 1.46666,-2.9345 1.24503,-1.26861 1.30966,-1.42439 1.24397,-2.99864 -0.096,-2.29892 -0.0602,-2.38312 0.63773,-1.50596 l 0.61655,0.77445 -0.0605,-1.25427 c -0.1027,-2.13196 1.029,-2.84895 1.56527,-0.99167 l 0.29102,1.00681 0.0278,-1.00681 c 0.0312,-1.12315 0.9013,-1.44269 1.16654,-0.42838 0.1287,0.49215 0.26239,0.52681 0.89487,0.23234 0.52094,-0.24254 0.6897,-0.51549 0.56511,-0.91241 -0.12173,-0.3879 0.14105,-0.85121 0.83377,-1.46967 1.16106,-1.03659 1.08971,-1.35239 -0.20693,-0.91485 -1.22738,0.4142 -3.22553,0.59818 -3.22553,0.29709 0,-0.13481 0.75679,-0.4022 1.68145,-0.59417 0.9291,-0.19287 2.26299,-0.77072 2.98229,-1.29177 1.2052,-0.87305 1.43078,-0.92731 3.0434,-0.73333 1.19985,0.14434 2.80127,0.74165 5.149,1.92044 3.54424,1.77955 4.49189,2.42111 4.49189,3.04159 0,0.67183 -4.81359,2.9278 -6.27316,2.93994 -0.58348,0.005 -0.74389,0.77215 -0.22811,1.0909 0.46515,0.28749 3.60969,-0.70364 4.9832,-1.5707 0.65789,-0.41532 1.31889,-0.75511 1.46906,-0.75511 0.23876,0 3.99622,1.65056 6.70942,2.94721 1.6633,0.7949 3.97539,1.76537 6.65194,2.79291 l 2.62411,1.00802 -0.0919,3.82816 -0.0926,3.82876 -1.35835,1.39404 -1.35894,1.39405 0.29164,2.0136 c 0.41971,2.89733 0.42012,2.89548 -0.89488,4.55907 l -1.1992,1.51686 0.60928,1.18711 c 0.52244,1.01835 0.5519,1.29323 0.20814,1.93555 -0.33059,0.61771 -0.32537,0.92169 0.029,1.73832 0.56544,1.30294 0.54455,3.10636 -0.0798,6.87581 -0.62906,3.79744 -1.04837,10.16034 -1.46121,22.18905 -0.17324,5.04783 -0.39815,9.59323 -0.49977,10.10133 -0.16161,0.80802 -0.0497,1.0071 0.89063,1.58825 0.89703,0.5544 2.95747,1.08353 6.8982,1.77099 0.54541,0.0951 0.63143,0.33562 0.61957,1.73227 l -0.0139,1.62214 1.54894,0.44532 c 1.22925,0.35373 1.8884,0.37562 3.19466,0.10471 1.58747,-0.32927 1.69192,-0.30862 2.93148,0.58932 1.09073,0.79011 1.52167,0.91733 2.84617,0.83981 1.52912,-0.0895 1.56796,-0.11643 1.92345,-1.33051 0.19955,-0.68153 0.44571,-1.62251 0.54757,-2.09107 0.21688,-0.99762 0.93962,-1.11646 1.4128,-0.23233 0.48839,0.91256 2.4534,0.84597 3.49417,-0.11859 0.76273,-0.70688 0.79763,-0.8887 0.81863,-4.25956 0.019,-3.04232 0.10863,-3.63815 0.65709,-4.37997 0.34912,-0.47221 0.54632,-1.00082 0.43866,-1.17501 -0.10766,-0.17419 -0.0353,-0.50964 0.16034,-0.74543 0.21543,-0.25957 0.40944,-2.17933 0.49191,-4.86582 0.59384,-19.34489 0.8855,-38.51256 0.59597,-39.1795 -0.13678,-0.31509 -0.2207,-0.74723 -0.18635,-0.96021 0.0413,-0.25624 -0.36179,-0.38723 -1.19074,-0.38723 -0.689,0 -1.25188,-0.1046 -1.25065,-0.23235 0.004,-0.42748 1.20657,-2.06529 1.90168,-2.58961 l 0.68674,-0.51793 -1.30692,-1.4848 c -0.71884,-0.81663 -1.25981,-1.6335 -1.20223,-1.81515 0.0576,-0.18165 0.30119,-0.99221 0.54091,-1.80123 0.28984,-0.97815 0.64765,-1.537 1.06852,-1.66753 0.99915,-0.30986 3.7512,-2.21765 4.88881,-3.38889 0.57066,-0.58751 1.5022,-1.83445 2.06989,-2.77113 0.90913,-1.50006 1.04923,-2.02565 1.17622,-4.41143 0.13036,-2.44913 0.071,-2.84239 -0.62079,-4.10286 -0.42075,-0.76672 -0.93188,-1.35554 -1.13567,-1.30873 -0.20379,0.0468 -0.28739,-0.0498 -0.18575,-0.21419 0.15967,-0.25835 -0.0577,-0.57762 -0.40781,-0.84403 0.16076,0.066 0.26924,0.1 0.26924,0.0774 0,-0.0406 -0.29622,-0.38389 -0.65829,-0.76236 -0.71284,-0.74515 -1.9298,-1.59885 -2.6719,-1.87445 -0.89085,-0.33082 -3.72143,-0.95929 -4.25956,-0.94569 l -0.54213,0.0139 0.69701,0.19422 c 1.25231,0.34953 2.37058,1.06749 3.56073,2.28527 0.8414,0.86093 1.11334,1.08883 1.22583,0.98019 0.88448,1.64078 1.15109,2.73851 1.00197,4.18332 -0.22732,2.20252 -1.17829,3.64222 -3.02224,4.57661 -1.52509,0.77282 -3.07607,1.00901 -3.07607,0.46831 0,-0.4366 -2.16282,-0.95556 -3.07911,-0.73877 -0.43633,0.10323 -1.03842,0.40121 -1.33837,0.66192 -0.49471,0.42999 -0.6144,0.40921 -1.28634,-0.22205 -0.99809,-0.93765 -3.02155,-1.19569 -4.05688,-0.51731 -0.79629,0.52176 -1.39161,0.43665 -1.39161,-0.19907 0,-1.36447 -2.54869,-1.97825 -3.56254,-0.85796 -0.30839,0.34077 -0.66974,0.61957 -0.8029,0.61957 -0.13317,0 -0.63455,-0.73187 -1.11391,-1.62638 -0.69969,-1.30565 -1.04648,-1.6464 -1.7607,-1.72802 -0.4893,-0.0559 -1.04031,0.0486 -1.22401,0.23233 -0.47335,0.47335 -1.32183,0.41471 -2.47103,-0.17123 -1.28488,-0.6551 -6.25494,-4.24782 -7.65208,-5.53137 -1.6721,-1.53613 -6.2809,-4.9848 -7.4615,-5.58343 -0.58174,-0.29497 -1.26674,-0.71031 -1.5223,-0.9227 -1.00853,-0.83816 -5.28538,-2.91765 -7.59825,-3.69447 -3.88329,-1.304269 -7.27732,-1.796043 -10.7566,-1.559218 -2.57562,0.175321 -3.02041,0.136758 -3.02041,-0.261381 0,-0.326125 -0.44368,-0.519534 -1.47149,-0.640752 -1.59612,-0.188242 -2.82408,-0.284874 -3.74588,-0.290424 z m 0.20089,1.213128 c 0.16462,-0.101743 0.47194,0.02282 0.6825,0.276508 0.21055,0.253697 0.67939,0.462806 1.04189,0.465284 1.16036,0.0075 2.05294,0.364612 2.05294,0.821662 0,0.3363 0.35716,0.42194 1.47148,0.35154 l 1.47149,-0.0932 -0.0532,1.08426 -0.0533,1.08425 0.48223,-1.1617 c 0.32948,-0.7933 0.52956,-1.05073 1.02979,-1.12782 l 0.5022,0.0387 c 0.34641,0.0266 0.6862,0.0953 0.7551,0.15247 0.16872,0.14002 0.15826,0.53776 -0.0266,1.00681 -0.13138,0.33333 -0.15735,0.63655 -0.18938,2.23447 -0.0278,1.38899 -0.0669,1.93412 -0.1567,2.19211 -0.0658,0.18888 -0.12039,0.46565 -0.12162,0.61474 -0.002,0.20678 -0.0741,0.34912 -0.30737,0.60021 -0.26553,0.28589 -0.34974,0.33 -0.63833,0.33399 -0.18274,0.002 -0.50643,0.0334 -0.71941,0.069 -0.21297,0.0354 -0.57607,0.034 -0.80713,-0.003 -0.7314,-0.11718 -2.57684,0.30994 -2.87097,0.66435 -0.0476,0.0573 -0.15746,0.39476 -0.24383,0.74966 -0.17182,0.70593 -0.18755,0.56917 0.21963,1.8817 0.1556,0.5016 0.20537,0.48396 0.121,0.0756 0.16846,0.59418 0.39655,1.15245 0.64257,1.44727 0.2181,0.26137 0.76296,1.3069 1.21071,2.3234 0.44774,1.0165 1.02564,2.08512 1.28452,2.37423 0.71741,0.80112 0.27613,4.62189 -0.63046,5.45696 -0.60377,0.55613 -0.82727,0.58265 -2.31251,0.27227 -1.19421,-0.24957 -1.78746,-0.25061 -2.1685,-0.003 -0.62796,0.40703 -0.62473,0.4391 0.39328,3.97156 0.64802,2.2486 0.76832,3.1777 0.62139,4.80169 -0.17705,1.95684 -0.94091,4.337 -1.39161,4.337 -0.12256,0 -0.31449,-0.69131 -0.42657,-1.53622 -0.21394,-1.6128 -0.61123,-2.20383 -0.92755,-1.37952 -0.27718,0.72235 -0.22319,4.15423 0.12767,8.11797 0.17033,1.92418 0.22214,3.84585 0.11557,4.27046 -0.1433,0.57094 -0.70549,1.01131 -2.15822,1.69051 -2.11583,0.98924 -2.64051,1.02568 -9.08243,0.63167 -2.39976,-0.14676 -2.97018,-0.27996 -3.25276,-0.75873 -0.18846,-0.31932 -0.66473,-1.07015 -1.05884,-1.66873 -0.39409,-0.59858 -0.930447,-1.62177 -1.191337,-2.27378 -0.467797,-1.16914 -0.458856,-1.21041 0.60868,-2.97807 0.595357,-0.9858 1.241007,-2.34977 1.435177,-3.03131 0.33365,-1.17107 0.6205,-5.85137 0.73998,-12.08166 l 0.0532,-2.78807 -0.82892,0.0853 c -0.45575,0.047 -0.91691,-0.0575 -1.02496,-0.23234 -0.10804,-0.17482 -0.466737,-0.31765 -0.797447,-0.31765 -0.423401,0 -0.601426,-0.21405 -0.601426,-0.72303 0,-1.05438 0.313008,-1.20044 0.932386,-0.43564 0.466627,0.57627 0.617737,0.61399 1.045527,0.25897 0.70268,-0.58318 0.62214,-1.16501 -0.1912,-1.3777 -0.53976,-0.14116 -0.60971,-0.26277 -0.31825,-0.55423 0.29145,-0.29136 0.55401,-0.29078 1.19618,0.002 1.00501,0.45791 1.21352,0.30177 0.75087,-0.5627 -0.19361,-0.36179 -0.27115,-0.91242 -0.17244,-1.22342 0.22669,-0.71424 -1.50147,-2.10267 -2.801383,-2.25078 l -0.90637,-0.10345 1.484796,-1.51988 c 1.442377,-1.47621 1.801147,-2.59504 0.776887,-2.42263 -0.41238,0.0694 -0.54319,-0.33354 -0.72001,-2.22054 -0.118657,-1.26786 -0.117757,-3.27942 0.002,-4.47013 0.21708,-2.16158 0.21891,-2.16498 1.27303,-2.36273 0.58065,-0.10894 1.05581,-0.33107 1.05581,-0.49373 0,-0.16266 0.28315,-0.29587 0.62926,-0.29587 0.34611,0 0.70302,-0.1921 0.79322,-0.42717 0.11364,-0.29612 0.58912,-0.39926 1.54833,-0.33459 0.76145,0.0513 1.83343,-0.0481 2.38208,-0.22146 0.87978,-0.27804 3.11927,-0.607358 6.78142,-0.997122 0.62538,-0.06656 1.27178,-0.204412 1.4364,-0.306156 z m 13.55376,0.737557 c 0.0752,0 0.13674,0.139404 0.13674,0.309787 0,0.17038 -0.14751,0.30979 -0.32795,0.30979 -0.18043,0 -0.24203,-0.13941 -0.13674,-0.30979 0.10534,-0.170383 0.25281,-0.309787 0.32795,-0.309787 z m -4.93299,0.929357 c 0.0404,0 0.047,0.0114 0.0847,0.0121 -0.0491,-5.9e-4 -0.0983,-0.001 -0.15066,0 l -0.16095,0.004 c 0.0782,-0.004 0.13505,-0.0157 0.22689,-0.0157 z m 2.91877,0.023 c 0.56386,0.028 1.03862,0.23509 0.94024,0.59659 -0.0696,0.25557 -0.31145,1.51022 -0.53728,2.78809 -0.22584,1.27788 -0.48787,2.64881 -0.58266,3.04645 -0.10228,0.4289 -0.0499,0.64718 0.12887,0.53668 0.16575,-0.10243 0.4545,-0.98545 0.64196,-1.96219 0.71468,-3.72377 0.97933,-4.40697 1.78308,-4.6087 2.47605,-0.62145 13.83744,5.00483 18.22839,9.02679 0.60675,0.55577 2.1404,1.82272 3.40765,2.8153 1.26725,0.9926 2.30404,1.98517 2.30404,2.20602 0,0.22087 0.21176,0.40176 0.47072,0.40176 0.93641,0 2.93684,1.52958 2.94176,2.24958 0.003,0.50362 0.0769,0.5794 0.26925,0.2759 0.45212,-0.71341 1.41954,-0.28345 1.53018,0.68008 0.005,0.0496 0.0128,0.0367 0.0181,0.0804 -0.042,0.001 -0.11441,0.18268 -0.19241,0.50885 -0.056,0.23428 -0.21593,0.58317 -0.35577,0.77567 -0.13984,0.1925 -0.31541,0.50617 -0.39026,0.69702 -0.17445,0.44489 -1.00018,1.83392 -1.24821,2.10014 -0.12856,0.13798 -0.2445,0.19235 -0.3582,0.1676 -0.11954,-0.0261 -0.13691,-0.0196 -0.0774,0.0272 -0.48504,-0.18397 -1.39352,-0.74699 -3.23703,-1.99364 -0.43118,-0.29158 -1.40283,-0.8459 -2.15942,-1.23189 -0.7566,-0.38599 -2.85691,-1.65924 -4.66737,-2.82922 -1.81047,-1.16997 -3.39214,-2.12736 -3.51474,-2.12736 -0.1226,0 -0.66653,-0.31921 -1.2089,-0.70972 -2.45253,-1.76586 -11.78792,-5.47641 -15.08151,-5.99425 -0.50778,-0.0798 -1.00039,-0.24186 -1.27363,-0.38904 l 0.006,-0.29345 c 0.004,-0.17573 0.0846,-0.58085 0.17849,-0.90032 0.13791,-0.46911 0.17688,-0.83413 0.20269,-1.89745 0.0496,-2.04058 0.12143,-2.99833 0.24384,-3.24068 0.0764,-0.15128 0.0895,-0.25657 0.0599,-0.26501 0.0251,-0.0336 0.0247,-0.0206 0.0539,-0.0605 0.25851,-0.35354 0.91125,-0.50481 1.47511,-0.47678 z m -1.88232,0.47376 c 4.2e-4,0.0103 0.006,0.0165 0.006,0.0272 0,0.20507 0.018,0.27688 0.0539,0.30435 -0.0332,-0.0298 -0.0545,-0.10459 -0.055,-0.22811 -1.6e-4,-0.0342 -0.002,-0.0691 -0.005,-0.10346 z m 0.25109,0.17789 c -0.003,0.006 -0.005,0.009 -0.009,0.0157 -0.0519,0.0969 -0.10006,0.14532 -0.13976,0.15187 0.0281,-0.0121 0.0983,-0.10757 0.14884,-0.1676 z m -27.35134,0.25473 c 0.275685,0 0.415089,0.1394 0.309787,0.30978 -0.105308,0.17039 -0.244707,0.30979 -0.309787,0.30979 -0.06508,0 -0.204484,-0.1394 -0.309786,-0.30979 -0.105307,-0.17038 0.0341,-0.30978 0.309786,-0.30978 z m 0.102861,1.26638 c 0.195236,-0.0859 0.361817,0.62865 0.361817,1.96824 0,1.09743 -0.121817,2.0706 -0.270455,2.16247 -0.372041,0.22993 -0.658467,-1.75274 -0.44411,-3.07368 0.108069,-0.66595 0.235602,-1.00548 0.352748,-1.05703 z m -7.763416,0.16033 c 0.01175,-8.3e-4 0.03907,7.6e-4 0.05143,0 -0.04083,0.003 -0.08491,0.006 -0.117985,0.0103 0.02689,-0.003 0.03503,-0.008 0.06656,-0.0103 z m -0.261989,0.0962 c 0.0075,0.0113 0.02165,0.0234 0.04477,0.0363 0.04169,0.0233 0.07101,0.0611 0.09257,0.10467 -0.03627,-0.0451 -0.07435,-0.0904 -0.138555,-0.13009 -0.0072,-0.004 0.0058,-0.007 0.0012,-0.0109 z m -2.756612,0.0417 c 0.176157,-0.0323 0.301314,0.0488 0.301314,0.25775 0,0.15051 -0.286618,0.34883 -0.63712,0.44048 -0.52291,0.13675 -0.572112,0.0878 -0.272271,-0.27348 0.204503,-0.24641 0.43192,-0.39246 0.608077,-0.42475 z m 6.141272,0.15126 c 0.205667,10e-4 0.385361,0.0257 0.456207,0.0793 0.159626,0.12067 0.155219,0.0133 0.06716,1.72864 -0.06407,1.24803 -0.0071,3.40005 0.09257,3.49964 0.02385,0.0238 0.04261,0.0163 0.05929,-0.0105 -0.04482,0.39901 -0.111942,0.71546 -0.245652,0.84888 0.06183,-0.0806 0.0032,-0.0971 -0.323701,-0.089 -0.338384,0.008 -0.457583,-0.0275 -0.695204,-0.20934 -0.400208,-0.30617 -0.502808,-0.72658 -0.597792,-2.45229 -0.06993,-1.27066 -0.06267,-1.52799 0.06353,-2.27198 0.08216,-0.48437 0.192898,-0.88931 0.261989,-0.95841 0.103715,-0.1037 0.518812,-0.16708 0.861594,-0.16518 z m -7.52563,0.14279 c 0.07514,0 0.136741,0.13941 0.136741,0.30979 0,0.17039 -0.147499,0.30979 -0.327938,0.30979 -0.180438,0 -0.242045,-0.1394 -0.136742,-0.30979 0.105307,-0.17038 0.252804,-0.30979 0.327939,-0.30979 z m 4.959605,0.30979 c 0.597315,-3.8e-4 0.644237,0.0989 0.514898,1.0891 -0.101774,0.7792 -0.102238,0.79569 -0.07805,2.39602 0.01531,1.01201 0.04307,1.22479 0.271062,2.05234 0.04917,0.17847 0.0959,0.26625 0.131297,0.27651 -0.156145,0.34038 -0.554065,0.60317 -1.260322,0.77628 -0.601066,0.14732 -0.742118,0.0236 -0.920285,-0.80714 l -0.206321,-0.96081 c 0.02157,-0.24881 0.01534,-0.44619 -0.02057,-0.6946 -0.125885,-0.87065 -0.09587,-1.9379 0.06898,-2.46258 0.424807,-1.35203 0.705969,-1.66449 1.499316,-1.66511 z m 3.523819,0.008 c 0.06608,-0.0214 0.127375,0.0311 0.180305,0.14763 -0.05313,-0.0762 -0.112019,-0.14101 -0.18212,-0.14642 5.94e-4,-2e-4 0.0013,-0.001 0.0018,-0.001 z m -0.04659,0.0308 c -0.01894,0.009 -0.03494,0.0368 -0.05142,0.0605 0.01033,-0.0197 0.02071,-0.0364 0.03207,-0.0478 0.0065,-0.007 0.01289,-0.008 0.01936,-0.0127 z m -5.004379,0.311 c -0.163155,0.0243 -0.350101,0.0366 -0.570564,0.0369 0.01776,0.002 0.07042,-0.01 0.08592,-0.007 0.170839,0.0249 0.327287,-0.006 0.484648,-0.0297 z m -0.413855,0.11496 c 0.285958,-0.001 0.31153,0.27544 0.07564,0.83074 -0.274991,0.64733 -0.349293,1.49736 -0.231736,2.65377 0.04547,0.44726 0.0863,1.25681 0.09076,1.79882 0.0063,0.76965 0.01909,0.92946 0.08471,0.83376 -0.170569,0.36828 -0.434736,0.62663 -0.887612,0.85373 -1.73599,0.87051 -4.024989,2.24894 -4.646795,2.79836 -0.54636,0.48276 -1.144602,0.85139 -3.717436,2.29073 -0.340764,0.19063 -1.246889,0.7614 -2.013611,1.26818 -0.766715,0.50678 -1.742548,0.99596 -2.168504,1.08667 -0.540683,0.11515 -0.744382,0.33727 -0.674631,0.73575 0.08766,0.50075 -0.04192,0.54401 -1.058236,0.35335 -1.166924,-0.21893 -3.5335,0.52872 -3.5335,1.11631 0,0.14452 -0.194059,0.2626 -0.431403,0.2626 -0.479963,0 -0.807742,-0.65333 -0.807742,-1.61004 0,-0.34637 -0.363039,-1.29619 -0.806532,-2.11102 l -0.805931,-1.48178 0.651037,-0.65103 c 0.358302,-0.3583 0.860745,-0.65164 1.116319,-0.65164 0.255574,0 0.472529,-0.17426 0.482226,-0.38723 0.02211,-0.48545 2.910461,-2.71064 3.518376,-2.71064 0.111157,0 0.228836,-0.0705 0.337013,-0.16335 -0.102365,0.11708 -0.09315,0.15599 -0.0042,0.2408 0.258537,0.24662 0.841853,1.05478 0.894265,1.23915 0.05283,0.18581 0.286017,0.73381 0.44048,1.03403 0.04054,0.0788 0.105065,0.46217 0.143397,0.85191 0.03834,0.38974 0.09041,0.85663 0.115565,1.03766 0.04941,0.35585 0.138807,0.41605 0.265617,0.1791 0.280122,-0.52341 -0.260753,-2.82934 -0.836785,-3.56738 -0.357716,-0.45833 -0.709122,-1.05177 -0.709122,-1.1974 0,-0.11303 -0.04019,-0.0976 -0.217817,0.0842 -0.004,0.004 -0.007,0.007 -0.01089,0.0109 0.0935,-0.10524 0.183187,-0.22505 0.22871,-0.36849 0.09978,-0.31438 0.678825,-0.81191 1.425503,-1.35833 -0.0047,0.007 -0.008,0.0132 -0.0055,0.0157 0.02459,0.0246 0.456123,-0.21459 0.958401,-0.53124 1.054535,-0.6648 1.268405,-0.7839 2.268336,-1.26214 0.404658,-0.19353 0.82287,-0.40277 0.92936,-0.46528 0.478343,-0.28081 1.285622,-0.65891 1.406745,-0.65891 0.07323,0 0.152991,-0.0321 0.177278,-0.0714 0.02429,-0.0393 0.156716,-0.0961 0.294663,-0.12585 0.137948,-0.0297 0.355647,-0.10759 0.483434,-0.17365 0.127787,-0.0661 0.493722,-0.2144 0.813188,-0.32915 0.319468,-0.11474 0.755105,-0.28061 0.968084,-0.36848 0.594878,-0.24543 1.327715,-0.477 2.052334,-0.64862 0.362062,-0.0858 0.867401,-0.22454 1.122974,-0.30857 0.401757,-0.13211 1.829735,-0.37267 2.223567,-0.37453 z m -5.617297,0.82227 c 0.03259,-0.0285 0.0776,-0.021 0.12706,0.0284 0.0035,0.004 0.04916,-0.006 0.05506,-0.004 -0.114048,0.0186 -0.180605,0.0455 -0.216005,0.0938 0.0086,-0.0455 0.01305,-0.10035 0.03388,-0.11859 z m 41.433911,1.42249 c 0.0369,-0.004 0.0273,0.0202 -0.0248,0.0847 -0.0486,0.0602 -0.10723,0.17921 -0.13008,0.2644 -0.0262,0.0973 -0.0366,0.0708 -0.0278,-0.0714 0.007,-0.12451 0.0662,-0.24356 0.13008,-0.26441 0.0228,-0.008 0.0404,-0.0119 0.0526,-0.0133 z m -29.682,0.43382 c 0.01341,0.0766 0.02646,0.15248 0.03933,0.22326 -0.0065,-0.0349 -0.0121,-0.0365 -0.01876,-0.0726 -0.01143,-0.062 -0.0094,-0.0881 -0.02057,-0.15065 z m 16.70425,0.11073 c -0.0879,0.021 -0.20302,0.087 -0.38602,0.20813 -0.52246,0.34575 -0.58725,0.35025 -1.04432,0.0678 l -0.35699,-0.22024 -0.5155,0.22085 c -0.29313,0.12565 -0.71932,0.21288 -0.98865,0.20269 -0.36911,-0.014 -0.55005,0.0465 -0.81985,0.27348 -0.40203,0.33829 -0.4358,0.34413 -0.71879,0.13009 -0.25843,-0.19547 -0.59598,-0.21583 -0.59598,-0.0363 0,0.072 0.12912,0.31704 0.28679,0.54455 0.15767,0.22751 0.25795,0.48887 0.22266,0.58085 -0.0933,0.24307 -0.61908,0.20511 -0.90697,-0.0654 -0.19201,-0.18039 -0.46969,-0.25427 -1.24036,-0.33157 -1.01831,-0.10218 -1.23801,-0.0602 -1.67538,0.32127 -0.43577,0.38012 -0.091,1.20699 0.648,1.55439 0.87232,0.41004 0.83553,0.78192 -0.15307,1.5586 -0.59977,0.47121 -2.03839,1.97053 -2.25744,2.35245 -0.16813,0.29313 0.16264,0.79719 1.2579,1.91801 0.59369,0.60756 1.08002,1.18507 1.08002,1.28332 0,0.0983 0.1518,0.36329 0.33761,0.58871 0.18581,0.22542 0.38568,0.58281 0.44411,0.79443 0.0584,0.21163 0.24498,0.54343 0.41446,0.73756 0.63882,0.73176 0.85561,1.36074 1.10603,3.2098 0.3226,2.38198 0.40402,2.94553 0.54334,3.75374 0.11768,0.68272 0.0674,1.40646 -0.22145,3.19225 -0.2656,1.64232 -0.43516,3.69137 -0.34186,4.12887 0.08,0.37513 0.0605,0.52274 -0.10469,0.79443 -0.11168,0.18363 -0.24403,0.33399 -0.29406,0.33399 -0.05,0 -0.19662,0.18753 -0.32551,0.41688 -0.12891,0.22935 -0.35435,0.48119 -0.50099,0.55967 -0.14663,0.0785 -0.33211,0.26581 -0.41265,0.41628 -0.0806,0.15047 -0.35731,0.41886 -0.61473,0.59597 -0.681,0.46855 -0.59472,0.67372 0.22085,0.52458 0.2831,-0.0518 0.54037,-0.20694 0.78476,-0.47376 0.43412,-0.47395 0.74742,-0.50435 1.26455,-0.12282 0.20413,0.1506 0.48822,0.27348 0.63107,0.27348 0.14286,0 0.35885,0.0536 0.48041,0.1186 0.12156,0.065 0.67306,0.20888 1.22523,0.31946 1.03929,0.20814 1.89953,0.2679 2.19875,0.15308 0.1503,-0.0577 0.14253,-0.10898 -0.063,-0.39752 -0.17489,-0.24559 -0.20737,-0.37722 -0.12586,-0.50884 0.0604,-0.0977 0.17833,-0.2884 0.2626,-0.42414 0.12399,-0.19977 0.12701,-0.28324 0.0157,-0.43806 -0.43584,-0.60639 -0.90092,-2.18282 -0.90092,-3.05189 0,-0.20988 -0.0695,-0.5155 -0.15429,-0.67947 -0.11722,-0.22668 -0.12919,-0.416 -0.0496,-0.78899 0.0576,-0.26978 0.17529,-1.25415 0.26199,-2.18786 0.23225,-2.50151 0.44739,-3.80208 0.74421,-4.50037 0.0873,-0.20541 0.24038,-0.76812 0.34004,-1.25004 0.0997,-0.48191 0.22886,-1.09502 0.28679,-1.36258 0.12003,-0.55433 0.43339,-0.94064 0.84646,-1.04431 0.15591,-0.0391 0.42589,-0.19154 0.60022,-0.33823 0.17431,-0.14669 0.3798,-0.26682 0.45621,-0.26682 0.0764,0 0.23255,-0.10578 0.3473,-0.23537 0.28632,-0.32335 1.14131,-0.85977 1.37044,-0.85977 0.10334,0 0.3147,-0.15999 0.46952,-0.35578 0.36095,-0.45644 0.71443,-0.87774 1.31054,-1.56103 0.5654,-0.64808 0.72728,-0.9341 0.72728,-1.28574 0,-0.14303 0.0724,-0.35621 0.16094,-0.47315 0.18385,-0.24306 0.21765,-0.84587 0.0635,-1.13386 -0.0574,-0.10719 -0.13433,-0.65809 -0.17063,-1.22462 -0.11143,-1.7388 -0.27866,-2.1406 -0.98503,-2.36636 -0.41559,-0.13283 -0.48463,-0.49906 -0.17364,-0.91967 0.32604,-0.441 0.28928,-0.61086 -0.15066,-0.6934 -0.52954,-0.0993 -0.56118,-0.22304 -0.17548,-0.69096 0.18465,-0.224 0.33581,-0.50089 0.33581,-0.61534 0,-0.35695 -0.80112,-0.14752 -1.41522,0.37029 -0.5418,0.45685 -0.99471,0.57193 -0.99471,0.2523 0,-0.1007 0.0788,-0.27015 0.17487,-0.37634 0.0961,-0.10619 0.18247,-0.3563 0.1918,-0.55604 0.0267,-0.57282 -0.34651,-0.5476 -1.00438,0.0678 -0.80182,0.75002 -0.94731,0.68799 -0.89911,-0.3842 0.0108,-0.24022 -0.0487,-0.44665 -0.15429,-0.53426 -0.0723,-0.0601 -0.13293,-0.0845 -0.22085,-0.0635 z m -20.140941,1.00136 c 0.03447,0.35398 0.06455,0.73752 0.125246,0.92875 0.06139,0.19341 0.05611,0.36376 0.01271,0.52216 0.01199,-0.0901 0.01012,-0.23243 -0.01512,-0.42475 -0.05443,-0.41512 -0.09286,-0.73747 -0.122827,-1.02616 z M 80.01872,108.5637 c -0.228135,-0.002 -0.154271,0.23964 0.271671,0.89064 0.384785,0.5881 0.598187,1.05107 0.767204,1.66389 0.04112,0.14908 0.129995,0.3926 0.197851,0.54092 0.120393,0.26313 0.125714,0.26493 0.202086,0.0937 0.05741,-0.12868 0.03267,-0.40301 -0.09137,-1.03161 -0.160784,-0.81492 -0.190081,-0.88575 -0.610495,-1.44971 -0.489339,-0.6564 -0.541315,-0.70604 -0.736954,-0.7079 z m 39.51651,0.45077 c -0.0743,0.10548 -0.12994,0.22068 -0.16337,0.3479 0.0228,-0.13101 0.0634,-0.21619 0.13252,-0.3098 0.009,-0.0133 0.0207,-0.0252 0.0309,-0.0381 z m -26.216268,0.35999 c 0.02257,0.0142 0.044,0.0287 0.06777,0.0424 0.01834,0.0105 0.03623,0.0187 0.05445,0.0285 -0.02618,-0.0134 -0.03874,-0.007 -0.06596,-0.0224 -0.02285,-0.0122 -0.03448,-0.0353 -0.05626,-0.0484 z m -3.643621,0.18697 -0.02481,0.16275 c -0.03778,0.2499 -0.09819,0.45035 -0.173043,0.63168 0.04742,-0.10755 0.125714,-0.43456 0.19785,-0.79443 z m 22.565389,1.2095 c 0.0926,-0.0111 0.18935,0.0252 0.24444,0.11435 0.0408,0.066 0.006,0.18746 -0.0756,0.26985 -0.19,0.18994 -0.48182,0.0286 -0.38845,-0.21479 0.0385,-0.10027 0.12703,-0.15837 0.21962,-0.16941 z m 74.74138,0.42837 c 0.12685,0.002 0.26318,0.0201 0.40418,0.0508 -0.15474,-0.0212 -0.31073,-0.0532 -0.45742,-0.0387 0.0209,-4e-4 0.0319,-0.0126 0.0533,-0.0121 z m 0.22387,1.31297 c 0.18044,0 0.32794,0.13939 0.32794,0.30978 0,0.17038 -0.0616,0.30979 -0.13674,0.30979 -0.0752,0 -0.22263,-0.13941 -0.32794,-0.30979 -0.10534,-0.17039 -0.0437,-0.30978 0.13674,-0.30978 z m -114.880487,0.69338 c -0.07056,0.002 -0.102671,0.06 -0.06596,0.17789 0.02985,0.0958 0.149954,0.29623 0.266221,0.44531 0.343662,0.44069 0.46085,0.73455 0.549387,1.37227 0.04604,0.33157 0.09904,0.68104 0.117381,0.77688 0.01833,0.0958 0.08455,0.17426 0.147632,0.17426 0.182545,0 0.157517,-1.24056 -0.0357,-1.76918 -0.161631,-0.4422 -0.218837,-0.53429 -0.576611,-0.9221 -0.156513,-0.16965 -0.311634,-0.25828 -0.40236,-0.25533 z m 61.455667,2.55997 c -0.23533,-0.003 -0.28684,0.0463 -0.46406,0.23598 -0.20672,0.22127 -0.2854,0.25529 -0.56149,0.23899 -0.1949,-0.0115 -0.41586,-0.091 -0.5615,-0.20209 -0.28795,-0.21963 -0.36062,-0.18232 -0.48705,0.2505 -0.0815,0.27884 -0.15084,0.35554 -0.44351,0.49312 -0.39703,0.18661 -0.65285,0.47292 -0.65285,0.72968 0,0.10028 0.16748,0.37263 0.38661,0.62865 0.22213,0.25951 0.38694,0.52812 0.38724,0.63167 7.5e-4,0.19864 -0.38653,0.63289 -0.56451,0.63289 -0.062,0 -0.15551,0.051 -0.20754,0.11375 -0.13423,0.16174 0.11866,0.54666 0.66858,1.01649 0.26939,0.23014 0.49523,0.50578 0.59053,0.72122 0.0849,0.19184 0.32119,0.52548 0.52519,0.74119 0.204,0.2157 0.45826,0.54503 0.56452,0.73211 0.10625,0.18707 0.33864,0.45566 0.51671,0.59658 0.31476,0.24907 0.32887,0.25229 0.50702,0.12282 0.24801,-0.18021 0.23699,-0.44294 -0.0442,-1.05037 -0.26248,-0.56707 -0.30582,-1.0342 -0.10291,-1.11208 0.0855,-0.0328 0.17127,0.0105 0.2517,0.12706 0.26267,0.38084 0.47567,0.5489 0.80774,0.63773 0.1964,0.0525 0.48862,0.22005 0.67585,0.38783 0.37374,0.33491 0.78569,0.41772 0.71396,0.14339 -0.0219,-0.0838 -0.0885,-0.19305 -0.14824,-0.24262 -0.0597,-0.0496 -0.16529,-0.28583 -0.23415,-0.52518 -0.16793,-0.58366 -0.35235,-0.93124 -0.64016,-1.20466 -0.27237,-0.25877 -0.31718,-0.50824 -0.0913,-0.50824 0.20693,0 0.54878,0.43249 0.54878,0.69399 0,0.15648 0.0745,0.2736 0.26622,0.41991 0.14645,0.11169 0.3452,0.34383 0.44169,0.5155 0.2133,0.37952 0.36462,0.36909 0.50401,-0.0339 0.15243,-0.44065 0.22976,-0.50643 0.53546,-0.45681 0.14646,0.0237 0.26623,0.0202 0.26623,-0.007 0,-0.0282 -0.14143,-0.23 -0.31402,-0.44833 -0.24062,-0.30441 -0.30833,-0.45274 -0.29043,-0.63652 l 0.0236,-0.2396 0.44895,0.0272 c 0.38842,0.0235 0.49056,-0.001 0.75511,-0.18454 0.16826,-0.11661 0.30616,-0.23378 0.30616,-0.26018 0,-0.0264 -0.16555,-0.12513 -0.36788,-0.21903 -0.32896,-0.15267 -0.62117,-0.41184 -1.39827,-1.24156 -0.31935,-0.34096 -0.14566,-0.33458 0.69399,0.0248 0.75707,0.32404 0.85816,0.40449 1.08002,0.86281 0.0917,0.18948 0.22315,0.3647 0.29224,0.38905 0.0691,0.0243 0.17813,0.0866 0.24202,0.13855 0.0639,0.052 0.25312,0.1386 0.42051,0.19241 0.28306,0.091 0.31421,0.0856 0.44532,-0.0762 0.23425,-0.28929 0.18024,-0.51549 -0.17909,-0.75329 -0.20525,-0.13582 -0.36946,-0.32803 -0.45863,-0.53607 -0.10836,-0.25276 -0.1915,-0.33581 -0.37877,-0.37695 -0.13208,-0.029 -0.3422,-0.13873 -0.4671,-0.24384 -0.45623,-0.3839 -1.73847,-1.11208 -1.95795,-1.11208 -0.2293,0 -0.62305,-0.16975 -0.84585,-0.36484 -0.0789,-0.0691 -0.19363,-0.0936 -0.29224,-0.0623 -0.10102,0.032 -0.29697,-0.0132 -0.51732,-0.11981 -0.21498,-0.10407 -0.56468,-0.1869 -0.88701,-0.20995 -0.13068,-0.009 -0.22953,-0.016 -0.30797,-0.017 z m -47.446308,0.17368 c -0.09285,-0.008 -0.208034,0.0211 -0.279536,0.0926 -0.06616,0.0661 -0.244787,0.12041 -0.396914,0.12041 -0.256211,0 -0.276508,0.0172 -0.276508,0.23415 0,0.25177 -0.204286,0.38542 -0.589319,0.38542 -0.114252,0 -0.318432,0.11695 -0.504614,0.28921 -0.172034,0.15918 -0.353832,0.2898 -0.403568,0.29042 -0.04974,5.6e-4 -0.186442,0.0665 -0.30434,0.14642 -0.193419,0.13116 -0.202223,0.15457 -0.08592,0.23961 0.08688,0.0634 0.116377,0.16285 0.08955,0.30313 -0.04351,0.22759 0.09903,0.35606 0.368475,0.33217 0.235488,-0.0209 0.236568,0.34545 0.0018,0.74603 -0.246534,0.42081 -0.246791,0.47746 6.05e-4,0.72485 l 0.199666,0.19967 0.313417,-0.3001 c 0.17252,-0.16482 0.475171,-0.45928 0.672211,-0.65467 0.362304,-0.35927 0.7067,-0.59243 0.7067,-0.4786 0,0.0342 -0.140426,0.30202 -0.312206,0.59598 -0.233039,0.3988 -0.32477,0.6533 -0.361214,1.00196 -0.02686,0.25701 -0.0952,0.55637 -0.151869,0.66495 -0.05667,0.10859 -0.103199,0.30889 -0.103462,0.44532 -2.64e-4,0.13643 -0.04117,0.33707 -0.09076,0.44593 -0.117561,0.25801 0.01556,0.51944 0.358794,0.70427 0.421285,0.22689 0.582578,0.12348 0.914839,-0.58569 0.161186,-0.34401 0.326218,-0.8002 0.366661,-1.01346 0.04442,-0.23425 0.211326,-0.60049 0.421721,-0.92572 0.328131,-0.50724 0.510948,-0.64184 0.623807,-0.45923 0.05306,0.0858 -0.159379,0.71605 -0.324913,0.96384 -0.05613,0.084 -0.10225,0.2522 -0.10225,0.37332 0,0.12111 -0.03914,0.29333 -0.08713,0.38299 -0.04799,0.0896 -0.08861,0.4405 -0.09016,0.77931 -0.0023,0.56121 0.01391,0.62862 0.183935,0.75933 0.362292,0.27853 0.922702,0.12196 0.922702,-0.25774 0,-0.44828 0.672087,-1.51744 1.665101,-2.64952 0.33732,-0.38456 0.696044,-0.66314 0.854334,-0.66314 0.02689,0 -0.02387,0.11731 -0.112541,0.26078 -0.105997,0.17152 -0.160944,0.39134 -0.160944,0.64136 0,0.23753 -0.05086,0.45214 -0.135531,0.57177 -0.07454,0.10534 -0.194689,0.37974 -0.266826,0.61049 -0.11849,0.37906 -0.119534,0.44632 -0.01392,0.69702 0.09703,0.23032 0.100414,0.32758 0.02117,0.56996 -0.08729,0.26698 -0.08115,0.30518 0.07381,0.44955 0.121604,0.1133 0.251448,0.15149 0.45863,0.13432 0.266666,-0.0221 0.305802,-0.0586 0.511875,-0.47193 0.222545,-0.44637 0.223793,-0.44704 0.413853,-0.3225 0.157412,0.10313 0.228736,0.10886 0.412648,0.0327 0.122455,-0.0507 0.24128,-0.15047 0.263802,-0.22144 0.02252,-0.071 0.189068,-0.22526 0.37029,-0.34306 l 0.329752,-0.21419 0.0242,0.36666 c 0.01432,0.21673 -0.03034,0.50906 -0.109517,0.71638 -0.07985,0.2091 -0.125426,0.50803 -0.112538,0.74058 0.01177,0.21438 0.01805,0.47678 0.01331,0.58327 -0.06163,1.38549 -0.0926,3.04846 -0.05809,3.1384 0.06553,0.17078 0.333649,0.13823 0.47073,-0.0575 0.0663,-0.0947 0.120749,-0.29506 0.121012,-0.44532 2.63e-4,-0.15025 0.04636,-0.36123 0.10225,-0.46831 0.06645,-0.1273 0.08011,-0.27393 0.03993,-0.42414 -0.08441,-0.31559 -0.0036,-0.7815 0.212375,-1.22099 0.09965,-0.20282 0.221406,-0.51649 0.269852,-0.69702 0.109271,-0.40722 0.512761,-1.28886 0.673422,-1.47088 0.0658,-0.0746 0.204843,-0.13553 0.309183,-0.13553 h 0.189985 l -0.0484,1.3656 c -0.02663,0.75091 -0.07257,1.40384 -0.101648,1.45091 -0.0291,0.047 -0.0445,0.39108 -0.03449,0.76479 0.01002,0.37522 -0.01927,0.74948 -0.06534,0.83557 -0.110067,0.20566 -0.02421,0.34739 0.131901,0.21782 0.06433,-0.0534 0.209586,-0.10302 0.32249,-0.11012 0.112906,-0.007 0.260237,-0.0169 0.327941,-0.0223 0.170574,-0.0138 0.303129,-0.33987 0.303129,-0.74603 0,-0.18767 0.04017,-0.43013 0.08955,-0.53849 0.0734,-0.16109 0.06456,-0.24342 -0.0484,-0.45319 -0.131939,-0.24496 -0.132087,-0.30051 -0.0055,-1.22038 0.118651,-0.86186 0.159462,-2.03529 0.07564,-2.17093 -0.01734,-0.028 0.01726,-0.22079 0.07624,-0.42838 0.198688,-0.69939 0.300161,-1.39228 0.246255,-1.67962 -0.06054,-0.32268 -0.09308,-0.33749 -0.350325,-0.15732 -0.100837,0.0707 -0.325425,0.13163 -0.499165,0.13553 -0.296106,0.006 -0.335656,0.0361 -0.629253,0.4665 -0.209407,0.30699 -0.427044,0.51942 -0.65648,0.64075 -0.188751,0.0999 -0.454241,0.30263 -0.589927,0.45076 -0.266001,0.29041 -0.472911,0.34427 -0.549992,0.1434 -0.06596,-0.17189 0.241194,-1.0628 0.525789,-1.52534 0.139685,-0.22701 0.223539,-0.45873 0.20935,-0.57782 l -0.0236,-0.19846 -0.374526,0.32492 c -0.20606,0.17876 -0.484868,0.37681 -0.619573,0.44048 -0.134704,0.0637 -0.336718,0.17439 -0.448948,0.24564 -0.191727,0.12174 -0.217005,0.1211 -0.415671,-0.009 -0.181851,-0.11915 -0.205587,-0.17623 -0.168205,-0.4066 0.0239,-0.14732 0.151975,-0.39133 0.284374,-0.54212 0.356735,-0.4063 0.292795,-0.5361 -0.24807,-0.5034 l -0.43866,0.0266 -0.159736,-0.33157 c -0.08808,-0.1823 -0.160339,-0.37745 -0.160339,-0.43322 0,-0.0558 -0.123865,-0.23838 -0.275298,-0.40599 -0.151432,-0.16762 -0.36925,-0.48986 -0.484041,-0.71638 -0.204252,-0.40304 -0.215363,-0.41131 -0.518529,-0.38966 -0.170383,0.0121 -0.44143,0.0732 -0.602027,0.13554 -0.411136,0.15967 -0.900852,0.14235 -1.179245,-0.0411 -0.197235,-0.12999 -0.311642,-0.14562 -0.758734,-0.10408 -0.424451,0.0394 -0.522083,0.0284 -0.503403,-0.0575 0.01661,-0.0762 -0.05418,-0.12146 -0.147025,-0.12949 z m -0.101047,0.22327 c 0.03509,0 0.07019,0.005 0.09681,0.0157 0.05325,0.0215 0.0097,0.0393 -0.09681,0.0393 -0.106474,0 -0.150052,-0.0178 -0.09681,-0.0393 0.02662,-0.0108 0.06172,-0.0157 0.09681,-0.0157 z m -18.880021,0.42838 c 0.185428,0.0449 0.345346,0.2265 0.609891,0.57722 0.31592,0.41882 0.787697,1.59899 1.048556,2.62228 0.435924,1.71009 0.432275,1.89185 -0.04054,2.24777 -0.28293,0.21298 -0.631301,0.38723 -0.774465,0.38723 -0.143165,0 -0.309331,-0.17425 -0.369082,-0.38723 -0.624399,-2.2255 -0.984402,-3.09005 -1.469066,-3.52865 -0.780591,-0.70644 -0.717261,-1.16759 0.229316,-1.67418 0.368705,-0.19733 0.57996,-0.28936 0.76539,-0.24444 z m 95.180636,0.007 c 0.24943,0.0744 0.49759,0.37977 0.84949,0.94751 0.74692,1.20507 0.77354,4.26162 0.0738,8.5409 -0.24182,1.47882 -0.46788,3.17677 -0.5022,3.77311 -0.0343,0.59633 -0.26744,1.3979 -0.51792,1.78127 -0.25047,0.38335 -0.64201,0.69702 -0.87006,0.69702 -0.47825,0 -0.38607,-2.82199 0.22508,-6.91393 0.40583,-2.71729 0.25843,-6.8413 -0.26683,-7.4742 -0.2596,-0.3128 -0.22169,-0.53948 0.15247,-0.91362 0.3563,-0.35631 0.60671,-0.51253 0.85615,-0.43806 z m -41.75701,0.14339 c -0.0639,-6.2e-4 -0.13476,-2.6e-4 -0.21238,6.1e-4 -1.1958,0.0135 -1.65425,0.13746 -1.94887,0.527 -0.32568,0.43062 -0.71577,1.61438 -0.71577,2.17153 0,0.23399 -0.0681,0.55855 -0.15127,0.72122 -0.0831,0.16266 -0.18715,0.46803 -0.23113,0.67886 -0.044,0.21085 -0.19725,0.54036 -0.34124,0.73212 -0.2921,0.38896 -0.32518,0.58542 -0.1307,0.77991 0.18265,0.18265 0.22695,0.17386 1.09454,-0.20692 0.53657,-0.23551 1.01685,-0.35649 1.58342,-0.39934 0.63442,-0.048 0.91924,-0.12876 1.29723,-0.36848 0.58062,-0.36822 1.15113,-1.11814 1.1502,-1.51201 -0.001,-0.55985 -0.22483,-1.11328 -0.49977,-1.23855 -0.14721,-0.0671 -0.28788,-0.10176 -0.31281,-0.0769 -0.0249,0.025 0.009,0.2857 0.0769,0.57964 0.11802,0.51572 0.11201,0.54342 -0.17909,0.79382 -0.21593,0.18573 -0.43517,0.25957 -0.77144,0.25957 -0.87557,0 -1.19017,-0.83131 -0.55484,-1.46664 0.27291,-0.27291 0.12301,-0.33413 -0.43503,-0.17789 -0.93766,0.26253 -1.09239,-0.0911 -0.36061,-0.82287 0.61563,-0.61562 1.19911,-0.78511 1.8321,-0.53184 0.51995,0.20805 0.74922,0.10006 0.5028,-0.23718 -0.1131,-0.15479 -0.24497,-0.20132 -0.69218,-0.20572 z m -20.4937,0.46952 c 0.52076,0.006 0.81984,0.26527 0.81984,0.73998 0,0.30364 -0.34673,0.44652 -1.08425,0.44652 -1.283358,0 -1.522049,-0.80738 -0.327327,-1.10723 0.21998,-0.0553 0.418147,-0.0814 0.591737,-0.0793 z m -35.884997,1.51202 c 0.422019,0.0547 0.90869,0.24438 1.167749,0.53064 0.628981,0.69502 1.315139,3.22511 1.057025,3.89774 -0.348587,0.90839 -1.455151,0.58725 -1.455151,-0.42233 0,-0.28698 -0.348509,-1.17741 -0.774465,-1.97851 -0.425956,-0.80112 -0.774466,-1.58845 -0.774466,-1.74981 0,-0.25263 0.357286,-0.3325 0.779308,-0.27773 z m 95.549707,0.31584 c 0.10375,0.004 0.22788,0.0499 0.36062,0.13191 0.13023,0.0804 0.23974,0.13491 0.26681,0.13432 0.2914,0.61984 0.17096,1.79134 -0.33579,2.32944 -0.15243,0.16187 -0.2726,0.51038 -0.26742,0.77447 0.007,0.39527 0.0649,0.38455 0.3249,-0.0617 0.62238,-1.06855 0.9648,-0.57597 0.81683,1.17502 -0.0798,0.94435 -0.2157,1.78761 -0.30193,1.87384 -0.0863,0.0863 -0.53001,0.0631 -0.98623,-0.0515 -0.53878,-0.13523 -0.76909,-0.35771 -0.65648,-0.6347 0.52603,-1.29394 0.5103,-1.47316 -0.0678,-0.76539 -0.69244,0.84783 -1.57745,0.71337 -1.83693,-0.27893 -0.0392,-0.15015 -0.10627,-0.25777 -0.17729,-0.33822 0.0142,0.0121 0.0267,0.0258 0.0363,0.0411 0.0659,0.1045 0.11042,0.0654 0.26925,-0.23536 0.1046,-0.19809 0.28821,-0.48482 0.4078,-0.63713 0.11959,-0.15229 0.29197,-0.46546 0.383,-0.69641 0.091,-0.23096 0.19358,-0.45525 0.22811,-0.49795 0.0999,-0.1235 0.50429,-0.90339 0.62259,-1.20042 0.17087,-0.42906 0.61657,-1.00359 0.81743,-1.054 0.0297,-0.007 0.0616,-0.0105 0.0962,-0.008 z m -25.35165,0.16882 c 0.004,0.002 0.009,0.009 0.0151,0.0224 0.0215,0.0533 0.0215,0.14037 0,0.19362 -0.0215,0.0533 -0.0393,0.009 -0.0393,-0.0968 0,-0.0798 0.0105,-0.12441 0.0242,-0.1192 z m 33.27298,0.11919 c 0.52013,0 1.18391,1.1251 0.91786,1.55559 -0.31378,0.50772 -1.0389,0.33934 -1.39342,-0.3231 -0.3776,-0.70554 -0.17416,-1.23249 0.47556,-1.23249 z m -130.955498,0.4314 c 0.221255,-0.0266 0.443286,-0.0234 0.658903,0.0115 0.287488,0.0466 0.563759,0.14935 0.811374,0.3116 1.007793,0.66034 0.992629,1.414 -0.02844,1.414 -1.036495,0 -1.688094,1.51035 -1.688094,3.91287 0,1.43122 0.17516,2.03697 0.928152,3.2104 0.510462,0.7955 1.01757,2.0973 1.126603,2.89275 0.179796,1.31178 0.139285,1.44608 -0.430796,1.44608 -0.645975,0 -1.004386,-0.55128 -1.004386,-1.5447 0,-0.3107 -0.470119,-1.12837 -1.044924,-1.81636 -2.025217,-2.42403 -2.590221,-6.94098 -1.104218,-8.83012 0.455313,-0.57885 1.112062,-0.92828 1.775825,-1.00802 z m 92.702938,0.26622 c -0.0833,-0.002 -0.16358,0.0413 -0.2523,0.12162 -0.17805,0.16113 -0.18793,0.38067 -0.0314,0.68068 0.0636,0.122 0.11557,0.30219 0.11557,0.40055 0,0.0984 0.0878,0.28305 0.19483,0.41023 0.107,0.12716 0.2442,0.37306 0.30555,0.54696 0.1125,0.31886 0.17221,0.41137 0.48344,0.75087 0.094,0.10238 0.21945,0.18635 0.27893,0.18635 0.0981,0 0.60021,-0.15012 0.6595,-0.19725 0.0135,-0.0108 -0.0586,-0.18853 -0.16034,-0.3951 -0.10165,-0.20656 -0.23152,-0.52389 -0.28861,-0.70488 -0.0571,-0.181 -0.31599,-0.65148 -0.5754,-1.04552 -0.34626,-0.52597 -0.54634,-0.74967 -0.72969,-0.75451 z m -50.818255,0.54152 c 0.170382,0 0.309786,0.13941 0.309786,0.30979 0,0.17038 -0.139404,0.30979 -0.309786,0.30979 -0.170383,0 -0.309787,-0.13941 -0.309787,-0.30979 0,-0.17038 0.139404,-0.30979 0.309787,-0.30979 z m 94.058865,0 c 1.2089,0 1.85834,0.4968 2.39116,1.82847 0.52721,1.3176 0.74015,4.67055 0.37634,5.92406 -0.34927,1.20341 -1.08961,2.73535 -1.42066,2.93994 -0.16583,0.1025 -0.30131,0.66618 -0.30131,1.25246 0,0.9102 -0.10584,1.0661 -0.72304,1.0661 -1.39473,0 -1.4593,-0.64867 -0.38057,-3.82029 0.6995,-2.05674 0.90027,-3.40439 0.82408,-5.53986 -0.0166,-0.46433 -0.45754,-1.32768 -0.98382,-1.92709 -1.04469,-1.18983 -0.97702,-1.72379 0.21782,-1.72379 z m -39.03852,0.13916 c 0.006,-0.003 0.0132,0.008 0.0206,0.0363 0.0197,0.0754 0.0182,0.17991 -0.003,0.23233 -0.0212,0.0524 -0.0372,-0.008 -0.0357,-0.13674 9.8e-4,-0.0798 0.008,-0.1265 0.0181,-0.1319 z m -72.887512,0.17063 c 0.690817,0 0.796072,0.28844 0.946301,2.59022 0.101638,1.55727 0.03556,2.05658 -0.271668,2.05658 -0.255756,0 -0.463055,-0.54399 -0.560883,-1.47149 -0.08536,-0.80931 -0.254409,-1.85485 -0.375736,-2.3234 -0.170681,-0.65914 -0.111344,-0.85191 0.261986,-0.85191 z m 2.460744,0.25533 c 0.124819,-0.0161 0.274932,0.12929 0.410829,0.48344 0.09059,0.23608 0.121111,1.03764 0.06777,1.78127 -0.104284,1.45365 -0.340403,1.10121 -0.703069,-1.04856 -0.120229,-0.71266 0.01644,-1.18929 0.224474,-1.21615 z m 115.317338,0.0544 c 0.89094,0 1.20453,0.18295 1.72682,1.0068 0.57134,0.90122 0.621,1.34263 0.47557,4.21176 -0.1213,2.39316 -0.32316,3.51419 -0.79746,4.42414 -0.44331,0.85051 -0.6353,1.80546 -0.6353,3.16079 0,1.09748 -0.16143,2.10424 -0.3715,2.31432 -0.20446,0.20446 -0.49228,0.3715 -0.63955,0.3715 -0.3928,0 -0.0853,-6.14134 0.37998,-7.58976 0.94081,-2.92858 0.56689,-6.34783 -0.74905,-6.85282 -0.92923,-0.35657 -0.52657,-1.04673 0.61049,-1.04673 z m -122.806059,0.0508 c 0.57987,0.0963 0.563844,0.66603 -0.140371,1.50295 -0.449752,0.5345 -0.818032,1.28206 -0.818032,1.66087 0,0.37879 -0.167042,0.85618 -0.371501,1.06065 -0.74552,0.74552 -1.17743,0.3457 -1.17743,-1.08969 0,-1.44236 0.782647,-2.82686 1.732263,-3.06521 0.322382,-0.0809 0.581782,-0.10165 0.775071,-0.0696 z m 23.806352,0.25896 c 0.180438,0 0.327936,0.1394 0.327936,0.30979 0,0.17037 -0.0616,0.30978 -0.136739,0.30978 -0.07514,0 -0.222637,-0.13941 -0.32794,-0.30978 -0.105297,-0.17039 -0.0437,-0.30979 0.136743,-0.30979 z m -37.731609,0.39692 c 0.331182,-0.0352 0.667459,-0.0226 1.003778,0.0405 1.796156,0.33696 2.325816,1.73105 0.657692,1.73105 -2.278962,0 -3.638561,1.83337 -2.982905,4.02178 0.20681,0.69026 0.787725,1.72397 1.29118,2.29737 0.595354,0.67808 0.915444,1.38057 0.915444,2.00878 0,1.25234 -0.842925,1.30559 -1.270003,0.0805 -0.169674,-0.48671 -0.643903,-1.06444 -1.053998,-1.28391 -1.045347,-0.55946 -1.801932,-2.30713 -1.950688,-4.50703 -0.112465,-1.6632 -0.0362,-1.98092 0.674027,-2.82499 0.773613,-0.91939 1.721919,-1.45839 2.715473,-1.56406 z m 124.327166,0.0115 c 0.54937,0.1798 0.51474,1.54168 -0.0829,3.29087 -0.57435,1.681 -1.30078,2.43842 -1.30571,1.36076 -0.005,-1.12546 1.07784,-4.75333 1.3886,-4.65163 z m -107.192112,0.52095 c 0.608445,0 0.96238,2.00438 0.523976,2.96657 -0.586329,1.28685 -0.97474,0.84533 -0.97474,-1.10785 0,-1.41994 0.106502,-1.85872 0.450764,-1.85872 z m -8.66252,0.35879 c 1.265988,0.14453 1.376857,0.99469 0.193616,1.48479 -1.911831,0.79192 -2.501137,4.11899 -1.12721,6.36575 1.312032,2.14559 1.464766,2.70865 1.317801,4.85978 -0.08483,1.24162 -0.0096,2.20367 0.187565,2.40084 0.232151,0.23215 0.219347,0.43834 -0.04296,0.70065 -0.204459,0.20447 -0.371501,0.60128 -0.371501,0.88157 0,0.28028 -0.264809,0.74937 -0.588715,1.04249 -0.568363,0.51437 -0.596686,0.4867 -0.809559,-0.80351 -0.121315,-0.73527 -0.347936,-1.49501 -0.503403,-1.68808 -0.182715,-0.22693 -0.115497,-0.41522 0.189986,-0.53245 0.932494,-0.35783 0.594155,-3.02787 -0.7666,-6.04992 -1.309624,-2.90849 -1.574241,-4.8695 -0.913021,-6.76628 0.393713,-1.12942 1.951072,-2.04209 3.233999,-1.89563 z m 119.812272,0.0285 c 0.21297,0.071 0.3754,0.36162 0.36121,0.64559 -0.0142,0.28398 -0.049,1.00402 -0.0774,1.60036 -0.0851,1.78663 -0.67099,1.22283 -0.67099,-0.64559 0,-1.24602 0.10827,-1.69335 0.38723,-1.60036 z m -34.80499,0.12646 c -0.0293,0.002 -0.046,0.0149 -0.046,0.0405 0,0.11378 0.15548,0.38702 0.36,0.63289 0.19456,0.23388 0.23175,0.5108 0.10165,0.75389 -0.11998,0.22419 -0.36253,0.1817 -0.64015,-0.11254 -0.44716,-0.47395 -0.7314,-0.53984 -1.08425,-0.25109 -0.25181,0.20607 -0.20302,0.27852 0.29467,0.43745 0.53193,0.16988 1.63743,0.84355 1.71471,1.04493 0.11109,0.28946 0.15783,0.0557 0.12282,-0.61353 -0.0343,-0.65533 -0.0211,-0.7519 0.12767,-0.96082 l 0.16518,-0.23235 -0.33883,-0.29768 c -0.28487,-0.24996 -0.65039,-0.44908 -0.7775,-0.44168 z m 32.723,0.10588 c 0.39411,0 0.44247,0.32488 0.28861,1.93617 -0.10165,1.06489 -0.24094,2.11041 -0.30918,2.3234 -0.13882,0.43325 -0.95127,0.52472 -1.19256,0.13431 -0.0859,-0.13905 0.0389,-0.80122 0.27772,-1.47147 0.23879,-0.67027 0.44089,-1.60194 0.44835,-2.0705 0.008,-0.5519 0.18026,-0.85191 0.48706,-0.85191 z m -2.94478,5.96883 c 0.65312,0.0506 1.38346,0.27855 1.58946,0.60325 0.3637,0.57319 0.32029,4.20248 -0.0587,4.91059 -0.52977,0.98988 -1.17405,0.68608 -1.9997,-0.94327 -0.78573,-1.55056 -1.08458,-3.59671 -0.63227,-4.32854 0.0754,-0.12192 0.25841,-0.19641 0.49613,-0.23053 0.1783,-0.0256 0.38735,-0.0284 0.60505,-0.0115 z m 5.87868,0.80896 v 1.54953 c 0,0.85214 -0.10589,1.61474 -0.23537,1.69476 -0.12947,0.08 -0.69594,-0.0479 -1.25851,-0.28437 -0.93255,-0.39212 -1.01436,-0.53371 -0.92633,-1.59916 0.0914,-1.10652 0.15853,-1.17351 1.25851,-1.26455 z m 5.24096,0.35153 c 0.0829,-0.003 0.19124,0.0697 0.34911,0.21843 0.24569,0.23145 0.41056,1.19075 0.42595,2.47829 0.0225,1.88114 -0.04,2.10786 -0.59476,2.1685 -0.93116,0.10175 -2.01361,-0.80552 -2.01361,-1.68749 0,-0.42317 0.33516,-1.16735 0.74481,-1.65421 0.40967,-0.48684 0.81045,-1.06465 0.89064,-1.28392 0.0575,-0.15701 0.11501,-0.23641 0.19786,-0.2396 z m -131.6374,0.30556 c 0.52927,0 2.172135,2.00856 2.172135,2.65557 0,0.10428 0.27975,0.54525 0.621388,0.97958 0.474258,0.60292 0.538359,0.88875 0.271667,1.2101 -0.450197,0.54245 -0.868297,0.53576 -1.080622,-0.0175 -0.09256,-0.24121 -0.715547,-0.81741 -1.384357,-1.28089 -1.100327,-0.76253 -1.216153,-0.97184 -1.216153,-2.19513 0,-1.14253 0.09561,-1.35168 0.615942,-1.35168 z m 8.081067,1.29844 c 0.183161,0.0611 0.333382,0.24352 0.333382,0.40538 0,0.16187 -0.150221,0.34434 -0.333382,0.40539 -0.183161,0.061 -0.332779,-0.12142 -0.332779,-0.40539 0,-0.28397 0.149618,-0.46644 0.332779,-0.40538 z m 4.014518,0.10709 c 0.173213,-0.0839 0.372809,0.0155 0.479199,0.35638 0.09643,0.30896 0.294362,0.78713 0.439872,1.06307 0.159171,0.30186 0.106051,0.96342 -0.133716,1.66087 l -0.39873,1.15928 -1.050367,-0.97474 -1.050371,-0.97414 0.697019,-0.49191 c 0.383361,-0.27045 0.697019,-0.74528 0.697019,-1.0552 0,-0.39246 0.146854,-0.65966 0.320075,-0.74361 z m -16.428963,0.1434 c 0.170383,0 0.309786,0.2091 0.309786,0.46467 0,0.25558 -0.139403,0.46469 -0.309786,0.46469 -0.170382,0 -0.309787,-0.20911 -0.309787,-0.46469 0,-0.25557 0.139405,-0.46467 0.309787,-0.46467 z m 13.57312,1.85871 c 0.128648,0 0.489871,0.43332 0.802901,0.96324 0.313033,0.52992 1.485314,1.93538 2.605352,3.12267 1.742066,1.84669 1.981589,2.23322 1.657237,2.67615 -0.20854,0.28477 -0.619133,0.90055 -0.912417,1.36802 -0.293287,0.46747 -0.67751,0.85098 -0.854335,0.85191 -0.313953,0.002 -5.099978,-5.0538 -5.099978,-5.38737 0,-0.4171 1.592252,-3.59462 1.80124,-3.59462 z m -11.538935,0.15671 c 0.513024,0.0455 1.063322,0.15255 1.639689,0.3237 1.708549,0.50739 2.107603,1.10795 1.608224,2.42142 -0.320523,0.84303 -0.790778,0.95209 -2.184234,0.50582 -0.425956,-0.13641 -1.715442,-0.26195 -2.865524,-0.27893 -2.315101,-0.0342 -2.456928,-0.20109 -1.502947,-1.76554 0.562612,-0.92262 1.765717,-1.34279 3.304792,-1.20647 z m 121.053833,0.0526 c 0.21524,-0.0245 0.35962,0.11519 0.58569,0.34125 0.51982,0.51983 0.54949,0.6986 0.20814,1.2452 -0.21924,0.35106 -0.73481,0.79163 -1.14597,0.97897 -0.54436,0.24802 -0.70243,0.51335 -0.58145,0.97595 0.12461,0.47652 0.0484,0.59034 -0.30434,0.455 -0.25862,-0.0992 -0.84052,0.0791 -1.29361,0.3963 -0.45308,0.3172 -1.13773,0.74033 -1.52109,0.94086 -0.64386,0.3368 -0.69619,0.29905 -0.68795,-0.49796 0.007,-0.67721 0.51544,-1.31891 2.36394,-2.98229 1.46181,-1.31543 2.01792,-1.81242 2.37664,-1.85328 z m 5.93434,0.002 c 0.10461,0.0462 0.15853,0.14099 0.15853,0.28256 0,0.23962 -0.27881,0.43564 -0.61957,0.43564 -0.34077,0 -0.61958,-0.12298 -0.61958,-0.27348 0,-0.15051 0.27881,-0.34653 0.61958,-0.43564 0.20134,-0.0526 0.35649,-0.0553 0.46104,-0.009 z m 2.19271,0.7182 c 0.11337,0 0.89605,0.24395 1.73952,0.54212 1.3062,0.46175 1.67152,0.78282 2.46316,2.16488 0.51121,0.89245 0.84434,1.75983 0.74059,1.92769 -0.17584,0.2845 -0.18978,9.20033 -0.0254,16.27589 0.062,2.66891 -0.24985,7.85792 -0.89366,14.86973 -0.0938,1.0223 -0.3156,5.5409 -0.49312,10.04144 -0.17753,4.50053 -0.37663,8.61296 -0.44229,9.13869 -0.0657,0.52575 -0.21777,2.37351 -0.33822,4.10589 -0.19835,2.85277 -0.28096,3.16638 -0.87552,3.32596 -0.95004,0.25499 -1.16672,0.22456 -2.27257,-0.32067 -1.11853,-0.5515 -1.50936,-1.36346 -1.06005,-2.203 0.39409,-0.73637 0.90326,-5.67932 1.12479,-10.92238 0.20862,-4.93728 0.59147,-9.77187 1.31236,-16.57357 0.34821,-3.28532 0.52947,-7.67239 0.53729,-13.01103 0.0105,-6.98383 -0.079,-8.54857 -0.66738,-11.77188 -0.77754,-4.25928 -1.15012,-7.58976 -0.84949,-7.58976 z m -3.43851,0.98139 c 0.6929,-0.0804 1.10914,0.13786 1.89079,0.99107 0.55127,0.60175 0.85598,1.1428 0.67766,1.20225 -0.22456,0.0749 -0.22096,0.43678 0.0109,1.17742 0.73762,2.35629 1.12006,7.18068 1.07941,13.61547 -0.0383,6.06185 -0.27511,11.89081 -0.53849,13.2585 -0.0566,0.29419 -0.19372,1.92679 -0.30435,3.62848 -0.11064,1.70172 -0.32878,3.86096 -0.48525,4.79807 -0.15647,0.9371 -0.25498,1.91293 -0.21842,2.1685 0.0366,0.25557 -0.0677,0.46467 -0.23174,0.46467 -0.164,0 -0.31594,-1.04552 -0.33762,-2.32339 -0.0217,-1.27787 -0.14641,-3.25172 -0.27712,-4.38662 -0.14554,-1.26377 -0.11237,-2.46434 0.0853,-3.09787 0.43258,-1.38624 1.09638,-12.33989 0.9826,-16.21416 -0.05,-1.70382 -0.10491,-3.73 -0.12222,-4.5028 -0.0245,-1.09696 -0.14546,-1.40553 -0.5518,-1.40553 -0.10397,0 -0.18137,0.0285 -0.24626,0.0866 0.0606,-0.068 0.0686,-0.11972 0.0291,-0.193 -0.0301,-0.0556 -0.0834,-0.35819 -0.11799,-0.67221 -0.0744,-0.67501 -0.18013,-0.97802 -0.36727,-1.04916 -0.26849,-0.10207 -0.29148,0.0301 -0.12706,0.73514 0.0591,0.25327 0.10387,0.60524 0.0999,0.78232 -0.004,0.17709 0.0212,0.5561 0.0557,0.84224 0.0345,0.28613 0.0882,1.05178 0.1198,1.7014 0.0496,1.01866 0.0464,1.21357 -0.0254,1.41703 -0.12722,0.36059 -0.094,0.99517 0.0756,1.44063 0.025,0.0657 0.0568,0.12112 0.0793,0.14158 -0.0326,1.33509 -0.0978,2.71759 -0.21479,3.7737 -0.18868,1.70383 -0.36202,5.04953 -0.38481,7.43487 -0.0286,2.98966 -0.19335,4.81822 -0.53063,5.88594 -1.55696,4.92894 -1.79719,5.83647 -1.7849,6.74452 0.0128,0.94008 0.0453,0.90935 0.54212,-0.50462 0.29071,-0.82749 0.66822,-1.52452 0.83861,-1.54893 0.33257,-0.0477 0.6139,7.81156 0.32188,8.99167 -0.0914,0.36928 -0.63596,0.96176 -1.2101,1.31659 -0.54196,0.33495 -1.16924,0.52687 -1.7371,0.59295 l -0.12403,0.0908 -0.61959,-0.0387 -2.1685,-0.42596 -0.98018,-0.31765 c -0.0719,-0.0119 -0.13872,-0.02 -0.23052,-0.0478 -0.0762,-0.023 -0.11222,-0.0598 -0.18938,-0.0884 l -0.0327,-0.0109 0.001,-0.004 c -0.29063,-0.11069 -0.61107,-0.23801 -0.71639,-0.3352 -0.13779,-0.12716 -0.0426,-1.74982 0.21177,-3.6055 0.3601,-2.62678 0.42875,-5.46618 0.30918,-12.82225 -0.15996,-9.84066 -0.50676,-15.53567 -1.00257,-16.57539 0.0327,0.0492 0.0742,0.1435 0.10892,0.25292 0.11536,0.36404 0.12799,0.17949 0.017,-0.24686 -0.11152,-0.42818 -0.10618,-0.49027 0.0769,-0.87732 0.0875,-0.18503 0.19643,-0.47147 0.24202,-0.63713 0.0455,-0.16565 0.13075,-0.43697 0.18938,-0.60262 0.0895,-0.25311 0.094,-0.30393 0.0278,-0.31947 -0.0433,-0.0105 -0.11358,0.0264 -0.1561,0.0817 -0.1729,0.22517 -0.45541,0.89868 -0.54394,1.29663 -0.0519,0.233 -0.12234,0.45456 -0.15671,0.49191 -0.25311,0.27493 -0.30919,0.42068 -0.30919,0.80713 0,0.30731 0.0242,0.42492 0.11316,0.55 0.15953,0.22406 0.21494,0.19867 0.21963,-0.10102 0.003,-0.20876 0.0245,-0.40746 0.0532,-0.54576 -0.13603,0.97675 -0.1627,5.27773 -0.0811,13.29903 0.11708,11.50579 0.0598,14.54452 -0.31464,16.69156 -0.25175,1.44369 -0.45802,2.85076 -0.45802,3.1269 0,0.54065 2.56795,2.06769 3.01376,1.79216 0.14778,-0.0913 0.43596,-0.0624 0.64075,0.0641 0.28228,0.17445 0.2973,0.82477 0.0612,2.68764 -0.28379,2.23837 -0.2606,2.49844 0.26321,2.92421 0.40963,0.33296 0.51785,0.69048 0.37634,1.24217 -0.12244,0.47734 -0.43127,0.78645 -0.80532,0.80532 -1.99871,0.1007 -5.55663,-0.62975 -6.3464,-1.30267 -0.38117,-0.32478 -0.43073,-0.81149 -0.25653,-2.50854 0.11888,-1.15812 0.30512,-7.26354 0.41385,-13.56768 0.10873,-6.30414 0.24431,-11.69909 0.30131,-11.98909 0.0571,-0.29 -0.0556,-0.58115 -0.25049,-0.6468 -0.25975,-0.0875 -0.25263,-0.24293 0.0266,-0.58146 0.20952,-0.25397 0.51739,-1.35687 0.68432,-2.45106 0.16692,-1.09419 0.49472,-2.7687 0.72848,-3.72107 0.42011,-1.71159 0.2521,-3.07003 -0.37997,-3.07003 -0.17051,0 -0.23455,-0.19822 -0.14158,-0.44047 0.093,-0.24226 0.007,-0.74314 -0.19059,-1.11329 -0.3018,-0.56394 -0.2526,-0.78781 0.30556,-1.38195 l 0.66616,-0.70911 -0.62078,-1.15868 -0.62079,-1.15807 0.67827,-0.92089 c 0.37305,-0.50655 1.58532,-1.58228 2.69429,-2.38994 1.10897,-0.80767 2.47443,-1.92626 3.03433,-2.48616 0.55991,-0.55991 1.09329,-0.94333 1.1847,-0.85192 0.0914,0.0914 -0.005,1.25826 -0.2148,2.59326 -0.44146,2.81555 -0.59126,20.54873 -0.17365,20.54936 0.0535,7e-5 0.0612,0.0434 0.0726,0.0822 l 0.70851,-0.22145 c 0.0986,-4.09061 0.14498,-8.03066 0.0665,-10.85765 -0.18738,-6.75489 -0.18097,-6.84549 0.6825,-10.22295 1.0615,-4.15213 1.63076,-5.2295 2.83587,-5.36922 z m -126.349847,1.86478 c 2.955486,0.18819 2.979163,0.51078 0.176071,2.40327 -2.499619,1.68757 -2.688655,1.95235 -3.431853,4.81862 -0.45927,1.77128 -0.763837,6.18751 -1.304489,18.89696 -0.386192,9.07847 -0.356304,16.91186 0.06656,17.3426 0.164286,0.16735 1.327403,0.35583 2.584176,0.4193 2.125165,0.10731 2.316749,0.0648 2.743907,-0.61353 0.301861,-0.47941 0.528765,-2.00391 0.661322,-4.44713 0.110922,-2.04458 0.410536,-5.88937 0.666161,-8.54393 0.357733,-3.71496 0.385564,-5.17747 0.120405,-6.35061 -0.319866,-1.4152 -0.367044,-10.93173 -0.05869,-11.82453 0.3923,-1.13582 0.535697,0.14637 0.572983,5.11209 0.02348,3.127 0.186659,5.86361 0.378159,6.34578 0.247591,0.62338 0.22165,2.14014 -0.09862,5.73104 -0.239548,2.68581 -0.533328,6.76533 -0.652246,9.06548 -0.118918,2.30016 -0.243253,4.37577 -0.276509,4.61232 -0.08581,0.6103 -1.033908,1.23412 -2.212066,1.45514 -0.554935,0.10407 -1.083971,0.38437 -1.175618,0.62321 -0.314776,0.82029 -2.653645,0.50448 -5.108447,-0.68976 l -2.289515,-1.1133 0.191197,-3.14082 c 0.678929,-11.14882 0.873773,-17.5957 0.71275,-23.58672 -0.136487,-5.07818 -0.279243,-7.65307 -0.425351,-7.97639 0.03754,0.0172 0.07108,0.13344 0.08048,0.34791 0.0063,0.14428 0.02384,0.17882 0.04659,0.0908 0.0393,-0.15216 -0.163004,-1.3863 -0.300711,-1.8333 -0.118305,-0.38403 -0.213168,-0.48807 -0.344879,-0.37876 -0.08102,0.0673 -0.105918,0.36328 -0.105884,1.25971 5.2e-5,1.37021 0.138034,3.98778 0.216608,4.1083 0.09004,0.13811 0.166836,-1.40181 0.119196,-2.3948 -0.0014,-0.0278 -0.0034,-0.0547 -0.0049,-0.0822 0.01966,0.0972 0.02543,-0.1411 0.03993,-0.84708 0.01698,-0.82658 0.0036,-1.20112 -0.05869,-1.34805 0.05244,0.1104 0.07904,0.34893 0.08652,1.10482 0.0055,0.54892 0.01887,0.93365 0.03206,0.95841 -0.203589,2.38787 -0.411415,9.02242 -0.617152,20.15667 -0.097,5.24925 -0.315783,6.50551 -1.132656,6.50551 -1.06878,0 -1.546512,-0.86009 -1.546512,-2.78445 0,-0.99591 0.147398,-1.85983 0.327333,-1.91982 0.227675,-0.0759 0.220346,-0.5785 -0.0242,-1.6524 -0.313781,-1.37791 -0.214241,-6.69872 0.185751,-9.9071 0.06373,-0.51114 -0.03639,-2.46281 -0.22266,-4.33701 -0.333989,-3.36056 -0.324894,-3.45903 0.649221,-7.12509 1.438844,-5.41506 1.250295,-5.13968 4.321276,-6.32097 1.464401,-0.5633 3.061105,-1.30363 3.548021,-1.64513 0.722223,-0.50654 1.250186,-0.59775 2.864919,-0.49493 z m 3.810614,1.49085 c 0.130724,0 0.481866,1.15008 0.780516,2.55574 0.298646,1.40564 0.670114,2.79776 0.825293,3.09362 0.155171,0.29586 0.281951,0.74892 0.281951,1.00681 0,0.72566 -0.913082,0.55331 -1.208287,-0.22811 -0.575224,-1.52263 -1.093636,-6.42806 -0.679473,-6.42806 z m 6.720306,0.1797 c 0.471318,-0.008 1.018097,0.70743 1.881106,2.14249 1.387858,2.30779 2.748979,3.63752 3.509297,3.42821 0.255573,-0.0703 0.900923,-0.21559 1.433973,-0.32249 0.945603,-0.18964 0.97367,-0.16181 1.164117,1.13871 0.10736,0.73312 0.268719,2.16935 0.358191,3.19165 0.08948,1.02229 0.300028,2.69514 0.46831,3.71743 1.01464,6.16382 1.60438,14.77504 1.07094,15.63816 -0.102998,0.16665 -0.244043,4.56072 -0.313416,9.76432 -0.06938,5.2036 -0.201838,9.58387 -0.29466,9.73407 -0.09282,0.15018 -0.924737,0.77487 -1.848432,1.38798 -1.84278,1.22317 -1.917955,1.2509 -2.188471,0.81319 -0.102397,-0.16568 -0.772668,-0.47252 -1.489635,-0.68189 -0.716972,-0.20938 -1.406207,-0.52682 -1.531385,-0.70549 -0.373943,-0.53376 -0.266943,-2.15698 0.185144,-2.81168 0.343881,-0.49799 0.36688,-1.49955 0.12585,-5.41279 -0.328754,-5.33653 -0.328798,-6.41368 -6.04e-4,-10.22294 0.124776,-1.44825 0.13999,-4.16663 0.03388,-6.04084 -0.106111,-1.8742 -0.212568,-5.01079 -0.236577,-6.97019 -0.04283,-3.49654 -0.223588,-4.95627 -0.613522,-4.95658 -0.107915,-9e-5 -0.196036,2.47434 -0.196036,5.4987 0,3.02438 -0.183304,7.79889 -0.4072,10.61019 -0.337787,4.24126 -0.336787,6.04284 0.0066,10.58235 0.227647,3.009 0.307566,5.88234 0.177282,6.3851 -0.224633,0.86689 -0.343857,0.92506 -2.305247,1.126 -1.617593,0.16573 -2.167141,0.1127 -2.52246,-0.24263 -0.359619,-0.35961 -0.487,-1.81523 -0.6111,-6.9841 -0.154205,-6.42292 -0.0089,-7.49337 0.792012,-5.83269 0.310591,0.64403 0.33666,0.61459 0.338828,-0.38724 0.0014,-0.59633 -0.114183,-1.71157 -0.256542,-2.47829 -1.29776,-6.98955 -1.330814,-7.30356 -1.109057,-10.53273 0.122855,-1.78901 0.315238,-5.69233 0.427164,-8.67402 0.188855,-5.03116 0.256042,-5.49527 0.936017,-6.44864 0.402976,-0.565 1.117523,-2.02875 1.587654,-3.25275 0.560822,-1.46013 0.956605,-2.19227 1.42792,-2.20057 z m 8.53062,0.14944 c 0.31671,0.005 0.612342,0.63789 0.523976,1.39041 -0.05592,0.47617 -0.259422,0.91766 -0.451976,0.98079 -0.419308,0.13747 -0.726911,-1.5911 -0.382391,-2.14854 0.09679,-0.1566 0.204822,-0.22438 0.310391,-0.22266 z m 72.882667,0.8144 c -0.0173,-9.1e-4 -0.036,0.001 -0.0575,0.005 -0.0763,0.0156 -0.10649,0.045 -0.10649,0.10471 0,0.10144 0.1288,0.34965 0.26623,0.51247 0.2138,0.25332 0.24588,0.29915 0.28377,0.40781 0.0215,0.0616 0.029,0.13751 0.017,0.1688 -0.0194,0.0506 0.0637,0.3643 0.32734,1.2331 0.0634,0.20873 0.10449,0.27878 0.19301,0.32915 0.0619,0.0352 0.11402,0.0816 0.11557,0.10281 0.002,0.0213 0.018,0.004 0.0363,-0.0387 0.0541,-0.12595 0.0434,-0.54539 -0.0188,-0.72848 -0.0317,-0.0934 -0.0768,-0.30797 -0.0999,-0.47618 -0.0443,-0.323 -0.0698,-0.37944 -0.27107,-0.59537 -0.0692,-0.0742 -0.14177,-0.20493 -0.16094,-0.29042 -0.0361,-0.16069 -0.18396,-0.41216 -0.36909,-0.62744 -0.0645,-0.0751 -0.10365,-0.10491 -0.15549,-0.1077 z m -20.79259,0.78536 c -0.14296,4.1e-4 -0.31924,0.0432 -0.5397,0.11557 -1.16863,0.38319 -1.83998,0.96585 -1.70988,1.48419 0.0534,0.21253 0.14594,0.2871 0.37029,0.29829 0.24059,0.012 0.25315,0.0241 0.0641,0.0612 -0.12925,0.0253 -0.31786,0.13718 -0.41931,0.24928 -0.15375,0.16989 -0.16236,0.24605 -0.0502,0.4556 0.20616,0.38522 0.99384,1.06777 1.36136,1.17985 0.18072,0.0551 0.3689,0.10471 0.4181,0.11013 0.20607,0.0228 0.832,-0.57685 1.06972,-1.02496 0.24555,-0.46284 0.25119,-0.52343 0.13251,-1.46362 -0.13743,-1.08878 -0.26812,-1.46669 -0.69702,-1.46544 z m -11.81423,0.25715 c -0.13076,0.002 -0.26271,0.0534 -0.43685,0.14339 -0.35576,0.18397 -0.44592,0.36389 -0.44592,0.88944 0,0.31334 0.10293,0.47214 0.62986,0.97412 0.34636,0.32998 0.64697,0.60139 0.66797,0.60264 0.021,0.001 0.19857,-0.0743 0.3951,-0.16761 0.41797,-0.19834 0.60687,-0.55165 0.60687,-1.13629 0,-0.37778 -0.0583,-0.46485 -0.58509,-0.87126 -0.39978,-0.30844 -0.61403,-0.4386 -0.83194,-0.43443 z m 77.63233,0.62018 c 0.11305,-0.009 0.20214,0.002 0.23899,0.0393 0.0737,0.0737 0.007,1.92145 -0.14764,4.10649 -0.38816,5.47742 -0.87079,5.66286 -0.92391,0.35455 -0.0358,-3.58619 0.0314,-4.24741 0.44774,-4.40719 0.1347,-0.0517 0.27175,-0.0834 0.38482,-0.0932 z m -71.08447,0.67705 -1.93556,0.002 c -1.31805,0.001 -2.01991,0.0446 -2.19936,0.13674 -0.21089,0.10827 -0.30411,0.31001 -0.46831,1.00862 -0.22904,0.97444 -0.4166,1.32611 -0.79806,1.49993 -0.45339,0.20657 -0.44964,0.87482 0.007,1.33171 0.24993,0.24992 0.34022,0.26209 2.36998,0.32794 1.16057,0.0376 2.43041,0.1243 2.82196,0.1924 0.39156,0.0681 0.95852,0.15992 1.25973,0.2039 0.57279,0.0836 2.10339,0.0234 2.57388,-0.10102 0.23863,-0.0632 0.27348,-0.13289 0.27348,-0.54514 0,-0.35955 -0.0525,-0.50245 -0.21903,-0.59477 -0.39283,-0.21783 -1.5844,-1.05938 -1.84782,-1.3051 -0.14145,-0.13194 -0.3614,-0.43731 -0.48889,-0.67827 -0.26881,-0.50807 -0.47923,-0.75982 -0.98441,-1.17742 z m -44.586227,0.27166 c 0.268548,-0.0159 0.496049,0.18141 0.749659,0.58751 0.290028,0.46441 0.380034,2.65204 0.351533,8.51913 -0.03529,7.26873 -0.284663,9.63933 -0.707909,6.7324 -0.09303,-0.63893 -0.457814,-3.18305 -0.810769,-5.6536 -0.352958,-2.47054 -0.781811,-5.45344 -0.952955,-6.62894 -0.29166,-2.00328 -0.267928,-2.18296 0.373317,-2.86552 0.418896,-0.4459 0.728578,-0.67509 0.997124,-0.69098 z m -29.812092,2.10316 c 0.01627,0.006 0.02034,0.0694 0.03268,0.089 -0.02196,-0.0409 -0.0485,-0.0612 -0.08229,-0.0612 -0.05737,0 -0.06582,0.0831 -0.02541,0.25171 0.01798,0.075 0.031,0.14686 0.04053,0.22024 -0.125738,-0.24335 -0.1059,-0.55365 0.03449,-0.49978 z m -0.01876,0.89124 c -0.002,0.0677 -0.0058,0.1399 -0.01149,0.22084 -0.0045,0.0652 0.0026,0.23122 0.01573,0.42535 -0.01543,-0.093 -0.03102,-0.15815 -0.04538,-0.17607 -0.05505,-0.0686 -0.04943,-0.19091 0.01815,-0.3957 0.0086,-0.0264 0.01628,-0.0508 0.023,-0.0744 z m 136.128699,0.11981 c -0.0325,0.43783 -0.0382,0.9874 0.004,2.10376 9.7e-4,0.0256 -0.001,0.0682 -6.1e-4,0.0944 -2.3e-4,-0.0138 -3.6e-4,-0.0254 -6e-4,-0.0393 -0.0182,-1.07596 -0.022,-1.73361 -0.003,-2.15882 z M 33.588282,146.268 c -0.01714,0.0425 -0.03421,0.15724 -0.05143,0.2638 5.66e-4,-0.005 0.0013,-0.009 0.0018,-0.0145 0.01242,-0.11417 0.02994,-0.19642 0.04961,-0.24928 z m 103.915158,1.869 c 0.27567,0 0.41509,0.1394 0.30978,0.30978 -0.10534,0.17038 -0.2447,0.30979 -0.30978,0.30979 -0.0651,0 -0.20449,-0.13941 -0.30979,-0.30979 -0.10534,-0.17038 0.0341,-0.30978 0.30979,-0.30978 z m -11.77008,14.86672 c -0.0911,-0.004 -0.22313,0.16006 -0.37875,0.50643 -0.42964,0.95619 -0.80365,1.23683 -2.00998,1.50718 -0.9457,0.21193 -2.51358,-0.13779 -3.47663,-0.77568 -0.83468,-0.55288 -1.02851,-0.5686 -1.3305,-0.10769 -0.46508,0.70977 -1.21362,5.25749 -0.9699,5.89258 0.0794,0.20694 0.17682,0.22695 0.50159,0.10344 0.22155,-0.0843 1.02363,-0.15308 1.78308,-0.15308 0.91079,0 1.60637,-0.0866 2.04266,-0.25472 1.76064,-0.67876 3.71198,-3.58669 3.94916,-5.88473 0.0559,-0.54178 0.006,-0.8278 -0.11073,-0.83376 z m -60.404687,1.21737 c 0.266534,0.30681 0.43736,2.91596 0.532445,8.01329 0.07719,4.13805 0.02701,7.59404 -0.111935,7.67992 -0.313854,0.19397 -0.483406,-0.61573 -0.750262,-3.58675 -0.114779,-1.27786 -0.297596,-3.22952 -0.406594,-4.337 -0.175225,-1.78038 0.101891,-6.20679 0.464072,-7.40947 0.05335,-0.17718 0.103842,-0.29425 0.151869,-0.35093 0.04203,-0.0496 0.08233,-0.0529 0.120405,-0.009 z m -1.630613,11.91527 c 0.06572,-0.0531 0.13801,0.114 0.269248,0.45984 0.153019,0.40322 0.36771,2.99581 0.476779,5.7613 0.136963,3.47275 0.09474,5.09184 -0.136739,5.23491 -0.184342,0.11392 -0.449763,0.0306 -0.589322,-0.18515 -0.33136,-0.51228 -0.532124,-8.93862 -0.24807,-10.40871 0.103514,-0.53573 0.16238,-0.80902 0.228104,-0.86219 z m 105.86099,5.73044 c 0.27237,0.017 0.25796,1.48071 0,6.41596 -0.29524,5.64846 -0.37633,6.21288 -0.96626,6.70942 -0.47969,0.40374 -1.19938,0.54212 -2.82015,0.54212 h -2.17637 l 0.19665,-1.43699 c 0.10834,-0.7905 0.19724,-2.03563 0.19724,-2.76629 v -1.32809 l 1.69475,-0.21178 c 0.93201,-0.11644 1.81712,-0.37052 1.96703,-0.56451 0.1499,-0.19398 0.57805,-1.88033 0.95174,-3.74769 0.37369,-1.86735 0.74321,-3.45929 0.82106,-3.53713 0.0507,-0.0507 0.0954,-0.0775 0.13431,-0.0751 z m -2.60837,2.65617 c 0.12203,0.0128 0.13735,0.14663 0.13735,0.41144 0,0.31258 -0.17426,0.79165 -0.38723,1.06428 -0.21298,0.27265 -0.97971,0.58983 -1.70382,0.70549 -1.26396,0.2019 -1.3166,0.1785 -1.3166,-0.59113 0,-0.65278 0.14646,-0.80169 0.78958,-0.80169 0.43442,0 1.20115,-0.21261 1.70384,-0.47255 0.42585,-0.22022 0.65485,-0.32861 0.77688,-0.31584 z m -117.656473,3.03456 c 0.651933,-0.0966 1.563411,0.62542 1.732868,1.4727 0.182646,0.91324 0.260787,0.96411 1.173801,0.76358 0.83762,-0.18397 0.949886,-0.13946 0.77749,0.30978 -0.11077,0.28867 -0.201482,0.58342 -0.201482,0.65468 0,0.21684 -3.599597,0.14445 -3.820899,-0.0769 -0.311843,-0.31184 -0.247466,-2.82929 0.07745,-3.03009 0.07962,-0.0493 0.167644,-0.08 0.260775,-0.0939 z m 61.093243,13.09756 c 0.17074,0.0394 0.31947,0.15537 0.31947,0.31886 0,0.0751 -0.21721,0.13674 -0.48283,0.13674 -0.26565,0 -0.39563,-0.14146 -0.28862,-0.31462 0.0884,-0.14306 0.28125,-0.18043 0.45198,-0.14098 z m -3.05611,2.67916 c 4.13678,-0.24656 5.52418,1.52771 3.96005,5.06368 -0.63311,1.43126 -0.63705,1.51678 -0.11555,2.59507 0.84836,1.75416 1.31688,4.12253 1.00196,5.0673 -0.20392,0.61175 -0.53518,0.86866 -1.26093,0.97777 -3.81306,0.57322 -3.80448,0.5776 -3.2812,-1.50053 0.19448,-0.77233 0.24693,-1.65119 0.11618,-1.95251 -0.13076,-0.30131 -0.25156,-0.74472 -0.26804,-0.98562 -0.0557,-0.81441 -0.64561,-0.6472 -1.34624,0.38178 -0.47514,0.69783 -0.69702,1.4809 -0.69702,2.45893 v 1.43458 l -1.0667,-0.0683 c -0.58676,-0.0375 -1.16801,-0.16907 -1.29118,-0.29224 -0.12317,-0.12318 -0.49647,-0.22386 -0.83013,-0.22386 -0.71061,0 -0.63926,-0.64481 0.45802,-4.13493 0.5652,-1.79772 0.82075,-2.19417 1.67539,-2.60172 0.96502,-0.46019 0.98782,-0.51217 0.53607,-1.20163 -0.39949,-0.60972 -0.41444,-0.97143 -0.0986,-2.35426 0.56418,-2.47036 0.64084,-2.55214 2.50794,-2.66344 z m 6.0856,1.86659 c 0.069,0.19784 0.11687,0.35573 0.11738,0.42353 5.1e-4,0.0631 0.006,0.0659 0.04,0.017 0.0288,-0.0422 0.0342,-0.0157 0.0188,0.0968 -0.0117,0.0852 -0.008,0.12548 0.007,0.0895 0.0246,-0.0545 0.037,0.14079 0.0375,0.38663 -0.0212,-0.31246 -0.10428,-0.64851 -0.22145,-1.01346 z m 0.21843,1.19195 c -0.004,0.17344 -0.0108,0.34787 -0.0266,0.46831 -0.0149,0.11288 -0.0465,0.25043 -0.0866,0.39994 0.0751,-0.29828 0.11659,-0.58343 0.11314,-0.86825 z m -13.32263,8.89667 c -0.0389,0.22249 -0.0666,0.42453 -0.0611,0.56694 -10e-6,-0.005 0,-0.008 0,-0.0133 0,-0.13843 0.0209,-0.32198 0.0611,-0.55363 z m 13.65541,1.1853 c -0.003,0.008 -0.004,0.0204 -0.007,0.0285 -0.0472,0.12779 -0.0874,0.25325 -0.0889,0.27893 -10e-4,0.0257 -0.0144,0.0393 -0.029,0.0303 -0.003,-0.002 -0.007,-4.8e-4 -0.0121,0.002 0.0639,-0.10914 0.0992,-0.22468 0.13735,-0.33943 z m -0.21661,0.45802 c -0.0198,0.0425 -0.0349,0.0851 -0.0303,0.10471 0.0152,0.064 -0.0798,0.18725 -0.12948,0.1682 -0.0254,-0.009 -0.0523,0.008 -0.0726,0.0369 0.0863,-0.10745 0.16882,-0.21379 0.23234,-0.30979 z m -0.23658,0.31524 c -0.0196,0.0312 -0.0311,0.0738 -0.0248,0.11375 0.004,0.025 -0.0108,0.0567 -0.0327,0.0702 -0.0219,0.0135 -0.04,0.002 -0.04,-0.0243 0,-0.0113 -0.002,-0.0185 -0.005,-0.023 0.0429,-0.0512 0.064,-0.0892 0.10228,-0.13674 z m -0.16942,0.20511 c -0.0105,0.0227 -0.0197,0.0479 -0.0248,0.0744 -0.0201,0.10439 -0.0327,0.12127 -0.1028,0.1319 -0.0838,0.0127 -0.15176,0.0662 -0.12949,0.10228 0.0114,0.0183 1.4e-4,0.0458 -0.0248,0.0612 -0.0284,0.0175 -0.0348,0.0116 -0.0175,-0.0163 0.0152,-0.0246 0.0105,-0.0448 -0.0109,-0.0448 -0.0105,0 -0.0232,0.004 -0.0345,0.0115 0.1191,-0.10449 0.24429,-0.20547 0.34487,-0.32007 z m -10.42987,0.50885 c 0.17774,0.0909 0.37366,0.18437 0.66374,0.29345 -0.0429,-0.008 -0.0799,-0.0105 -0.10165,-0.002 -0.0385,0.0147 -0.0541,0.008 -0.0393,-0.0151 0.014,-0.0228 -0.0942,-0.0875 -0.25412,-0.15187 -0.0792,-0.0318 -0.17604,-0.0772 -0.26865,-0.12463 z m 9.55678,0.20814 c -0.0477,0.0311 -0.0947,0.0657 -0.13915,0.0926 -0.11714,0.071 -0.22578,0.14801 -0.24142,0.17183 -0.0156,0.0238 -0.0287,0.032 -0.0291,0.0175 -1.7e-4,-0.007 -0.0447,0.004 -0.11193,0.0291 0.18934,-0.0921 0.35278,-0.2035 0.52155,-0.31099 z m -8.68551,0.16033 c 0.20857,0.0752 0.49921,0.16664 0.76115,0.25231 -0.2781,-0.0847 -0.50932,-0.14312 -0.55845,-0.13371 -0.0671,0.0129 -0.0981,0.001 -0.0981,-0.0358 0,-0.0239 -0.0472,-0.0539 -0.10471,-0.0829 z m 7.97519,0.2269 c -0.0172,0.007 -0.028,0.011 -0.046,0.0188 -0.12324,0.0535 -0.2562,0.10376 -0.39268,0.15248 0.14918,-0.0544 0.29841,-0.10861 0.43866,-0.17123 z m -5.16714,0.55604 c 0.24303,0.0385 0.48671,0.066 0.7303,0.0871 -0.13957,7.7e-4 -0.17715,0.009 -0.12283,0.0338 0.0521,0.0231 -0.0165,0.0314 -0.20996,0.026 -0.18949,-0.005 -0.29256,-0.0244 -0.30313,-0.0563 -0.008,-0.0267 0.016,-0.0496 0.055,-0.0515 0.0262,-0.001 -0.0461,-0.0182 -0.14944,-0.0393 z m 3.0071,0.0339 c -0.13668,0.019 -0.27197,0.0352 -0.40296,0.046 -0.008,7.5e-4 -0.0234,0.001 -0.0327,0.002 0.14659,-0.0134 0.29203,-0.0282 0.43563,-0.0478 z m -2.11284,0.0726 c 0.28027,0.0199 0.55631,0.0187 0.83316,0.0163 -0.47355,0.014 -0.90311,0.0154 -0.84525,-0.007 0.008,-0.003 0.009,-0.006 0.0121,-0.009 z" /></g></svg>
