<?xml version="1.0" encoding="UTF-8" standalone="no"?>
<!-- Created with Inkscape (http://www.inkscape.org/) -->

<svg
   width="167.75471mm"
   height="167.75471mm"
   viewBox="0 0 167.75471 167.75471"
   version="1.1"
   id="svg1"
   xml:space="preserve"
   xmlns="http://www.w3.org/2000/svg"
   xmlns:svg="http://www.w3.org/2000/svg"><defs
     id="defs1" /><g
     id="layer1"
     transform="translate(-23.845364,-76.137505)"><g
       id="g453"
       transform="matrix(1.1783343,0,0,1.1783343,-25.96632,-35.940261)"><path
         id="path453"
         style="stroke-width:1.5875;paint-order:stroke fill markers"
         d="m 66.267717,234.87054 a 0.46772167,0.549573 0 0 1 -0.467722,0.54958 0.46772167,0.549573 0 0 1 -0.467721,-0.54958 0.46772167,0.549573 0 0 1 0.467721,-0.54957 0.46772167,0.549573 0 0 1 0.467722,0.54957 z m 1.379785,1.19269 a 0.61973119,0.43264255 0 0 1 -0.619731,0.43264 0.61973119,0.43264255 0 0 1 -0.619731,-0.43264 0.61973119,0.43264255 0 0 1 0.619731,-0.43264 0.61973119,0.43264255 0 0 1 0.619731,0.43264 z m 40.493008,-8.2962 a 0.73081511,0.36833081 0 0 1 -0.73082,0.36833 0.73081511,0.36833081 0 0 1 -0.73081,-0.36833 0.73081511,0.36833081 0 0 1 0.73081,-0.36833 0.73081511,0.36833081 0 0 1 0.73082,0.36833 z m -2.05798,-0.15201 a 0.78928035,0.49695426 0 0 1 -0.78928,0.49696 0.78928035,0.49695426 0 0 1 -0.78928,-0.49696 0.78928035,0.49695426 0 0 1 0.78928,-0.49695 0.78928035,0.49695426 0 0 1 0.78928,0.49695 z m -2.97004,0.14031 a 0.83020598,0.49695426 0 0 1 -0.8302,0.49695 0.83020598,0.49695426 0 0 1 -0.83021,-0.49695 0.83020598,0.49695426 0 0 1 0.83021,-0.49696 0.83020598,0.49695426 0 0 1 0.8302,0.49696 z m -12.096036,6.85105 a 0.69453126,0.51263022 0 0 1 -0.694532,0.51263 0.69453126,0.51263022 0 0 1 -0.694531,-0.51263 0.69453126,0.51263022 0 0 1 0.694531,-0.51263 0.69453126,0.51263022 0 0 1 0.694532,0.51263 z m 3.902606,-0.39688 a 0.46302083,0.64492184 0 0 1 -0.463021,0.64493 0.46302083,0.64492184 0 0 1 -0.46302,-0.64493 0.46302083,0.64492184 0 0 1 0.46302,-0.64492 0.46302083,0.64492184 0 0 1 0.463021,0.64492 z m 1.521358,-1.6371 a 0.72760415,0.46302083 0 0 1 -0.727604,0.46302 0.72760415,0.46302083 0 0 1 -0.727604,-0.46302 0.72760415,0.46302083 0 0 1 0.727604,-0.46302 0.72760415,0.46302083 0 0 1 0.727604,0.46302 z m 3.340359,-3.34036 a 1.2071614,0.95911455 0 0 1 -1.207161,0.95911 1.2071614,0.95911455 0 0 1 -1.207161,-0.95911 1.2071614,0.95911455 0 0 1 1.207161,-0.95911 1.2071614,0.95911455 0 0 1 1.207161,0.95911 z m -34.561192,4.29947 a 0.54570311,0.59531248 0 0 1 -0.545703,0.59531 0.54570311,0.59531248 0 0 1 -0.545704,-0.59531 0.54570311,0.59531248 0 0 1 0.545704,-0.59531 0.54570311,0.59531248 0 0 1 0.545703,0.59531 z m 8.962759,0.89297 a 0.42994791,0.49609375 0 0 1 -0.429948,0.4961 0.42994791,0.49609375 0 0 1 -0.429948,-0.4961 0.42994791,0.49609375 0 0 1 0.429948,-0.49609 0.42994791,0.49609375 0 0 1 0.429948,0.49609 z m -1.653648,1.32293 a 0.36380208,0.26458332 0 0 1 -0.363802,0.26458 0.36380208,0.26458332 0 0 1 -0.363802,-0.26458 0.36380208,0.26458332 0 0 1 0.363802,-0.26459 0.36380208,0.26458332 0 0 1 0.363802,0.26459 z m -1.422136,0.5457 a 0.49609375,0.47955728 0 0 1 -0.496094,0.47955 0.49609375,0.47955728 0 0 1 -0.496094,-0.47955 0.49609375,0.47955728 0 0 1 0.496094,-0.47956 0.49609375,0.47955728 0 0 1 0.496094,0.47956 z m -2.381251,-0.0165 a 0.8764323,0.49609375 0 0 1 -0.876432,0.49609 0.8764323,0.49609375 0 0 1 -0.876432,-0.49609 0.8764323,0.49609375 0 0 1 0.876432,-0.4961 0.8764323,0.49609375 0 0 1 0.876432,0.4961 z m -5.093225,-6.81302 a 0.24804688,0.56223959 0 0 1 -0.248047,0.56224 0.24804688,0.56223959 0 0 1 -0.248047,-0.56224 0.24804688,0.56223959 0 0 1 0.248047,-0.56224 0.24804688,0.56223959 0 0 1 0.248047,0.56224 z m 0.09922,-1.62058 a 0.56223959,0.7606771 0 0 1 -0.562239,0.76068 0.56223959,0.7606771 0 0 1 -0.56224,-0.76068 0.56223959,0.7606771 0 0 1 0.56224,-0.76068 0.56223959,0.7606771 0 0 1 0.562239,0.76068 z m 0.132295,1.60404 a 0.52916664,0.77721351 0 0 1 -0.486862,0.77472 0.52916664,0.77721351 0 0 1 -0.564707,-0.65085 0.52916664,0.77721351 0 0 1 0.396567,-0.87879 0.52916664,0.77721351 0 0 1 0.628117,0.51033 l -0.502282,0.24459 z m 14.122136,-0.5457 a 1.4386718,1.4552083 0 0 1 -1.323654,1.45055 1.4386718,1.4552083 0 0 1 -1.535299,-1.21862 1.4386718,1.4552083 0 0 1 1.078169,-1.6454 1.4386718,1.4552083 0 0 1 1.707691,0.95553 l -1.365579,0.45794 z m -0.694536,1.57096 a 1.0417968,1.372526 0 0 1 -0.958508,1.36814 1.0417968,1.372526 0 0 1 -1.111768,-1.14938 1.0417968,1.372526 0 0 1 0.780743,-1.55191 1.0417968,1.372526 0 0 1 1.236604,0.90123 l -0.988868,0.43192 z m 28.124826,-19.02288 a 3.1337352,2.8531022 0 0 1 -2.8832,2.84397 3.1337352,2.8531022 0 0 1 -3.344209,-2.38924 3.1337352,2.8531022 0 0 1 2.348479,-3.22599 3.1337352,2.8531022 0 0 1 3.71972,1.87341 l -2.97452,0.89785 z M 84.368799,129.45105 a 2.8773437,4.3656249 0 0 1 -2.647309,4.35165 2.8773437,4.3656249 0 0 1 -3.070597,-3.65585 2.8773437,4.3656249 0 0 1 2.156337,-4.9362 2.8773437,4.3656249 0 0 1 3.415384,2.86658 l -2.731159,1.37382 z m 27.368151,96.0233 c -0.0808,-0.0808 -0.147,-0.18618 -0.147,-0.23406 0,-0.0479 -0.14329,-0.22379 -0.31842,-0.39089 -0.17512,-0.16709 -0.38546,-0.46647 -0.46741,-0.66529 -0.0819,-0.19881 -0.26986,-0.49913 -0.41758,-0.66737 -0.38076,-0.43366 -1.33247,-1.9885 -1.48571,-2.42725 -0.11941,-0.34188 -0.61602,-1.09231 -1.18802,-1.79522 -0.13135,-0.16141 -0.23881,-0.39558 -0.23881,-0.52038 0,-0.49046 -0.84372,-1.00779 -1.65577,-1.01524 -0.4861,-0.004 -1.16632,-0.0726 -3.74141,-0.37503 -0.80666,-0.0947 -1.40515,-0.25697 -0.99183,-0.26888 0.11323,-0.003 0.4079,0.0321 0.65481,0.0786 0.65345,0.12299 2.23872,0.28831 3.59742,0.37515 0.95865,0.0613 1.24567,0.11376 1.50775,0.27574 0.54254,0.3353 1.08878,0.23133 1.42679,-0.27158 0.18482,-0.27499 0.65452,-0.53941 0.76389,-0.43005 0.0324,0.0324 -0.0684,0.10333 -0.22397,0.15757 -0.48308,0.1684 -0.65532,0.81124 -0.28531,1.06487 0.21306,0.14605 0.49908,0.5787 0.77741,1.17596 0.0839,0.18007 0.2973,0.54717 0.4742,0.81578 0.17689,0.2686 0.37984,0.65336 0.45099,0.85501 0.0712,0.20166 0.34333,0.77322 0.60485,1.27013 0.26152,0.49692 0.4755,0.97733 0.4755,1.0676 0,0.0903 0.13076,0.34192 0.29057,0.55924 0.26572,0.36132 0.64487,1.19626 0.64487,1.42008 0,0.14524 -0.34512,0.10823 -0.50781,-0.0545 z m -13.437056,6.25077 c 0.194243,-0.34729 0.527798,-0.92542 0.741232,-1.28475 0.527402,-0.88792 0.518954,-1.06854 -0.03289,-0.70307 -0.334648,0.22163 -0.635331,0.23932 -0.795126,0.0468 -0.0934,-0.11254 -0.09104,-0.17103 0.01193,-0.29546 0.208333,-0.25175 0.845,-0.4954 1.30026,-0.49761 0.232937,-0.001 0.517077,-0.0676 0.631427,-0.14768 0.24922,-0.17455 0.26989,-0.0576 0.0442,0.24994 -0.09,0.1227 -0.244822,0.37042 -0.343964,0.5505 -0.09914,0.18007 -0.309618,0.50338 -0.467722,0.71847 -0.158104,0.21508 -0.516041,0.75179 -0.795417,1.19269 -0.279376,0.44089 -0.539266,0.80162 -0.57753,0.80162 -0.03827,0 0.08935,-0.28414 0.283599,-0.63142 z m -30.680896,5.2665 c -0.397324,-0.14638 -1.145222,-0.51979 -1.210963,-0.60461 -0.02572,-0.0332 -0.437028,-0.38894 -0.914006,-0.79056 -1.300146,-1.09473 -1.788274,-1.90021 -2.360226,-3.89472 -0.110654,-0.38587 -0.259935,-0.89101 -0.331735,-1.12253 -0.0718,-0.23152 -0.155209,-0.61992 -0.185353,-0.86311 -0.03014,-0.24318 -0.09447,-0.46666 -0.142947,-0.49662 -0.04848,-0.03 -0.08452,-0.20985 -0.0801,-0.39975 0.0074,-0.31916 0.01368,-0.32665 0.0825,-0.0991 0.04095,0.13541 0.157046,0.32879 0.257984,0.42972 0.136282,0.13628 0.197123,0.36188 0.236334,0.87633 0.112675,1.4782 1.474698,4.79159 1.825469,4.44081 0.03696,-0.037 -0.06929,-0.31359 -0.236122,-0.61475 -0.323906,-0.5847 -0.366792,-0.74787 -0.196567,-0.74787 0.125232,0 1.577046,1.47175 1.577046,1.5987 0,0.0475 -0.105566,0.17812 -0.234593,0.29031 l -0.23459,0.20397 0.257977,0.27499 c 0.141888,0.15125 0.468453,0.44349 0.725699,0.64944 l 0.467722,0.37444 0.04722,-0.26938 c 0.04214,-0.24036 0.08942,-0.27244 0.439076,-0.29788 0.709882,-0.0516 1.264364,0.45001 0.799938,0.72373 -0.29016,0.17101 0.0541,0.28412 0.865283,0.28429 1.075357,2.2e-4 1.153829,-0.0326 1.187783,-0.49734 0.02823,-0.38642 0.02926,-0.38738 0.480203,-0.45142 0.24855,-0.0353 0.660988,-0.13936 0.91653,-0.23125 0.345033,-0.12408 0.505373,-0.14137 0.622962,-0.0672 0.310139,0.19563 1.255617,-0.24107 1.381648,-0.63815 0.03043,-0.0959 -0.01151,-0.23609 -0.09583,-0.32043 -0.206758,-0.20675 -0.0259,-0.41075 0.364152,-0.41075 0.385183,0 0.946324,-0.36707 1.858412,-1.21568 0.40096,-0.37306 0.745524,-0.66178 0.765699,-0.64161 0.04725,0.0473 -1.684465,1.79926 -2.633827,2.66469 -0.402479,0.3669 -0.87911,0.74146 -1.059182,0.83236 -0.180073,0.0909 -0.391544,0.23869 -0.469932,0.32842 -0.186629,0.21362 -0.648909,0.40202 -1.576245,0.6424 -0.88706,0.22993 -2.646608,0.26299 -3.197421,0.0601 z m 24.046008,-1.26748 c -0.128624,-0.0412 -0.402241,-0.0791 -0.608039,-0.0843 -0.595693,-0.0149 -1.620927,-0.45277 -2.38538,-1.01874 -0.573699,-0.42474 -1.315577,-1.07374 -1.274434,-1.11488 0.02185,-0.0219 0.285977,0.14688 0.58693,0.37497 1.318178,0.99904 2.014146,1.33715 3.316155,1.61104 0.733153,0.15422 1.635771,0.18295 1.715104,0.0546 0.07234,-0.11706 -0.09541,-0.16742 -0.990357,-0.2973 -0.429511,-0.0623 -0.944078,-0.17049 -1.143481,-0.24033 -0.199404,-0.0698 -0.487053,-0.12698 -0.639221,-0.12698 -0.471064,0 -0.242488,-0.22947 0.281911,-0.28301 0.492038,-0.0502 0.739574,-0.18855 0.636358,-0.35556 -0.03182,-0.0515 -0.243354,-0.1834 -0.47008,-0.29316 -0.414269,-0.20054 -1.313209,-0.92766 -1.23883,-1.00204 0.02191,-0.0219 0.310465,0.16502 0.641244,0.41538 0.365284,0.27649 0.782799,0.50082 1.063382,0.57138 0.254082,0.0639 0.614183,0.15576 0.800224,0.20418 0.501285,0.13044 1.2304,0.10675 1.450092,-0.0471 0.395978,-0.27736 0.876223,-1.11322 0.980842,-1.70716 0.100004,-0.56773 0.09699,-0.58282 -0.234797,-1.17612 -0.184856,-0.33055 -0.335169,-0.63906 -0.334023,-0.68556 0.0037,-0.15091 0.378542,0.37088 0.611246,0.85089 0.434361,0.89598 0.245168,1.68011 -0.608177,2.52062 -0.453318,0.4465 -0.487627,0.46201 -1.135586,0.51338 -0.663147,0.0526 -0.666679,0.0543 -0.472149,0.22961 0.262562,0.23665 0.810199,0.15982 1.701482,-0.23871 0.667004,-0.29824 0.677122,-0.29966 0.96366,-0.13521 0.289277,0.16602 0.289796,0.16592 0.501717,-0.0989 0.214331,-0.26784 0.263067,-0.48907 0.226758,-1.02939 -0.01095,-0.16311 0.03068,-0.32785 0.09253,-0.36608 0.06186,-0.0382 0.432004,-0.0772 0.82255,-0.0867 0.487082,-0.0118 0.849342,-0.0788 1.153504,-0.21332 0.526595,-0.23294 0.57535,-0.12972 0.107342,0.22724 -0.288989,0.22043 -0.430861,0.25822 -1.012595,0.26974 -0.372086,0.007 -0.72436,0.043 -0.782833,0.0791 -0.05847,0.0361 -0.132668,0.22209 -0.164875,0.41322 -0.03221,0.19113 -0.07955,0.42364 -0.105212,0.51669 -0.05243,0.19017 -0.971873,1.2485 -1.25994,1.45027 -0.45206,0.31664 -2.164559,0.49948 -2.793027,0.29821 z m 9.735544,-133.46387 c -0.33061,-0.48988 -0.8283,-1.13607 -1.10598,-1.43599 -0.580066,-0.62655 -2.06641,-1.848182 -2.549182,-2.095195 -0.362479,-0.185464 -0.477682,-0.249055 -0.888672,-0.490541 -0.244454,-0.143635 -0.593675,-0.168831 -2.708802,-0.195444 -2.234599,-0.02811 -2.437807,-0.01737 -2.549083,0.13481 -0.114601,0.156729 -0.120914,0.156173 -0.120914,-0.01066 0,-0.24524 0.678283,-1.542643 0.806751,-1.543133 0.05784,-2.21e-4 0.284136,0.06274 0.50287,0.139915 0.218734,0.07717 0.607756,0.140317 0.864492,0.140317 0.613574,0 1.156874,0.188253 2.736963,0.948357 1.876394,0.902641 2.975086,1.709475 4.256267,3.125627 0.53414,0.59042 1.41958,1.90742 1.38368,2.05809 -0.015,0.063 -0.29778,-0.28628 -0.62839,-0.77615 z m -0.024,97.72736 c -0.99969,-0.42073 -1.760305,-1.01326 -1.760305,-1.37132 0,-0.29454 0.200959,-0.27525 0.669655,0.0643 0.21307,0.15435 0.46804,0.28063 0.56661,0.28063 0.0986,0 0.25901,0.0427 0.35656,0.0949 0.0975,0.0522 0.84196,0.10482 1.65426,0.11693 l 1.4769,0.022 0.0287,0.34546 c 0.0209,0.25068 -0.0241,0.39825 -0.16371,0.53788 -0.17179,0.1718 -0.30015,0.19134 -1.19801,0.18235 -0.87848,-0.009 -1.08463,-0.0433 -1.63068,-0.27314 z m -33.078042,36.91616 c -0.264461,-0.0709 -0.29319,-0.13294 -0.113053,-0.24427 0.460793,-0.28479 0.04636,-0.74829 -0.669063,-0.74829 -0.528201,0 -0.656571,0.0629 -0.573008,0.28063 0.166772,0.4346 -0.0953,0.32325 -0.889077,-0.37775 -0.591497,-0.52237 -0.670367,-0.66487 -0.420949,-0.76058 0.327324,-0.12561 0.429024,-0.63901 0.126582,-0.63901 -0.09919,0 -0.372806,-0.27362 -0.608039,-0.60804 -0.405715,-0.57679 -0.895416,-0.87772 -0.895416,-0.55025 0,0.0832 0.123608,0.31475 0.274685,0.51449 0.300413,0.39718 0.401185,1.02564 0.116731,0.72799 -0.751318,-0.78619 -1.781503,-3.69925 -1.726874,-4.8831 0.01021,-0.22129 -0.09557,-0.44613 -0.235061,-0.49966 -0.164513,-0.0631 -0.300122,-0.59353 -0.385966,-1.50962 -0.130382,-1.39136 -0.252834,-1.9191 -1.046629,-4.51068 -0.220622,-0.72029 -0.441322,-1.52009 -0.490445,-1.77734 -0.158514,-0.83015 -0.317412,-1.16275 -2.076135,-4.34572 -1.250206,-2.26265 -2.236173,-4.39809 -3.046851,-6.59897 -0.227412,-0.61739 -0.476748,-1.20672 -0.55408,-1.30962 -0.07733,-0.1029 -0.199234,-0.48175 -0.270899,-0.8419 -0.07166,-0.36014 -0.296288,-1.13593 -0.499163,-1.72396 -0.550233,-1.59485 -1.291272,-4.53456 -1.56977,-6.2273 -0.135435,-0.82319 -0.398328,-2.4228 -0.584206,-3.55469 -0.278794,-1.69769 -0.338727,-3.18797 -0.342347,-8.51253 -0.0039,-5.80097 0.03729,-6.70084 0.407205,-8.88672 0.226375,-1.33768 0.495186,-2.97938 0.597358,-3.64822 0.274227,-1.79517 0.904634,-4.72817 1.427522,-6.64165 0.253069,-0.92609 0.509508,-1.93637 0.569865,-2.24506 0.06036,-0.3087 0.18253,-0.72965 0.271502,-0.93545 0.208476,-0.48222 1.257488,-3.8266 1.596985,-5.0914 0.14401,-0.53649 0.421005,-1.33629 0.615545,-1.77734 0.194543,-0.44104 0.713097,-1.64379 1.152343,-2.67278 1.172247,-2.74614 5.740516,-11.81436 6.267563,-12.4414 0.129734,-0.15435 0.414968,-0.61739 0.63385,-1.02898 0.828661,-1.55825 1.98746,-3.27329 4.108301,-6.08039 1.205019,-1.59493 2.314536,-3.0816 2.465592,-3.30372 1.526058,-2.24392 2.785673,-3.75029 5.078333,-6.07317 1.484815,-1.50439 2.884635,-2.79396 3.110711,-2.86571 0.226079,-0.0718 0.411049,-0.23619 0.411049,-0.36541 0,-0.12922 0.441997,-0.59299 0.982218,-1.0306 0.540218,-0.43762 1.882031,-1.6689 2.981806,-2.73619 1.099775,-1.06729 2.320528,-2.15248 2.712786,-2.41152 0.392256,-0.25905 1.049952,-0.72343 1.461548,-1.03197 0.411594,-0.30853 1.04865,-0.7262 1.415682,-0.92817 0.367028,-0.20196 0.777238,-0.49965 0.911577,-0.66152 0.13434,-0.16187 0.36023,-0.2943 0.501978,-0.2943 0.347777,0 1.046824,-0.71817 0.911762,-0.9367 -0.05938,-0.0961 -0.282638,-0.87177 -0.496122,-1.72375 -0.213482,-0.85197 -0.482598,-1.66592 -0.598028,-1.80876 -0.144412,-0.1787 -0.210632,-1.98778 -0.212288,-5.79975 -0.0019,-4.52252 0.04893,-5.65171 0.277122,-6.148073 l 0.279532,-0.608038 h 2.550663 c 2.039017,0 2.597383,0.05629 2.783567,0.280633 0.128098,0.154348 0.338151,0.280633 0.466786,0.280633 0.315344,0 2.321097,1.618395 3.014282,2.432155 1.71032,2.00783 3.6283,5.81179 3.6283,7.19609 0,0.2463 0.13456,0.58238 0.29903,0.74684 0.32215,0.32216 0.49671,0.30908 3.06857,-0.22987 2.19967,-0.46095 7.82548,-0.40477 10.00924,0.1 2.54811,0.58894 3.45924,0.87534 4.5537,1.43137 1.16984,0.59434 0.81075,0.76239 3.80619,-1.78128 1.949,-1.65505 3.62378,-2.69687 5.39113,-3.35363 0.36014,-0.13383 0.739,-0.30603 0.8419,-0.38266 0.25298,-0.18839 2.23545,-0.52895 3.27405,-0.56242 0.88801,-0.0286 3.91988,0.31894 4.06718,0.46624 0.0475,0.0475 -0.0937,0.60703 -0.31394,1.24333 -0.41872,1.20994 -0.88617,3.29287 -1.13146,5.04173 -0.21474,1.53107 -0.74053,2.9721 -1.46764,4.0224 -1.27511,1.84186 -5.02312,5.99235 -6.78796,7.51689 l -0.67596,0.58393 -0.0993,2.87187 c -0.0836,2.41716 -0.17686,3.10885 -0.58901,4.36858 -0.26933,0.82319 -0.58056,2.00185 -0.69162,2.61925 -0.11107,0.61739 -0.27114,1.45929 -0.35572,1.87088 -0.0846,0.4116 -0.21041,1.08512 -0.27961,1.49671 -0.0692,0.4116 -0.16888,0.87464 -0.2215,1.02899 -0.0526,0.15435 -0.1157,0.65949 -0.14018,1.12253 -0.0245,0.46305 -0.19243,2.14684 -0.37322,3.74177 -0.27456,2.42216 -0.31018,3.85532 -0.2162,8.69963 0.14614,7.53348 0.50754,11.78693 1.20018,14.12519 0.10668,0.36015 0.32203,1.11786 0.47857,1.6838 0.38972,1.40905 1.60623,4.91156 1.78637,5.14324 0.0807,0.10383 0.20528,0.44136 0.27675,0.75005 0.0715,0.3087 0.41101,1.1506 0.75452,1.87089 1.60099,3.3571 2.52819,5.34364 3.05626,6.5481 0.3158,0.72029 1.43374,2.99342 2.48432,5.0514 1.05057,2.05797 2.93622,5.76233 4.19032,8.2319 1.2541,2.46957 2.46249,4.78479 2.68533,5.14494 0.22283,0.36014 0.46427,0.77905 0.53652,0.9309 0.66882,1.40557 4.07038,6.78879 5.50001,8.70416 0.30722,0.4116 0.75748,1.04302 1.00059,1.40317 0.24312,0.36014 0.83243,1.11785 1.30958,1.6838 0.47715,0.56594 1.0372,1.2302 1.24455,1.47613 0.34836,0.41319 0.46955,0.4385 1.59587,0.33332 1.27889,-0.11942 2.44049,-0.61347 4.42075,-1.88023 1.16722,-0.74666 3.6274,-3.46347 4.23744,-4.67946 0.8773,-1.74872 0.89175,-1.85103 1.01524,-7.18864 0.0722,-3.12226 0.0532,-3.06571 1.30518,-3.87753 0.49072,-0.31819 0.97368,-0.46031 1.56429,-0.46031 0.72867,0 0.99128,0.11461 1.78464,0.77885 0.51163,0.42836 1.18383,1.22816 1.49376,1.77734 l 0.56352,0.9985 h 1.12936 c 1.95078,0 2.95087,0.94884 2.95087,2.79967 0,0.82624 0.0753,1.01462 0.58858,1.47327 0.56267,0.50274 0.59552,0.61177 0.74616,2.47629 0.0867,1.07271 0.10983,2.18172 0.0515,2.46446 -0.118,0.57161 -1.23199,1.56042 -2.44778,2.17272 -0.71896,0.36209 -0.79939,0.47895 -1.01349,1.4725 -0.32141,1.49157 -0.99552,2.79744 -1.95748,3.79198 -0.44787,0.46304 -0.97932,1.22075 -1.18099,1.68379 -0.4579,1.05137 -0.87046,3.67507 -0.62676,3.98593 0.0964,0.12297 0.35543,0.76611 0.57563,1.4292 0.42254,1.27242 0.55359,3.63544 0.21327,3.84577 -0.10289,0.0636 -0.18708,0.25949 -0.18708,0.43533 0,0.68081 -0.94743,1.71685 -2.10383,2.30059 l -1.15342,0.58225 -2.72119,-0.11355 c -4.43659,-0.18514 -8.30907,-0.63406 -9.94303,-1.15266 -0.18618,-0.0591 -0.78427,-0.19163 -1.3291,-0.29453 -2.44307,-0.46142 -3.66311,-0.71741 -4.35817,-0.91444 -0.80832,-0.22913 -2.30361,-0.60764 -3.64823,-0.92351 -1.75362,-0.41193 -3.9738,-1.07592 -5.33203,-1.59464 -1.42095,-0.54267 -2.39422,-0.85054 -2.68884,-0.85054 -0.12656,0 -0.5024,0.29722 -0.8352,0.66048 -0.33279,0.36327 -1.35982,1.27207 -2.28229,2.01956 -0.92247,0.7475 -1.92979,1.7403 -2.23848,2.20625 -0.86648,1.30785 -1.81128,2.32723 -2.46964,2.66461 -0.40509,0.20759 -1.0745,0.30682 -2.06974,0.30682 -1.36639,0 -1.50433,-0.0366 -1.93965,-0.51449 -0.25775,-0.28297 -0.6122,-0.74602 -0.78767,-1.02899 -0.35011,-0.56463 -0.81701,-0.64452 -1.78814,-0.30598 -0.56405,0.19663 -0.63764,0.1673 -1.29107,-0.51449 -0.98428,-1.02703 -3.07379,-2.61068 -3.62818,-2.74982 -0.34509,-0.0866 -0.89362,0.10419 -2.07171,0.72064 -1.72332,0.90175 -2.32125,0.9952 -4.26573,0.66671 -0.55912,-0.0945 -2.98048,-0.21808 -5.38079,-0.27473 l -4.36421,-0.103 -0.43657,0.47106 c -0.24012,0.25909 -0.485247,0.39231 -0.544736,0.29605 -0.16184,-0.26186 -1.504889,0.25475 -1.576085,0.60624 -0.07054,0.34829 0.527084,0.41203 0.8486,0.0905 0.114475,-0.11447 0.299122,-0.17761 0.410327,-0.14031 0.111995,0.0376 -0.130802,0.56855 -0.544301,1.19035 -0.41057,0.61739 -0.746757,1.21755 -0.747086,1.33369 -0.0011,0.33317 -1.04195,0.67778 -1.822574,0.60334 -0.692229,-0.066 -0.70971,-0.0527 -0.648547,0.49427 0.03457,0.30917 -0.05982,0.72732 -0.209772,0.92923 -0.237426,0.31971 -0.313322,0.33335 -0.587766,0.10558 -0.184859,-0.15342 -0.367253,-0.18917 -0.441196,-0.0865 -0.06933,0.0963 -0.515194,0.30809 -0.990803,0.47068 -0.72544,0.24799 -0.91957,0.25553 -1.205064,0.0468 -0.303456,-0.22189 -0.256966,-0.24884 0.429221,-0.24884 0.671441,0 0.854593,-0.0994 1.43683,-0.77959 1.05293,-1.23011 0.777142,-2.22022 -1.185995,-4.25789 -0.624768,-0.64848 -1.135943,-1.26275 -1.135943,-1.36504 0,-0.10229 -0.420193,-0.62226 -0.933763,-1.1555 -0.513569,-0.53323 -1.196054,-1.38309 -1.516628,-1.88859 -1.45596,-2.29581 -3.269112,-3.35562 -5.14032,-3.00458 -0.989507,0.18564 -1.792097,1.48159 -1.904934,3.07592 -0.04815,0.6803 0.0057,1.57367 0.119603,1.98527 0.316415,1.14313 1.736717,2.55778 3.389204,3.37571 1.508347,0.74658 2.201793,1.24365 3.769092,2.70171 0.550918,0.51251 1.149001,0.93332 1.329074,0.93512 0.180073,0.002 0.327406,0.12956 0.327406,0.28391 0,0.19689 -0.198708,0.28063 -0.665853,0.28063 -0.403384,0 -0.619527,0.075 -0.548339,0.19015 0.06463,0.10457 0.199576,0.13942 0.299871,0.0774 0.100296,-0.062 0.283906,-0.0306 0.408022,0.0697 0.124116,0.10029 0.762495,0.24333 1.418619,0.31785 0.782444,0.0889 1.104342,0.19085 0.935445,0.29636 -0.395692,0.24717 -2.205834,-0.0298 -3.270271,-0.50036 -0.525132,-0.23216 -1.590437,-0.95481 -2.367346,-1.6059 -0.776909,-0.65109 -1.901053,-1.47846 -2.498098,-1.8386 -0.597043,-0.36015 -1.572609,-1.09681 -2.167927,-1.63703 -0.595318,-0.54022 -1.214292,-0.98221 -1.375503,-0.98221 -0.16121,0 -1.002075,0.54723 -1.868588,1.21607 -0.866513,0.66884 -1.643107,1.21608 -1.725766,1.21608 -0.08266,0 -0.883266,0.6795 -1.779132,1.50999 -1.230863,1.14105 -1.716942,1.48204 -1.98941,1.39556 -0.200668,-0.0637 -0.423725,-0.0122 -0.502981,0.11599 -0.07894,0.12773 -0.04493,0.26292 0.0763,0.30333 0.365194,0.12173 -0.08542,0.7311 -0.698725,0.9449 -0.388535,0.13544 -0.574111,0.13331 -0.620932,-0.007 -0.04462,-0.13385 -0.219016,-0.11534 -0.525552,0.0558 -0.252331,0.14088 -0.711348,0.25819 -1.020046,0.26069 -0.400497,0.003 -0.543404,0.0849 -0.498903,0.28519 0.0343,0.15435 0.0764,0.36482 0.09354,0.46772 0.03333,0.19995 -1.417008,0.30881 -2.007177,0.15066 z m 3.06654,-1.64696 c 0.298034,-0.15412 0.735578,-0.25935 0.972322,-0.23386 0.320956,0.0346 0.445747,-0.0603 0.490615,-0.37295 0.03309,-0.23062 0.205192,-0.52528 0.382436,-0.65481 0.811975,-0.59338 1.150096,-1.35991 1.53933,-3.48973 0.256093,-1.40128 -0.194302,-3.51259 -1.128969,-5.29229 -0.395489,-0.75305 -0.824079,-1.72259 -0.952418,-2.15453 -0.128341,-0.43195 -0.34145,-0.82684 -0.47358,-0.87754 -0.132131,-0.0507 -0.475197,0.21852 -0.762371,0.59826 -0.669544,0.88537 -2.640891,2.83716 -3.299973,3.26723 -0.948219,0.61874 -0.563393,-0.11402 0.819939,-1.56128 1.672079,-1.74935 2.264177,-2.60305 2.890533,-4.16766 0.800841,-2.00046 0.174963,-2.47724 -1.131867,-0.86224 -0.411596,0.50866 -0.895686,0.97319 -1.075761,1.03229 -0.180073,0.0591 -0.327403,0.17765 -0.327403,0.26345 0,0.20719 -1.255506,0.94132 -1.609844,0.94132 -0.153361,0 0.323347,-0.61038 1.059352,-1.3564 1.768967,-1.79303 2.933562,-3.3432 3.546427,-4.72059 1.516846,-3.40905 1.533789,-8.98595 0.03361,-11.06407 -0.572667,-0.79329 -2.280696,-1.0254 -4.448284,-0.60451 -0.60883,0.11823 -1.191151,0.27837 -1.29405,0.35589 -0.1029,0.0775 -0.533131,0.23343 -0.95607,0.34649 -1.420034,0.37958 -3.462948,2.64695 -4.06196,4.50825 -0.846955,2.63173 -1.076904,5.34807 -0.593915,7.01582 0.178797,0.6174 0.387506,1.20672 0.463793,1.30962 0.07629,0.1029 0.198009,0.43452 0.270489,0.73695 0.07248,0.30242 0.296325,0.78093 0.497435,1.06336 0.20111,0.28244 0.352557,0.75062 0.336553,1.0404 -0.03313,0.59984 0.475231,3.55781 0.875662,5.09516 0.24601,0.9445 0.362847,2.66193 0.144232,2.12015 -0.146846,-0.36393 -0.661254,-0.28214 -0.588335,0.0935 0.03502,0.18042 0.230158,0.32741 0.434668,0.32741 0.30054,0 0.389829,0.16011 0.469511,0.8419 0.05411,0.46304 0.274519,1.34703 0.489784,1.96443 0.215267,0.61739 0.497231,1.45229 0.626591,1.85534 0.283459,0.88317 1.532012,2.21975 2.43346,2.60503 0.8796,0.37594 3.224586,0.39395 3.928055,0.0302 z m 5.800555,-4.20991 c 0,-0.1029 -0.08419,-0.18709 -0.187087,-0.18709 -0.102899,0 -0.187089,0.0842 -0.187089,0.18709 0,0.1029 0.08419,0.18709 0.187089,0.18709 0.102897,0 0.187087,-0.0842 0.187087,-0.18709 z m 49.765587,-0.20212 c 1.01249,-0.23208 1.93416,-1.06329 2.35533,-2.12417 0.29639,-0.74656 1.12797,-1.55199 3.39844,-3.29154 1.58337,-1.21312 2.42473,-2.87266 2.20461,-4.34852 -0.38856,-2.60535 -0.86574,-3.32694 -2.18751,-3.30796 -1.50682,0.0217 -2.54888,1.06754 -4.38094,4.3971 -0.56907,1.03421 -1.52736,2.53315 -2.12954,3.33097 -0.89594,1.18702 -1.13045,1.65256 -1.29068,2.56224 -0.2219,1.2597 -0.0352,2.1219 0.57537,2.6566 0.43415,0.38022 0.36767,0.37449 1.45492,0.12528 z m -63.300529,-1.6086 c -0.0537,-0.0537 -0.191514,-0.0396 -0.306256,0.0313 -0.149746,0.0925 -0.140059,0.21165 0.03432,0.42205 0.218882,0.26407 0.249216,0.26098 0.306255,-0.0313 0.03482,-0.17843 0.01937,-0.36835 -0.03432,-0.42205 z m 12.429704,0.22047 c -0.0013,-0.1029 -0.174186,-0.21399 -0.384059,-0.24688 -0.376269,-0.059 -0.506211,0.15344 -0.250394,0.40925 0.181915,0.18192 0.637461,0.0653 0.634453,-0.16237 z m 90.865565,-1.24985 c 0.96133,-0.5909 1.25912,-1.3227 1.24244,-3.05319 -0.0101,-1.0513 -0.11407,-1.68791 -0.34929,-2.13919 -0.28037,-0.5379 -0.32118,-0.97496 -0.25071,-2.6853 l 0.0842,-2.04282 -0.62282,0.10107 c -0.34255,0.0556 -0.62282,0.0293 -0.62282,-0.0584 0,-0.0877 0.42194,-0.49536 0.93765,-0.90597 1.27719,-1.01693 2.33944,-2.32871 3.02523,-3.73593 0.53078,-1.08916 0.56716,-1.29081 0.48938,-2.71279 -0.0735,-1.34448 -0.18557,-1.74198 -0.89795,-3.18555 -0.99305,-2.01237 -1.47053,-2.44374 -2.56911,-2.32105 l -0.79213,0.0885 0.47688,-0.56674 c 0.26228,-0.31171 0.76607,-1.14101 1.11954,-1.8429 0.83744,-1.66293 0.89468,-3.16119 0.16814,-4.40094 -1.02625,-1.75117 -2.19968,-1.12933 -2.41193,1.27814 -0.0664,0.75327 -0.21525,2.11689 -0.33075,3.03026 -0.18698,1.47861 -0.17407,1.72742 0.11775,2.26929 l 0.32775,0.6086 -0.84365,1.09831 c -2.00118,2.60522 -2.81609,5.07404 -2.71462,8.22411 0.0489,1.5174 0.15583,2.22368 0.41657,2.75096 0.50167,1.0145 0.29952,2.77747 -0.49476,4.31485 -0.53613,1.03771 -0.5929,1.30613 -0.58298,2.75651 0.0138,2.02004 0.4981,3.06387 1.55515,3.35201 1.58816,0.43293 2.55684,0.37192 3.52287,-0.22187 z m -64.48582,-0.34979 c 0.47577,-0.25463 0.29526,-0.53976 -0.30143,-0.47614 -0.60756,0.0648 -0.80341,0.27505 -0.45904,0.49283 0.34454,0.2179 0.32118,0.21841 0.76047,-0.0167 z m 5.41385,-0.0842 c -0.009,-0.27985 -0.80364,-0.22578 -0.89928,0.0612 -0.0578,0.17343 0.0661,0.22982 0.41117,0.18708 0.27166,-0.0336 0.49131,-0.14535 0.48811,-0.24825 z m -2.15733,-0.0936 c -0.0636,-0.10289 -0.27904,-0.18708 -0.47877,-0.18708 -0.19972,0 -0.36313,0.0842 -0.36313,0.18708 0,0.1029 0.21544,0.18709 0.47876,0.18709 0.27153,0 0.42871,-0.081 0.36314,-0.18709 z m 9.72861,-1.77732 c 6.71147,-3.47677 7.91515,-4.11862 8.6066,-4.5894 0.41188,-0.28044 1.29587,-0.75844 1.96443,-1.06222 0.88151,-0.40055 1.64361,-0.97181 2.7732,-2.07876 1.50025,-1.47017 2.19356,-1.93468 3.22949,-2.16372 0.65535,-0.1449 1.51266,-0.8434 1.4432,-1.17588 -0.031,-0.14852 -0.54759,-0.46924 -1.14793,-0.71271 -0.60034,-0.24347 -2.02703,-0.96656 -3.17042,-1.60686 -2.00364,-1.12203 -2.09958,-1.15486 -2.65025,-0.90666 -0.37082,0.16714 -1.11606,0.24156 -2.12332,0.21205 -1.30818,-0.0383 -1.74366,-0.13895 -2.77241,-0.64055 l -1.22044,-0.59507 -3.12089,1.54202 c -1.71649,0.8481 -3.24717,1.61944 -3.40152,1.71408 -0.15435,0.0946 -0.63523,0.33688 -1.06864,0.53831 -0.43341,0.20143 -1.35949,0.73059 -2.05798,1.17592 -0.69847,0.44532 -1.52253,0.93334 -1.83123,1.08449 -0.30869,0.15116 -0.75656,0.42006 -0.99525,0.59757 -0.31362,0.23323 -0.55268,0.27762 -0.86192,0.16005 -0.23536,-0.0895 -1.17663,-0.2081 -2.09171,-0.2636 -0.91508,-0.0555 -1.95844,-0.14608 -2.31859,-0.20129 -0.36014,-0.0552 -1.62299,-0.2278 -2.806328,-0.38352 -1.183336,-0.15573 -3.354925,-0.4638 -4.825751,-0.68461 -3.041367,-0.45659 -3.297891,-0.3989 -2.853495,0.64175 0.142196,0.33298 0.293257,1.1221 0.335691,1.7536 0.06936,1.03221 0.03364,1.17864 -0.35368,1.44993 -0.488981,0.3425 -1.707499,0.39521 -2.52754,0.10934 -0.303599,-0.10583 -0.699776,-0.44259 -0.880393,-0.74835 -0.572688,-0.96948 -1.73019,-0.59415 -1.928061,0.62519 -0.100815,0.62125 -0.0631,0.6821 0.647461,1.0446 0.724017,0.36937 2.801779,2.51732 3.064016,3.16752 0.06942,0.17213 0.702871,0.88996 1.407662,1.59518 l 1.281438,1.28221 4.953352,0.0685 c 7.620448,0.10544 12.769478,0.25636 12.889428,0.37781 0.0598,0.0606 0.52969,0.0703 1.04418,0.0215 0.676,-0.064 1.61,-0.438 3.3676,-1.34849 z m -29.179153,-7.29648 c 0.99758,-1.07396 1.210461,-1.21607 1.821646,-1.21607 0.600041,0 0.757851,0.0994 1.186881,0.74772 0.354978,0.53642 0.693746,0.80129 1.198698,0.93726 1.498451,0.40349 1.711309,-0.14235 0.790448,-2.027 -0.577401,-1.18172 -0.916181,-1.60822 -1.917394,-2.41385 -0.66884,-0.53819 -1.34236,-0.98147 -1.496708,-0.98505 -0.568782,-0.0132 -4.103941,1.22365 -4.204308,1.47097 -0.136901,0.33735 0.600099,4.13637 0.864174,4.45456 0.349147,0.42069 0.588965,0.28846 1.756563,-0.96854 z m 16.550663,-5.15598 c 0,-0.0968 -0.12628,-0.17604 -0.28063,-0.17604 -0.28932,0 -0.37169,0.22076 -0.161,0.43145 0.14948,0.14947 0.44163,-0.0195 0.44163,-0.25541 z m -17.960511,-0.76703 c 0.565944,-0.10152 1.425112,-0.22843 1.909265,-0.28202 1.284346,-0.14214 1.371979,-0.37389 0.574186,-1.51853 -0.372949,-0.53509 -0.629523,-1.02146 -0.570167,-1.08082 0.05936,-0.0594 0.501499,0.1925 0.982536,0.55969 1.093232,0.83448 1.636445,0.8494 2.353209,0.0646 0.602978,-0.66017 0.705565,-1.28069 0.271312,-1.64108 -0.274204,-0.22757 -1.2173,-2.92721 -1.2173,-3.48456 0,-0.50845 1.04517,0.40911 1.240065,1.08867 0.097,0.33822 0.308885,0.64048 0.470855,0.67167 0.347541,0.0669 0.606303,-0.5234 0.925806,-2.11212 0.198689,-0.98798 0.242533,-1.06213 0.365752,-0.61863 0.077,0.27715 0.200843,0.95067 0.275204,1.49671 0.119464,0.87728 0.319749,1.26123 0.662768,1.27058 0.05782,0.002 0.297973,-0.25797 0.533667,-0.57676 0.397605,-0.53779 0.411872,-0.64245 0.197683,-1.44994 -0.326469,-1.23077 -1.290055,-3.99347 -1.474708,-4.22813 -0.0852,-0.10828 -0.25182,-0.49153 -0.370263,-0.85168 -0.118446,-0.36014 -0.372097,-0.85855 -0.563668,-1.10756 -0.324583,-0.4219 -0.389173,-0.43583 -0.947944,-0.20438 -0.440217,0.18235 -0.726369,0.51606 -1.076383,1.25531 -0.44477,0.93936 -0.711341,1.26287 -2.057871,2.49743 -0.285766,0.262 -0.898427,1.01019 -1.361472,1.66264 -0.463045,0.65245 -1.101722,1.49046 -1.419283,1.86224 -0.850622,0.99586 -1.151208,1.6314 -1.558494,3.29521 -0.201509,0.82319 -0.494088,1.95298 -0.650168,2.51065 -0.420228,1.50143 -0.522312,1.46392 2.505413,0.92077 z m 31.477231,-1.66056 c 0.92075,-0.49869 1.15611,-0.75467 1.93521,-2.10474 0.48783,-0.84535 1.05018,-1.7202 1.24966,-1.94411 0.532,-0.59714 0.25728,-0.80897 -1.04915,-0.80897 -0.92643,0 -1.22781,-0.0752 -1.47935,-0.36894 -0.17374,-0.20291 -0.83768,-1.5141 -1.47542,-2.91375 -0.85024,-1.86603 -1.31824,-2.66587 -1.75455,-2.99866 -0.85833,-0.65468 -1.36027,-0.60254 -1.48432,0.1542 -0.0548,0.33442 -0.18754,1.15527 -0.29493,1.82411 -0.1074,0.66884 -0.45416,1.94891 -0.77058,2.84459 l -0.57531,1.62851 0.51008,1.36491 c 0.28055,0.7507 0.59437,1.59642 0.69738,1.8794 0.23163,0.63625 0.84598,0.69553 0.96952,0.0935 0.0475,-0.23152 0.17739,-0.8419 0.28861,-1.35639 0.11122,-0.51449 0.22128,-1.8324 0.24458,-2.92867 0.0415,-1.95281 0.19126,-2.44896 0.373,-1.23579 0.0502,0.33538 0.19245,1.10659 0.31602,1.71382 0.22028,1.08249 0.18133,2.89501 -0.0835,3.88659 -0.10484,0.39255 -0.0186,0.64476 0.39995,1.1693 0.2935,0.36783 0.62392,0.66879 0.73427,0.66879 0.11035,1e-5 0.67234,-0.25547 1.24886,-0.56774 z m 9.3081,-0.18061 c 0.92084,-0.92084 0.29803,-1.97495 -2.11313,-3.57649 -1.24163,-0.82471 -1.82339,-0.85529 -2.21252,-0.1163 -0.12127,0.23031 -0.28188,0.46084 -0.35691,0.51229 -0.075,0.0514 -0.44825,0.50331 -0.82939,1.00413 -0.85748,1.12677 -0.71423,1.36339 0.64848,1.07114 0.9495,-0.20363 0.99282,-0.19383 1.84216,0.41699 0.78193,0.56234 1.77365,0.99109 2.41327,1.04332 0.12862,0.0105 0.40224,-0.14928 0.60804,-0.35508 z m -23.38608,-0.74835 c 0,-0.1029 -0.12629,-0.18709 -0.28064,-0.18709 -0.15435,0 -0.28063,0.0842 -0.28063,0.18709 0,0.1029 0.12628,0.18709 0.28063,0.18709 0.15435,0 0.28064,-0.0842 0.28064,-0.18709 z m 71.86115,-0.61447 c 0.6388,-0.42946 0.98294,-1.26998 0.5084,-1.24171 -0.44939,0.0268 -1.92916,1.03305 -1.99095,1.35389 -0.0897,0.46553 0.71366,0.40475 1.48255,-0.11218 z m -113.806,-0.46129 c 0.882967,-0.76348 0.583882,-1.57163 -0.905129,-2.44574 -0.561814,-0.3298 -0.730697,-0.3538 -1.120873,-0.15927 -0.815044,0.40634 -0.725868,1.4244 0.206428,2.3567 0.648306,0.6483 1.26038,0.73183 1.819574,0.24831 z m 113.27791,-1.9393 c 1.08266,-0.85352 1.3512,-1.3243 1.06279,-1.86318 -0.25382,-0.47427 -0.39965,-0.45512 -0.94214,0.12367 -0.24946,0.26615 -0.85347,0.74338 -1.34224,1.0605 -0.97799,0.63454 -1.02461,0.72507 -0.59467,1.15501 0.4448,0.4448 0.74956,0.36493 1.81626,-0.476 z M 61.946848,206.51429 c 0.138432,-0.11489 0.251693,-0.47915 0.251693,-0.80948 0,-0.47402 -0.155062,-0.7252 -0.735777,-1.19188 -0.404678,-0.32521 -0.840386,-0.88057 -0.968241,-1.23414 -0.500149,-1.38315 -1.850667,-0.69144 -1.850667,0.94787 0,0.82817 0.06398,0.94527 0.982215,1.79762 0.833697,0.77389 1.064387,0.89566 1.525651,0.80533 0.298889,-0.0585 0.656696,-0.20043 0.795126,-0.31532 z m 109.974632,-1.6085 c 0.99086,-1.37738 1.32214,-2.37921 1.03578,-3.13239 -0.20588,-0.5415 -0.9999,-0.91966 -1.60967,-0.76661 -0.39632,0.0995 -1.0118,1.10515 -1.0118,1.65326 0,0.15108 -0.34517,0.7082 -0.76704,1.23805 -0.80039,1.00525 -0.8534,1.51767 -0.15701,1.51767 0.21852,0 0.61137,0.16838 0.873,0.37418 0.26163,0.2058 0.53325,0.37418 0.6036,0.37418 0.0703,0 0.53527,-0.56625 1.03314,-1.25834 z m -71.66484,0.53336 c 0.0556,-0.0901 -0.1709,-0.52241 -0.503454,-0.9608 -0.332549,-0.4384 -0.730919,-0.98108 -0.885266,-1.20595 -0.749189,-1.09153 -2.140276,-2.53384 -2.443838,-2.53384 -0.503076,0 -0.586882,0.27401 -0.296484,0.96936 0.472702,1.13188 0.728202,1.92338 0.820021,2.54028 0.110159,0.74013 0.236392,0.82968 1.546124,1.09681 1.349907,0.27533 1.641297,0.29089 1.762897,0.0941 z m -35.663573,-1.26032 c 0.25341,-0.28811 0.414751,-0.69169 0.392737,-0.98241 -0.02056,-0.27139 -0.02466,-0.65544 -0.0092,-0.85345 0.02622,-0.33457 0.06237,-0.32796 0.511455,0.0935 0.401288,0.37664 0.67096,0.45244 1.59013,0.447 0.781664,-0.005 1.199494,-0.0992 1.422069,-0.32174 0.352886,-0.35288 0.553697,-2.15243 0.357119,-3.20027 -0.132479,-0.70618 -1.035092,-1.95556 -1.669814,-2.31132 -0.650431,-0.36457 -1.939192,-0.29696 -2.359967,0.12381 -0.480264,0.48027 -0.818573,1.78104 -0.669663,2.57479 l 0.119025,0.63446 -0.754449,-0.49927 c -0.805201,-0.53285 -2.061662,-0.66502 -2.540915,-0.26728 -0.139729,0.11597 -0.344742,0.63372 -0.455583,1.15057 -0.184037,0.85812 -0.159507,1.02356 0.282527,1.90544 0.597966,1.19297 0.95041,1.59945 1.670582,1.9267 0.752332,0.34186 1.589841,0.17523 2.113893,-0.42058 z m 38.955123,-1.76781 c 0.24029,-0.89239 0.44112,-1.02734 0.97369,-0.65431 0.54717,0.38325 2.35661,0.38818 2.89955,0.008 0.36421,-0.2551 0.42189,-0.25314 0.57447,0.0195 0.38534,0.68858 2.09734,-0.79633 2.09734,-1.81913 0,-0.56515 -0.0563,-0.59124 -1.16494,-0.54017 -0.84445,0.0389 -1.49882,-0.14666 -1.35243,-0.38351 0.059,-0.0955 0.30336,-0.17362 0.54299,-0.17362 0.52118,0 2.15375,-1.07351 3.18301,-2.09301 0.58956,-0.58396 0.70148,-0.79639 0.5479,-1.03987 -0.29552,-0.4685 -0.51272,-0.46839 -1.20912,5.3e-4 -0.54775,0.36889 -1.68298,0.77755 -4.5831,1.64983 -1.66907,0.50201 -6.657278,-0.43953 -9.085989,-1.715 -0.374158,-0.19649 -0.819145,-0.35726 -0.988864,-0.35726 -0.391139,0 -1.043639,1.48083 -1.043639,2.36851 0,0.88809 0.844352,1.74761 1.716178,1.74701 0.530293,-2.6e-4 0.817186,0.2039 1.938128,1.37995 1.283454,1.34655 2.424086,2.06722 3.735696,2.36028 0.802,0.17919 0.99998,0.0561 1.21913,-0.75772 z m -29.576636,-0.10756 c 0.374896,-0.075 0.780873,-0.36355 1.099146,-0.7813 0.465894,-0.6115 0.501613,-0.78358 0.464759,-2.23906 -0.02196,-0.86717 -0.116057,-1.67319 -0.209106,-1.79117 -0.09305,-0.11798 -0.308858,-0.64291 -0.479573,-1.16652 -0.633098,-1.94179 -2.153335,-2.55441 -3.784147,-1.52492 -0.953384,0.60185 -1.547771,2.0561 -1.585881,3.88009 -0.03956,1.89328 0.37229,2.93042 1.390353,3.50128 0.438841,0.24608 2.147441,0.313 3.104449,0.1216 z m 32.010636,-6.62693 c 0.87195,-0.10874 1.78577,-0.32836 2.03073,-0.48804 0.428,-0.27899 0.44178,-0.35707 0.35329,-2.00057 -0.0712,-1.32213 -0.2476,-2.15606 -0.77736,-3.67468 -0.98534,-2.82457 -0.98343,-2.81162 -0.30311,-2.05798 0.92635,1.02619 2.24012,3.94483 2.40968,5.35331 0.0797,0.66211 0.22925,1.28815 0.3323,1.3912 0.22047,0.22047 1.87733,-0.52285 2.02592,-0.90889 0.0518,-0.13463 -0.0734,-0.74235 -0.27829,-1.3505 -0.20487,-0.60814 -0.37249,-1.21537 -0.37249,-1.34939 0,-0.30311 -1.60485,-3.09091 -2.08134,-3.61551 -0.19295,-0.21243 -0.35081,-0.46236 -0.35081,-0.55541 0,-0.093 0.51317,0.33333 1.14039,0.9475 1.14735,1.12349 2.08283,2.70594 2.56799,4.34396 0.14967,0.50535 0.34442,0.79513 0.53438,0.79513 0.46134,0 0.19379,-1.65642 -0.60695,-3.75775 -0.97068,-2.54729 -0.97881,-2.59928 -0.28234,-1.80604 1.28515,1.4637 1.42875,0.71929 0.38443,-1.99277 -1.21508,-3.15551 -3.182,-5.24927 -5.84442,-6.22133 -1.52056,-0.55516 -7.603279,-0.64275 -8.70578,-0.12536 -3.599434,1.68916 -5.585703,4.0771 -6.34248,7.62509 -0.544312,2.5519 -0.111951,5.09684 1.281139,7.541 0.826436,1.44998 1.493406,1.33819 2.270331,-0.38052 0.176006,-0.38936 0.320011,-0.88154 0.320011,-1.09374 0,-0.21219 0.147333,-0.86181 0.327406,-1.44359 l 0.327406,-1.05778 0.09354,2.02906 0.09354,2.02906 0.749845,0.44212 c 0.462978,0.27298 0.844537,0.3836 0.997363,0.28915 0.157601,-0.0974 0.303281,-0.80387 0.401029,-1.94474 0.08443,-0.98546 0.217336,-1.89502 0.295343,-2.02124 0.078,-0.12621 0.210693,-0.4894 0.294863,-0.80708 0.09929,-0.37475 0.125531,-0.0191 0.07472,1.01266 -0.118155,2.39922 0.09727,4.11088 0.555538,4.41399 0.545041,0.3605 0.872801,0.0594 0.962361,-0.88394 0.21607,-2.27591 0.90144,-5.54103 1.23185,-5.86866 0.12675,-0.12568 0.1449,0.0584 0.0553,0.56075 -0.19662,1.10227 -0.28959,4.32889 -0.16068,5.57639 0.10646,1.03032 0.13659,1.08285 0.59024,1.02899 0.51484,-0.0611 0.66827,-0.45288 1.23124,-3.14372 l 0.25442,-1.21608 0.0218,2.16711 c 0.018,1.79121 0.0936,2.41656 0.29178,2.41656 0.0113,0 0.73391,-0.089 1.60585,-0.19772 z m 12.09203,-58.96052 c 0.96608,-0.96607 0.8744,-2.6033 -0.19128,-3.41614 -1.08574,-0.82813 -2.76838,-0.49189 -3.42065,0.68354 -0.55054,0.99213 -0.10826,2.50225 0.90493,3.08977 0.68044,0.39456 2.14905,0.20079 2.707,-0.35717 z m -13.15652,-0.34269 c 1.30572,-0.77039 1.42072,-2.59876 0.23198,-3.68815 -1.08864,-0.99767 -2.61251,-0.67044 -3.47644,0.74653 -0.46306,0.75948 -0.46357,0.9597 -0.005,1.90707 0.65914,1.36135 1.98174,1.78245 3.24933,1.03455 z m -23.729659,-5.23175 c -0.06359,-0.10289 -0.19485,-0.18708 -0.291677,-0.18708 -0.09682,0 -0.176046,0.0842 -0.176046,0.18708 0,0.1029 0.131255,0.18709 0.291677,0.18709 0.16042,0 0.239641,-0.0842 0.176046,-0.18709 z m -0.136419,-5.01631 c 0.04443,-0.13328 -0.119325,-0.22217 -0.409258,-0.22217 -0.501674,0 -0.657791,0.2732 -0.249452,0.43654 0.323456,0.12938 0.570976,0.0488 0.65871,-0.21437 z m 48.538588,-8.64156 c 0.93954,-0.35577 3.14076,-2.07505 3.14076,-2.45312 0,-0.38046 -0.59145,-0.37158 -1.40251,0.0211 -0.93767,0.45391 -2.33927,0.71302 -2.33927,0.43245 0,-0.0981 0.14041,-0.59047 0.31202,-1.09412 0.36384,-1.06779 1.90139,-2.70515 3.50138,-3.72865 1.16218,-0.74344 1.3657,-0.98207 1.08067,-1.26711 -0.14136,-0.14135 -0.58806,-0.0769 -1.53157,0.22083 -0.73261,0.23121 -1.36778,0.38462 -1.4115,0.3409 -0.11709,-0.11709 1.37685,-1.15484 2.64815,-1.83952 1.32083,-0.71136 1.66211,-1.00371 1.49233,-1.27841 -0.32756,-0.53 -3.20006,0.0696 -4.43729,0.92627 -0.89103,0.61695 -1.19016,0.8808 -2.42916,2.14273 -1.18291,1.2048 -2.77971,3.57741 -2.77971,4.13024 0,0.18567 0.38898,1.12135 0.8644,2.0793 l 0.8644,1.74173 h 0.71883 c 0.39537,0 1.164,-0.16856 1.70807,-0.37458 z m -28.18705,-4.016 c 0.40049,-0.95849 0.34421,-3.18726 -0.11892,-4.71029 -0.45794,-1.50593 -1.442021,-3.3899 -2.357514,-4.51329 -1.467684,-1.80099 -4.174757,-3.00665 -4.174757,-1.85933 0,0.27096 0.336163,0.74632 0.91237,1.29015 1.330862,1.25609 1.335905,1.29985 0.133451,1.15853 -1.644647,-0.1933 -1.587643,0.18096 0.320101,2.10162 1.552453,1.56297 2.646137,3.21077 2.779665,4.188 0.04507,0.32987 -0.01881,0.45751 -0.216726,0.43308 -0.757499,-0.0935 -1.971191,-0.70154 -3.005778,-1.50584 -1.696217,-1.31868 -1.633881,-1.2847 -1.888921,-1.02966 -0.178985,0.17899 -0.159136,0.35844 0.09266,0.83769 0.617415,1.17517 1.225637,1.84091 2.444067,2.67519 1.477653,1.01176 1.97612,1.22987 3.199876,1.40013 1.599981,0.22259 1.591891,0.2246 1.880431,-0.46598 z" /></g></g></svg>
